<?xml version="1.0" encoding="UTF-8"?>
<svg viewBox="0 0 255.46 260.58" xmlns="http://www.w3.org/2000/svg">
 <path d="m127.73 257.85c6.369-0.14099 12.593-0.61002 18.913-1.409 6.052-0.76502 12.028-2.398 17.872-4.089 11.873-3.434 22.851-9.045 33.187-15.74 10.293-6.669 19.108-15.175 27.068-24.438 8.026-9.341 13.979-20.053 18.999-31.231 5.086-11.329 7.739-23.59 9.27-35.853 1.511-12.097 0.7-24.614-1.522-36.56-2.27-12.193-6.44-23.753-12.039-34.802-5.556-10.962-13.077-20.933-21.599-29.75-8.571-8.868-18.476-16.175-29.141-22.312-10.623-6.112-22.421-10.172-34.329-12.867-11.717-2.651-23.981-3.456-35.951-2.514-11.946 0.939-24.174 3.26-35.322 7.775-11.49 4.653-22.446 10.343-32.218 18.042-9.651 7.604-18.372 16.322-25.498 26.359-7.179 10.109-13.059 21.114-16.986 32.9-3.831 11.497-6.328 23.625-6.599 35.771-0.136 6.087-0.131 12.209 0.626 18.264 0.76 6.083 1.587 12.311 3.295 18.217 3.398 11.748 7.701 23.597 14.395 33.928 6.64 10.248 14.196 20.015 23.433 28.079 9.221 8.05 19.401 15.222 30.582 20.305 11.025 5.013 22.858 9.023 34.928 10.55 6.225 0.78799 12.362 1.236 18.636 1.375" fill="#d4aaff" fill-rule="evenodd" stroke="#f282f2"/>
 <path d="m252 132.86c-0.143 6.319-0.617 12.497-1.409 18.769-0.772 6.118-2.41 12.098-4.136 18-3.408 11.653-9.04 22.658-15.687 32.769-3.256 4.952-7.061 9.805-11.143 14.103-4.181 4.4-8.449 8.956-13.274 12.668-9.729 7.482-20.019 14.181-31.475 18.735-11.378 4.523-23.424 7.708-35.66 8.681-2.45 0.19501-4.88 0.39902-7.336 0.45502-1.379 0.029999-2.758 0.061981-4.137 0.092987-0.042999 0.001007-0.015999 3.114-0.015999 3.456 6.351-0.14002 12.569-0.591 18.873-1.378 6.077-0.759 12.15-2.404 18.024-4.083 11.824-3.378 22.787-8.898 33.111-15.497 10.273-6.564 19.437-14.859 27.298-24.147 8.041-9.5 14.58-19.944 19.622-31.317 4.863-10.969 8.23-22.742 9.705-34.658 0.687-5.55 0.97299-11.059 1.096-16.646-1.152-0.003006-2.304-0.003006-3.456-0.003006"/>
 <path d="m127.73 8.654c6.297 0.142 12.451 0.61 18.699 1.41 6.125 0.784 12.089 2.406 17.998 4.136 11.676 3.417 22.637 9.027 32.771 15.685 4.982 3.273 9.779 7.037 14.102 11.143 4.386 4.166 8.833 8.377 12.577 13.149s7.552 9.66 10.561 14.944c3.072 5.397 5.922 10.902 8.28 16.655 4.636 11.304 7.766 23.385 8.736 35.59 0.19499 2.45 0.39899 4.88 0.45499 7.336 0.031006 1.379 0.063004 2.758 0.094009 4.137 9.92e-4 0.042999 3.115 0.015991 3.457 0.015991-0.14-6.352-0.591-12.569-1.38-18.874-0.75-5.995-2.364-12.012-4.021-17.809-3.356-11.745-8.868-22.781-15.42-33.04-6.62-10.367-15-19.516-24.308-27.512-9.323-8.01-19.793-14.451-30.992-19.477-11.055-4.961-22.973-8.346-35.002-9.85-5.535-0.692-11.031-0.973-16.606-1.095-9.92e-4 1.152-9.92e-4 2.304-9.92e-4 3.456"/>
 <path d="m3.456 132.86c0.141-6.298 0.61-12.451 1.409-18.7 0.783-6.118 2.409-12.094 4.136-17.998 3.385-11.568 8.918-22.766 15.694-32.711 3.358-4.93 6.981-9.861 11.134-14.16 4.217-4.364 8.49-8.849 13.274-12.603 4.787-3.756 9.695-7.544 14.995-10.563 5.328-3.034 10.801-5.852 16.48-8.181 11.318-4.643 23.443-7.766 35.662-8.738 2.45-0.195 4.879-0.399 7.335-0.455l4.137-0.093c0.042999-9.99e-4 0.015999-3.115 0.015999-3.457-6.352 0.14-12.569 0.59-18.874 1.378-6.077 0.76-12.149 2.404-18.023 4.083-11.776 3.364-22.828 8.927-33.111 15.497-10.305 6.587-19.579 15.026-27.462 24.343-7.961 9.409-14.47 19.862-19.458 31.124-4.857 10.965-8.217 22.718-9.706 34.627-0.692 5.536-0.972 11.032-1.094 16.607h3.456"/>
 <path d="m127.73 257.13c-6.298-0.14099-12.45-0.60901-18.699-1.41-6.125-0.784-12.088-2.405-17.998-4.136-11.723-3.433-22.594-9-32.77-15.686-4.971-3.266-9.79-6.974-14.102-11.07-4.397-4.177-8.824-8.438-12.577-13.221-3.764-4.797-7.641-9.684-10.635-15.015-3.024-5.385-5.858-10.866-8.206-16.586-4.65-11.33-7.765-23.428-8.738-35.66-0.195-2.45-0.399-4.88-0.454-7.336l-0.093-4.137c-1e-3 -0.042999-3.115-0.015991-3.457-0.015991 0.14 6.373 0.596 12.612 1.377 18.939 0.741 5.995 2.366 12.019 4.021 17.814 3.356 11.743 8.867 22.851 15.421 33.111 6.6 10.331 15.032 19.543 24.307 27.512 9.268 7.964 19.86 14.483 30.993 19.478 11.015 4.941 23.024 8.283 35.001 9.778 5.536 0.69098 11.032 0.97198 16.606 1.095 0.002998-1.15 0.002998-2.301 0.002998-3.454"/>
 <g fill-rule="evenodd">
  <path d="m100.15 199.46c3.442-0.020996 6.885-0.044006 10.328-0.065002 2.35-0.014999 5.192-1.743 7.12-3.046 5.223-3.531 9.51-7.6 13.082-12.809 6.676-9.734 8.444-23.015 5.111-34.264-1.769-5.97-5.05-11.238-8.769-16.163-3.42-4.528-8.346-8.833-13.284-11.641-2.605-1.481-5.194-2.966-8.029-3.979-1.459-0.521-2.901-1.099-4.401-1.487-0.444-0.115-3.318-0.577-3.318-0.995v-46.639c0-0.28999-0.124-0.912 0.003006-1.184 1.493-3.182 2.986-6.363 4.479-9.545 0.33-0.704 0.661-1.408 0.991-2.111h-4.743c-0.395 0-4.06-0.283-4.198 0.028999-1.461 3.287-2.921 6.573-4.382 9.86-0.687 1.544-0.789 2.152-0.786 3.807 0.003998 3.045 0.007996 6.09 0.012993 9.135 0.013 8.906 0.025002 17.812 0.038002 26.717 0.005005 3.413 0.010002 6.825 0.014 10.237 9.99e-4 0.91 0.002998 1.821 0.004005 2.731 9.99e-4 0.849 0.112 0.648 1.065 0.822 6.053 1.101 11.582 3.626 16.784 6.862 4.953 3.081 9.809 7.128 13.312 11.835 1.911 2.567 3.622 5.123 5.007 8.016 1.352 2.823 2.191 5.673 2.907 8.711 0.64002 2.718 0.455 5.856 0.334 8.623-0.131 3.002-0.45698 6.092-1.285 8.99-1.624 5.685-4.269 11.094-8.759 15.084-4.378 3.89-9.093 7.492-14.23 10.349-1.45 0.80499-2.843 1.56-4.408 2.12"/>
  <path d="m88.271 119.39c11.534 2.784 23.514 8.154 30.88 17.892 3.665 4.845 6.848 10.143 7.844 16.242 0.96899 5.934 1.067 12.209-0.60101 18.049-1.714 6.004-4.75 11.315-9.338 15.598-4.348 4.056-9.636 7.168-15.06 9.565-0.83 0.366-1.885 1.134-2.812 1.134h-49.359c-0.901 0-2.357-1.028-3.171-1.439-5.592-2.829-10.468-6.566-14.813-11.055-8.109-8.377-12.187-21.596-9.105-32.965 1.58-5.827 4.148-11.328 8.218-15.865 4.188-4.669 8.934-8.496 14.476-11.468 2.546-1.365 5.295-2.657 8.048-3.542 0.708-0.228 7.719-2.07 7.719-2.272v-51.159c0-1.959-1.278-3.782-2.062-5.539-0.8-1.795-1.601-3.59-2.402-5.385h35.856c-1.35 3.127-2.7 6.253-4.049 9.38-0.488 1.131-0.271 2.437-0.271 3.657v23.35c0.002007 8.608 0.002007 17.215 0.002007 25.822" fill="#0fd870"/>
 </g>
 <path d="m129.46 160.36c-0.173-3.051-0.50301-5.953-1.205-8.934-0.743-3.158-2-5.97-3.447-8.865-2.679-5.359-7.137-9.854-11.724-13.585-7.092-5.771-15.641-9.149-24.449-11.24-0.166 0.765-0.333 1.53-0.499 2.294-0.19801 0.91-0.425 0.967 0.47099 1.188 1.537 0.37801 3.071 0.731 4.58 1.206 3.036 0.956 5.917 2.137 8.775 3.537 5.294 2.593 10.284 6.084 14.221 10.497 3.398 3.811 6.053 7.975 7.86 12.755 0.908 2.403 1.333 4.863 1.709 7.393 0.178 1.196 0.169 2.438 0.244 3.646 0.016006 0.25401 3.016 0.108 3.464 0.108"/>
 <path d="m99.432 199.6c2.771-0.576 5.548-2.348 8.041-3.656 2.618-1.374 5.177-2.966 7.502-4.799 4.608-3.631 9.062-8.247 11.259-13.808 1.128-2.855 1.921-5.668 2.546-8.673 0.564-2.713 0.571-5.546 0.676-8.305h-2.395c-0.99699 0-1.054-0.196-1.093 0.793-0.066002 1.672-0.159 3.306-0.335 4.968-0.30801 2.896-0.921 5.723-2.018 8.427-2.355 5.81-6.126 10.358-11.057 14.178-4.148 3.213-9.029 5.415-13.776 7.563 0.211-0.063004 0.43401-0.094009 0.648-0.145v2.396c0 0.615-0.201 1.403 0.648 0.91701-0.214 0.046997-0.432 0.089996-0.646 0.144"/>
 <path d="m49.104 199.46c1.463 0.334 3.073 0.145 4.564 0.145h44.89c0.561 0 0.874 0.207 0.874-0.39601 0-0.48399 0.295-3.062-0.204-3.062h-49.476c0.217 0.033005 0.432 0.098999 0.647 0.145-0.432 1.055-0.863 2.112-1.295 3.168 0.202 0.115 0.419 0.164 0.648 0.145-0.216-0.049011-0.431-0.106-0.648-0.145"/>
 <path d="m20.016 160.36c0.145 3.186 0.478 6.153 1.216 9.257 0.719 3.02 2.001 5.817 3.408 8.563 2.682 5.232 6.836 9.781 11.396 13.428 4.032 3.225 8.402 5.671 13.068 7.848 0.299-0.731 0.599-1.463 0.898-2.194 0.388-0.948 0.559-0.899-0.367-1.328-1.537-0.71199-2.99-1.467-4.465-2.299-2.585-1.459-5.027-3.101-7.357-4.937-4.706-3.708-8.365-8.635-11.088-13.93-1.387-2.696-2.121-5.739-2.742-8.686-0.312-1.482-0.377-3.043-0.453-4.552-0.053001-1.053 0.17-1.171-0.875-1.171-0.88 0.001007-1.759 0.001007-2.639 0.001007"/>
 <path d="m59.472 119.39c0.456-0.552 0.912-1.104 1.368-1.656-5.82 1.381-11.657 3.144-16.844 6.213-2.797 1.655-5.521 3.344-8.067 5.37-2.467 1.961-4.563 4.193-6.638 6.556-6.038 6.876-8.767 15.498-9.275 24.485h2.395c1.022 0 1.05 0.18301 1.112-0.83299 0.107-1.749 0.275-3.417 0.538-5.148 0.409-2.686 1.331-5.717 2.593-8.125 2.896-5.528 6.514-10.204 11.343-14.189 3.538-2.918 7.588-5.471 11.837-7.234 2.42-1.005 4.785-1.881 7.284-2.667 1.08-0.339 2.2-0.564 3.298-0.833 0.361-0.089005 0.997-0.103 1.246-0.404 0.422-0.511 0.844-1.022 1.267-1.533-1.153-0.001999-2.305-0.001999-3.457-0.001999"/>
 <path d="m59.615 67.838c-0.045002-0.216-0.096001-0.432-0.144-0.648v52.151c0 0.134 3.456 0.006996 3.456 0.046997v-49.027c0-1.258 0.146-2.587-0.145-3.819 0.037998 0.217 0.097 0.433 0.145 0.648 0.148-0.983-0.599-0.46201-1.118-0.25-0.73 0.3-1.462 0.599-2.194 0.898"/>
 <path d="m56.735 55.455c-0.484 0.727-1.795 1.903-1.41 2.765 0.743 1.666 1.485 3.331 2.228 4.996l1.971 4.419c0.206 0.461 2.731-0.876 3.259-1.092l-4.464-10.008-1.584 2.376v-3.349c0-0.227-2.298-0.107-2.664-0.107l1.08 2.376c0.528-0.792 1.057-1.584 1.584-2.376"/>
 <path d="m94.176 57.831c-0.367-0.55-1.119-2.376-1.811-2.376h-35.404c-0.542 0-0.227 2.69-0.227 3.225 0 0.452 0.916 0.231 1.292 0.231h34.565l-1.584-2.376c0.98499 0.403 1.971 0.806 2.956 1.209 0.463 0.19 1.084-1.831 1.292-2.289h-2.664c0.529 0.792 1.057 1.584 1.585 2.376"/>
 <path d="m90 67.19c-0.049004 0.216-0.096001 0.432-0.145 0.648 1.44-3.336 2.88-6.672 4.32-10.008-0.30701-0.125-3.16-1.314-3.172-1.288-0.45 1.043-0.9 2.086-1.35 3.128-1.04 2.409-2.552 4.944-3.11 7.519 0.054001-0.214 0.096001-0.432 0.144-0.648-0.48299 0.85 0.302 0.648 0.91801 0.648 0.799 9.99e-4 1.597 9.99e-4 2.395 9.99e-4"/>
 <path d="m88.632 117.73c0.45599 0.552 0.912 1.104 1.368 1.656v-52.151c0-0.134-3.456-0.006996-3.456-0.046997v51.919c0 0.74 0.922 1.395 1.368 1.935l-1.368-1.656c0 0.27-0.157 1.171 0 1.368 0.091003 0.114 1.375 0.254 1.374 0.26199 0.238-1.095 0.476-2.19 0.714-3.286"/>
 <path d="m61.271 67.19h13.457-13.457" fill="#fff" fill-rule="evenodd"/>
 <path d="m61.271 65.462c-0.938 0.188-1.731 0.625-1.728 1.728 0.003002 1.054 0.827 1.548 1.728 1.728v-3.456"/>
 <path d="m74.735 67.19c0-0.17001 0.006996-1.728-0.007004-1.728h-13.39c-0.152 0-0.066002 1.414-0.066002 1.592 0 0.128-0.007999 1.864 7e-3 1.864h13.427c0.061996 0 0.028999-1.533 0.028999-1.728"/>
 <path d="m74.735 68.918c2.241-0.408 2.238-3.049 0-3.456v3.456"/>
 <path d="m61.271 77.559h13.457-13.457" fill="#fff" fill-rule="evenodd"/>
 <path d="m61.271 75.831c-0.938 0.188-1.731 0.625-1.728 1.728 0.003002 1.054 0.827 1.548 1.728 1.728v-3.456"/>
 <path d="m74.735 77.559c0-0.17 0.006996-1.728-0.007004-1.728h-13.39c-0.152 0-0.066002 1.414-0.066002 1.592 0 0.12801-0.007999 1.864 7e-3 1.864h13.427c0.061996 0 0.028999-1.534 0.028999-1.728"/>
 <path d="m74.735 79.287c2.241-0.408 2.238-3.049 0-3.456v3.456"/>
 <path d="m61.271 87.926h13.457-13.457" fill="#fff" fill-rule="evenodd"/>
 <path d="m61.271 86.198c-0.937 0.188-1.731 0.625-1.728 1.728 0.003002 1.055 0.827 1.548 1.728 1.728v-3.456"/>
 <path d="m74.735 87.926c0-0.17001 0.006996-1.728-0.007004-1.728h-13.39c-0.152 0-0.066002 1.414-0.066002 1.592 0 0.128-0.007999 1.864 7e-3 1.864h13.427c0.061996 0 0.028999-1.533 0.028999-1.728"/>
 <path d="m74.735 89.654c2.24-0.408 2.238-3.049 0-3.456v3.456"/>
 <path d="m61.271 98.294h13.457-13.457" fill="#fff" fill-rule="evenodd"/>
 <path d="m61.271 96.566c-0.938 0.188-1.731 0.625-1.728 1.728 0.003002 1.054 0.827 1.548 1.728 1.728v-3.456"/>
 <path d="m74.735 98.294c0-0.17 0.006996-1.728-0.007004-1.728h-13.39c-0.152 0-0.066002 1.414-0.066002 1.592 0 0.12801-0.007999 1.864 7e-3 1.864h13.427c0.061996 0 0.028999-1.533 0.028999-1.728"/>
 <path d="m74.735 100.02c2.241-0.408 2.238-3.049 0-3.456v3.456"/>
 <path d="m61.271 108.66h13.457-13.457" fill="#fff" fill-rule="evenodd"/>
 <path d="m61.271 106.94c-0.938 0.188-1.731 0.625-1.728 1.728 0.003002 1.054 0.827 1.548 1.728 1.728v-3.456"/>
 <path d="m74.735 108.66c0-0.17001 0.006996-1.728-0.007004-1.728h-13.39c-0.152 0-0.066002 1.414-0.066002 1.592 0 0.128-0.007999 1.864 7e-3 1.864h13.427c0.061996 0 0.028999-1.534 0.028999-1.728"/>
 <path d="m74.735 110.39c2.241-0.408 2.238-3.049 0-3.456v3.456"/>
 <path d="m61.271 119.1h13.457-13.457" fill="#fff" fill-rule="evenodd"/>
 <path d="m61.271 117.38c-0.938 0.188-1.731 0.625-1.728 1.728 0.003002 1.054 0.827 1.548 1.728 1.728v-3.456"/>
 <path d="m74.735 119.1c0-0.17 0.006996-1.728-0.007004-1.728h-13.39c-0.152 0-0.066002 1.414-0.066002 1.592 0 0.128-0.007999 1.864 7e-3 1.864h13.427c0.061996 0 0.028999-1.534 0.028999-1.728"/>
 <path d="m74.735 120.83c2.241-0.408 2.238-3.049 0-3.456v3.456"/>
 <path d="m208.27 150.93c5.695 1.798 11.349 3.924 16.23 7.454 5.171 3.74 9.516 8.031 13.255 13.203 7.048 9.746 10.331 22.43 8.96 34.388-0.68901 6.006-2.174 11.877-4.89 17.309-1.338 2.676-2.919 5.284-4.702 7.69-0.93999 1.269-1.888 2.482-2.958 3.646-0.41901 0.45601-1.17 1.774-1.826 1.774-13.375-0.013-26.75-0.024994-40.125-0.037994-8.364-0.008011-16.729-0.016998-25.094-0.024002-2.632-0.001999-5.264-0.005005-7.896-0.007004-0.683-9.92e-4 -1.364-0.001999-2.047-0.001999-0.62799-0.001007-0.569-0.044006-1.054-0.59599-4.066-4.622-7.745-9.68-9.93-15.495-2.078-5.532-3.569-11.243-3.74-17.185-0.34799-12.126 3.167-24.645 11.076-34.05 3.994-4.75 8.453-8.958 13.799-12.166 2.753-1.652 5.61-2.973 8.589-4.165 1.43-0.57201 2.896-1.007 4.365-1.471 0.43199-0.13699 0.84399-0.056 0.84399-0.508 0.005005-9.551 0.009995-19.102 0.014999-28.652 0.009003-17.838 0.018997-35.677 0.027008-53.516 0.007996-15.222 0.015991-30.443 0.022995-45.664 9.92e-4 -3.21 0.003006-6.421 0.005005-9.631 0-0.095 0.046997-0.334-0.018005-0.414-0.842-1.03-1.685-2.061-2.526-3.092-2.152-2.634-4.304-5.268-6.456-7.902h45c-2.135 2.626-4.269 5.252-6.403 7.878-0.87601 1.078-1.752 2.156-2.628 3.233-0.080994 0.099999-0.039001 0.284-0.039001 0.407 0.004013 3.218 0.007004 6.436 0.011002 9.654 0.016006 15.206 0.031006 30.411 0.047012 45.617 0.018997 17.82 0.036987 35.64 0.054993 53.46 0.011002 9.541 0.020996 19.082 0.029999 28.622 0.001007 0.083008 0.001007 0.16299 0.001007 0.243" fill="#fff4cc" fill-rule="evenodd"/>
 <path d="m245.74 200.82c-0.144-3.011-0.19501-6.095-0.72101-9.071-0.48799-2.771-1.182-6.052-2.268-8.652-2.342-5.606-4.996-11.119-9.011-15.754-3.573-4.126-7.6-8.294-12.327-11.111-5.036-3.002-10.1-5.253-15.707-6.962-0.199 0.765-0.39801 1.529-0.59801 2.294-0.23399 0.896-0.468 0.951 0.40201 1.236 1.468 0.48 2.938 0.93799 4.377 1.499 3.031 1.179 5.884 2.534 8.669 4.216 4.976 3.005 9.684 7.084 13.127 11.781 1.746 2.383 3.604 4.767 4.91 7.429 1.435 2.924 2.65 5.86 3.612 8.974 0.894 2.894 1.382 5.822 1.75 8.822 0.188 1.53 0.217 3.074 0.293 4.614 0.039001 0.811 0.025009 0.686 0.85001 0.686 0.88101-0.001007 1.762-0.001007 2.642-0.001007"/>
 <path d="m229.54 238.12c2.565-1.058 4.48-4.028 6.049-6.265 1.729-2.463 3.349-5.015 4.73-7.689 2.749-5.324 4.392-11.396 5.049-17.33 0.22299-2.005 0.31799-3.998 0.37299-6.013h-2.396c-1.115 0-1.058-0.13301-1.089 0.99199-0.040009 1.428-0.12601 2.846-0.29401 4.266-0.368 3.121-0.92 6.142-1.839 9.144-1.8 5.88-4.638 11.19-8.386 16.064-1.049 1.364-2.26 2.611-3.421 3.879 0.407-0.16802 0.815-0.33601 1.223-0.50401v2.64c0 0.19-0.118 0.81601 0.112 0.81601 0.619 0 0.673-0.064011 1.112-0.505-0.407 0.168-0.815 0.33701-1.223 0.505"/>
 <path d="m152.42 237.47c1.319 0.619 2.03 0.576 3.482 0.577 2.54 0.003006 5.081 0.005005 7.622 0.007996 8.283 0.008011 16.567 0.016006 24.851 0.02301 13.618 0.013 27.236 0.024994 40.854 0.039001h0.302c0-0.37801 0.055008-3.456-0.048996-3.456-0.401 0-0.804-9.92e-4 -1.205-9.92e-4 -2.188-0.001999-4.378-0.004013-6.566-0.007004-7.952-0.007004-15.904-0.014999-23.855-0.022003-14.44-0.013992-28.881-0.026993-43.321-0.041-0.297 0-0.593-9.92e-4 -0.89-9.92e-4 0.408 0.19199 0.81599 0.38399 1.225 0.57599-0.677 0.63701-1.354 1.273-2.029 1.91-0.724 0.681 0.039001 0.97 0.80501 0.97-0.40901-0.19099-0.81702-0.383-1.226-0.575"/>
 <path d="m137.66 200.82c0.174 6.074 0.979 11.986 3.096 17.713 1.991 5.39 4.591 11.014 8.443 15.367 1.063 1.201 2.135 2.389 3.221 3.569 0.565-0.532 1.131-1.064 1.697-1.597 0.81599-0.769 0.814-0.634 0.082001-1.505-0.94-1.118-1.94-2.19-2.83-3.349-1.771-2.304-3.507-4.818-4.773-7.441-1.326-2.749-2.496-5.507-3.391-8.429-0.911-2.978-1.379-6.066-1.831-9.144-0.201-1.375-0.19-2.805-0.23001-4.193-0.028-0.98599 0.129-0.99199-0.845-0.99199-0.87999 9.92e-4 -1.76 9.92e-4 -2.639 9.92e-4"/>
 <path d="m176.4 150.93c0.43199-0.552 0.86299-1.104 1.295-1.655-11.591 3.533-22.291 9.887-29.452 19.907-3.182 4.452-6.29 9.357-7.819 14.669-0.76401 2.652-1.768 5.464-2.073 8.215-0.32599 2.931-0.54599 5.814-0.687 8.76h2.394c0.918 0 1.051 0.22 1.096-0.686 0.076004-1.54 0.106-3.084 0.29399-4.614 0.38-3.094 0.908-6.095 1.829-9.078 1.845-5.974 4.678-11.279 8.499-16.222 3.395-4.391 7.669-8.443 12.439-11.324 2.604-1.573 5.223-3.012 8.063-4.116 1.387-0.53999 2.76-1.047 4.173-1.509 0.615-0.201 1.571-0.323 2.109-0.69 0.502-0.343 0.91699-1.173 1.295-1.656-1.151-9.92e-4 -2.304-9.92e-4 -3.455-9.92e-4"/>
 <path d="m176.9 13.911c-0.144-0.36-0.28799-0.72-0.43199-1.08-0.003998 8.27-0.009003 16.54-0.013 24.81-0.01001 17.539-0.019012 35.078-0.027008 52.618-0.009003 15.903-0.01799 31.807-0.024994 47.71-0.001999 4.319-0.005005 8.639-0.007004 12.958 0.354 0 3.455 0.028992 3.455-0.027008v-0.67999c9.92e-4 -1.298 0.001999-2.597 0.001999-3.895 0.003006-5.381 0.005997-10.762 0.009003-16.143 0.009003-17.127 0.01799-34.254 0.026993-51.382 0.009003-16.528 0.016998-33.056 0.025009-49.583 0.001999-4.105 0.00499-8.211 0.006989-12.316 0.001007-1.782 0.23201-3.494-0.42999-5.151 0.144 0.36 0.28799 0.72 0.43201 1.08 0.062988-0.363 0.007996-0.566-0.216-0.828-0.304-0.354-0.317-0.167-0.66 0.118-0.716 0.597-1.431 1.194-2.147 1.791"/>
 <path d="m169.2 0.086c-0.276 0.6-1.568 2.474-1.14 2.999 0.96001 1.174 1.919 2.349 2.879 3.523 1.988 2.435 3.978 4.869 5.966 7.303 0.38901-0.324 2.727-1.995 2.482-2.293-0.91901-1.126-1.839-2.251-2.759-3.377-2.044-2.502-4.088-5.003-6.132-7.505-0.433 0.936-0.864 1.872-1.297 2.808v-1.592c9.92e-4 -0.275 0.19598-1.674 9.92e-4 -1.866-0.19899-0.195-1.56 0-1.836 0h-1.836c0.79201 0.936 1.585 1.872 2.377 2.808 0.431-0.936 0.86299-1.872 1.295-2.808"/>
 <path d="m215.5 2.895c-0.224-0.485-0.94101-2.808-1.441-2.808h-44.674c-0.43599 0-0.18199 2.743-0.18199 3.225 0 0.431 0.68199 0.231 1.048 0.231h43.952c-0.43201-0.936-0.86301-1.872-1.295-2.808 0.39699 0.332 0.79599 0.663 1.193 0.995 0.21001 0.174 1.127 1.188 1.399 1.165 0.27499-0.024 1.011-1.195 1.188-1.404 0.396-0.468 0.79199-0.937 1.188-1.404h-3.674c0.433 0.935 0.865 1.871 1.298 2.808"/>
 <path d="m206.86 12.975c-0.144 0.36-0.28799 0.72-0.43199 1.08 2.026-2.493 4.053-4.985 6.078-7.478 0.94699-1.165 1.895-2.33 2.842-3.495 0.34599-0.426-1.99-1.974-2.439-2.348-1.687 2.074-3.372 4.148-5.059 6.223-1.536 1.889-3.534 3.738-4.445 6.018 0.14401-0.36 0.28801-0.72 0.43201-1.08-0.608 0.535-0.674 1.08 0.16 1.08h2.863"/>
 <path d="m205.7 149.27c0.433 0.552 0.864 1.104 1.297 1.655-0.009003-8.261-0.018005-16.522-0.026001-24.784-0.018005-17.521-0.035995-35.042-0.054993-52.563-0.017014-15.887-0.033005-31.774-0.050003-47.661-0.003998-3.429-0.007004-6.858-0.011002-10.287-0.001007-0.777-0.001999-1.554-0.003006-2.331v-0.326c0-2e-3 -3.13-1e-3 -3.455-1e-3 0.009003 8.261 0.018005 16.522 0.026001 24.784 0.018005 17.521 0.036011 35.042 0.055008 52.563 0.016998 15.887 0.033005 31.774 0.050003 47.661 0.003998 3.342 0.006989 6.685 0.011002 10.027 9.92e-4 0.806 0.001999 1.612 0.001999 2.418 9.92e-4 0.91901 0.73 1.432 1.296 2.155-0.43199-0.55199-0.86299-1.104-1.295-1.656 0 0.25099-0.148 1.116 0 1.296 0.174 0.21001 1.019 0.283 1.295 0.36 0.287-1.102 0.575-2.206 0.86301-3.31"/>
 <path d="m196.2 11.103c-0.93799 0.188-1.729 0.625-1.727 1.728 0.002991 1.054 0.82599 1.547 1.727 1.728v-3.456"/>
 <path d="m205.2 12.831c0-0.783 0.405-1.728-0.498-1.728h-7.86c-1.027 0-0.642 0.605-0.642 1.592 0 0.796-0.42601 1.864 0.498 1.864h7.86c0.094009 0 0.642 0.058 0.642-0.048v-1.68"/>
 <path d="m205.2 14.559c2.241-0.407 2.238-3.049 0-3.456v3.456"/>
 <path d="m196.2 22.623c-0.93799 0.188-1.729 0.625-1.727 1.728 0.002991 1.054 0.82599 1.547 1.727 1.728v-3.456"/>
 <path d="m205.2 24.351c0-0.783 0.405-1.728-0.498-1.728h-7.86c-1.027 0-0.642 0.605-0.642 1.592 0 0.796-0.42601 1.864 0.498 1.864h7.86c0.094009 0 0.642 0.057999 0.642-0.048v-1.68"/>
 <path d="m205.2 26.079c2.241-0.407 2.238-3.049 0-3.456v3.456"/>
 <path d="m196.2 34.07c-0.93799 0.188-1.729 0.625-1.727 1.728 0.002991 1.054 0.82599 1.547 1.727 1.728v-3.456"/>
 <path d="m205.2 35.798c0-0.783 0.405-1.728-0.498-1.728h-7.86c-1.027 0-0.642 0.605-0.642 1.592 0 0.796-0.42601 1.864 0.498 1.864h7.86c0.094009 0 0.642 0.057999 0.642-0.048v-1.68"/>
 <path d="m205.2 37.526c2.241-0.407 2.238-3.049 0-3.456v3.456"/>
 <path d="m196.2 45.59c-0.93799 0.188-1.729 0.625-1.727 1.728 0.002991 1.054 0.825 1.547 1.727 1.728v-3.456"/>
 <path d="m205.2 47.318c0-0.783 0.405-1.728-0.498-1.728h-7.86c-1.027 0-0.642 0.605-0.642 1.592 0 0.796-0.42601 1.864 0.498 1.864h7.86c0.094009 0 0.642 0.057999 0.642-0.048v-1.68"/>
 <path d="m205.2 49.046c2.241-0.407 2.238-3.049 0-3.456v3.456"/>
 <path d="m196.2 57.11c-0.93799 0.188-1.729 0.625-1.727 1.728 0.002991 1.054 0.82599 1.547 1.727 1.728v-3.456"/>
 <path d="m205.2 58.838c0-0.783 0.405-1.728-0.498-1.728h-7.86c-1.027 0-0.642 0.605-0.642 1.592 0 0.796-0.42601 1.864 0.498 1.864h7.86c0.094009 0 0.642 0.057999 0.642-0.048v-1.68"/>
 <path d="m205.2 60.566c2.241-0.407 2.238-3.049 0-3.456v3.456"/>
 <path d="m196.2 68.559c-0.93799 0.188-1.729 0.625-1.727 1.728 0.002991 1.054 0.82599 1.547 1.727 1.728v-3.456"/>
 <path d="m205.2 70.287c0-0.783 0.405-1.728-0.498-1.728h-7.86c-1.027 0-0.642 0.605-0.642 1.592 0 0.796-0.42601 1.864 0.498 1.864h7.86c0.094009 0 0.642 0.057999 0.642-0.047997v-1.68"/>
 <path d="m205.2 72.015c2.241-0.407 2.238-3.049 0-3.456v3.456"/>
 <path d="m196.2 80.079c-0.93799 0.188-1.729 0.625-1.727 1.728 0.002991 1.054 0.82599 1.547 1.727 1.728v-3.456"/>
 <path d="m205.2 81.807c0-0.783 0.405-1.728-0.498-1.728h-7.86c-1.027 0-0.642 0.605-0.642 1.592 0 0.796-0.42601 1.864 0.498 1.864h7.86c0.094009 0 0.642 0.057999 0.642-0.048004v-1.68"/>
 <path d="m205.2 83.535c2.241-0.407 2.238-3.049 0-3.456v3.456"/>
 <path d="m196.2 91.599c-0.93799 0.188-1.729 0.625-1.727 1.728 0.002991 1.054 0.82599 1.547 1.727 1.728v-3.456"/>
 <path d="m205.2 93.327c0-0.783 0.405-1.728-0.498-1.728h-7.86c-1.027 0-0.642 0.605-0.642 1.592 0 0.796-0.42601 1.864 0.498 1.864h7.86c0.094009 0 0.642 0.057999 0.642-0.047997v-1.68"/>
 <path d="m205.2 95.055c2.241-0.407 2.238-3.049 0-3.456v3.456"/>
 <path d="m196.2 103.12c-0.93799 0.188-1.729 0.625-1.727 1.728 0.002991 1.054 0.825 1.547 1.727 1.728v-3.456"/>
 <path d="m205.2 104.85c0-0.783 0.405-1.728-0.498-1.728h-7.86c-1.027 0-0.642 0.605-0.642 1.591 0 0.796-0.42601 1.864 0.498 1.864h7.86c0.094009 0 0.642 0.058006 0.642-0.047997v-1.679"/>
 <path d="m205.2 106.57c2.241-0.406 2.237-3.049 0-3.456v3.456"/>
 <path d="m196.2 114.57c-0.93799 0.188-1.729 0.625-1.727 1.728 0.002991 1.054 0.82599 1.547 1.727 1.728v-3.456"/>
 <path d="m205.2 116.29c0-0.783 0.405-1.728-0.498-1.728h-7.86c-1.027 0-0.642 0.605-0.642 1.592 0 0.796-0.42601 1.864 0.498 1.864h7.86c0.094009 0 0.642 0.057999 0.642-0.048004v-1.68"/>
 <path d="m205.2 118.02c2.241-0.407 2.238-3.049 0-3.456v3.456"/>
 <path d="m196.2 126.09c-0.93799 0.188-1.729 0.625-1.727 1.728 0.002991 1.054 0.82599 1.547 1.727 1.729v-3.457"/>
 <path d="m205.2 127.81c0-0.783 0.405-1.728-0.498-1.728h-7.86c-1.027 0-0.642 0.605-0.642 1.592 0 0.796-0.42601 1.864 0.498 1.864h7.86c0.094009 0 0.642 0.057999 0.642-0.048004v-1.68"/>
 <path d="m205.2 129.54c2.239-0.408 2.239-3.051 0-3.456v3.456"/>
 <path d="m196.2 137.54c-0.93799 0.188-1.73 0.62599-1.727 1.729 0.002991 1.054 0.825 1.548 1.727 1.727v-3.456"/>
 <path d="m205.2 139.26c0-0.783 0.405-1.729-0.498-1.729h-7.86c-1.027 0-0.642 0.60501-0.642 1.591 0 0.797-0.42601 1.864 0.498 1.864h7.86c0.094009 0 0.642 0.057999 0.642-0.048996v-1.677"/>
 <path d="m205.2 140.99c2.242-0.403 2.237-3.05 0-3.455v3.455"/>
 <path d="m196.2 148.98c-0.93799 0.18799-1.729 0.62599-1.727 1.729 0.002991 1.055 0.825 1.547 1.727 1.729v-3.458"/>
 <path d="m205.2 150.71c0-0.78299 0.405-1.729-0.498-1.729h-7.86c-1.027 0-0.642 0.60501-0.642 1.592 0 0.797-0.42601 1.865 0.498 1.865h7.86c0.094009 0 0.642 0.058014 0.642-0.048996v-1.679"/>
 <path d="m205.2 152.44c2.241-0.40799 2.238-3.049 0-3.457v3.457"/>
 <g fill-rule="evenodd">
  <path d="m229.46 238.05c3.869-4.358 7.353-9.218 10.051-14.394 1.365-2.62 2.727-5.336 3.448-8.214 0.702-2.799 1.183-5.678 1.479-8.546 1.265-12.234-0.692-24.761-7.941-34.967-3.453-4.862-7.447-9.736-12.409-13.159-5.032-3.471-10.251-6.195-15.976-8.34-1.652-0.619-1.549-0.37399-1.55-1.871-0.001999-1.537-0.003998-3.074-0.00499-4.611-0.007004-5.754-0.013-11.508-0.018997-17.262-0.019012-17.395-0.037003-34.79-0.055008-52.185-0.018005-16.042-0.033997-32.084-0.050995-48.126-0.005005-4.063-0.009003-8.126-0.014008-12.189 0-0.521-0.15599-1.164 0.186-1.579 2.409-2.928 4.819-5.856 7.229-8.784 0.83699-1.016 1.673-2.032 2.509-3.048 0.45401-0.552 0.367-0.686 1.087-0.686h8.358c-2.071 2.504-4.142 5.009-6.213 7.514-1.218 1.473-2.436 2.947-3.654 4.42-0.189 0.229-0.789 0.709-0.789 1.032-0.001999 2.813-0.002991 5.625-0.00499 8.437-0.008011 15.004-0.016006 30.008-0.024002 45.013-0.01001 17.732-0.020004 35.465-0.028 53.197-0.005005 8.727-0.01001 17.454-0.014999 26.18 0 0.226 3.604 1.146 4.022 1.278 1.396 0.44 2.746 1.168 4.092 1.744 2.488 1.066 5.376 2.979 7.454 4.703 4.577 3.796 9.137 7.931 12.34 13.016 3.257 5.172 6.373 10.517 8.115 16.426 1.731 5.872 3.091 11.907 2.919 18.081-0.347 12.439-5.578 23.413-12.928 33.218-0.55899 0.74501-1.243 1.428-1.874 2.114-0.741 0.80501-1.083 1.587-2.177 1.587-2.519 0.001007-5.04 0.001007-7.562 0.001007"/>
  <path d="m142.7 44.871v30.132c0 0.525 0.215 0.899-0.34601 0.899h-16.571c-0.604 0-1.013 0.247-1.013-0.386v-27.834c0-0.152-0.006004-2.811 0.005997-2.811h17.924" fill="#99664c"/>
 </g>
 <path d="m142.7 77.63c0.58701-0.588 1.727-1.232 1.727-2.114v-30.528c0-0.082001-3.219-0.379-3.455-0.117-0.134 0.149 0 1.041 0 1.229v29.803c0.57599-0.576 1.152-1.152 1.729-1.728v1.592c-9.92e-4 0.285-0.20099 1.656-9.92e-4 1.863 0.076996 0.080002 1.646 0.080002 1.727 0 0.18799-0.188 0-1.431 0-1.728-0.576 0.577-1.152 1.152-1.727 1.728"/>
 <path d="m123.05 75.902c0.759 0.759 1.271 1.728 2.367 1.728h16.65c0.065994 0 0.64 0.034004 0.64-0.028v-2.836c0-0.424 0.145-0.592-0.267-0.592h-17.663c0.576 0.576 1.152 1.152 1.729 1.728h-1.592c-0.287 0-1.657-0.199-1.864 0-0.079994 0.076996-0.079994 1.648 0 1.728 0.188 0.188 1.43 0 1.728 0-0.576-0.576-1.152-1.151-1.728-1.728"/>
 <path d="m124.78 43.143c-0.587 0.588-1.728 1.232-1.728 2.114v30.528c0 0.081993 3.22 0.379 3.456 0.117 0.134-0.149 0-1.041 0-1.229v-29.803c-0.576 0.576-1.152 1.152-1.729 1.728v-1.592c9.99e-4 -0.286 0.201-1.656 9.99e-4 -1.863-0.077003-0.080002-1.647-0.080002-1.728 0-0.188 0.188 0 1.431 0 1.728 0.577-0.577 1.153-1.152 1.728-1.728"/>
 <path d="m144.43 44.871c-0.759-0.759-1.27-1.728-2.366-1.728h-16.65c-0.067001 0-0.64-0.034-0.64 0.028v2.836c0 0.424-0.145 0.592 0.267 0.592h17.664c-0.57599-0.576-1.152-1.152-1.729-1.728h1.591c0.28601 0 1.656 0.199 1.863 0 0.080002-0.077 0.080002-1.648 0-1.728-0.188-0.188-1.43 0-1.727 0 0.576 0.576 1.152 1.151 1.727 1.728"/>
 <path d="m185.76 218.17c2.891-0.01799 5.784-0.799 8.524-1.643 2.555-0.787 5.672-2.347 7.412-4.435 2.161-2.594 3.218-5.075 3.656-8.419 0.356-2.713-0.26399-5.665-1.131-8.229-3.938-11.644-9.854-22.534-15.709-33.306-5.923-10.896-12.246-21.561-18.665-32.17-3.185-5.263-6.415-10.496-9.631-15.739-0.83699-1.364-0.521-2.928-0.521-4.524v-42.341c0-0.55299 1.152-1.718 1.452-2.155 1.233-1.801 2.467-3.602 3.7-5.402 0.994-1.453 1.989-2.905 2.984-4.358h-4.666c-0.48601 0-3.866-0.368-4.133 0.021999-1.997 2.929-3.995 5.858-5.993 8.787-0.983 1.442-2.487 2.798-2.487 4.586v44.994c0 0.298 0.69501 1.091 0.877 1.373 0.39101 0.605 0.774 1.215 1.174 1.814 7.043 10.561 13.671 21.391 20.348 32.185 6.284 10.159 12.488 20.513 17.834 31.2 1.368 2.736 2.724 5.484 3.902 8.31 0.537 1.286 1.329 2.769 1.59 4.135 0.30699 1.61 0.61099 3.221 0.89999 4.834 1.051 5.865-0.64499 11.654-4.842 15.849-1.926 1.927-4.216 3.3-6.575 4.632" fill-rule="evenodd"/>
 <path d="m151.06 67.19c-0.097 0.312-0.192 0.624-0.289 0.936 2.28-3.336 4.56-6.672 6.84-10.008-0.33899-0.221-2.826-1.949-2.921-1.81-0.789 1.154-1.577 2.307-2.365 3.461-1.092 1.596-2.183 3.193-3.273 4.789-0.61801 0.904-1.128 1.593-1.448 2.632 0.097-0.312 0.192-0.624 0.289-0.936-0.76401 0.75-0.16301 0.936 0.52699 0.936h2.64"/>
 <path d="m150.77 112.41c0.097 0.312 0.192 0.624 0.289 0.936v-41.634c0-0.368 0.125-4.518-0.106-4.518-0.45599 0-3.351-0.186-3.351 0.141v40.208c0 2.177-0.35899 4.638 0.289 6.739-0.097-0.312-0.192-0.624-0.289-0.936-0.211 1.038 0.394 0.868 0.96899 0.494 0.733-0.477 1.466-0.953 2.199-1.43"/>
 <path d="m198.43 198.16c-1.059-5.936-3.497-11.609-6.233-16.958-2.684-5.244-5.417-10.442-8.252-15.607-3.04-5.537-6.358-10.91-9.607-16.325-3.023-5.038-6.104-10.082-9.309-15.007-2.785-4.278-5.555-8.571-8.295-12.878-1.285-2.02-2.666-3.988-3.994-5.981-0.494-0.741-1.092-2.27-1.829-2.778-0.537-0.371-2.362 1.226-3.023 1.656 6.604 9.997 13.346 19.962 19.549 30.221 6.247 10.331 12.605 20.623 18.194 31.333 2.168 4.155 4.211 8.328 6.124 12.608 0.94 2.104 1.713 4.286 2.428 6.478 0.37999 1.165 0.62 2.265 0.78499 3.474 0.019012 0.136 3.076-0.204 3.462-0.23599"/>
 <path d="m182.66 218.32c2.131 0 4.644-0.449 6.866-1.297 2.484-0.946 4.226-2.57 5.937-4.538 3.328-3.827 3.256-9.595 2.965-14.326-0.44501 0.037003-3.464 0.159-3.447 0.39999 0.091003 1.371 0.239 2.722 0.132 4.092-0.20801 2.646-0.636 5.278-2.155 7.532-1.455 2.157-3.805 3.455-6.243 4.174-0.64099 0.189-1.248 0.259-1.903 0.377-0.44699 0.080994-1.595-0.078003-1.934 0.129-0.552 0.33701-0.218 2.647-0.218 3.457"/>
 <path d="m132.19 218.32h49.611c0.55901 0 0.862 0.205 0.862-0.396 0-0.481 0.291-3.062-0.20099-3.062h-50.238c-0.067993 0.001007-0.033997 3.097-0.033997 3.458"/>
 <path d="m84.743 218.32h45.796c0.896 0 1.652 0.39 1.652-0.592v-2.759c0-0.23-1.87-0.106-2.187-0.106h-44.83c-0.676 0-0.432 0.427-0.432 1.062 0.001007 0.798 0.001007 1.596 0.001007 2.395"/>
 <path d="m69.048 198.16c-0.13599 3.042-0.269 5.981 0.647 8.929 0.845 2.718 2.519 5.594 4.861 7.298 2.526 1.838 5.065 2.924 8.078 3.677 0.62199 0.155 1.324 0.25801 1.965 0.25801 0.305 0 0.144-2.056 0.144-2.396 0-0.987 0.136-1.068-0.864-1.169-0.78-0.078003-1.557-0.227-2.304-0.468-3.889-1.254-6.729-3.611-8.256-7.431-0.699-1.748-1.046-3.697-0.953-5.585 0.018005-0.37 0.27-2.813 0.031006-2.833-1.116-0.094009-2.233-0.187-3.349-0.28"/>
 <path d="m116.42 113.34c0.095993-0.312 0.19199-0.624 0.28799-0.936-6.695 9.988-13.328 20.068-19.55 30.365-6.246 10.336-12.644 20.56-18.232 31.275-3.991 7.652-8.352 15.532-9.881 24.111 0.798 0.06601 1.596 0.134 2.395 0.2 1.202 0.101 1.055 0.13501 1.221-1.084 0.206-1.512 0.866-3.015 1.374-4.444 1.002-2.825 2.191-5.517 3.421-8.251 2.476-5.503 5.441-10.805 8.397-16.063 5.914-10.52 12.237-20.766 18.608-31.009 2.581-4.148 5.253-8.25 7.936-12.332 1.304-1.985 2.623-3.959 3.922-5.947 1.208-1.848 2.909-3.777 3.558-5.886-0.095993 0.312-0.19199 0.62399-0.28799 0.936 0.762-0.751 0.16299-0.936-0.528-0.936-0.881 9.99e-4 -1.761 9.99e-4 -2.641 9.99e-4"/>
 <path d="m116.71 68.126c-0.096001-0.312-0.192-0.624-0.28799-0.936v41.634c0 0.368-0.125 4.518 0.107 4.518 0.456 0 3.349 0.186 3.349-0.14101v-40.208c0-2.178 0.359-4.637-0.28799-6.739 0.096001 0.312 0.19199 0.624 0.28799 0.936 0.21-1.038-0.392-0.868-0.968-0.494-0.734 0.477-1.467 0.954-2.2 1.43"/>
 <path d="m111.24 55.455c-0.453 0.838-1.754 2.208-1.159 3.069 1.111 1.609 2.222 3.217 3.333 4.826 1.027 1.487 2.055 2.975 3.082 4.462 0.327 0.47301 0.405 0.191 0.897-0.128 0.733-0.477 1.466-0.953 2.2-1.43-2.304-3.336-4.608-6.672-6.912-10.008l-1.44 2.664v-3.428c0-0.056-2.971-0.028-3.312-0.028l1.872 2.664c0.48-0.888 0.959-1.775 1.439-2.663"/>
 <path d="m157.61 58.119c-0.261-0.483-1.061-2.664-1.585-2.664h-44.638c-0.337 0-0.145 2.888-0.145 3.349 0 0.229 0.954 0.107 1.149 0.107h43.779c-0.479-0.888-0.96001-1.776-1.439-2.664 0.952 0.619 1.904 1.238 2.855 1.857 0.063004 0.040001 1.703-2.374 1.896-2.649h-3.313c0.48102 0.888 0.96101 1.775 1.441 2.664"/>
 <path d="m129.82 75.902v25.23c0 1.016-0.001999 0.83299 1.076 0.83299h6.058c0.948 0 0.71399-0.143 0.71399-1.06v-19.837c0-0.297 0.014008-5.167-0.013-5.167-2.611 9.99e-4 -5.224 9.99e-4 -7.835 9.99e-4" fill="#b2bcdb" fill-rule="evenodd"/>
 <path d="m129.82 100.24c0.57599 0.576 1.152 1.152 1.729 1.728v-26.028c0-0.077003-1.703-0.035004-1.864-0.035004-1.391 0-1.592-0.344-1.592 0.943v24.288c0 1.257 0.821 1.654 1.728 2.562-0.57599-0.576-1.152-1.152-1.728-1.728v1.68c0 0.101 1.475 0.047997 1.679 0.047997 0.098007-0.001999 0.048004-3.081 0.048004-3.458"/>
 <path d="m135.94 101.97c0.576-0.576 1.152-1.152 1.729-1.728h-5.894c-0.143 0-1.954-0.030998-1.954 0.028v3.197c0 0.47501 1.106 0.231 1.492 0.231h6.342c0.39201 0 1.436-1.422 1.741-1.728-0.576 0.576-1.152 1.152-1.729 1.728h1.68c0.102 0 0.049011-1.475 0.049011-1.68 9.92e-4 -0.097-3.079-0.047997-3.456-0.047997"/>
 <path d="m137.66 77.63c-0.576-0.576-1.152-1.152-1.729-1.728v26.028c0 0.077003 1.703 0.034996 1.865 0.034996 1.391 0 1.592 0.345 1.592-0.94299v-24.287c0-1.257-0.821-1.654-1.729-2.562 0.576 0.576 1.152 1.152 1.729 1.728v-1.68c0-0.101-1.476-0.048004-1.68-0.048004-0.098007 0.001007-0.048004 3.08-0.048004 3.457"/>
 <path d="m131.54 75.902c-0.57599 0.576-1.152 1.152-1.729 1.728h5.894c0.14299 0 1.954 0.031006 1.954-0.028v-3.197c0-0.475-1.106-0.231-1.492-0.231h-6.342c-0.392 0-1.435 1.422-1.741 1.728l1.728-1.728h-1.68c-0.10101 0-0.048004 1.475-0.048004 1.68-1.5e-5 0.099007 3.079 0.048004 3.456 0.048004"/>
 <path d="m129.82 44.871v-8.699c0-1.494 0.28299-3.405-0.36-4.801-0.64801-1.407-1.94-1.764-3.384-1.764h-68.904c2.262-1.649 4.688-3.083 7.128-4.464 1.231-0.696 2.441-1.4 3.707-2.034 1.244-0.622 2.138-1.351 3.565-1.351h17.505c12.105 0 24.209 0.072001 36.314 0.072001 2.638 0 5.974-0.415 8.216 1.331 2.37 1.844 4.06 4.109 4.06 7.25v13.949c0 0.718-0.20601 0.51-0.888 0.51h-3.173c-1.262 9.99e-4 -2.523 9.99e-4 -3.786 9.99e-4" fill="#b2bcdb" fill-rule="evenodd"/>
 <path d="m128.09 33.134v11.494c0 0.477 0.927 0.243 1.323 0.243 0.30701 0 1.928 0.22 2.134 0 0.176-0.188 0-1.147 0-1.474v-10.162c-9.92e-4 -0.211-3.024-0.101-3.457-0.101"/>
 <path d="m126 31.334c0.985-0.046999 1.948 0.131 2.063 1.496 0.054001 0.65 2.808 0.304 3.482 0.304-0.21201-1.686-0.493-2.796-1.716-4.019-1.108-1.108-2.561-1.237-4.045-1.237 0.468 0.025999 0.216 2.876 0.216 3.456"/>
 <path d="m55.943 28.382c0.17 0.411 0.952 2.952 1.298 2.952h68.545c0.545 0 0.214-2.188 0.214-2.64 0-0.8 0.162-0.816-0.529-0.816h-68.303c0.408 0.984 0.816 1.968 1.224 2.952-0.816-0.815-1.633-1.632-2.449-2.448l-2.88 2.952h4.104c-0.407-0.983-0.815-1.968-1.224-2.952"/>
 <path d="m70.56 20.03c-1.352 0.271-2.447 1.096-3.645 1.741-1.232 0.664-2.525 1.22-3.697 2.001-2.368 1.579-5.125 2.708-7.274 4.609l1.87 1.87c0.785 0.785 0.695 0.388 1.568-0.158 1.207-0.753 2.497-1.397 3.678-2.185 2.61-1.739 5.454-3.119 8.219-4.568-0.24 0.048-0.48 0.096001-0.72 0.144v-2.395c0-0.665 0.178-1.414-0.72-0.917 0.241-0.046001 0.481-0.094002 0.721-0.142"/>
 <path d="m129.17 20.103c-11.856 0-23.713-0.072001-35.568-0.072001h-22.522c-0.825 0-0.518 0.555-0.518 1.322 0 0.534-0.201 1.87 0.145 2.134 0.303 0.231 1.834 0 2.224 0h6.488c12.014 0 24.026 0.072001 36.04 0.072001h12.804c1.036 0 0.907-0.027 0.907-1.062v-2.394"/>
 <path d="m139.39 30.254c-0.19099-1.432-0.44699-2.652-0.888-4.026-0.396-1.233-1.532-2.324-2.378-3.258-1.742-1.925-4.488-2.67-6.959-2.868v2.395c0 1.092-0.12801 1.046 0.98099 1.177 1.407 0.165 2.71 0.911 3.702 1.902 0.89499 0.896 1.833 2.147 1.964 3.463 0.10501 1.063-0.112 1.215 0.93701 1.215h2.641"/>
 <path d="m137.66 46.599c0.54399-0.544 1.089-1.088 1.633-1.632 0.296-0.296 0.096008-1.181 0.096008-1.619v-4.214c0-0.923 0.08699-8.879-0.106-8.879h-2.759c-0.73801 0-0.592 0.040001-0.592 0.771v13.845c0.57599-0.576 1.152-1.152 1.729-1.728v1.592c-9.92e-4 0.286-0.20099 1.656-9.92e-4 1.864 0.076996 0.080002 1.648 0.080002 1.729 0 0.18799-0.188 0-1.431 0-1.728-0.57701 0.576-1.153 1.151-1.729 1.728"/>
 <path d="m128.09 44.871c0.468 0.468 1.126 1.479 1.728 1.728 0.53401 0.222 1.631 0 2.198 0 0.53 0 5.649 0.117 5.649-0.107v-3.242c0-0.237-1.489-0.107-1.718-0.107h-6.13c0.576 0.576 1.152 1.152 1.729 1.728h-1.592c-0.286 0-1.657-0.2-1.864 0-0.080002 0.077003-0.080002 1.648 0 1.728 0.188 0.188 1.431 0 1.728 0-0.57599-0.577-1.152-1.152-1.728-1.728"/>
</svg>
