<?xml version="1.0" encoding="UTF-8"?>
<svg width="254.04mm" height="179.33mm" version="1.1" viewBox="0 0 900.14479 635.43305" xmlns="http://www.w3.org/2000/svg" xmlns:xlink="http://www.w3.org/1999/xlink">
 <defs>
  <linearGradient id="bz" x1="-270.08" x2="-268.41" y1="460.09" y2="460.09" gradientTransform="matrix(201.1,227.43,227.43,-201.1,-50555,153920)" gradientUnits="userSpaceOnUse">
   <stop stop-color="#FFD8BF" offset="0"/>
   <stop stop-color="#BF7400" offset=".5393"/>
   <stop offset="1"/>
  </linearGradient>
  <linearGradient id="ca" x1="-270.09" x2="-268.4" y1="460.1" y2="460.1" gradientTransform="matrix(201.1,227.43,227.43,-201.1,-50555,153920)" gradientUnits="userSpaceOnUse">
   <stop stop-color="#F3C192" offset="0"/>
   <stop stop-color="#D49035" offset=".5393"/>
   <stop stop-color="#765735" offset="1"/>
  </linearGradient>
  <linearGradient id="cc" x1="-151.09" x2="257.27" y1="471.19" y2="471.19" gradientTransform="translate(-345.92 -71.582)" gradientUnits="userSpaceOnUse" xlink:href="#bi"/>
  <linearGradient id="bi">
   <stop stop-color="#888585" offset="0"/>
   <stop stop-color="#f6f6f6" offset=".5"/>
   <stop stop-color="#b3b3b3" offset="1"/>
  </linearGradient>
  <linearGradient id="cb" x1="8.9512" x2="67.068" y1="471.02" y2="471.02" gradientTransform="translate(-345.92 -71.582)" gradientUnits="userSpaceOnUse" xlink:href="#bi"/>
  <linearGradient id="bq" x1="217.05" x2="226.18" y1="970.61" y2="938.22" gradientTransform="matrix(2.1064,0,0,1.0282,102.5,-641)" gradientUnits="userSpaceOnUse" xlink:href="#a"/>
  <linearGradient id="a">
   <stop stop-color="#cfcfcf" offset="0"/>
   <stop stop-color="#5d5d5d" offset="1"/>
  </linearGradient>
  <linearGradient id="br" x1="162.94" x2="332.33" y1="580" y2="588.27" gradientTransform="matrix(1.3822,0,0,1.567,102.5,-641)" gradientUnits="userSpaceOnUse" xlink:href="#a"/>
  <linearGradient id="bn" x1="215.41" x2="313.98" y1="990.95" y2="1042.8" gradientTransform="matrix(2.4471 0 0 .88507 -243.41 -461.58)" gradientUnits="userSpaceOnUse" xlink:href="#a"/>
  <linearGradient id="bp" x1="355.22" x2="622.9" y1="311.31" y2="312.83" gradientTransform="matrix(.77669 0 0 2.7886 102.5 -641)" gradientUnits="userSpaceOnUse" xlink:href="#a"/>
  <linearGradient id="bo" x1="176.89" x2="186.85" y1="878.46" y2="890.49" gradientTransform="matrix(2.4471 0 0 .88507 207.39 -424.39)" gradientUnits="userSpaceOnUse" xlink:href="#a"/>
  <linearGradient id="cy" x1="254.38" x2="313.92" y1="734.85" y2="789.95" gradientTransform="matrix(2.5861 0 0 .83751 -243.41 -461.58)" gradientUnits="userSpaceOnUse" xlink:href="#a"/>
  <linearGradient id="ck" x1="141.55" x2="191.15" y1="817.93" y2="831.15" gradientTransform="matrix(1.9041,0,0,1.1375,-243.41,-461.58)" gradientUnits="userSpaceOnUse" xlink:href="#a"/>
  <linearGradient id="cw" x1="130.17" x2="357.63" y1="495.55" y2="622.31" gradientTransform="matrix(1.4312,0,0,1.5133,-243.41,-461.58)" gradientUnits="userSpaceOnUse" xlink:href="#a"/>
  <linearGradient id="bs" x1="215.41" x2="313.98" y1="990.95" y2="1042.8" gradientTransform="matrix(2.4471 0 0 .88507 -265.07 -488.85)" gradientUnits="userSpaceOnUse" xlink:href="#a"/>
  <linearGradient id="cx" x1="449.02" x2="498.87" y1="487.45" y2="610.28" gradientTransform="matrix(1.5472,0,0,1.3998,-243.41,-461.58)" gradientUnits="userSpaceOnUse" xlink:href="#bb"/>
  <linearGradient id="bb">
   <stop stop-color="#5d5d5d" offset="0"/>
   <stop stop-color="#292929" offset="1"/>
  </linearGradient>
  <linearGradient id="ci" x1="217.05" x2="226.18" y1="970.61" y2="938.22" gradientTransform="matrix(2.1064,0,0,1.0282,-243.41,-461.58)" gradientUnits="userSpaceOnUse" xlink:href="#a"/>
  <linearGradient id="cl" x1="139.12" x2="156.26" y1="859.62" y2="875.36" gradientTransform="matrix(2.4471 0 0 .88507 -210.99 -455.38)" gradientUnits="userSpaceOnUse" xlink:href="#a"/>
  <linearGradient id="cd" x1="328.52" x2="333.61" y1="445.1" y2="458.29" gradientTransform="matrix(1.2337,0,0,1.7555,-243.41,-461.58)" gradientUnits="userSpaceOnUse" xlink:href="#a"/>
  <linearGradient id="cm" x1="156.27" x2="162.14" y1="928.82" y2="933.1" gradientTransform="matrix(2.4471 0 0 .88507 -243.41 -461.58)" gradientUnits="userSpaceOnUse" xlink:href="#a"/>
  <linearGradient id="ch" x1="162.94" x2="332.33" y1="580" y2="588.27" gradientTransform="matrix(1.3822,0,0,1.567,-243.41,-461.58)" gradientUnits="userSpaceOnUse" xlink:href="#a"/>
  <radialGradient id="bd" cx="876.84" cy="328.01" r="167.69" gradientTransform="scale(.5471 1.8278)" gradientUnits="userSpaceOnUse" xlink:href="#a"/>
  <linearGradient id="da" x1="177.63" x2="180.96" y1="913.29" y2="920.23" gradientTransform="matrix(2.0301,0,0,1.0669,-243.41,-461.58)" gradientUnits="userSpaceOnUse" xlink:href="#bb"/>
  <linearGradient id="bl" x1="188.76" x2="203.49" y1="836.9" y2="844.19" gradientTransform="matrix(1.8282,0,0,1.1847,-243.41,-461.58)" gradientUnits="userSpaceOnUse" xlink:href="#a"/>
  <linearGradient id="bm" x1="328.87" x2="340.42" y1="528.68" y2="535.12" gradientTransform="matrix(1.1634,0,0,1.8617,-243.41,-461.58)" gradientUnits="userSpaceOnUse" xlink:href="#bb"/>
  <linearGradient id="cz" x1="181.08" x2="242.92" y1="717.42" y2="781.55" gradientTransform="matrix(2.5897 0 0 .83634 -243.41 -461.58)" gradientUnits="userSpaceOnUse" xlink:href="#bb"/>
  <radialGradient id="co" cx="585.98" cy="470.35" r="52.277" gradientTransform="scale(.71901 1.3908)" gradientUnits="userSpaceOnUse" xlink:href="#a"/>
  <linearGradient id="cf" x1="176.89" x2="186.85" y1="878.46" y2="890.49" gradientTransform="matrix(2.4471 0 0 .88507 -243.41 -461.58)" gradientUnits="userSpaceOnUse" xlink:href="#a"/>
  <linearGradient id="cg" x1="355.22" x2="622.9" y1="311.31" y2="312.83" gradientTransform="matrix(.77669 0 0 2.7886 -243.41 -461.58)" gradientUnits="userSpaceOnUse" xlink:href="#a"/>
  <linearGradient id="ce" x1="139.12" x2="156.26" y1="859.62" y2="875.36" gradientTransform="matrix(2.4471 0 0 .88507 -243.41 -461.58)" gradientUnits="userSpaceOnUse" xlink:href="#a"/>
  <linearGradient id="cj" x1="176.89" x2="186.85" y1="878.46" y2="890.49" gradientTransform="matrix(2.4471 0 0 .88507 -138.53 -244.98)" gradientUnits="userSpaceOnUse" xlink:href="#a"/>
  <linearGradient id="bh" x1="950.23" x2="992.74" y1="339.08" y2="366.24" gradientTransform="scale(.55497 1.8019)" gradientUnits="userSpaceOnUse" xlink:href="#a"/>
  <linearGradient id="bt" x1="879.78" x2="907.35" y1="365.68" y2="378.45" gradientTransform="matrix(.89675 .13257 -.34942 2.3636 -104.41 -572.1)" gradientUnits="userSpaceOnUse" xlink:href="#a"/>
  <radialGradient id="bj" cx="974.29" cy="320.05" r="42.668" gradientTransform="scale(.5471 1.8278)" gradientUnits="userSpaceOnUse" xlink:href="#a"/>
  <radialGradient id="bk" cx="889.97" cy="325.7" r="123.73" gradientTransform="scale(.5471 1.8278)" gradientUnits="userSpaceOnUse" xlink:href="#a"/>
  <linearGradient id="bu" x1="879.78" x2="907.35" y1="365.68" y2="378.45" gradientTransform="matrix(1.0345 .11227 -.29591 2.7267 -431.86 -598.14)" gradientUnits="userSpaceOnUse" xlink:href="#a"/>
  <linearGradient id="by" x1="283.14" x2="310.21" y1="544.04" y2="621.52" gradientTransform="matrix(2.0201,0,0,1.0721,-243.41,-461.58)" gradientUnits="userSpaceOnUse" xlink:href="#bc"/>
  <linearGradient id="bc">
   <stop stop-color="#303030" offset="0"/>
   <stop offset="1"/>
  </linearGradient>
  <linearGradient id="bx" x1="356.59" x2="411.77" y1="500.32" y2="596.46" gradientTransform="matrix(1.8245,0,0,1.1871,-243.41,-461.58)" gradientUnits="userSpaceOnUse" xlink:href="#bc"/>
  <linearGradient id="bw" x1="366.8" x2="355.54" y1="490.91" y2="536.1" gradientTransform="matrix(1.6941,0,0,1.2785,-243.41,-461.58)" gradientUnits="userSpaceOnUse" xlink:href="#bc"/>
  <linearGradient id="bv" x1="278.43" x2="254.63" y1="675.68" y2="726.86" gradientTransform="matrix(2.1424,0,0,1.011,-243.41,-461.58)" gradientUnits="userSpaceOnUse" xlink:href="#bc"/>
  <radialGradient id="cn" cx="-5153.7" cy="987.1" r="155.62" gradientTransform="matrix(1.121 -1.8784e-8 0 .37961 6174.9 535.82)" gradientUnits="userSpaceOnUse">
   <stop stop-opacity="0" offset="0"/>
   <stop stop-opacity="0" offset=".1"/>
   <stop offset="1"/>
  </radialGradient>
  <filter id="cq" color-interpolation-filters="sRGB">
   <feGaussianBlur stdDeviation="2.9371152"/>
  </filter>
  <filter id="bg" x="-.056541" y="-.11485" width="1.1131" height="1.2297" color-interpolation-filters="sRGB">
   <feGaussianBlur stdDeviation="1.0376854"/>
  </filter>
  <filter id="bf" x="-.05288" y="-.13364" width="1.1058" height="1.2673" color-interpolation-filters="sRGB">
   <feGaussianBlur stdDeviation="1.0376854"/>
  </filter>
  <filter id="be" x="-.61489" y="-.084422" width="2.2298" height="1.1688" color-interpolation-filters="sRGB">
   <feGaussianBlur stdDeviation="1.0376854"/>
  </filter>
  <filter id="cs" x="-.2107" y="-.089387" width="1.4214" height="1.1788" color-interpolation-filters="sRGB">
   <feGaussianBlur stdDeviation="0.88339292"/>
  </filter>
  <filter id="cr" x="-.11345" y="-.081186" width="1.2269" height="1.1624" color-interpolation-filters="sRGB">
   <feGaussianBlur stdDeviation="0.88339292"/>
  </filter>
  <filter id="cp" x="-.2292" y="-.057108" width="1.4584" height="1.1142" color-interpolation-filters="sRGB">
   <feGaussianBlur stdDeviation="0.88339292"/>
  </filter>
  <filter id="ct" x="-.31129" y="-.72456" width="1.6226" height="2.4491" color-interpolation-filters="sRGB">
   <feGaussianBlur stdDeviation="25.014401"/>
  </filter>
  <filter id="cu" color-interpolation-filters="sRGB">
   <feGaussianBlur stdDeviation="4.9510026"/>
  </filter>
  <filter id="cv" color-interpolation-filters="sRGB">
   <feGaussianBlur stdDeviation="6.6013367"/>
  </filter>
 </defs>
 <g transform="translate(359.89 -33.848)">
  <g transform="matrix(4.123 0 0 4.123 -5155.5 -577.86)">
   <path transform="matrix(.45289 0 0 .45289 1281.7 148.15)" d="m-8.7499 263.17c0 45.938-44.044 62.126-83.516 61.114-43.836-1.126-82.184-23.902-76.4-72.264 4.978-41.648 37.762-89.402 84.358-86.64 47.516 2.814 75.558 54.864 75.558 97.79" fill="#4d4d4d"/>
   <path transform="matrix(.45289 0 0 .45289 1281.7 148.15)" d="m-88.01 167.02c-45.336 0-75.902 47.8-79.278 88.666-3.9 47.282 37.326 66.856 78.942 66.856-37.754 0-78.34-16.924-76.442-60.542 1.818-41.78 34.532-74.728 76.748-74.728 40.208 0 71.12 29.5 74.434 69.33 3.802 45.754-33.596 65.94-74.678 65.94 40.186 0 79.44-18.68 77.662-64.026-1.636-41.788-30.726-91.496-77.388-91.496" fill="#4d4d4d"/>
   <path transform="matrix(.45289 0 0 .45289 1281.7 148.15)" d="m-146.54 195.03c-25.348 31.744-39.262 89.712 0.402 116.18 32.26 21.52 91.224 21.96 120.86-4.856 31.268-28.296 18.122-82.32-4.734-111.62-31.412-40.256-84.782-39.366-116.53 0.296m-21.37 69.566c0-44.65 33.046-100.67 83.424-97.744 45.376 2.636 72.616 50.884 74.168 91.98 1.646 43.63-34.196 62.89-73.616 63.928-37.66 0.996-83.976-13.12-83.976-58.164" fill="#282828"/>
   <path transform="matrix(.45289 0 0 .45289 1281.7 148.15)" d="m-88.138 300.92c-26.774 0-59.094-4.014-78.618-24.488 6.86 34.126 43.316 45.49 73.982 46.324 32.876 0.896 73.282-8.804 81.144-45.872-18.952 20.148-50.358 24.036-76.508 24.036"/>
   <path transform="matrix(.45289 0 0 .45289 1281.7 148.15)" d="m-88.01 166.15c42.562 0 70.616 43.026 75.084 81.346 5.168 44.314-25.76 68.4-67.51 70.664-37.476 2.026-85.5-11.688-85.5-56.956 0-41.454 28.508-91.786 73.924-94.936-45.49 3.078-74.742 52.352-76.416 93.964-1.908 47.352 43.712 64.216 84.108 63.176 41.912-1.078 77.856-22.838 74.376-68.742-3.116-41.06-32.382-88.516-78.066-88.516" fill="#282828"/>
   <ellipse transform="matrix(.45289 0 0 .45289 1281.7 148.15)" cx="-86.902" cy="185.16" rx="34.245" ry="17.094" fill="#fcd095" stroke="#000" stroke-linejoin="round" stroke-width="2.7185"/>
   <path transform="matrix(.45289 0 0 .45289 1281.7 148.15)" d="m-25.752 125.71c0 33.638-29.408 59.89-62.32 59.89s-62.318-26.25-62.318-59.89c0-33.648 29.39-59.922 62.318-59.922 32.932 0 62.32 26.27 62.32 59.922" fill="#fcd095"/>
   <path transform="matrix(.45289 0 0 .45289 1281.7 148.15)" d="m-129.87 103.22c14.21-16.636 38.996-20.75 59.366-15.128 22.334 6.164 33.676 24.218 37.052 46.194 4.964-32.678-22.32-61.014-54.622-61.014-32.338 0-59.57 28.358-54.618 61.042 1.686-10.952 5.542-22.544 12.822-31.094" fill="#ffe2ae"/>
   <path transform="matrix(.45289 0 0 .45289 1281.7 148.15)" d="m-27.996 118.5c-3.458 26.606-18.06 46.952-45.858 51.806-34.02 5.946-69.704-15.82-74.292-51.798-5.012 36.918 28.054 67.59 64.05 65.334 33.266-2.084 60.426-31.592 56.1-65.342" fill="#fabb78"/>
   <path transform="matrix(.45289 0 0 .45289 1281.7 148.15)" d="m-148.22 118.65c-1.626 3.388-0.776 8.058-0.266 11.564-0.306-3.848-0.216-7.736 0.266-11.564m119.3-5.55c7.804 33.822-17.652 66.15-51.272 70.374-18.394 2.316-37.308-3.698-50.714-16.57-12.084-11.61-15.428-26.83-21.216-41.454 0 34.92 30.048 61.824 64.042 61.824 38.076 0 70.536-34.264 62.94-73.004 0.32 0.73 0.268 1.356-0.162 1.888-1.41-0.762-2.614-1.782-3.618-3.058m2.292-3.474c0.068 1.488 0.068 1.488 0 0m-0.062-1.038c0.068 1.116 0.068 1.116 0 0m-0.05-0.606c0.046 0.566 0.016 0.15 0 0" fill="url(#bz)"/>
   <path transform="matrix(.45289 0 0 .45289 1281.7 148.15)" d="m-43.73 74.462c10.638 10.816 16.534 20.25 17.158 36.274-0.032-0.948-12-11.242-13.824-12.728-4.482-3.656-9.65 4.152-14.026 6.388-11.062 5.658-27.876 9.972-40.064 5.94-6.514-2.152-14.074-6.518-21.13-4.374-4.084 1.244-6.696 4.808-8.314 8.576-1.644 3.822-1.882 19.154-4.364 20.774-0.944 0.61-8.952-17.556-10.018-19.174-12.982-19.656-12.666 14.688-11.12 14.298-8.346 2.078-1.826-33.21-0.592-35.98 5.862-13.162 16.54-23.318 29.45-29.494 23.352-11.172 57.814-9.986 76.844 9.5" fill="#c48e53"/>
   <path transform="matrix(.45289 0 0 .45289 1281.7 148.15)" d="m-154.21 115.04c0.154 3.572 2.272 7.532 2.272 10.848-0.452-1.06 2.02 4.914 2.528 4.53 0.818-5.44-3.71-10.07-4.8-15.378m110.07-24.114c-1.442 0-6.354 5.422-7.848 6.348-4.37 2.704-9.23 4.59-14.172 5.96-13.096 3.63-23.504 2.21-36.462 0.072-7.518-1.236-14.05-5.742-19.562 1.586-2.124 2.822-7.554 25.106-6.964 25.106-2.822 0-8.008-16.32-9.512-18.746-1.778-2.876-7.21-7.182-10.642-4.454-3.548 2.816-1.744 10.4-1.18 14.07-1.502-7.986 3.398-11.248 10.038-7.104 2.602 2.492 9.646 21.89 12.038 21.594 0.822-0.19 3.94-20.18 5.622-23.146 2.332-4.126 6.072-6.768 10.886-6.768 8.244 0.282 15.376 6.136 23.528 6.136 10.35 0 20.958-1.566 30.542-5.604 3.196-1.348 11.852-9.676 14.346-9.676 6.532-1.27 10.82 14.808 16.682 14.808 0.918 0-0.604-8.762-0.708-9.346 0.826 1.526 0.838 2.854 0.042 3.986-6.206-2e-3 -9.708-14.822-16.674-14.822" fill="#ab4c0c"/>
   <path transform="matrix(.45289 0 0 .45289 1281.7 148.15)" d="m-52.272 91.826c0 19.094-70.048 17.372-70.048 1.274 12.872 2.814 27.114 5.152 40.276 3.792 3.418-0.358 29.772-9.798 29.772-5.066" fill="#d8ac77"/>
   <path transform="matrix(.45289 0 0 .45289 1281.7 148.15)" d="m-146.45 111.49c-1.056 0-1.672 6.406-1.77 7.156-0.18 0.382 0.07-0.178 0.07-0.144 1.164-2.256 3.548-2.25 5.66-1.482 0.77-4.136 0.83-5.53-3.96-5.53m98.144-10.932c-7.298 5.644-16.678 8.46-25.664 9.9-13.158 2.118-20.28-1.25-32.75-4.308-16.566-4.064-20.018 14.188-20.968 26.922 0.298 1.224 0.034 1.986-0.796 2.294-4.386-5.25-5.808-12.628-9.378-18.516-0.666 1.618 8.36 23.548 10.892 23.548 4.626 0 0.338-33.652 20.664-29.468 12.488 2.564 20.23 6.688 33.498 4.616 9.746-1.526 20.278-4.65 27.768-11.39-1.02-1.262-2.106-2.46-3.266-3.598m6.042-3.848c4.24 6.012 8.188 11.044 13.346 16.386-1.464-6.354-7.502-13.202-13.346-16.386" fill="#f2bd7e"/>
   <path transform="matrix(.45289 0 0 .45289 1281.7 148.15)" d="m-141.59 113.1c-1.644 6.084-1.39 2.558 2.894 5.886 1.124-3.012-0.266-4.434-2.894-5.886m98.106-16.794c-1.316 0-3.846 3.506-4.816 4.256 1.16 1.138 2.246 2.336 3.262 3.6 3.294-2.96 3.26-3.678 6.966-0.402-0.85-1.724-2.936-7.454-5.412-7.454" fill="#f3c58a"/>
   <path transform="matrix(.45289 0 0 .45289 1281.7 148.15)" d="m-148.48 130.21c0.216 1.724 0.43 3.448 0.648 5.17-0.08-1.736-0.298-3.46-0.648-5.17m0.334-11.714" fill="#f1b26f"/>
   <path transform="matrix(.45289 0 0 .45289 1281.7 148.15)" d="m-146.84 111.51c-4.256 0.388-3.832 6.742-3.61 9.59-6e-3 -0.04 1.514 9.01 1.042 9.32-0.79-1.466-1.854-2.86-2.522-4.504 0.25 1.138 2.226 9.584 3.996 9.584-2.932 0 0.488-21.668 1.094-23.99m120.11-3.532c0.066 0.92 0.118 1.834 0.156 2.754 0.038 0.238-0.042 0.362-0.232 0.376-1.356-0.724-2.518-1.698-3.48-2.928 0.56 1.698 1.552 7.972 4.99 7.972 1.024 2e-3 -1.288-7.7-1.434-8.174" fill="url(#ca)"/>
   <path transform="matrix(.45289 0 0 .45289 1281.7 148.15)" d="m-128.21 135.24c-0.08 0.086-0.17 0.132-0.276 0.132 0.092-0.046 0.184-0.094 0.276-0.132m-21.39-4.882c0.05 0.028 0.098 0.054 0.148 0.08-0.05-0.026-0.098-0.052-0.148-0.08m-1.338-2.248c0.132 0.25 0.264 0.506 0.394 0.756-0.132-0.25-0.264-0.506-0.394-0.756m-0.382-0.782c0.214 0.432 0.214 0.432 0 0m-0.372-0.83c0.28 0.626 0.28 0.626 0 0m-0.244-0.598c0 0.026 0.392 0.992 0 0m5.486-14.406c-0.734 0.236-1.462 0.474-2.198 0.71 3.216-1.506 9.024 2.084 8.196 1.566-1.808-1.296-3.808-2.058-5.998-2.276m119.79-0.426c-0.05 0.012-0.1 0.032-0.148 0.046 0.048-0.014 0.098-0.034 0.148-0.046m0.022-1.64c0.014 0.264 0.014 0.264 0 0m-0.074-1.176c0.028 0.448 0.028 0.448 0 0m-84.82-2.802c3.348 0.236 6.584 0.972 9.706 2.216-3.118-1.112-6.368-2.124-9.706-2.216m-0.374 0c-0.478 0-0.478 0 0 0m77.388-1.744c0.844 0.902 1.694 1.802 2.54 2.704-0.846-0.902-1.69-1.802-2.54-2.704m6.306-5.392c0.724 3.084 1.208 6.202 1.454 9.36-0.146-1.83-0.752-7.526-1.454-9.36m-15.278-2.008c-0.626 0.178-0.626 0.178 0 0" fill="#d69c5d"/>
   <path transform="matrix(.45289 0 0 .45289 1281.7 148.15)" d="m-149.41 130.42c-0.056 0.02-0.056 0.02 0 0m-2.528-4.53c0 1.044 1.806 3.972 2.338 4.464-0.962-1.388-1.744-2.872-2.338-4.464m1.91-0.968c0-1.988 0.832 5.34 0.618 5.498 0.04-1.854-0.168-3.69-0.618-5.498m10.404-10.464c2.084 2.696 8.33 20.91 11.138 20.91-5.462-5.612-5.558-15.182-11.138-20.91m-0.826-0.692m-8.196-1.564c-2.266 1.808-2.232 6.446-1.806 8.9-0.204-2.58-0.576-6.98 1.806-8.9m122.07-1.468c-0.112 0.434-0.112 0.434 0 0m-5.402-4.328c0.928 1.144 3.552 4.704 5.17 4.704-1.99-1.258-3.714-2.828-5.17-4.704m-80.288-0.96c-4.67 0.11-8.268 2.774-10.528 6.768-1.682 2.964-4.798 22.956-5.622 23.146 0.75-0.394 0.99-1.158 0.724-2.288 0.67-9.504 2.522-27.324 15.426-27.626m0.36 0c0.762-8e-3 1.522 0.046 2.278 0.15-0.76-0.052-1.518-0.104-2.278-0.15m67.946-9.012c-8.74 5.828-14.868 10.874-25.732 13.22-14.874 3.216-23.592-0.486-37.614-3.644 12.528 2.83 19.952 6.578 33.204 4.466 12.708-2.018 20.014-7.294 30.142-14.042m0.472-0.132c-2e-3 0-2e-3 0 0 0 3.788 1.506 6.506 4.876 9.298 7.75-1.796-1.848-6.116-7.75-9.298-7.75" fill="#2e3436"/>
   <path transform="matrix(.45289 0 0 .45289 1281.7 148.15)" d="m-152.55 120.31c0-37.412 36.838-62.55 72.022-58.496 38.386 4.426 68.058 43.518 51.064 81.124 23.134-41.612-15.688-88.47-59.258-88.47-43.574 0-81.984 47.004-58.922 88.476-3.208-7.098-4.906-14.838-4.906-22.634" fill="#ab4c0c"/>
   <path transform="matrix(.098461 -.12973 .20978 .15952 1137.6 146.14)" d="m-282.59 371.81 0.0262 30.571c0.75741 7.47-2.09 14.938-1.3326 22.408-0.84415 9.471-1.2401 16.17 4.2242 25.644-9.0476 11.393-10.432 25.562-8.2096 43.197-0.85189 30.343-1.705 59.3-4.3593 89.642-0.6322 14.09-3.9654 31.182-2.3446 45.274 1.2354 20.161 36.457 40.439-11.63 42.226-10.199 0.37889-23.401-4.602-26.963-7.8666-5.9019-5.4081-9.2549-6.8563 7.2188-22.136 3.6527-12.951 0.74415-45.583 0.66998-63.292l2.2868-98.424c-2.0344-30.036-8.5445-24.728-8.3085-34.433 0.66127-6.7711 1.3225-13.542 1.9838-20.313-2.5603-8.0099-2.4175-16.712-7.6808-24.03l-0.0244-28.492 54.443 0.0239z" fill="#d38d5f" stroke="#000" stroke-width="2.4134"/>
   <path transform="matrix(.098461 -.12973 .20978 .15952 1137.6 146.14)" d="m-285.13 429.9c-13.203 4.433-20.486 10.338-45.64-3.7304-4.4529-2.4905-5.7788-14.518-10.688-15.422-49.526-9.1238-73.622-12.78-153.54 11.514-2.9558-7.6348-0.67737-42.049-0.67737-45.881 31.664 1.0492 116.57 9.8698 167.53-5.612 6.3346-1.9246 15.263-6.5452 22.122-6.5452 9.2572 0 17.759 4.6576 26.676 5.2601 115.8 7.7815 178.8 22.872 190.2 28.529-17.916 1.6578-108.62-15.943-173.77-0.98286-22.712 5.2154-10.15 19.573-22.211 32.872z" fill="url(#cc)" fill-rule="evenodd" stroke="#000" stroke-width="2.4134"/>
   <path transform="matrix(.098461 -.12973 .20978 .15952 1137.6 146.14)" d="m-279.43 429.9c-13.203 4.433-31.885 9.7046-57.039-4.3637l1.3534-53.502c6.3346-1.9246 22.229-7.8117 29.088-7.8117 9.2572 0 17.759 1.4912 26.676 2.0937l-0.078 63.584z" fill="url(#cb)" fill-rule="evenodd" stroke="#000" stroke-width="2.4134"/>
   <g transform="matrix(.15244 0 0 .15244 1273.1 206.59)" stroke="#000" stroke-linejoin="round">
    <path d="m592.37 303.38c19.98 18.6 59.43 19.6 79.4 38.2l-55.8 27.71-85.02-36.7 61.42-29.21z" fill="url(#bq)" fill-rule="evenodd" stroke-linecap="round" stroke-width="5.5188"/>
    <path d="m445.79 136.68 31.46 6.56 5.25 48.68 33.7 7.5 5.25-50.19 31.46 5.99-8.24 169.28c19.97 18.61 60.54 21.48 80.52 40.08l2.62 53.93-245.68-59.92-2.25-37.46c12.73-10.11 38.57-5.99 62.92-22.47l2.99-161.98z" fill="url(#br)" fill-rule="evenodd" stroke-linecap="round" stroke-width="5.5188"/>
    <path d="m613.15 388.57 0.13 23.2-285.7 150.7-0.9-24.33 286.47-149.57z" fill="url(#bn)" fill-rule="evenodd" stroke-width="5.5188"/>
    <path d="m544.71 323.87 8.52-166.63 33.9-16.95 4.73 163.47-47.15 20.11z" fill="url(#bp)" fill-rule="evenodd" stroke-width="5.5188"/>
    <path d="m671.95 342.24 1.18 49.68-45.24 26.76-2.49-53.99 46.55-22.45z" fill="url(#bo)" fill-rule="evenodd" stroke-width="5.5188"/>
    <path d="m72.317 252.38 262.81 49.48 344.45-146.6-286.31-46.33-320.95 143.45z" fill="url(#cy)" fill-rule="evenodd" stroke-linecap="round" stroke-width="5.5188"/>
    <path d="m33.594 499.26 47.933-22.77c6.091-4.86 21.983-6.27 34.693-10.07l-52.701 47.14-29.925-14.3z" fill="url(#ck)" fill-rule="evenodd" stroke-linecap="round" stroke-width="5.5188"/>
    <path d="m71.183 252.74c8.988 81.65 20.224 133.33 41.947 198.5 29.3 87.91 158.39 105.59 183.93 39.44 18.48-47.85 33.21-74.74 36.7-189.26l-262.58-48.68z" fill="url(#cw)" fill-rule="evenodd" stroke-linecap="round" stroke-width="5.5188"/>
    <path d="m578.76 381.89 33.46 6.35-288.7 151.07-16.25-15.71 271.49-141.71z" fill="url(#bs)" fill-rule="evenodd" stroke-width="5.5188"/>
    <path d="m335.13 300.36-57.33 217.16 326.42-160.45c59.7-33.16 68.46-130.75 75.73-202.87l-344.82 146.16z" fill="url(#cx)" fill-rule="evenodd" stroke-linecap="round" stroke-width="5.5188"/>
    <path d="m246.46 482.79c19.97 18.6 59.42 19.6 79.4 38.2l-55.81 27.72-85.01-36.7 61.42-29.22z" fill="url(#ci)" fill-rule="evenodd" stroke-linecap="round" stroke-width="5.5188"/>
    <path d="m166.09 307.75 5.46 49.18-33.78 15-6.7-49.39 35.02-14.79z" fill="url(#cl)" fill-rule="evenodd" stroke-width="5.5188"/>
    <path d="m150 322.75 34.48-13.36c22.21 11.99-1.05 37.27-1.31 54.32l-31.67 13.35-1.5-54.31z" fill="url(#cd)" fill-rule="evenodd" stroke-linecap="round" stroke-width="5.5188"/>
    <path d="m179.1 360.38-8.89 18.56-26.83-5.29 35.72-13.27z" fill="url(#cm)" fill-rule="evenodd" stroke-width="5.5188"/>
    <path d="m99.878 316.1 31.462 6.55 5.24 48.69 33.71 7.49 5.24-50.18 31.46 5.99-8.24 169.28c19.98 18.6 60.55 21.47 80.52 40.07l2.62 53.93-245.68-59.92-2.247-37.45c12.734-10.11 38.576-5.99 62.919-22.47l2.996-161.98z" fill="url(#ch)" fill-rule="evenodd" stroke-linecap="round" stroke-width="5.5188"/>
    <ellipse transform="matrix(1.6102 .23804 -.17008 1.1505 -220.1 -430.18)" cx="557.32" cy="629.92" rx="16.796" ry="59.04" fill="url(#bd)" stroke-linecap="round" stroke-width="4.0111"/>
    <path d="m124.06 500.94-28.855 20.57 41.145 11.37 22.47-23.96-34.76-7.98z" fill="none" stroke-linecap="round" stroke-width="3.6792"/>
    <path d="m111.06 518.42 22.74 5.8 11.8-11.16-19.9-5.25-14.64 10.61z" fill="url(#da)" fill-rule="evenodd" stroke-linecap="round" stroke-width="3.6792"/>
    <path d="m95.023 521.56-0.571 14.79 41.728 11.01 0.08-14.73-41.237-11.07z" fill="url(#bl)" fill-rule="evenodd" stroke-linecap="round" stroke-width="3.6792"/>
    <path d="m136.35 532.81 0.01 14.52 22.18-26.77 0.37-11.54-22.56 23.79z" fill="url(#bm)" fill-rule="evenodd" stroke-linecap="round" stroke-width="3.6792"/>
    <path d="m109.86 248.8 222.37 39.74 307.74-129.37-243.61-38.1-286.5 127.73z" fill="url(#cz)" fill-rule="evenodd" stroke-linecap="round" stroke-width="5.5188"/>
    <ellipse transform="matrix(.61835 0 0 .40372 -121.18 68.358)" cx="439.24" cy="698.12" rx="32.065" ry="67.183" fill="url(#co)" stroke-linecap="round" stroke-width="11.046"/>
    <path d="m210.28 314.04 31.15 5.49-34.05 14.73-31.59-6.49 34.49-13.73z" fill="url(#cf)" fill-rule="evenodd" stroke-width="5.5188"/>
    <path d="m198.8 503.29 8.52-166.63 33.9-16.95 4.73 163.47-47.15 20.11z" fill="url(#cg)" fill-rule="evenodd" stroke-width="5.5188"/>
    <path d="m134.46 301.81 31.15 5.49-34.05 14.73-31.588-6.49 34.488-13.73z" fill="url(#ce)" fill-rule="evenodd" stroke-width="5.5188"/>
    <path d="m326.03 521.65 1.19 49.68-45.25 26.76-2.48-53.98 46.54-22.46z" fill="url(#cj)" fill-rule="evenodd" stroke-width="5.5188"/>
    <path d="m125.49 509.2 0.28 11.04" fill="none" stroke-linecap="round" stroke-width="3.6792"/>
    <ellipse transform="matrix(1.6102 .23804 -.17008 1.1505 -212.87 -428.74)" cx="557.32" cy="629.92" rx="16.796" ry="59.04" fill="url(#bh)" stroke-linecap="round" stroke-width="4.0111"/>
    <path d="m598.28 393.19-12.12-2.55c-22.8 2.31-27.36 75.84-12.36 81.08l14.06 4.73 10.42-83.26z" fill="url(#bt)" fill-rule="evenodd" stroke-linecap="round" stroke-width="5.5188"/>
    <ellipse transform="matrix(.98773 .14602 -.10433 .70575 110.58 -91.416)" cx="557.32" cy="629.92" rx="16.796" ry="59.04" fill="url(#bj)" stroke-linecap="round" stroke-width="6.539"/>
    <ellipse transform="matrix(.32477 .048012 -.034305 .23205 438.23 263.1)" cx="557.32" cy="629.92" rx="16.796" ry="59.04" fill="url(#bd)" stroke-linecap="round" stroke-width="19.887"/>
    <ellipse transform="matrix(.32477 .048012 -.034305 .23205 441.64 263.34)" cx="557.32" cy="629.92" rx="16.796" ry="59.04" fill="url(#bk)" stroke-linecap="round" stroke-width="19.887"/>
    <ellipse transform="matrix(1.8576 .20159 -.14404 1.3273 -558.26 -430.21)" cx="557.32" cy="629.92" rx="16.796" ry="59.04" fill="url(#bd)" stroke-linecap="round" stroke-width="3.4942"/>
    <ellipse transform="matrix(1.8576 .20159 -.14404 1.3273 -549.91 -428.88)" cx="557.32" cy="629.92" rx="16.796" ry="59.04" fill="url(#bh)" stroke-linecap="round" stroke-width="3.4942"/>
    <path d="m417.02 477.93-14.01-2.38c-26.06 3.66-28.03 88.2-10.59 93.56l16.35 4.8 8.25-95.98z" fill="url(#bu)" fill-rule="evenodd" stroke-linecap="round" stroke-width="5.5188"/>
    <ellipse transform="matrix(1.1395 .12366 -.088355 .81418 -163.91 -56.3)" cx="557.32" cy="629.92" rx="16.796" ry="59.04" fill="url(#bj)" stroke-linecap="round" stroke-width="5.6963"/>
    <ellipse transform="matrix(.37467 .040659 -.029052 .2677 227.66 335.82)" cx="557.32" cy="629.92" rx="16.796" ry="59.04" fill="url(#bd)" stroke-linecap="round" stroke-width="17.324"/>
    <ellipse transform="matrix(.37467 .040659 -.029052 .2677 231.58 335.95)" cx="557.32" cy="629.92" rx="16.796" ry="59.04" fill="url(#bk)" stroke-linecap="round" stroke-width="17.324"/>
    <path d="m224.8 253.5c5.21-12.88-10.1-8.6 5.74-26.77 15.85-18.17 23.65-51.37 43.3-69.33s47.97 19.58 64.59 7.32c16.62-12.27 9.9-35.14 54.8-59.52 23.36-12.685 85.09 44.85 117.58 87.92-53.32 8.48-232.69 51.91-286.01 60.38z" fill="url(#by)" stroke-linecap="round" stroke-width="5.5188"/>
    <path d="m334.43 280.52c42.02-50.85 145.11-154.6 181.67-162.61 23.12-5.06 47.5 25.78 72.04 61.97-55.44 22.07-194.03 87.57-253.71 100.64z" fill="url(#bx)" stroke-linecap="round" stroke-width="5.5188"/>
    <path d="m253.93 268.86c29.31-32.83 67.33-112.19 94.81-109.63 29.36 2.73 41.84 54.02 69.38 92.16-89.16 38.66-85.63 35.48-164.19 17.47z" fill="url(#bw)" stroke-linecap="round" stroke-width="5.5188"/>
    <path d="m173.42 258.8c21.19-21.19 48.28-61.45 72.56-60.38 39.98 1.76 81.39 50.14 124.47 74.15l-36.81 15.89-160.22-29.66z" fill="url(#bv)" stroke-linecap="round" stroke-width="5.5188"/>
   </g>
   <g transform="matrix(-.1486 .019668 -.0034407 .14547 1272.6 147.46)">
    <g transform="translate(-43.552,-308.54)">
     <path d="m277.76 317.34c-30.971-0.10749-59.728 10.727-82.75 28.969-30.458 18.833-53.038 48.528-61.515 83.206-6.7495 19.591-10.148 37.304-11.73 52.624-4.5001 2.9523-10.253 7.0424-13.849 10.326-11.76 10.741-52.969 51.39-52.969 64.594 0 17.713 36.177 40.719 52.156 52.969 20.989 16.09 27.272 18.844 72.531 18.844 36.149 0 123.33-32.711 148.66-44 22.866-9.8746 52.717-25.366 70.073-38.641 16.311-11.654 25.833-25.687 25.833-40.796 0-12.761-6.8153-24.742-18.75-35.188 0.74325-5.3013 1.2056-10.684 1.3438-16.156 1.9013-75.284-55.86-136.5-129.03-136.75z" fill="#fc0" stroke="#000" stroke-width="6.8123"/>
     <path d="m277.76 317.34c-30.971-0.10749-59.728 10.727-82.75 28.969-30.458 18.833-53.024 48.541-61.5 83.219-6.7495 19.591-10.167 37.305-11.75 52.625 0 72.295 96.13 91.133 140.34 92 64.85 0.44 143.35-45.43 143.35-103.91 0.74325-5.3013 1.2056-10.684 1.3438-16.156 1.9013-75.284-55.86-136.5-129.03-136.75z" fill="#fc0" stroke="#000" stroke-width="6.8123"/>
     <path d="m406.8 447.09c-0.14017 5.3216-0.6034 10.58-1.3438 15.75 0.26414 0.21965 0.52214 0.43503 0.78125 0.65625 0.2882-3.1054 0.48261-6.2429 0.5625-9.4062 0.0594-2.3526 0.0558-4.6763 0-7z" fill="#ffff04" opacity=".55133"/>
     <path transform="matrix(.9796 0 0 1 -121.44 -345)" d="m540.09 822.28c-13.71 52.35-75.46 92.1-148.53 92.1-71.503 0-130.23-38.063-143.12-88.75-1.5685 4.3149-2.4631 8.7548-2.625 13.281-1.5382 43.003 63.712 77.844 145.75 77.844s149.81-34.84 151.34-77.844c0.20388-5.6998-0.78598-11.274-2.8125-16.625z" fill="url(#cn)" filter="url(#cq)" opacity=".2"/>
     <path d="m277.76 317.34c-30.971-0.10749-59.728 10.727-82.75 28.969-4.6439 2.8715-9.0881 6.0193-13.344 9.375-27.26 25.82-44.991 62.399-46.406 102.97-0.10791 3.0927-0.1133 6.1754-0.0312 9.2188 0.0341-0.35629 0.0885-0.70561 0.125-1.0625 8.3081-81.13 76.179-146.91 151.59-146.91 10.468 0 20.517 1.2865 30.062 3.6875-12.344-4.0247-25.53-6.2024-39.25-6.25z"/>
     <path d="m312.8 322.31c-54.347 11.452-100.47 71.166-110.34 150.25-2.685 21.512-2.4576 42.63 0.28125 62.594-0.84526-16.068-0.18114-32.684 2.1562-49.562 12.11-87.446 65.143-152.02 124.31-157.31-5.2816-2.349-10.775-4.3469-16.406-5.9688z"/>
     <path d="m207.13 558.96 44.047 5.4212v16.263l-44.05-5.42z" fill="#d4aa00" filter="url(#bg)"/>
     <path d="m207.13 558.96 44.047 5.4212 3.0494-13.214-44.047-5.4212z" fill="#ffd42a" filter="url(#bf)"/>
     <path d="m255.24 573.2-4.0502 7.457v-16.281l3.0312-13.219z" fill="#ffd42a" filter="url(#be)"/>
     <path transform="matrix(-.85714 .27718 .13102 .99138 542.62 -459.75)" d="m341.3 903.96 44.047 5.4212v16.263l-44.05-5.42z" fill="#d4aa00" filter="url(#bg)"/>
     <path transform="matrix(-.85714 .27718 .13102 .99138 542.62 -459.75)" d="m341.3 903.96 44.047 5.4212 3.0494-13.214-44.047-5.4212z" fill="#ffd42a" filter="url(#bf)"/>
     <path transform="matrix(-.85714 .27718 .13102 .99138 542.62 -459.75)" d="m389.41 918.2-4.0502 7.457v-16.281l3.0312-13.219z" fill="#ffd42a" filter="url(#be)"/>
     <path transform="matrix(1.5255,0,0,1.0895,-272.47,-422.18)" d="m262.47 862.89 10.062-7.1875-0.47917 15.812-9.5833 7.9062z" fill="#f5ca1f" filter="url(#cs)"/>
     <path transform="matrix(1.5255,0,0,1.0895,-272.47,-422.18)" d="m262.47 862.89 10.062-7.1875-9.5833-18.927-9.1042 5.5104z" fill="#e4ba10" filter="url(#cr)"/>
     <path transform="matrix(1.5255,0,0,1.0895,-272.47,-422.18)" d="m253.84 842.29 8.625 20.594v16.531l-9.2504-21.686z" fill="#dab20d" filter="url(#cp)"/>
    </g>
    <path d="m31.867 161.41c21.162-9.6992 42.577-18.122 64.359-24.717 41.545-4.62 78.276 37.616 49.201 85.579-15.481 16.024-34.762 27.613-53.867 39.407l-59.693-100.27" fill="#f00"/>
    <path transform="matrix(.29959 0 0 .31874 15.593 29.129)" d="m407.14 391.43-192.85 82.86" fill="none" filter="url(#ct)" opacity=".52869" stroke="#fff" stroke-linecap="round" stroke-linejoin="round" stroke-width="55"/>
    <ellipse transform="matrix(.15143 -.21173 .19065 .27394 -76.421 88.494)" cx="170.71" cy="583.93" rx="116.43" ry="171.79" fill="#1a1a1a"/>
    <ellipse transform="matrix(.080826 -.19773 .16454 .21978 -47.947 117.16)" cx="170.71" cy="583.93" rx="116.43" ry="171.79" fill="#fff" filter="url(#cu)" opacity=".83197"/>
    <ellipse transform="matrix(.080826 -.19773 .16454 .21978 -46.295 115.52)" cx="170.71" cy="583.93" rx="116.43" ry="171.79" fill="#ff0" filter="url(#cv)" opacity=".79918"/>
    <path d="m82.263 140.65c-3.5385 1.2235-7.0689 2.4936-10.59 3.8053 36.277 8.221 63.167 67.914 49.613 98.347 4.0096-2.7744 7.9419-5.6328 11.743-8.6513 9.0326-39.816-14.65-84.646-50.765-93.502z" fill="#2b0000" opacity=".22541" stroke="#fff" stroke-linecap="round" stroke-linejoin="round" stroke-width=".97939"/>
    <path d="m39.749 159.51c-4.6348 0.0747-8.6013 2.0219-11.453 6.0513-1.4778 2.088-2.5654 4.6142-3.2911 7.4852 9.4234-12.701 31.126-3.259 48.539 21.154 17.449 24.461 23.976 54.686 14.583 67.5-1.0036 1.3692-2.1461 2.4762-3.4119 3.3459 3.2402-0.75694 6.0347-2.6164 8.1923-5.6648 9.6059-13.572 2.9289-45.578-14.915-71.486-12.547-18.217-27.267-28.562-38.245-28.385z" fill="#1a1a1a"/>
   </g>
  </g>
 </g>
</svg>
