<?xml version="1.0" encoding="UTF-8" standalone="no"?>
<svg
   xmlns:dc="http://purl.org/dc/elements/1.1/"
   xmlns:cc="http://creativecommons.org/ns#"
   xmlns:rdf="http://www.w3.org/1999/02/22-rdf-syntax-ns#"
   xmlns:svg="http://www.w3.org/2000/svg"
   xmlns="http://www.w3.org/2000/svg"
   xmlns:xlink="http://www.w3.org/1999/xlink"
   xmlns:sodipodi="http://sodipodi.sourceforge.net/DTD/sodipodi-0.dtd"
   xmlns:inkscape="http://www.inkscape.org/namespaces/inkscape"
   width="1057.6"
   height="1057.6"
   viewBox="0 0 1057.5636 446.09448"
   id="svg2"
   version="1.1"
   inkscape:version="0.91 r13725"
   sodipodi:docname="building_plantation2.svg"
   inkscape:export-filename="/home/milos/AndroidStudioProjects/ChocolateFactory/app/src/main/res/drawable/building_plantation2.png"
   inkscape:export-xdpi="12.76"
   inkscape:export-ydpi="12.76">
  <metadata
     id="metadata244">
    <rdf:RDF>
      <cc:Work
         rdf:about="">
        <dc:format>image/svg+xml</dc:format>
        <dc:type
           rdf:resource="http://purl.org/dc/dcmitype/StillImage" />
        <dc:title></dc:title>
      </cc:Work>
    </rdf:RDF>
  </metadata>
  <sodipodi:namedview
     pagecolor="#ffffff"
     bordercolor="#666666"
     borderopacity="1"
     objecttolerance="10"
     gridtolerance="10"
     guidetolerance="10"
     inkscape:pageopacity="0"
     inkscape:pageshadow="2"
     inkscape:window-width="1920"
     inkscape:window-height="1147"
     id="namedview242"
     showgrid="false"
     inkscape:zoom="0.31557716"
     inkscape:cx="-859.03357"
     inkscape:cy="942.44159"
     inkscape:window-x="0"
     inkscape:window-y="0"
     inkscape:window-maximized="1"
     inkscape:current-layer="svg2" />
  <defs
     id="defs4">
    <linearGradient
       id="b">
      <stop
         stop-color="#eeeeec"
         offset="0"
         id="stop7" />
      <stop
         stop-color="#555753"
         offset="1"
         id="stop9" />
    </linearGradient>
    <linearGradient
       id="a">
      <stop
         stop-color="#6c981a"
         offset="0"
         id="stop12" />
      <stop
         stop-color="#b8cf22"
         offset="1"
         id="stop14" />
    </linearGradient>
    <linearGradient
       id="d"
       x1="489.99"
       x2="521.11"
       y1="159.04"
       y2="155.32"
       gradientUnits="userSpaceOnUse">
      <stop
         stop-color="#325804"
         offset="0"
         id="stop17" />
      <stop
         stop-color="#325804"
         stop-opacity="0"
         offset="1"
         id="stop19" />
    </linearGradient>
    <linearGradient
       id="c"
       x1="95.088"
       x2="131.09"
       y1="155.07"
       y2="21.688"
       gradientUnits="userSpaceOnUse">
      <stop
         stop-color="#c4a000"
         offset="0"
         id="stop22" />
      <stop
         stop-color="#c4a000"
         stop-opacity="0"
         offset="1"
         id="stop24" />
    </linearGradient>
    <linearGradient
       id="j"
       x1="941.09"
       x2="998.27"
       y1="174.09"
       y2="203.59"
       gradientUnits="userSpaceOnUse"
       gradientTransform="matrix(2.7613606,0,0,2.7613606,-1837.4872,-411.82014)">
      <stop
         stop-color="#8f5902"
         offset="0"
         id="stop27" />
      <stop
         stop-color="#c17d11"
         offset="1"
         id="stop29" />
    </linearGradient>
    <linearGradient
       id="i"
       x1="356.61"
       x2="860.07"
       y1="372.67"
       y2="201.84"
       gradientUnits="userSpaceOnUse"
       gradientTransform="matrix(2.7613606,0,0,2.7613606,-1837.4872,-411.82014)">
      <stop
         stop-color="#d2e748"
         offset="0"
         id="stop32" />
      <stop
         stop-color="#b4cb1b"
         offset="1"
         id="stop34" />
    </linearGradient>
    <linearGradient
       id="h"
       x1="1012.4"
       x2="911.92"
       y1="143.64"
       y2="264.41"
       gradientUnits="userSpaceOnUse"
       gradientTransform="matrix(2.7613606,0,0,2.7613606,-1837.4872,-411.82014)">
      <stop
         stop-color="#618817"
         offset="0"
         id="stop37" />
      <stop
         stop-color="#82b71f"
         offset="1"
         id="stop39" />
    </linearGradient>
    <linearGradient
       id="e"
       x2="0"
       y1="76.219"
       y2="118.44"
       gradientUnits="userSpaceOnUse"
       gradientTransform="matrix(2.7613606,0,0,2.7613606,-1837.4872,-411.82014)">
      <stop
         stop-color="#fff"
         offset="0"
         id="stop42" />
      <stop
         stop-color="#d3d7cf"
         stop-opacity="0"
         offset="1"
         id="stop44" />
    </linearGradient>
    <linearGradient
       id="l"
       x1="871.86"
       x2="919.24"
       y1="159.75"
       y2="163.15"
       gradientUnits="userSpaceOnUse"
       xlink:href="#b"
       gradientTransform="matrix(2.7613606,0,0,2.7613606,-1837.4872,-411.82014)" />
    <linearGradient
       id="k"
       x1="846.57"
       x2="891.32"
       y1="155.09"
       y2="158.31"
       gradientUnits="userSpaceOnUse"
       xlink:href="#b"
       gradientTransform="matrix(2.7613606,0,0,2.7613606,-1837.4872,-411.82014)" />
    <linearGradient
       id="g"
       x1="37"
       x2="256.68"
       y1="266.36"
       y2="322.82"
       gradientTransform="matrix(5.5503346,0,0,2.7613606,-1929.4543,-707.09247)"
       gradientUnits="userSpaceOnUse"
       xlink:href="#a" />
    <linearGradient
       id="f"
       x1="644.63"
       x2="441.08"
       gradientUnits="userSpaceOnUse"
       xlink:href="#a"
       gradientTransform="matrix(2.7613606,0,0,2.7613606,-1837.4872,-411.82014)" />
    <linearGradient
       inkscape:collect="always"
       xlink:href="#c"
       id="linearGradient3676"
       gradientUnits="userSpaceOnUse"
       x1="95.088"
       y1="155.07"
       x2="131.09"
       y2="21.688" />
    <linearGradient
       inkscape:collect="always"
       xlink:href="#c"
       id="linearGradient3678"
       gradientUnits="userSpaceOnUse"
       x1="95.088"
       y1="155.07"
       x2="131.09"
       y2="21.688" />
    <linearGradient
       inkscape:collect="always"
       xlink:href="#c"
       id="linearGradient3680"
       gradientUnits="userSpaceOnUse"
       x1="95.088"
       y1="155.07"
       x2="131.09"
       y2="21.688" />
    <linearGradient
       inkscape:collect="always"
       xlink:href="#c"
       id="linearGradient3682"
       gradientUnits="userSpaceOnUse"
       x1="95.088"
       y1="155.07"
       x2="131.09"
       y2="21.688" />
    <linearGradient
       inkscape:collect="always"
       xlink:href="#c"
       id="linearGradient3684"
       gradientUnits="userSpaceOnUse"
       x1="95.088"
       y1="155.07"
       x2="131.09"
       y2="21.688" />
    <linearGradient
       inkscape:collect="always"
       xlink:href="#c"
       id="linearGradient3686"
       gradientUnits="userSpaceOnUse"
       x1="95.088"
       y1="155.07"
       x2="131.09"
       y2="21.688" />
    <linearGradient
       inkscape:collect="always"
       xlink:href="#c"
       id="linearGradient3688"
       gradientUnits="userSpaceOnUse"
       x1="95.088"
       y1="155.07"
       x2="131.09"
       y2="21.688" />
    <linearGradient
       inkscape:collect="always"
       xlink:href="#c"
       id="linearGradient3690"
       gradientUnits="userSpaceOnUse"
       x1="95.088"
       y1="155.07"
       x2="131.09"
       y2="21.688" />
    <linearGradient
       inkscape:collect="always"
       xlink:href="#c"
       id="linearGradient3692"
       gradientUnits="userSpaceOnUse"
       x1="95.088"
       y1="155.07"
       x2="131.09"
       y2="21.688" />
    <linearGradient
       inkscape:collect="always"
       xlink:href="#c"
       id="linearGradient3694"
       gradientUnits="userSpaceOnUse"
       x1="95.088"
       y1="155.07"
       x2="131.09"
       y2="21.688" />
    <linearGradient
       inkscape:collect="always"
       xlink:href="#c"
       id="linearGradient3696"
       gradientUnits="userSpaceOnUse"
       x1="95.088"
       y1="155.07"
       x2="131.09"
       y2="21.688" />
    <linearGradient
       inkscape:collect="always"
       xlink:href="#c"
       id="linearGradient3698"
       gradientUnits="userSpaceOnUse"
       x1="95.088"
       y1="155.07"
       x2="131.09"
       y2="21.688" />
    <linearGradient
       inkscape:collect="always"
       xlink:href="#c"
       id="linearGradient3700"
       gradientUnits="userSpaceOnUse"
       x1="95.088"
       y1="155.07"
       x2="131.09"
       y2="21.688" />
    <linearGradient
       inkscape:collect="always"
       xlink:href="#c"
       id="linearGradient3702"
       gradientUnits="userSpaceOnUse"
       x1="95.088"
       y1="155.07"
       x2="131.09"
       y2="21.688" />
    <linearGradient
       inkscape:collect="always"
       xlink:href="#c"
       id="linearGradient3704"
       gradientUnits="userSpaceOnUse"
       x1="95.088"
       y1="155.07"
       x2="131.09"
       y2="21.688" />
    <linearGradient
       inkscape:collect="always"
       xlink:href="#c"
       id="linearGradient3706"
       gradientUnits="userSpaceOnUse"
       x1="95.088"
       y1="155.07"
       x2="131.09"
       y2="21.688" />
    <linearGradient
       inkscape:collect="always"
       xlink:href="#c"
       id="linearGradient3708"
       gradientUnits="userSpaceOnUse"
       x1="95.088"
       y1="155.07"
       x2="131.09"
       y2="21.688" />
    <linearGradient
       inkscape:collect="always"
       xlink:href="#c"
       id="linearGradient3710"
       gradientUnits="userSpaceOnUse"
       x1="95.088"
       y1="155.07"
       x2="131.09"
       y2="21.688" />
    <linearGradient
       inkscape:collect="always"
       xlink:href="#c"
       id="linearGradient3712"
       gradientUnits="userSpaceOnUse"
       x1="95.088"
       y1="155.07"
       x2="131.09"
       y2="21.688" />
    <linearGradient
       inkscape:collect="always"
       xlink:href="#c"
       id="linearGradient3714"
       gradientUnits="userSpaceOnUse"
       x1="95.088"
       y1="155.07"
       x2="131.09"
       y2="21.688" />
    <linearGradient
       inkscape:collect="always"
       xlink:href="#c"
       id="linearGradient3716"
       gradientUnits="userSpaceOnUse"
       x1="95.088"
       y1="155.07"
       x2="131.09"
       y2="21.688" />
    <linearGradient
       inkscape:collect="always"
       xlink:href="#c"
       id="linearGradient3718"
       gradientUnits="userSpaceOnUse"
       x1="95.088"
       y1="155.07"
       x2="131.09"
       y2="21.688" />
    <linearGradient
       inkscape:collect="always"
       xlink:href="#c"
       id="linearGradient3720"
       gradientUnits="userSpaceOnUse"
       x1="95.088"
       y1="155.07"
       x2="131.09"
       y2="21.688" />
    <linearGradient
       inkscape:collect="always"
       xlink:href="#c"
       id="linearGradient3722"
       gradientUnits="userSpaceOnUse"
       x1="95.088"
       y1="155.07"
       x2="131.09"
       y2="21.688" />
    <linearGradient
       inkscape:collect="always"
       xlink:href="#c"
       id="linearGradient3724"
       gradientUnits="userSpaceOnUse"
       x1="95.088"
       y1="155.07"
       x2="131.09"
       y2="21.688" />
    <linearGradient
       inkscape:collect="always"
       xlink:href="#c"
       id="linearGradient3726"
       gradientUnits="userSpaceOnUse"
       x1="95.088"
       y1="155.07"
       x2="131.09"
       y2="21.688" />
    <linearGradient
       inkscape:collect="always"
       xlink:href="#c"
       id="linearGradient3728"
       gradientUnits="userSpaceOnUse"
       x1="95.088"
       y1="155.07"
       x2="131.09"
       y2="21.688" />
    <linearGradient
       inkscape:collect="always"
       xlink:href="#c"
       id="linearGradient3730"
       gradientUnits="userSpaceOnUse"
       x1="95.088"
       y1="155.07"
       x2="131.09"
       y2="21.688" />
    <linearGradient
       inkscape:collect="always"
       xlink:href="#c"
       id="linearGradient3732"
       gradientUnits="userSpaceOnUse"
       x1="95.088"
       y1="155.07"
       x2="131.09"
       y2="21.688" />
    <linearGradient
       inkscape:collect="always"
       xlink:href="#c"
       id="linearGradient3734"
       gradientUnits="userSpaceOnUse"
       x1="95.088"
       y1="155.07"
       x2="131.09"
       y2="21.688" />
    <linearGradient
       inkscape:collect="always"
       xlink:href="#c"
       id="linearGradient3736"
       gradientUnits="userSpaceOnUse"
       x1="95.088"
       y1="155.07"
       x2="131.09"
       y2="21.688" />
    <linearGradient
       inkscape:collect="always"
       xlink:href="#c"
       id="linearGradient3738"
       gradientUnits="userSpaceOnUse"
       x1="95.088"
       y1="155.07"
       x2="131.09"
       y2="21.688" />
    <linearGradient
       inkscape:collect="always"
       xlink:href="#c"
       id="linearGradient3740"
       gradientUnits="userSpaceOnUse"
       x1="95.088"
       y1="155.07"
       x2="131.09"
       y2="21.688" />
    <linearGradient
       inkscape:collect="always"
       xlink:href="#c"
       id="linearGradient3742"
       gradientUnits="userSpaceOnUse"
       x1="95.088"
       y1="155.07"
       x2="131.09"
       y2="21.688" />
    <linearGradient
       inkscape:collect="always"
       xlink:href="#c"
       id="linearGradient3744"
       gradientUnits="userSpaceOnUse"
       x1="95.088"
       y1="155.07"
       x2="131.09"
       y2="21.688" />
    <linearGradient
       inkscape:collect="always"
       xlink:href="#c"
       id="linearGradient3746"
       gradientUnits="userSpaceOnUse"
       x1="95.088"
       y1="155.07"
       x2="131.09"
       y2="21.688" />
    <linearGradient
       inkscape:collect="always"
       xlink:href="#c"
       id="linearGradient3748"
       gradientUnits="userSpaceOnUse"
       x1="95.088"
       y1="155.07"
       x2="131.09"
       y2="21.688" />
    <linearGradient
       inkscape:collect="always"
       xlink:href="#c"
       id="linearGradient3750"
       gradientUnits="userSpaceOnUse"
       x1="95.088"
       y1="155.07"
       x2="131.09"
       y2="21.688" />
    <linearGradient
       inkscape:collect="always"
       xlink:href="#c"
       id="linearGradient3752"
       gradientUnits="userSpaceOnUse"
       x1="95.088"
       y1="155.07"
       x2="131.09"
       y2="21.688" />
    <linearGradient
       inkscape:collect="always"
       xlink:href="#c"
       id="linearGradient3754"
       gradientUnits="userSpaceOnUse"
       x1="95.088"
       y1="155.07"
       x2="131.09"
       y2="21.688" />
    <linearGradient
       inkscape:collect="always"
       xlink:href="#c"
       id="linearGradient3756"
       gradientUnits="userSpaceOnUse"
       x1="95.088"
       y1="155.07"
       x2="131.09"
       y2="21.688" />
    <linearGradient
       inkscape:collect="always"
       xlink:href="#c"
       id="linearGradient3758"
       gradientUnits="userSpaceOnUse"
       x1="95.088"
       y1="155.07"
       x2="131.09"
       y2="21.688" />
    <linearGradient
       inkscape:collect="always"
       xlink:href="#c"
       id="linearGradient3760"
       gradientUnits="userSpaceOnUse"
       x1="95.088"
       y1="155.07"
       x2="131.09"
       y2="21.688" />
    <linearGradient
       inkscape:collect="always"
       xlink:href="#c"
       id="linearGradient3762"
       gradientUnits="userSpaceOnUse"
       x1="95.088"
       y1="155.07"
       x2="131.09"
       y2="21.688" />
    <linearGradient
       inkscape:collect="always"
       xlink:href="#c"
       id="linearGradient3764"
       gradientUnits="userSpaceOnUse"
       x1="95.088"
       y1="155.07"
       x2="131.09"
       y2="21.688" />
    <linearGradient
       inkscape:collect="always"
       xlink:href="#c"
       id="linearGradient3766"
       gradientUnits="userSpaceOnUse"
       x1="95.088"
       y1="155.07"
       x2="131.09"
       y2="21.688" />
    <linearGradient
       inkscape:collect="always"
       xlink:href="#c"
       id="linearGradient3768"
       gradientUnits="userSpaceOnUse"
       x1="95.088"
       y1="155.07"
       x2="131.09"
       y2="21.688" />
    <linearGradient
       inkscape:collect="always"
       xlink:href="#c"
       id="linearGradient3770"
       gradientUnits="userSpaceOnUse"
       x1="95.088"
       y1="155.07"
       x2="131.09"
       y2="21.688" />
    <linearGradient
       inkscape:collect="always"
       xlink:href="#c"
       id="linearGradient3772"
       gradientUnits="userSpaceOnUse"
       x1="95.088"
       y1="155.07"
       x2="131.09"
       y2="21.688" />
    <linearGradient
       inkscape:collect="always"
       xlink:href="#c"
       id="linearGradient3774"
       gradientUnits="userSpaceOnUse"
       x1="95.088"
       y1="155.07"
       x2="131.09"
       y2="21.688" />
    <linearGradient
       inkscape:collect="always"
       xlink:href="#c"
       id="linearGradient3776"
       gradientUnits="userSpaceOnUse"
       x1="95.088"
       y1="155.07"
       x2="131.09"
       y2="21.688" />
    <linearGradient
       inkscape:collect="always"
       xlink:href="#c"
       id="linearGradient3778"
       gradientUnits="userSpaceOnUse"
       x1="95.088"
       y1="155.07"
       x2="131.09"
       y2="21.688" />
  </defs>
  <path
     d="m -608.46081,-317.93388 c -29.7288,0 -54.61143,20.74361 -60.99569,48.53644 -21.6938,0.29471 -40.29651,13.42378 -48.60266,32.10633 l -0.34234,-0.13702 c -6.71035,-2.45701 -13.93384,-3.8336 -21.4952,-3.8336 -34.56671,0 -62.63886,28.07199 -62.63886,62.63868 0,34.56673 28.07215,62.56968 62.63886,62.56968 1.08017,0 2.15064,-0.0165 3.21749,-0.0682 6.01976,-0.30514 11.7979,-1.46603 17.25104,-3.3545 7.51311,20.265907 27.02519,34.707535 49.90332,34.707535 17.71217,0 33.39035,-8.662377 43.05787,-21.974355 14.68216,12.718271 33.81562,20.400107 54.76607,20.400107 28.96391,0 54.52306,-14.678567 69.55038,-37.035367 11.32102,11.28678 26.9738,18.27801 44.22319,18.27801 26.15284,0 48.48674,-16.03522 57.84498,-38.8137 9.84232,10.42581 23.82475,16.90865 39.29416,16.90865 16.58031,0 31.44637,-7.47252 41.34862,-19.23619 10.6884,8.50691 24.22955,13.6229 38.95175,13.6229 2.55898,0 5.05162,-0.1806 7.53021,-0.47918 9.89784,11.40606 24.51261,18.62012 40.79912,18.62012 26.37321,0 48.26858,-18.9468 52.98498,-43.9498 25.91758,-1.90176 46.34392,-23.56988 46.34392,-49.97236 0,-27.65226 -22.38828,-50.04138 -50.04138,-50.04138 -20.05742,0 -37.32531,11.78937 -45.31945,28.82032 -11.19041,-16.99782 -30.42743,-28.20453 -52.30018,-28.20453 -17.4921,0 -33.34617,7.18865 -44.7009,18.75709 -6.17825,-28.06922 -31.20613,-49.08318 -61.13099,-49.08318 -16.83767,0 -32.08425,6.64107 -43.33403,17.45649 -9.94421,-21.40745 -31.59272,-36.28152 -56.75148,-36.28152 -20.36752,0 -38.47404,9.78572 -49.90607,24.84978 -3.8358,-0.86473 -7.81437,-1.36916 -11.9114,-1.36916 -1.42156,0 -2.85028,0.0975 -4.24421,0.20519 -10.27034,-20.52631 -31.48228,-34.63852 -55.99764,-34.63852 z"
     id="path50"
     style="fill:url(#e)"
     inkscape:connector-curvature="0" />
  <path
     d="m -1831.8485,-317.93388 2908.8172,0 0,1069.03312 -2908.8172,0 0,-1069.03312 z"
     id="path52"
     inkscape:connector-curvature="0"
     style="fill:#cce6f3" />
  <path
     d="M -1053.9787,136.42038 C -603.65604,-21.47146 -143.55815,-94.332726 194.18386,-53.119418 489.42852,-159.95369 693.60352,-86.067976 693.60352,-86.067976 l -5.55033,386.203896 -1788.00859,2.76137 45.9878,-166.47139 z"
     id="path54"
     style="fill:url(#f)"
     inkscape:connector-curvature="0" />
  <g
     transform="matrix(-1.417434,0,0,1.417434,1073.5392,-212.80612)"
     id="g56"
     style="fill:url(#linearGradient3778);stroke:#edd400">
    <path
       d="m 126.79,56.57 c -17.5,5 -11,96 -11,96 l 13,-2 c 0,0 3,-89 20.5,-93"
       id="path58"
       style="fill:url(#linearGradient3728);stroke-width:5"
       inkscape:connector-curvature="0" />
    <path
       d="m 125.36,55.945 c -16.758,7.101 0.81359,96.625 0.81359,96.625 l 12.658,-3.5736 c 0,0 -7.8982,-88.7 8.9818,-94.808"
       id="path60"
       style="fill:url(#linearGradient3730);stroke-width:5"
       inkscape:connector-curvature="0" />
    <path
       d="m 134.81,60.945 c -16.758,7.101 -4.1864,91.625 -4.1864,91.625 l 12.658,-3.5736 c 0,0 -0.39823,-95.7 16.482,-101.81"
       id="path62"
       style="fill:url(#linearGradient3732);stroke-width:5"
       inkscape:connector-curvature="0" />
    <path
       d="m 120.25,44.945 c -16.758,7.101 -11.186,107.62 -11.186,107.62 l 12.658,-3.5736 c 0,0 -4.8982,-75.2 14.482,-78.808"
       id="path64"
       style="fill:url(#linearGradient3734);stroke-width:5"
       inkscape:connector-curvature="0" />
    <path
       d="m 80.44,60.945 c -16.758,7.101 -4.1864,91.625 -4.1864,91.625 l 12.658,-3.5736 c 0,0 -1.8982,-72.2 21.482,-72.808"
       id="path66"
       style="fill:url(#linearGradient3736);stroke-width:5"
       inkscape:connector-curvature="0" />
    <path
       d="m 20.491,56.57 c -17.5,5 -11,96 -11,96 l 13,-2 c 0,0 3,-89 20.5,-93"
       id="path68"
       style="fill:url(#linearGradient3738);stroke-width:5"
       inkscape:connector-curvature="0" />
    <path
       d="m 52.081,55.945 c -16.758,7.101 0.81359,96.625 0.81359,96.625 l 12.658,-3.5736 c 0,0 -7.8982,-88.7 8.9818,-94.808"
       id="path70"
       style="fill:url(#linearGradient3740);stroke-width:5"
       inkscape:connector-curvature="0" />
    <path
       d="m 166.67,60.945 c -16.758,7.101 -4.1864,91.625 -4.1864,91.625 l 12.658,-3.5736 c 0,0 -0.39823,-95.7 16.482,-101.81"
       id="path72"
       style="fill:url(#linearGradient3742);stroke-width:5"
       inkscape:connector-curvature="0" />
    <path
       d="m 239.47,44.945 c -16.758,7.101 -11.186,107.62 -11.186,107.62 l 12.658,-3.5736 c 0,0 -4.8982,-75.2 14.482,-78.808"
       id="path74"
       style="fill:url(#linearGradient3744);stroke-width:5"
       inkscape:connector-curvature="0" />
    <path
       d="m 101.03,60.945 c -16.758,7.101 -4.1864,91.625 -4.1864,91.625 l 12.658,-3.5736 c 0,0 -1.8982,-72.2 21.482,-72.808"
       id="path76"
       style="fill:url(#linearGradient3746);stroke-width:5"
       inkscape:connector-curvature="0" />
    <path
       d="m 8.0333,56.57 c -17.5,5 -11,96 -11,96 l 13,-2 c 0,0 3,-89 20.5,-93"
       id="path78"
       style="fill:url(#linearGradient3748);stroke-width:5"
       inkscape:connector-curvature="0" />
    <path
       d="m 127.95,55.945 c -16.758,7.101 0.81359,96.625 0.81359,96.625 l 12.658,-3.5736 c 0,0 -7.8982,-88.7 8.9818,-94.808"
       id="path80"
       style="fill:url(#linearGradient3750);stroke-width:5"
       inkscape:connector-curvature="0" />
    <path
       d="m 176.12,57.945 c -16.758,7.101 -4.1864,91.625 -4.1864,91.625 l 12.658,-3.5736 c 0,0 -0.39823,-95.7 16.482,-101.81"
       id="path82"
       style="fill:url(#linearGradient3752);stroke-width:5"
       inkscape:connector-curvature="0" />
    <path
       d="m 186.45,44.945 c -16.758,7.101 -11.186,107.62 -11.186,107.62 l 12.658,-3.5736 c 0,0 -4.8982,-75.2 14.482,-78.808"
       id="path84"
       style="fill:url(#linearGradient3754);stroke-width:5"
       inkscape:connector-curvature="0" />
    <path
       d="m 236.37,60.945 c -16.758,7.101 -4.1864,91.625 -4.1864,91.625 l 12.658,-3.5736 c 0,0 -1.8982,-72.2 21.482,-72.808"
       id="path86"
       style="fill:url(#linearGradient3756);stroke-width:5"
       inkscape:connector-curvature="0" />
    <path
       d="m 156.78,56.57 c -17.5,5 -11,96 -11,96 l 13,-2 c 0,0 3,-89 20.5,-93"
       id="path88"
       style="fill:url(#linearGradient3758);stroke-width:5"
       inkscape:connector-curvature="0" />
    <path
       d="m 66.329,26.788 c -16.399,9.2204 0.79616,125.46 0.79616,125.46 l 12.387,-4.6402 c 0,0 -7.729,-115.17 8.7894,-123.11"
       id="path90"
       style="fill:url(#linearGradient3760);stroke-width:5.63619995"
       inkscape:connector-curvature="0" />
    <path
       d="m 192.35,60.945 c -16.758,7.101 -4.1864,91.625 -4.1864,91.625 l 12.658,-3.5736 c 0,0 -0.39823,-95.7 16.482,-101.81"
       id="path92"
       style="fill:url(#linearGradient3762);stroke-width:5"
       inkscape:connector-curvature="0" />
    <path
       d="M 42.748,44.945 C 25.99,52.046 31.562,152.565 31.562,152.565 l 12.658,-3.5736 c 0,0 -4.8982,-75.2 14.482,-78.808"
       id="path94"
       style="fill:url(#linearGradient3764);stroke-width:5"
       inkscape:connector-curvature="0" />
    <path
       d="m 15.928,78.708 c -16.964,5.7429 -4.2379,74.101 -4.2379,74.101 l 12.814,-2.8901 c 0,0 -1.9216,-58.391 21.746,-58.883"
       id="path96"
       style="fill:url(#linearGradient3766);stroke-width:4.52409983"
       inkscape:connector-curvature="0" />
    <path
       d="m 205.31,36.719 c -17.35,5.6616 -10.906,108.7 -10.906,108.7 l 12.888,-2.2646 c 0,0 2.9742,-100.78 20.324,-105.31"
       id="path98"
       style="fill:url(#linearGradient3768);stroke-width:5.29759979"
       inkscape:connector-curvature="0" />
    <path
       d="m 142.25,55.945 c -16.758,7.101 0.81359,96.625 0.81359,96.625 l 12.658,-3.5736 c 0,0 -7.8982,-88.7 8.9818,-94.808"
       id="path100"
       style="fill:url(#linearGradient3770);stroke-width:5"
       inkscape:connector-curvature="0" />
    <path
       d="m 149.25,42.846 c -16.543,8.487 -4.1328,109.51 -4.1328,109.51 l 12.496,-4.2711 c 0,0 -0.39313,-114.38 16.271,-121.68"
       id="path102"
       style="fill:url(#linearGradient3772);stroke-width:5.43109989"
       inkscape:connector-curvature="0" />
    <path
       d="m 217.32,44.945 c -16.758,7.101 -11.186,107.62 -11.186,107.62 l 12.658,-3.5736 c 0,0 -4.8982,-75.2 14.482,-78.808"
       id="path104"
       style="fill:url(#linearGradient3774);stroke-width:5"
       inkscape:connector-curvature="0" />
    <path
       d="m 100.38,60.945 c -16.758,7.101 -4.1864,91.625 -4.1864,91.625 l 12.658,-3.5736 c 0,0 -1.8982,-72.2 21.482,-72.808"
       id="path106"
       style="fill:url(#linearGradient3776);stroke-width:5"
       inkscape:connector-curvature="0" />
  </g>
  <path
     d="M -81.399917,224.78391 C -531.72261,66.892076 -991.82052,-5.9691788 -1329.5625,35.244126 -1624.8072,-71.590157 -1828.9822,2.2955662 -1828.9822,2.2955662 l 5.5503,386.2038838 1788.008634,2.76137 -45.987701,-166.47138 z"
     id="path108"
     style="fill:url(#g)"
     inkscape:connector-curvature="0" />
  <g
     transform="matrix(-1.3120052,0.53647712,0.53647712,1.3120052,581.38183,-207.54021)"
     id="g110"
     style="fill:url(#linearGradient3726);stroke:#edd400">
    <path
       d="m 126.79,56.57 c -17.5,5 -11,96 -11,96 l 13,-2 c 0,0 3,-89 20.5,-93"
       id="path112"
       style="fill:url(#linearGradient3676);stroke-width:5"
       inkscape:connector-curvature="0" />
    <path
       d="m 125.36,55.945 c -16.758,7.101 0.81359,96.625 0.81359,96.625 l 12.658,-3.5736 c 0,0 -7.8982,-88.7 8.9818,-94.808"
       id="path114"
       style="fill:url(#linearGradient3678);stroke-width:5"
       inkscape:connector-curvature="0" />
    <path
       d="m 134.81,60.945 c -16.758,7.101 -4.1864,91.625 -4.1864,91.625 l 12.658,-3.5736 c 0,0 -0.39823,-95.7 16.482,-101.81"
       id="path116"
       style="fill:url(#linearGradient3680);stroke-width:5"
       inkscape:connector-curvature="0" />
    <path
       d="m 120.25,44.945 c -16.758,7.101 -11.186,107.62 -11.186,107.62 l 12.658,-3.5736 c 0,0 -4.8982,-75.2 14.482,-78.808"
       id="path118"
       style="fill:url(#linearGradient3682);stroke-width:5"
       inkscape:connector-curvature="0" />
    <path
       d="m 80.44,60.945 c -16.758,7.101 -4.1864,91.625 -4.1864,91.625 l 12.658,-3.5736 c 0,0 -1.8982,-72.2 21.482,-72.808"
       id="path120"
       style="fill:url(#linearGradient3684);stroke-width:5"
       inkscape:connector-curvature="0" />
    <path
       d="m 20.491,56.57 c -17.5,5 -11,96 -11,96 l 13,-2 c 0,0 3,-89 20.5,-93"
       id="path122"
       style="fill:url(#linearGradient3686);stroke-width:5"
       inkscape:connector-curvature="0" />
    <path
       d="m 52.081,55.945 c -16.758,7.101 0.81359,96.625 0.81359,96.625 l 12.658,-3.5736 c 0,0 -7.8982,-88.7 8.9818,-94.808"
       id="path124"
       style="fill:url(#linearGradient3688);stroke-width:5"
       inkscape:connector-curvature="0" />
    <path
       d="m 166.67,60.945 c -16.758,7.101 -4.1864,91.625 -4.1864,91.625 l 12.658,-3.5736 c 0,0 -0.39823,-95.7 16.482,-101.81"
       id="path126"
       style="fill:url(#linearGradient3690);stroke-width:5"
       inkscape:connector-curvature="0" />
    <path
       d="m 239.47,44.945 c -16.758,7.101 -11.186,107.62 -11.186,107.62 l 12.658,-3.5736 c 0,0 -4.8982,-75.2 14.482,-78.808"
       id="path128"
       style="fill:url(#linearGradient3692);stroke-width:5"
       inkscape:connector-curvature="0" />
    <path
       d="m 101.03,60.945 c -16.758,7.101 -4.1864,91.625 -4.1864,91.625 l 12.658,-3.5736 c 0,0 -1.8982,-72.2 21.482,-72.808"
       id="path130"
       style="fill:url(#linearGradient3694);stroke-width:5"
       inkscape:connector-curvature="0" />
    <path
       d="m 8.0333,56.57 c -17.5,5 -11,96 -11,96 l 13,-2 c 0,0 3,-89 20.5,-93"
       id="path132"
       style="fill:url(#linearGradient3696);stroke-width:5"
       inkscape:connector-curvature="0" />
    <path
       d="m 127.95,55.945 c -16.758,7.101 0.81359,96.625 0.81359,96.625 l 12.658,-3.5736 c 0,0 -7.8982,-88.7 8.9818,-94.808"
       id="path134"
       style="fill:url(#linearGradient3698);stroke-width:5"
       inkscape:connector-curvature="0" />
    <path
       d="m 176.12,57.945 c -16.758,7.101 -4.1864,91.625 -4.1864,91.625 l 12.658,-3.5736 c 0,0 -0.39823,-95.7 16.482,-101.81"
       id="path136"
       style="fill:url(#linearGradient3700);stroke-width:5"
       inkscape:connector-curvature="0" />
    <path
       d="m 186.45,44.945 c -16.758,7.101 -11.186,107.62 -11.186,107.62 l 12.658,-3.5736 c 0,0 -4.8982,-75.2 14.482,-78.808"
       id="path138"
       style="fill:url(#linearGradient3702);stroke-width:5"
       inkscape:connector-curvature="0" />
    <path
       d="m 236.37,60.945 c -16.758,7.101 -4.1864,91.625 -4.1864,91.625 l 12.658,-3.5736 c 0,0 -1.8982,-72.2 21.482,-72.808"
       id="path140"
       style="fill:url(#linearGradient3704);stroke-width:5"
       inkscape:connector-curvature="0" />
    <path
       d="m 156.78,56.57 c -17.5,5 -11,96 -11,96 l 13,-2 c 0,0 3,-89 20.5,-93"
       id="path142"
       style="fill:url(#linearGradient3706);stroke-width:5"
       inkscape:connector-curvature="0" />
    <path
       d="m 66.329,26.788 c -16.399,9.2204 0.79616,125.46 0.79616,125.46 l 12.387,-4.6402 c 0,0 -7.729,-115.17 8.7894,-123.11"
       id="path144"
       style="fill:url(#linearGradient3708);stroke-width:5.63619995"
       inkscape:connector-curvature="0" />
    <path
       d="m 192.35,60.945 c -16.758,7.101 -4.1864,91.625 -4.1864,91.625 l 12.658,-3.5736 c 0,0 -0.39823,-95.7 16.482,-101.81"
       id="path146"
       style="fill:url(#linearGradient3710);stroke-width:5"
       inkscape:connector-curvature="0" />
    <path
       d="M 42.748,44.945 C 25.99,52.046 31.562,152.565 31.562,152.565 l 12.658,-3.5736 c 0,0 -4.8982,-75.2 14.482,-78.808"
       id="path148"
       style="fill:url(#linearGradient3712);stroke-width:5"
       inkscape:connector-curvature="0" />
    <path
       d="m 15.928,78.708 c -16.964,5.7429 -4.2379,74.101 -4.2379,74.101 l 12.814,-2.8901 c 0,0 -1.9216,-58.391 21.746,-58.883"
       id="path150"
       style="fill:url(#linearGradient3714);stroke-width:4.52409983"
       inkscape:connector-curvature="0" />
    <path
       d="m 205.31,36.719 c -17.35,5.6616 -10.906,108.7 -10.906,108.7 l 12.888,-2.2646 c 0,0 2.9742,-100.78 20.324,-105.31"
       id="path152"
       style="fill:url(#linearGradient3716);stroke-width:5.29759979"
       inkscape:connector-curvature="0" />
    <path
       d="m 142.25,55.945 c -16.758,7.101 0.81359,96.625 0.81359,96.625 l 12.658,-3.5736 c 0,0 -7.8982,-88.7 8.9818,-94.808"
       id="path154"
       style="fill:url(#linearGradient3718);stroke-width:5"
       inkscape:connector-curvature="0" />
    <path
       d="m 149.25,42.846 c -16.543,8.487 -4.1328,109.51 -4.1328,109.51 l 12.496,-4.2711 c 0,0 -0.39313,-114.38 16.271,-121.68"
       id="path156"
       style="fill:url(#linearGradient3720);stroke-width:5.43109989"
       inkscape:connector-curvature="0" />
    <path
       d="m 217.32,44.945 c -16.758,7.101 -11.186,107.62 -11.186,107.62 l 12.658,-3.5736 c 0,0 -4.8982,-75.2 14.482,-78.808"
       id="path158"
       style="fill:url(#linearGradient3722);stroke-width:5"
       inkscape:connector-curvature="0" />
    <path
       d="m 100.38,60.945 c -16.758,7.101 -4.1864,91.625 -4.1864,91.625 l 12.658,-3.5736 c 0,0 -1.8982,-72.2 21.482,-72.808"
       id="path160"
       style="fill:url(#linearGradient3724);stroke-width:5"
       inkscape:connector-curvature="0" />
  </g>
  <path
     d="M 222.81917,185.04794 C 623.82395,-97.577322 1076.9908,11.490906 1076.9908,11.490906 l 0,737.283264 -865.63128,-17.5733 11.45744,-546.14189 z"
     id="path162"
     style="fill:url(#h)"
     inkscape:connector-curvature="0" />
  <path
     d="M -934.32901,190.95725 C 284.61842,45.000006 1076.9908,299.42073 1076.9908,299.42073 l 0,453.66391 -2007.37107,-1.95257 -3.94488,-560.16961 z"
     id="path164"
     style="fill:url(#i)"
     inkscape:connector-curvature="0" />
  <path
     d="M -934.32901,190.95725 C 284.61842,45.000006 1065.697,297.4657 1065.697,297.4657 844.54778,251.32335 -267.65369,46.971616 -919.33482,408.70985 l -14.99033,-217.7526 z"
     id="path166"
     inkscape:connector-curvature="0"
     style="fill:#fce94f" />
  <path
     d="M -901.19273,530.60459 C 77.516379,69.843966 1040.8446,297.4657 1040.8446,297.4657 808.65008,229.23246 -237.27872,237.5055 -911.05075,740.08418 l 9.86188,-209.46854 z"
     id="path168"
     inkscape:connector-curvature="0"
     style="fill:#fce94f" />
  <path
     d="M -688.56786,759.79752 C 411.641,119.54847 1076.9908,300.22428 1076.9908,300.22428 731.57222,182.28657 -126.8243,519.16151 -425.05125,767.69502 l -263.51387,-7.88977 z"
     id="path170"
     inkscape:connector-curvature="0"
     style="fill:#fce94f" />
  <path
     d="m -954.21082,164.33774 c 0,0 -874.74368,-23.81454 -874.74368,96.28864 l 0,492.04683 1679.07284,9.42783 c 0,0 -455.04461,-242.11884 -804.32916,-597.77932 z"
     id="path172"
     inkscape:connector-curvature="0"
     style="fill:#c17d11" />
  <path
     d="m -1204.8871,190.40498 c 110.4545,-71.79538 190.534,-13.80681 190.534,-13.80681 l 720.715,588.16979 -231.95428,-5.52272 c 0,0 -571.60162,-546.74937 -679.29472,-568.84026 z"
     id="path174"
     inkscape:connector-curvature="0"
     style="fill:#e9b96e" />
  <path
     d="m -1489.3072,212.49587 c 69.034,-91.12491 201.5793,-24.85226 201.5793,-24.85226 l 646.15838,571.60163 -198.81798,-5.52271 c 0,0 -577.1243,-508.09034 -648.9197,-541.22666 z"
     id="path176"
     inkscape:connector-curvature="0"
     style="fill:#e9b96e" />
  <path
     d="m -1768.2046,245.63219 c 118.7385,-82.84082 190.5338,-41.42041 190.5338,-41.42041 l 615.78338,555.03346 -231.95418,-5.52271 c 0,0 -502.5677,-474.95401 -574.363,-508.09034 z"
     id="path178"
     inkscape:connector-curvature="0"
     style="fill:#e9b96e" />
  <path
     d="m -1828.9534,483.10919 0,-146.35211 513.613,433.53361 -231.9543,-5.52273 c 0,0 -281.6587,-242.99971 -281.6587,-281.65877 z"
     id="path180"
     inkscape:connector-curvature="0"
     style="fill:#e9b96e" />
  <path
     d="M -108.68217,759.79752 C 820.32237,224.48016 1076.9908,300.22428 1076.9908,300.22428 759.18584,347.96822 557.99311,497.07064 259.76618,745.60413 l -368.44835,14.20112 z"
     id="path182"
     inkscape:connector-curvature="0"
     style="fill:#fce94f" />
  <path
     d="M 532.00871,751.92764 C 903.2184,443.04185 1076.9908,300.22428 1076.9908,300.22428 c 0,36.69849 -141.50315,159.13444 -169.1195,457.36415 l -375.84878,-5.65941 z"
     id="path184"
     inkscape:connector-curvature="0"
     style="fill:#fce94f" />
  <path
     d="m 869.08799,87.903266 85.40612,22.425854 122.49939,13.8068 0,107.69306 -155.9947,-62.89828 -140.4704,-44.79478 -19.32953,-13.8068 5.52273,-41.420424 102.36639,18.99457 z"
     id="path186"
     style="fill:url(#j)"
     inkscape:connector-curvature="0" />
  <path
     d="m 642.46313,-125.02524 245.7611,-4.86939 5.52271,226.431566 -251.28381,-51.12935 0,-170.431166 z"
     id="path188"
     inkscape:connector-curvature="0"
     style="fill:#5e0000" />
  <path
     d="m 471.25878,-124.39013 245.76109,-5.52272 5.52271,256.80654 -251.2838,-57.988584 0,-193.295236 z"
     id="path190"
     inkscape:connector-curvature="0"
     style="fill:#cc0000" />
  <path
     d="m 715.30781,-130.24422 3.96947,254.82113 42.54151,-7.24858 -2.41618,-156.792806 107.60746,-6.040493 2.8475,144.366695 24.50708,-4.14204 -4.48721,-223.670196 -87.28384,-105.57787 -87.28385,104.28555 z"
     id="path192"
     inkscape:connector-curvature="0"
     style="fill:#a40000" />
  <path
     d="m 460.21333,-103.67993 8.28409,-1.38068 234.71564,0 98.0283,-127.02257 -260.94858,19.32952 -80.07945,109.07373 z"
     id="path194"
     inkscape:connector-curvature="0"
     style="fill:#2e3436;stroke:#000000;stroke-width:2.76136065" />
  <path
     d="m 802.62204,-229.31078 91.1249,106.31238 -91.1249,-106.31238 -260.94857,19.32952 260.94857,-19.32952 z"
     id="path196"
     inkscape:connector-curvature="0"
     style="fill:#2e3436;stroke:#000000;stroke-width:2.76136065" />
  <path
     d="m 540.76222,-134.82807 c -28.75129,0 -52.03507,13.85126 -52.03507,30.97971 0,1.54624 0.23718,3.08802 0.60405,4.57336 l 0,189.067596 c -1.24302,2.70055 -1.98474,5.52107 -1.98474,8.45666 0,17.667194 24.10475,32.015224 53.76093,32.015224 29.65619,0 53.67532,-14.34748 53.67532,-32.015224 0,-2.93559 -0.74169,-5.75605 -1.98458,-8.45666 l 0,-192.604906 -0.0855,0 c 0.0276,-0.3445 0.0855,-0.68827 0.0855,-1.03551 0,-17.12788 -23.28407,-30.9797 -52.03509,-30.9797 z"
     id="path198"
     style="fill:url(#k)"
     inkscape:connector-curvature="0" />
  <path
     d="m 590.63239,-116.38217 c 0,10.77234 -21.99561,19.505138 -49.12737,19.505138 -27.13175,0 -49.12736,-8.732798 -49.12736,-19.505138 0,-10.77235 21.99533,-19.50516 49.12736,-19.50516 27.13202,0 49.12737,8.73281 49.12737,19.50516 z"
     id="path200"
     inkscape:connector-curvature="0"
     style="opacity:0.57959002;fill:#eeeeec" />
  <path
     d="m 612.9718,-130.85172 c -30.43847,0 -55.08915,14.66422 -55.08915,32.796677 0,1.637032 0.25101,3.269188 0.6395,4.842062 l 0,200.162731 c -1.31594,2.85912 -2.10122,5.84497 -2.10122,8.95289 0,18.70381 25.51966,33.89293 56.9144,33.89293 31.39474,0 56.82328,-15.1894 56.82328,-33.89293 0,-3.10792 -0.78525,-6.09405 -2.10106,-8.95289 l 0,-203.909907 -0.0906,0 c 0.0292,-0.364707 0.0906,-0.728659 0.0906,-1.096295 0,-18.133028 -24.65067,-32.796678 -55.08915,-32.796678 z"
     id="path202"
     style="fill:url(#l)"
     inkscape:connector-curvature="0" />
  <path
     d="m 663.83605,-109.36832 c 0,11.404413 -23.28656,20.64972 -52.01298,20.64972 -28.72643,0 -52.01298,-9.245033 -52.01298,-20.64972 0,-11.4047 23.28655,-20.64973 52.01298,-20.64973 28.72642,0 52.01298,9.24503 52.01298,20.64973 z"
     id="path204"
     inkscape:connector-curvature="0"
     style="opacity:0.57959002;fill:#eeeeec" />
  <path
     d="m -1828.9534,726.10892 2906.0558,0 0,93.88626 -2906.0558,0 z"
     id="path206"
     inkscape:connector-curvature="0"
     style="fill:#2e3436" />
  <path
     d="m -1828.9534,-411.82014 2906.0558,0 0,93.88626 -2906.0558,0 z"
     id="path208"
     inkscape:connector-curvature="0"
     style="fill:#2e3436" />
  <path
     d="m -686.55203,-363.06556 c -37.47442,0 -68.84073,26.14842 -76.88739,61.1807 -27.34629,0.37152 -50.79798,16.92134 -61.26908,40.4705 l -0.43146,-0.17259 c -8.4586,-3.09714 -17.56422,-4.83237 -27.09578,-4.83237 -43.57427,0 -78.95845,35.38407 -78.95845,78.95834 0,43.57427 35.38418,78.86998 78.95845,78.86998 1.36161,0 2.71099,-0.0194 4.05587,-0.0862 7.58786,-0.38463 14.8718,-1.848 21.74561,-4.2282 9.47069,25.545884 34.06698,43.750985 62.90666,43.750985 22.32697,0 42.08867,-10.919245 54.27732,-27.699199 18.50739,16.031899 42.62707,25.715165 69.03396,25.715165 36.51071,0 68.7275,-18.502758 87.6732,-46.683561 14.27071,14.22736 34.00063,23.040253 55.74635,23.040253 32.96787,0 61.11995,-20.213173 72.91648,-48.928563 12.40679,13.14216 30.03256,21.3144 49.53329,21.3144 20.90018,0 39.63933,-9.41956 52.12069,-24.24806 13.47322,10.7232 30.54339,17.17234 49.09974,17.17234 3.22581,0 6.36797,-0.22779 9.49218,-0.60405 12.47665,14.37786 30.89963,23.47157 51.43033,23.47157 33.24402,0 60.84383,-23.883 66.7918,-55.39841 32.66965,-2.39726 58.419343,-29.71225 58.419343,-62.99216 0,-34.85942 -28.221103,-63.08051 -63.080523,-63.08051 -25.28329,0 -47.05082,14.86109 -57.12702,36.32845 -14.10615,-21.42649 -38.35531,-35.55252 -65.92749,-35.55252 -22.04974,0 -42.03344,9.06141 -56.34832,23.64415 -7.78815,-35.38406 -39.33558,-61.87104 -77.05854,-61.87104 -21.22464,0 -40.44287,8.37134 -54.62247,22.00473 -12.53492,-26.98512 -39.82434,-45.73366 -71.5358,-45.73366 -25.67431,0 -48.50054,12.33528 -62.90655,31.32488 -4.83515,-1.09002 -9.85061,-1.72586 -15.0149,-1.72586 -1.79193,0 -3.59308,0.12296 -5.35014,0.25876 -12.94636,-25.87451 -39.68627,-43.66264 -70.5859,-43.66264 z"
     id="path210"
     inkscape:connector-curvature="0"
     style="fill:#ffffff" />
  <g
     transform="matrix(-3.9932036,0,0,3.9932036,390.24047,-743.12814)"
     id="g212">
    <path
       d="m 404.12,165.85 c -7.8847,-1.8044 -13.22,-8.8291 -13.227,-16.587 -5.7357,-1.3949 -9.902,-5.9959 -10.971,-11.455 l -0.0983,0.01 c -1.9288,0.24435 -3.9211,0.16055 -5.9265,-0.29841 -9.1677,-2.0981 -14.901,-11.234 -12.803,-20.401 2.098,-9.167 11.234,-14.901 20.401,-12.803 0.28649,0.0656 0.56631,0.14663 0.84599,0.22561 1.578,0.44628 3.066,1.1043 4.3977,1.9361 3.2227,-4.9188 9.2581,-7.5627 15.326,-6.174 4.6976,1.0751 8.3353,4.3151 10.092,8.4326 4.6659,-2.4819 10.208,-3.338 15.765,-2.0664 7.6818,1.758 13.556,7.1851 16.185,14.027 3.6876,-2.3063 8.2617,-3.2065 12.837,-2.1595 6.9362,1.5874 11.897,7.2004 12.997,13.81 3.2432,-2.1677 7.3402,-3.0327 11.443,-2.0937 4.3974,1.0064 7.89,3.876 9.8022,7.597 2.0857,-1.0004 4.3789,-1.5752 6.7592,-1.6589 l -7.341,32.077 c -2.7438,-1.4445 -4.9997,-3.5916 -6.5743,-6.153 -3.3424,7.0697 -11.253,11.146 -19.19,9.3291 -4.4656,-1.022 -8.128,-3.7143 -10.455,-7.2655 -3.9367,5.074 -10.579,7.7092 -17.251,6.1822 -5.4018,-1.2362 -9.5909,-4.947 -11.708,-9.636 -1.0698,-0.003 -2.1652,-0.11081 -3.2518,-0.35948 -0.37703,-0.0863 -0.75003,-0.20571 -1.1132,-0.31887 -3.9698,4.8206 -10.439,7.2925 -16.941,5.8046 z"
       id="path214"
       inkscape:connector-curvature="0"
       style="fill:#3e6d05" />
    <path
       d="m 475.08,146.36 c -8.0333,-0.94363 -15.276,2.6955 -17.696,8.4122 -5.8694,-0.62582 -11.249,1.5641 -13.961,5.2796 l -0.0902,-0.0354 c -1.7518,-0.73631 -3.6658,-1.249 -5.709,-1.489 -9.3405,-1.0972 -17.616,3.9834 -18.481,11.346 -0.865,7.3626 6.0083,14.222 15.349,15.32 0.29189,0.0343 0.5823,0.0551 0.8719,0.0777 1.6342,0.12611 3.2491,0.0702 4.7699,-0.15894 1.5231,4.5549 6.4197,8.244 12.602,8.9702 4.7861,0.56219 9.2416,-0.77698 12.188,-3.3054 3.6492,3.1748 8.635,5.4041 14.296,6.0691 7.8266,0.91934 15.082,-1.387 19.702,-5.6716 2.7767,2.7633 6.8312,4.7458 11.492,5.2933 7.0669,0.83012 13.515,-1.8765 16.614,-6.4313 2.3987,2.533 6.0121,4.352 10.192,4.843 4.4803,0.52627 8.683,-0.58175 11.653,-2.773 1.6651,1.3388 3.6594,2.4238 5.8889,3.1719 l 3.0259,-25.76 c -3.0496,0.27353 -5.8555,1.2056 -8.1448,2.6394 -0.9672,-6.1748 -7.1949,-11.46 -15.282,-12.41 -4.5498,-0.53444 -8.8582,0.39389 -12.169,2.3404 -2.1515,-4.8752 -7.6258,-8.7329 -14.424,-9.5315 -5.5036,-0.64648 -10.628,0.88067 -14.093,3.7264 -1.0148,-0.30591 -2.0863,-0.54268 -3.1933,-0.67272 -0.38413,-0.0451 -0.77476,-0.0646 -1.1541,-0.0859 -2.2617,-4.6979 -7.6228,-8.3854 -14.247,-9.1634 z"
       id="path216"
       inkscape:connector-curvature="0"
       style="fill:#325804" />
    <path
       d="m 470.19,170.23 c -8.0886,0 -14.857,-5.6573 -16.594,-13.219 -5.9024,-0.0802 -10.99,-3.6358 -13.25,-8.7188 l -0.0937,0.0312 c -1.8257,0.66849 -3.7865,1.0312 -5.8438,1.0312 -9.4047,0 -17.031,-7.6265 -17.031,-17.031 0,-9.4045 7.6265,-17.031 17.031,-17.031 0.2939,0 0.58475,0.0166 0.875,0.0312 1.6378,0.083 3.2351,0.39248 4.7188,0.90625 2.0441,-5.5138 7.3376,-9.4375 13.562,-9.4375 4.819,0 9.0879,2.3468 11.719,5.9688 3.9946,-3.4603 9.2065,-5.5312 14.906,-5.5312 7.8804,0 14.817,3.9799 18.906,10.062 3.0801,-3.0708 7.3382,-4.9688 12.031,-4.9688 7.1155,0 13.204,4.3648 15.75,10.562 2.6778,-2.8366 6.4787,-4.5938 10.688,-4.5938 4.511,0 8.5558,2.0182 11.25,5.2188 1.8099,-1.4405 3.9171,-2.5124 6.2187,-3.125 l 0,32.906 c -2.9969,-0.79603 -5.6749,-2.3857 -7.7812,-4.5312 -1.681,7.6372 -8.4828,13.375 -16.625,13.375 -4.5811,0 -8.7518,-1.8074 -11.812,-4.75 -2.7056,5.8244 -8.5926,9.875 -15.438,9.875 -5.5415,0 -10.453,-2.6827 -13.562,-6.7812 -1.0436,0.23526 -2.1353,0.375 -3.25,0.375 -0.38677,0 -0.77701,-0.0332 -1.1562,-0.0625 -2.7943,5.5847 -8.5491,9.4375 -15.219,9.4375 z"
       id="path218"
       inkscape:connector-curvature="0"
       style="fill:#417305" />
    <path
       d="m 355.01,114.47 c -8.0886,0 -14.858,5.6438 -16.595,13.205 -5.9024,0.0802 -10.964,3.6523 -13.224,8.7352 -0.0312,-0.0116 -0.0619,-0.0258 -0.0931,-0.0373 -1.8257,-0.66849 -3.791,-1.043 -5.8483,-1.043 -9.4047,0 -17.042,7.6374 -17.042,17.042 0,9.4046 7.6374,17.023 17.042,17.023 0.2939,0 0.58514,-0.004 0.87539,-0.0186 1.6378,-0.083 3.2099,-0.39887 4.6936,-0.91264 2.0441,5.5138 7.3529,9.443 13.578,9.443 4.819,0 9.0844,-2.3568 11.715,-5.9787 3.9946,3.4603 9.2004,5.5503 14.9,5.5503 7.8804,0 14.834,-3.9936 18.923,-10.076 3.0801,3.0708 7.3389,4.9729 12.032,4.9729 7.1155,0 13.192,-4.3628 15.738,-10.561 2.6778,2.8366 6.4821,4.6004 10.691,4.6004 4.5111,0 8.5554,-2.0331 11.25,-5.2337 2.9081,2.3145 6.5922,3.7064 10.598,3.7064 0.69624,0 1.3744,-0.0492 2.0488,-0.13038 2.6929,3.1033 6.6693,5.0661 11.101,5.0661 7.1755,0 13.133,-5.1549 14.416,-11.957 7.0516,-0.51742 12.609,-6.4128 12.609,-13.596 0,-7.5238 -6.0913,-13.615 -13.615,-13.615 -5.4571,0 -10.155,3.2076 -12.33,7.8412 -3.0446,-4.6246 -8.2788,-7.6736 -14.23,-7.6736 -4.7592,0 -9.0723,1.9558 -12.162,5.1033 -1.681,-7.6372 -8.4901,-13.354 -16.632,-13.354 -4.5811,0 -8.729,1.8068 -11.79,4.7494 -2.7056,-5.8244 -8.5954,-9.8714 -15.44,-9.8714 -5.5415,0 -10.468,2.6624 -13.578,6.761 -1.0436,-0.23526 -2.1261,-0.3725 -3.2408,-0.3725 -0.38677,0 -0.77553,0.0265 -1.1548,0.0558 -2.7943,-5.5847 -8.5657,-9.4244 -15.235,-9.4244 z"
       id="path220"
       inkscape:connector-curvature="0"
       style="fill:#4e8a06" />
    <path
       d="m 385.43,168.44 c -1.6219,-0.46341 -14.644,15.926 -0.60224,32.822 -7.817,-2.1796 -7.8291,-7.2268 -15.959,-3.3123 3.781,-7.2595 4.9196,-12.298 4.8096,-16.058 -0.21839,-7.4687 -5.3636,-9.8915 -4.5085,-14.656 0.77614,-4.3252 0.69707,4.5838 5.7521,5.562 4.2766,0.82758 5.7156,-5.2609 10.508,-4.3575 z"
       id="path222"
       inkscape:connector-curvature="0"
       style="fill:#a56a0f" />
    <path
       d="m 422.36,166.73 c -1.6417,-0.46905 -14.823,16.12 -0.60958,33.222 -7.9122,-2.2062 -7.9244,-7.3149 -16.154,-3.3527 3.8271,-7.348 4.9795,-12.448 4.8682,-16.253 -0.22104,-7.5596 -12.95,-10.992 -8.0685,-10.568 3.9859,0.34633 4.363,3.4205 9.4796,4.4106 4.3287,0.83765 5.6328,-8.3728 10.484,-7.4585 z"
       id="path224"
       inkscape:connector-curvature="0"
       style="fill:#905d0d" />
    <path
       d="m 418.01,122.47 c -8.0886,0 -14.858,5.6438 -16.595,13.205 -5.9024,0.0802 -10.964,3.6523 -13.224,8.7352 -0.0312,-0.0116 -0.0619,-0.0258 -0.0931,-0.0373 -1.8257,-0.66849 -3.791,-1.043 -5.8483,-1.043 -9.4047,0 -17.042,7.6374 -17.042,17.042 0,9.4046 7.6374,17.023 17.042,17.023 0.2939,0 0.58514,-0.004 0.87539,-0.0186 1.6378,-0.083 3.2099,-0.39887 4.6936,-0.91264 2.0441,5.5138 7.3529,9.443 13.578,9.443 4.819,0 9.0844,-2.3568 11.715,-5.9787 3.9946,3.4603 9.2004,5.5503 14.9,5.5503 7.8804,0 14.834,-3.9936 18.923,-10.076 3.0801,3.0708 7.3389,4.9729 12.032,4.9729 7.1155,0 13.192,-4.3628 15.738,-10.561 2.6778,2.8366 6.4821,4.6004 10.691,4.6004 4.5111,0 8.5554,-2.0331 11.25,-5.2337 2.9081,2.3145 6.5922,3.7064 10.598,3.7064 0.69624,0 1.3744,-0.0492 2.0488,-0.13038 2.6929,3.1033 6.6693,5.0661 11.101,5.0661 7.1754,0 13.133,-5.1549 14.416,-11.957 7.0515,-0.51742 12.609,-6.4128 12.609,-13.596 0,-7.5238 -6.0913,-13.615 -13.615,-13.615 -5.4571,0 -10.155,3.2076 -12.33,7.8412 -3.0446,-4.6246 -8.2787,-7.6736 -14.23,-7.6736 -4.7592,0 -9.0723,1.9558 -12.162,5.1033 -1.681,-7.6372 -8.4901,-13.354 -16.632,-13.354 -4.5811,0 -8.729,1.8068 -11.79,4.7494 -2.7056,-5.8244 -8.5954,-9.8714 -15.44,-9.8714 -5.5415,0 -10.468,2.6624 -13.578,6.761 -1.0436,-0.23526 -2.1261,-0.3725 -3.2408,-0.3725 -0.38677,0 -0.77553,0.0265 -1.1548,0.0558 -2.7943,-5.5847 -8.5657,-9.4244 -15.235,-9.4244 z"
       id="path226"
       inkscape:connector-curvature="0"
       style="fill:#4e9a06" />
    <path
       d="m 488.87,172.47 c 0,0 9.4056,33.591 1.0077,36.615 -8.3979,3.024 11.421,-2.6873 20.491,1.6796 0,0 -18.811,-33.591 -13.437,-38.294 5.374,-4.703 -7.3901,0 -8.0619,0 z"
       id="path228"
       inkscape:connector-curvature="0"
       style="fill:#a56a0f" />
    <path
       d="m 446.36,163.75 c -2.3816,-0.68046 -21.504,23.386 -0.88432,48.195 -11.478,-3.2005 -11.496,-10.612 -23.434,-4.8638 5.552,-10.66 7.2238,-18.058 7.0624,-23.579 -0.32067,-10.967 -18.787,-15.946 -11.705,-15.331 5.7823,0.50242 6.3295,4.9621 13.752,6.3985 6.2797,1.2152 8.1716,-12.147 15.209,-10.82 z"
       id="path230"
       inkscape:connector-curvature="0"
       style="fill:#a56a0f" />
    <path
       d="m 473.02,124.47 c -8.0886,0 -14.857,5.6573 -16.594,13.219 -5.9024,0.0802 -10.99,3.6358 -13.25,8.7188 l -0.0937,-0.0312 c -1.8257,-0.66849 -3.7865,-1.0312 -5.8438,-1.0312 -9.4047,0 -17.031,7.6265 -17.031,17.031 0,9.4045 7.6265,17.031 17.031,17.031 0.2939,0 0.58475,-0.0166 0.875,-0.0312 1.6378,-0.083 3.2351,-0.39248 4.7188,-0.90625 2.0441,5.5138 7.3376,9.4375 13.562,9.4375 4.819,0 9.0879,-2.3468 11.719,-5.9688 3.9946,3.4603 9.2065,5.5312 14.906,5.5312 7.8804,0 14.817,-3.9799 18.906,-10.062 3.0801,3.0708 7.3382,4.9688 12.031,4.9688 7.1155,0 13.204,-4.3648 15.75,-10.562 2.6778,2.8366 6.4787,4.5938 10.688,4.5938 4.5111,0 8.5558,-2.0182 11.25,-5.2188 1.81,1.4405 3.9172,2.5124 6.2188,3.125 l -10e-5,-32.906 c -2.9969,0.79603 -5.6749,2.3857 -7.7812,4.5312 -1.681,-7.6372 -8.4828,-13.375 -16.625,-13.375 -4.5811,0 -8.7518,1.8074 -11.812,4.75 -2.7056,-5.8244 -8.5926,-9.875 -15.438,-9.875 -5.5415,0 -10.453,2.6827 -13.562,6.7812 -1.0436,-0.23526 -2.1353,-0.375 -3.25,-0.375 -0.38677,0 -0.77701,0.0332 -1.1562,0.0625 -2.7943,-5.5847 -8.5491,-9.4375 -15.219,-9.4375 z"
       id="path232"
       inkscape:connector-curvature="0"
       style="fill:#4e8a06" />
    <path
       d="m 339.86,158.77 c 0,0 14,50 1.5,54.5 -12.5,4.5 17,-4 30.5,2.5 0,0 -28,-50 -20,-57 8,-7 -11,0 -12,0 z"
       id="path234"
       inkscape:connector-curvature="0"
       style="fill:#c17d11" />
    <path
       d="m 479.86,170.27 c -2.6931,-0.76947 -24.317,26.445 -1,54.5 -12.98,-3.6192 -13,-12 -26.5,-5.5 6.2783,-12.054 8.1688,-20.42 7.9863,-26.663 -0.36262,-12.402 -8.9061,-16.425 -7.4863,-24.337 1.2888,-7.1819 1.1575,7.6112 9.5512,9.2355 7.1012,1.3742 9.4905,-8.7355 17.449,-7.2355 z"
       id="path236"
       inkscape:connector-curvature="0"
       style="fill:#c17d11" />
    <path
       d="m 548.86,162.77 c -2.6931,-0.76947 -24.317,26.445 -1,54.5 -12.98,-3.6192 -13,-12 -26.5,-5.5 6.2783,-12.054 8.1688,-20.42 7.9863,-26.663 -0.3626,-12.402 -21.245,-18.032 -13.236,-17.337 6.5388,0.56814 7.1575,5.6112 15.551,7.2355 7.1012,1.3742 9.2405,-13.736 17.199,-12.236 z"
       id="path238"
       inkscape:connector-curvature="0"
       style="fill:#c17d11" />
    <path
       d="m 505.55,129.34 c -7.6152,0 -13.781,6.166 -13.781,13.781 0,1.2019 0.17981,2.3573 0.46875,3.4688 -4.2778,2.341 -7.1875,6.8734 -7.1875,12.094 0,6.5835 4.6106,12.066 10.781,13.438 1.5957,5.3157 6.5397,9.1875 12.375,9.1875 7.127,0 12.906,-5.7792 12.906,-12.906 0,-1.3809 -0.2235,-2.7235 -0.625,-3.9688 2.5499,-2.3575 4.1563,-5.7222 4.1563,-9.4688 0,-4.3164 -2.1203,-8.126 -5.375,-10.469 0.045,-0.45097 0.062,-0.91217 0.062,-1.375 0,-7.6152 -6.1661,-13.781 -13.781,-13.781 z"
       id="path240"
       style="fill:url(#d)"
       inkscape:connector-curvature="0" />
  </g>
</svg>
