<?xml version="1.0" encoding="UTF-8" standalone="no"?>
<svg
   xmlns:dc="http://purl.org/dc/elements/1.1/"
   xmlns:cc="http://creativecommons.org/ns#"
   xmlns:rdf="http://www.w3.org/1999/02/22-rdf-syntax-ns#"
   xmlns:svg="http://www.w3.org/2000/svg"
   xmlns="http://www.w3.org/2000/svg"
   xmlns:sodipodi="http://sodipodi.sourceforge.net/DTD/sodipodi-0.dtd"
   xmlns:inkscape="http://www.inkscape.org/namespaces/inkscape"
   viewBox="0 0 2482.1001 2727.0125"
   height="2727.0125"
   width="2482.1001"
   xml:space="preserve"
   version="1.1"
   id="svg2"
   inkscape:version="0.91 r13725"
   sodipodi:docname="building_wizard.svg"><sodipodi:namedview
     pagecolor="#ffffff"
     bordercolor="#666666"
     borderopacity="1"
     objecttolerance="10"
     gridtolerance="10"
     guidetolerance="10"
     inkscape:pageopacity="0"
     inkscape:pageshadow="2"
     inkscape:window-width="1920"
     inkscape:window-height="1147"
     id="namedview310"
     showgrid="false"
     inkscape:zoom="0.086541592"
     inkscape:cx="-214.89728"
     inkscape:cy="1363.5062"
     inkscape:window-x="0"
     inkscape:window-y="0"
     inkscape:window-maximized="1"
     inkscape:current-layer="svg2" /><metadata
     id="metadata8"><rdf:RDF><cc:Work
         rdf:about=""><dc:format>image/svg+xml</dc:format><dc:type
           rdf:resource="http://purl.org/dc/dcmitype/StillImage" /></cc:Work></rdf:RDF></metadata><defs
     id="defs6"><clipPath
       id="clipPath16"
       clipPathUnits="userSpaceOnUse"><path
         id="path18"
         d="m 0,2181.608 1985.679,0 L 1985.679,0 0,0 0,2181.608 Z" /></clipPath><clipPath
       id="clipPath28"
       clipPathUnits="userSpaceOnUse"><path
         id="path30"
         d="m 597.608,1619.92 584.402,0 0,-598.4 -584.402,0 0,598.4 z" /></clipPath><clipPath
       id="clipPath88"
       clipPathUnits="userSpaceOnUse"><path
         id="path90"
         d="m 1375.19,1897.03 156.7,0 0,-200.75 -156.7,0 0,200.75 z" /></clipPath><clipPath
       id="clipPath160"
       clipPathUnits="userSpaceOnUse"><path
         id="path162"
         d="m 1615.28,448.707 124.19,0 0,-242.11 -124.19,0 0,242.11 z" /></clipPath><clipPath
       id="clipPath176"
       clipPathUnits="userSpaceOnUse"><path
         id="path178"
         d="m 617.602,336.343 160.238,0 0,-236.271 -160.238,0 0,236.271 z" /></clipPath><clipPath
       id="clipPath192"
       clipPathUnits="userSpaceOnUse"><path
         id="path194"
         d="m 779.341,409.426 772.129,0 0,-267.157 -772.129,0 0,267.157 z" /></clipPath><clipPath
       id="clipPath220"
       clipPathUnits="userSpaceOnUse"><path
         id="path222"
         d="m 1298.22,1308.6 358.66,0 0,-258.73 -358.66,0 0,258.73 z" /></clipPath><clipPath
       id="clipPath256"
       clipPathUnits="userSpaceOnUse"><path
         id="path258"
         d="m 915.361,1124.77 507.579,0 0,-942.791 -507.579,0 0,942.791 z" /></clipPath><clipPath
       id="clipPath272"
       clipPathUnits="userSpaceOnUse"><path
         id="path274"
         d="m 823.552,956.634 587.078,0 0,-331.966 -587.078,0 0,331.966 z" /></clipPath><clipPath
       id="clipPath304"
       clipPathUnits="userSpaceOnUse"><path
         id="path306"
         d="m 636.671,935.283 269.317,0 0,-534.656 -269.317,0 0,534.656 z" /></clipPath><clipPath
       id="clipPath324"
       clipPathUnits="userSpaceOnUse"><path
         id="path326"
         d="m 678.486,1522.84 405.384,0 0,-430.92 -405.384,0 0,430.92 z" /></clipPath><clipPath
       id="clipPath420"
       clipPathUnits="userSpaceOnUse"><path
         id="path422"
         d="m 481.905,794.127 377.262,0 0,-333.382 -377.262,0 0,333.382 z" /></clipPath><clipPath
       id="clipPath436"
       clipPathUnits="userSpaceOnUse"><path
         id="path438"
         d="m 438.496,1051.52 409.055,0 0,-384.425 -409.055,0 0,384.425 z" /></clipPath><clipPath
       id="clipPath452"
       clipPathUnits="userSpaceOnUse"><path
         id="path454"
         d="m 823.365,737.667 371.065,0 0,-255.141 -371.065,0 0,255.141 z" /></clipPath><clipPath
       id="clipPath480"
       clipPathUnits="userSpaceOnUse"><path
         id="path482"
         d="m 895.38,739.88 45.833,0 0,-109.442 -45.833,0 0,109.442 z" /></clipPath><clipPath
       id="clipPath496"
       clipPathUnits="userSpaceOnUse"><path
         id="path498"
         d="m 823.364,751.965 119.176,0 0,-194.729 -119.176,0 0,194.729 z" /></clipPath><clipPath
       id="clipPath524"
       clipPathUnits="userSpaceOnUse"><path
         id="path526"
         d="m 1009.49,711.987 51.36,0 0,-123.667 -51.36,0 0,123.667 z" /></clipPath><clipPath
       id="clipPath540"
       clipPathUnits="userSpaceOnUse"><path
         id="path542"
         d="m 925.461,725.912 137.329,0 0,-224.388 -137.329,0 0,224.388 z" /></clipPath><clipPath
       id="clipPath588"
       clipPathUnits="userSpaceOnUse"><path
         id="path590"
         d="m 1128.47,724.248 61.75,0 0,-114.702 -61.75,0 0,114.702 z" /></clipPath><clipPath
       id="clipPath604"
       clipPathUnits="userSpaceOnUse"><path
         id="path606"
         d="m 1074.79,719.893 119.64,0 0,-186.272 -119.64,0 0,186.272 z" /></clipPath></defs><g
     transform="matrix(1.3315439,0,0,-1.3315439,-81.098852,2816.0584)"
     id="g10"><g
       id="g12"><g
         clip-path="url(#clipPath16)"
         id="g14"><g
           transform="translate(591.0352,954.2892)"
           id="g20"><path
             id="path22"
             style="fill:#205f75;fill-opacity:1;fill-rule:nonzero;stroke:none"
             d="M 0,0 C 11.294,347.354 371.584,638.63 682.346,686.147 569.255,428.604 198.621,36.113 0,0"
             inkscape:connector-curvature="0" /></g><g
           id="g24"><g
             id="g26" /><g
             id="g32"><g
               style="opacity:0.19999701"
               id="g34"
               clip-path="url(#clipPath28)"><g
                 id="g36"
                 transform="translate(728.796,1088.8324)"><path
                   id="path38"
                   style="fill:#1d1d1b;fill-opacity:1;fill-rule:nonzero;stroke:none"
                   d="m 0,0 c 56.842,32.363 111.3,68.932 161.553,110.86 45.554,38.008 88.388,79.724 127.91,123.957 41.932,46.93 80.347,97.526 110.812,152.709 24.712,44.763 44.211,93.076 52.938,143.559 C 187.936,453.169 -84.985,216.913 -131.188,-67.313 -86.712,-46.357 -42.734,-24.33 0,0"
                   inkscape:connector-curvature="0" /></g></g></g></g><g
           transform="translate(602.4393,1235.5905)"
           id="g40"><path
             id="path42"
             style="fill:#1b9db2;fill-opacity:1;fill-rule:nonzero;stroke:none"
             d="m 0,0 c -38.681,32.278 -68.648,93.518 -98.836,184.366 -43.919,5.092 -77.963,26.52 -95.034,76.028 -230.754,52.294 -228.98,149.923 -148.253,262.945 61.777,85.542 109.289,124.339 93.133,56.37 -8.549,-31.695 -8.075,-71.542 -1.9,-104.538 120.004,54.765 219.619,63.647 302.208,34.212 136.216,-18.917 254.37,-62.289 364.932,-115.941 L 0,0 Z"
             inkscape:connector-curvature="0" /></g><g
           transform="translate(979.9167,1647.2445)"
           id="g44"><path
             id="path46"
             style="fill:#24bece;fill-opacity:1;fill-rule:nonzero;stroke:none"
             d="m 0,0 c -99.427,45.158 -205.731,81.005 -326.159,97.729 -78.868,28.108 -173.276,21.243 -286.125,-27.121 4.063,0.992 8.16,1.845 12.295,2.521 59.309,9.685 119.787,-7.522 175.245,-27.16 47.529,-16.83 93.094,-40.519 128.298,-77.288 24.822,-25.926 43.412,-57.025 57.295,-90.162 C -198.891,-75.115 -67.295,-14.243 0,0"
             inkscape:connector-curvature="0" /></g><g
           transform="translate(602.4393,1235.5905)"
           id="g48"><path
             id="path50"
             style="fill:#fcea10;fill-opacity:1;fill-rule:nonzero;stroke:none"
             d="m 0,0 c -13.332,11.125 -25.629,25.691 -37.257,43.723 11.598,246.45 253.46,349.243 378.586,383.797 25.424,-10.748 50.36,-22.16 74.921,-34.078 L 0,0 Z"
             inkscape:connector-curvature="0" /></g><g
           transform="translate(724.2025,1560.0162)"
           id="g52"><path
             id="path54"
             style="fill:#fff399;fill-opacity:1;fill-rule:nonzero;stroke:none"
             d="M 0,0 C 74.789,55.032 160.28,86.723 219.565,103.094 244.99,92.346 269.926,80.934 294.487,69.016 L 27.707,-71.682 c 0,0 -11.986,46.744 -27.707,71.682"
             inkscape:connector-curvature="0" /></g><g
           transform="translate(591.0352,954.2892)"
           id="g56"><path
             id="path58"
             style="fill:#24bece;fill-opacity:1;fill-rule:nonzero;stroke:none"
             d="M 0,0 C 82.984,310.262 261.476,567.394 682.346,686.147 613.919,689.778 534.909,688.632 427.654,674.743 181.085,611.539 26.473,495.789 11.404,281.301 -4.685,168.696 -3.292,82.892 0,0"
             inkscape:connector-curvature="0" /></g><g
           transform="translate(591.0352,954.2892)"
           id="g60"><path
             id="path62"
             style="fill:#fcea10;fill-opacity:1;fill-rule:nonzero;stroke:none"
             d="m 0,0 c 82.984,310.262 261.476,567.394 682.346,686.147 -18.645,0.989 -38.076,1.624 -58.65,1.743 C 388.881,605.051 71.956,465.628 -1.7,53.86 -1.322,35.617 -0.705,17.742 0,0"
             inkscape:connector-curvature="0" /></g><g
           transform="translate(1214.7307,1642.1791)"
           id="g64"><path
             id="path66"
             style="fill:#fff399;fill-opacity:1;fill-rule:nonzero;stroke:none"
             d="m 0,0 c -144.814,-51.088 -320.837,-123.732 -451.789,-268.473 0.399,-6.814 0.779,-13.63 0.963,-20.457 0.3,-11.12 0.314,-22.246 0.116,-33.367 109.572,141.059 270.378,253.123 509.36,320.554 C 40.005,-0.754 20.574,-0.119 0,0"
             inkscape:connector-curvature="0" /></g><g
           transform="translate(1517.3019,1553.6384)"
           id="g68"><path
             id="path70"
             style="fill:#ffc2a4;fill-opacity:1;fill-rule:nonzero;stroke:none"
             d="m 0,0 c -18.981,-73.252 -47.728,-50.727 -40.548,-108.973 6.983,-55.538 31.022,-60.284 48.151,-74.76 l -46.884,-90.599 c 0,0 95.668,-56.387 96.935,-54.486 1.267,1.9 62.089,116.575 62.089,116.575 l -7.136,56.682 c 14.896,15.831 -0.494,69.674 -22.179,101.514 L 0,0 Z"
             inkscape:connector-curvature="0" /></g><g
           transform="translate(1582.8413,1377.8152)"
           id="g72"><path
             id="path74"
             style="fill:#f4a382;fill-opacity:1;fill-rule:nonzero;stroke:none"
             d="m 0,0 c 17.582,-40.177 29.653,-38.727 79.856,-38.426 79.36,-10e-4 71.471,56.03 93.53,74.118 l 132.353,146.471 c 21.177,26.03 -4.047,71.628 -33.53,45 L 180.445,146.602 -23.38,152.163 C 69.834,88.937 48.933,-5.49 0,0"
             inkscape:connector-curvature="0" /></g><g
           transform="translate(1481.1888,1760.8363)"
           id="g76"><path
             id="path78"
             style="fill:#87506d;fill-opacity:1;fill-rule:nonzero;stroke:none"
             d="m 0,0 182.007,-368.52 c 4.429,-5.916 42.363,16.182 37.205,25.106 L 20.274,15.182 0,0 Z"
             inkscape:connector-curvature="0" /></g><g
           transform="translate(1576.116,1761.6412)"
           id="g80"><path
             id="path82"
             style="fill:#f7e219;fill-opacity:1;fill-rule:nonzero;stroke:none"
             d="m 0,0 -81.621,1.199 -47.259,-66.558 -24.083,77.996 -77.904,24.379 66.737,47.006 -0.888,81.625 65.329,-48.945 77.355,26.068 L -48.696,65.514 0,0 Z"
             inkscape:connector-curvature="0" /></g><g
           id="g84"><g
             id="g86" /><g
             id="g92"><g
               style="opacity:0.35000604"
               id="g94"
               clip-path="url(#clipPath88)"><g
                 id="g96"
                 transform="translate(1379.8993,1823.0629)"><path
                   id="path98"
                   style="fill:#f6f6f6;fill-opacity:1;fill-rule:nonzero;stroke:none"
                   d="m 0,0 c -1.356,-11.284 -2.991,-22.534 -4.708,-33.776 l 7.191,-2.25 C 4.339,-22.403 6.185,-8.78 8.106,4.834 8.152,5.159 8.2,5.483 8.246,5.808 L 0,0 Z"
                   inkscape:connector-curvature="0" /></g><g
                 id="g100"
                 transform="translate(1476.4264,1878.3429)"><path
                   id="path102"
                   style="fill:#f6f6f6;fill-opacity:1;fill-rule:nonzero;stroke:none"
                   d="m 0,0 -9.975,7.474 c -6.992,-59.755 -14.207,-119.485 -22.444,-179.079 l 3.228,-10.456 4.675,6.584 c 8.419,58.702 16.955,117.387 26.038,175.99 L 0,0 Z"
                   inkscape:connector-curvature="0" /></g><g
                 id="g104"
                 transform="translate(1502.1224,1887.0022)"><path
                   id="path106"
                   style="fill:#f6f6f6;fill-opacity:1;fill-rule:nonzero;stroke:none"
                   d="m 0,0 c -7.499,-47.891 -14.622,-95.838 -21.579,-143.811 l 13.952,19.649 19.863,-0.292 c 6.362,44.791 12.672,89.48 17.53,134.485 L 0,0 Z"
                   inkscape:connector-curvature="0" /></g></g></g></g><g
           transform="translate(1674.425,1492.1829)"
           id="g108"><path
             id="path110"
             style="fill:#f4a382;fill-opacity:1;fill-rule:nonzero;stroke:none"
             d="m 0,0 c -9.82,-31.361 63.039,-21.224 69.692,-6.336 16.046,27.291 25.344,60.237 31.678,95.668 10.137,30.411 -58.235,67.674 -67.158,32.945 8.553,31.995 -90.916,65.891 -98.835,31.678 L -88.065,24.075 C -88.065,-11.721 -11.404,-24.075 0,0"
             inkscape:connector-curvature="0" /></g><g
           transform="translate(1705.0741,1614.8457)"
           id="g112"><path
             id="path114"
             style="fill:#ffc2a4;fill-opacity:1;fill-rule:nonzero;stroke:none"
             d="m 0,0 c 0.281,2.295 2.25,3.442 4.065,3.432 0.276,30.762 -91.732,60.714 -99.337,27.861 l -23.442,-129.881 c 0,-33.232 66.062,-46.254 84.652,-28.686 C -18.119,-86.219 -5.359,-43.716 0,0"
             inkscape:connector-curvature="0" /></g><g
           transform="translate(1709.9523,1618.1825)"
           id="g116"><path
             id="path118"
             style="fill:#ffc2a4;fill-opacity:1;fill-rule:nonzero;stroke:none"
             d="m 0,0 c 1.437,-0.305 2.576,-1.407 2.339,-3.337 -5.703,-46.529 -19.462,-91.477 -36.632,-134.957 11.199,-15.586 62.903,-6.473 68.457,5.959 16.047,27.29 25.345,60.237 31.679,95.668 C 75.585,-7.441 12.824,28.102 0,0"
             inkscape:connector-curvature="0" /></g><g
           transform="translate(1523.004,1546.0356)"
           id="g120"><path
             id="path122"
             style="fill:#f4a382;fill-opacity:1;fill-rule:nonzero;stroke:none"
             d="M 0,0 C 64.233,23.211 66.223,66.641 119.743,65.114 169.676,68.039 136.658,-43.768 90.428,-54.047 39.034,-63.332 21.772,-42.155 0,0"
             inkscape:connector-curvature="0" /></g><g
           transform="translate(1517.3019,1553.6384)"
           id="g124"><path
             id="path126"
             style="fill:#ffc2a4;fill-opacity:1;fill-rule:nonzero;stroke:none"
             d="M 0,0 C 64.233,23.211 66.223,60.939 119.743,59.412 169.676,62.337 136.658,-43.768 90.428,-54.047 39.034,-63.332 21.772,-42.155 0,0"
             inkscape:connector-curvature="0" /></g><g
           transform="translate(1485.3802,2002.1079)"
           id="g128"><path
             id="path130"
             style="fill:#ffed00;fill-opacity:1;fill-rule:nonzero;stroke:none"
             d="M 0,0 0,-74.82 20.836,-6.25 0,0 Z"
             inkscape:connector-curvature="0" /></g><g
           transform="translate(1557.0785,1844.0714)"
           id="g132"><path
             id="path134"
             style="fill:#ffed00;fill-opacity:1;fill-rule:nonzero;stroke:none"
             d="m 0,0 118.581,18.496 0,-24.198 L 0,0 Z"
             inkscape:connector-curvature="0" /></g><g
           transform="translate(1271.6804,1927.288)"
           id="g136"><path
             id="path138"
             style="fill:#ffed00;fill-opacity:1;fill-rule:nonzero;stroke:none"
             d="M 0,0 116.465,-70.039 9.805,15.752 0,0 Z"
             inkscape:connector-curvature="0" /></g><g
           transform="translate(1407.4751,1762.144)"
           id="g140"><path
             id="path142"
             style="fill:#ffed00;fill-opacity:1;fill-rule:nonzero;stroke:none"
             d="M 0,0 -114.715,-58.828 -101.478,-72.555 0,0 Z"
             inkscape:connector-curvature="0" /></g><g
           transform="translate(1409.3757,1969.8882)"
           id="g144"><path
             id="path146"
             style="fill:#ffed00;fill-opacity:1;fill-rule:nonzero;stroke:none"
             d="m 0,0 -32.283,114.041 16.141,0 L 0,0 Z"
             inkscape:connector-curvature="0" /></g><g
           transform="translate(1294.4174,224.4264)"
           id="g148"><path
             id="path150"
             style="fill:#7731b5;fill-opacity:1;fill-rule:nonzero;stroke:none"
             d="m 0,0 c 1.029,1.294 108.242,2.253 148.758,0 61.455,0.634 276.233,-62.723 292.705,45.616 16.473,108.34 -23.836,161.559 -117.842,178.665 78,-57.654 46.452,-158.839 -134.315,-39.281 L 0,0 Z"
             inkscape:connector-curvature="0" /></g><g
           transform="translate(1070.1503,150.5513)"
           id="g152"><path
             id="path154"
             style="fill:#7731b5;fill-opacity:1;fill-rule:nonzero;stroke:none"
             d="m 0,0 c -1.149,1.19 -107.96,-8.126 -148.074,-14.251 -61.233,-5.256 -268.953,-88.897 -295.729,17.366 -26.775,106.263 8.25,163.099 100.185,189.132 -72.118,-64.861 -31.022,-162.558 137.46,-26.233 L 0,0 Z"
             inkscape:connector-curvature="0" /></g><g
           id="g156"><g
             id="g158" /><g
             id="g164"><g
               style="opacity:0.19999701"
               id="g166"
               clip-path="url(#clipPath160)"><g
                 id="g168"
                 transform="translate(1618.0382,448.7072)"><path
                   id="path170"
                   style="fill:#ffffff;fill-opacity:1;fill-rule:nonzero;stroke:none"
                   d="m 0,0 c 0.543,-0.401 1.061,-0.812 1.593,-1.218 12.906,-1.872 25.198,-10.452 34.986,-18.081 12.779,-9.962 25.294,-21.793 34.006,-35.572 36.189,-57.235 -8.459,-129.672 -51.164,-169.226 -6.978,-6.463 -14.413,-12.437 -22.184,-17.974 59.865,-0.848 112.756,11.778 120.605,63.407 C 134.315,-70.325 94.006,-17.106 0,0"
                   inkscape:connector-curvature="0" /></g></g></g></g><g
           id="g172"><g
             id="g174" /><g
             id="g180"><g
               style="opacity:0.19999701"
               id="g182"
               clip-path="url(#clipPath176)"><g
                 id="g184"
                 transform="translate(686.707,173.6808)"><path
                   id="path186"
                   style="fill:#ffffff;fill-opacity:1;fill-rule:nonzero;stroke:none"
                   d="m 0,0 c -20.722,29.856 -28.211,67.853 -18.256,103.023 4.933,17.425 13.928,33.818 25.863,47.436 3.507,4.001 7.711,8.381 12.408,12.203 C -57.007,134.196 -85.113,78.224 -60.359,-20.014 -45.803,-77.783 22.231,-79.422 91.133,-68.046 54.983,-54.289 22.392,-32.262 0,0"
                   inkscape:connector-curvature="0" /></g></g></g></g><g
           id="g188"><g
             id="g190" /><g
             id="g196"><g
               style="opacity:0.19999701"
               id="g198"
               clip-path="url(#clipPath192)"><g
                 id="g200"
                 transform="translate(1406.712,225.5065)"><path
                   id="path202"
                   style="fill:#1d1d1b;fill-opacity:1;fill-rule:nonzero;stroke:none"
                   d="m 0,0 c 1.529,1.293 3.052,2.595 4.556,3.922 33.749,29.784 55.721,70.071 86.478,102.692 14.266,15.13 33.199,32.119 53.724,39.129 -19.684,8.823 -42.227,21.298 -67.747,38.177 l -189.306,-185 C -111.502,-0.084 -47.777,0.714 0,0"
                   inkscape:connector-curvature="0" /></g><g
                 id="g204"
                 transform="translate(805.993,262.1123)"><path
                   id="path206"
                   style="fill:#1d1d1b;fill-opacity:1;fill-rule:nonzero;stroke:none"
                   d="m 0,0 c 23.332,-1.222 45.735,-8.71 64.312,-23.049 11.386,-8.788 19.997,-19.589 28.951,-30.696 8.933,-11.081 18.633,-21.54 28.956,-31.338 13.42,-12.737 27.837,-24.275 42.988,-34.76 45.309,4.779 98.144,9.117 98.95,8.282 L 58,54.453 C 24.892,27.665 -3.274,9.945 -26.652,-0.795 -17.803,0.132 -8.908,0.467 0,0"
                   inkscape:connector-curvature="0" /></g></g></g></g><g
           transform="translate(1298.2188,1113.7506)"
           id="g208"><path
             id="path210"
             style="fill:#196475;fill-opacity:1;fill-rule:nonzero;stroke:none"
             d="M 0,0 120.505,159.855 C 177.654,259.912 357.685,125.59 387.171,5.996 401.597,-49.852 410.745,-169.698 350.089,-279.851 280.979,-144.042 209.347,-196 84.504,-187.665 L 0,0 Z"
             inkscape:connector-curvature="0" /></g><g
           transform="translate(1685.39,1119.7467)"
           id="g212"><path
             id="path214"
             style="fill:#b2a100;fill-opacity:1;fill-rule:nonzero;stroke:none"
             d="m 0,0 c -29.486,119.594 -209.517,253.916 -266.666,153.859 l -6.182,-8.202 c 23.903,13.278 53.611,16.185 80.638,9.863 39.871,-9.327 72.34,-38.599 96.199,-70.647 25.676,-34.487 44.595,-75.283 52.384,-117.664 8.388,-45.643 7.96,-92.811 -4.241,-137.751 -5.802,-21.37 -14.262,-41.833 -25.064,-60.961 12.191,-13.473 24.057,-31.171 35.849,-54.344 C 23.573,-175.694 14.425,-55.848 0,0"
             inkscape:connector-curvature="0" /></g><g
           id="g216"><g
             id="g218" /><g
             id="g224"><g
               style="opacity:0.19999701"
               id="g226"
               clip-path="url(#clipPath220)"><g
                 id="g228"
                 transform="translate(1366.4421,1100.5593)"><path
                   id="path230"
                   style="fill:#ffffff;fill-opacity:1;fill-rule:nonzero;stroke:none"
                   d="m 0,0 c 56.703,58.046 136.882,91.244 217.904,90.901 24.458,-0.104 48.705,-2.904 72.53,-7.887 C 229.27,179.155 99.262,255.301 52.282,173.046 L -68.223,13.191 -39.46,-50.686 C -28.727,-32.215 -14.885,-15.237 0,0"
                   inkscape:connector-curvature="0" /></g></g></g></g><g
           transform="translate(804.5391,929.5803)"
           id="g232"><path
             id="path234"
             style="fill:#1b9db2;fill-opacity:1;fill-rule:nonzero;stroke:none"
             d="M 0,0 463.392,217.087 C 513.651,193.59 540.76,114.52 614.561,0 c 18.69,-64.94 85.689,-113.566 167.894,-112.616 -42.056,-124.019 70.325,-222.38 -68.425,-373.959 -14.58,-18.033 -37.678,-71.381 -80.114,-128.591 -105.653,176.757 -305.165,88.287 -329.683,-177.047 -6.483,-0.247 -13.068,-0.372 -19.758,-0.372 -190.543,-0.142 -231.883,209.55 -452.343,323.75 113.208,105.394 181.379,186.819 188.498,290.964 L 0,0 Z"
             inkscape:connector-curvature="0" /></g><g
           transform="translate(1460.1709,597.8747)"
           id="g236"><path
             id="path238"
             style="fill:#24bece;fill-opacity:1;fill-rule:nonzero;stroke:none"
             d="m 0,0 c -41.449,16.158 -81.328,36.383 -118.694,60.539 -33.822,21.866 -65.52,48.489 -89.536,81.027 0.251,-1.584 0.511,-3.166 0.815,-4.745 0.231,-1.197 -1.601,-1.705 -1.833,-0.505 -0.547,2.837 -0.98,5.685 -1.366,8.538 -2.104,2.949 -4.167,5.929 -6.141,8.975 -0.667,1.03 0.979,1.982 1.642,0.959 1.287,-1.986 2.631,-3.926 3.973,-5.869 -1.39,12.452 -1.512,25.023 -1.52,37.562 -0.011,17.463 -0.842,34.718 -2.065,52.135 -2.267,32.264 -4.597,64.525 -7.252,96.76 -2.616,31.773 -6.475,63.456 -8.489,95.272 -1.542,24.349 -1.818,48.438 -0.431,72.767 0.522,9.174 0.938,18.385 0.662,27.577 L -556.102,378.333 c 15.306,-16.409 30.252,-33.152 44.903,-50.15 35.433,-41.107 69.197,-83.612 102.839,-126.186 14.703,-18.607 28.764,-37.956 45.032,-55.241 7.271,-7.726 14.703,-15.35 21.246,-23.718 4.722,-6.04 9.282,-12.648 11.33,-20.124 0.45,0.606 1.683,0.426 1.727,-0.558 1.157,-25.802 -5.125,-51.115 -13.458,-75.346 -8.541,-24.839 -19.014,-48.996 -28.226,-73.589 -29.884,-79.783 -74.914,-152.955 -128.534,-218.92 -24.425,-30.047 -50.557,-58.607 -77.875,-86.006 58.452,-62.024 115.329,-109.442 205.962,-109.375 7.556,0 14.98,0.161 22.273,0.474 -3.681,278.931 272.975,289.927 327.167,176.945 42.436,57.21 65.535,110.559 80.114,128.591 39.886,43.574 58.996,82.745 67.011,119.397 C 82.589,-27.7 40.513,-15.793 0,0"
             inkscape:connector-curvature="0" /></g><g
           transform="translate(1113.0719,181.9787)"
           id="g240"><path
             id="path242"
             style="fill:#fcea10;fill-opacity:1;fill-rule:nonzero;stroke:none"
             d="M 0,0 C 2.68,23.807 15.246,26.875 18.808,50.638 7.804,49.606 -3.26,49.11 -14.367,49.286 c -46.658,0.737 -92.029,12.966 -132.602,35.974 -38.757,21.98 -72.771,51.378 -105.07,81.814 -32.262,30.401 -62.812,62.717 -97.803,90.079 -28.264,22.101 -58.966,40.468 -91.69,54.791 -11.102,-10.826 -22.709,-21.856 -34.869,-33.178 220.46,-114.199 261.8,-323.891 452.343,-323.75 11.305,0 11.559,-0.293 22.277,0.4 C -0.982,-36.999 -0.853,-7.579 0,0"
             inkscape:connector-curvature="0" /></g><g
           transform="translate(1586.9935,816.9647)"
           id="g244"><path
             id="path246"
             style="fill:#fcea10;fill-opacity:1;fill-rule:nonzero;stroke:none"
             d="m 0,0 c -9.198,-0.106 -18.193,0.441 -26.964,1.53 -0.495,-1.211 -0.988,-2.421 -1.485,-3.63 -9.505,-23.123 -21.41,-45.122 -28.377,-69.249 -7.018,-24.301 -7.865,-48.387 -4.272,-73.325 3.553,-24.659 11.093,-48.622 11.881,-73.659 0.721,-22.934 -3.804,-45.326 -11.912,-66.721 -16.198,-42.742 -32.452,-86.143 -60.152,-122.973 -15.415,-20.497 -33.326,-38.944 -52.897,-55.464 0,0 10.128,-15.422 25.639,-39.059 42.436,57.21 65.535,110.558 80.115,128.59 C 70.325,-222.38 -42.055,-124.02 0,0"
             inkscape:connector-curvature="0" /></g><g
           transform="translate(1353.7109,448.1198)"
           id="g248"><path
             id="path250"
             style="fill:#985fc1;fill-opacity:1;fill-rule:nonzero;stroke:none"
             d="m 0,0 c -41.301,68.928 -79.234,140.043 -109.941,214.367 -14.073,34.062 -23.282,181.098 -22.568,218.416 1.553,81.282 0.279,162.574 -0.022,243.862 L -438.35,533.378 c 15.426,-14.9 31.297,-29.354 46.775,-44.188 25.846,-24.77 192.368,-205.986 196.088,-209.305 1.753,-1.564 -9.972,-194.235 -19.277,-273.764 -9.219,-78.794 -15.599,-157.879 -22.652,-236.886 -2.379,-26.657 -0.554,-8.744 -3.223,-35.376 169.783,6.463 249.493,74.699 309.872,156.073 C 40.213,-66.003 27.122,-45.264 0,0"
             inkscape:connector-curvature="0" /></g><g
           id="g252"><g
             id="g254" /><g
             id="g260"><g
               style="opacity:0.14999402"
               id="g262"
               clip-path="url(#clipPath256)"><g
                 id="g264"
                 transform="translate(1116.2952,217.3551)"><path
                   id="path266"
                   style="fill:#1d1d1b;fill-opacity:1;fill-rule:nonzero;stroke:none"
                   d="m 0,0 c -2.38,-26.657 -0.554,-8.744 -3.223,-35.376 16.891,0.643 31.319,4.566 46.85,6.757 4.604,23.026 54.808,460.65 54.808,460.65 0,0 152.238,-330.921 168.581,-358.734 15.748,16.411 27.371,30.875 39.632,47.4 -29.019,44.065 -42.11,64.804 -69.232,110.068 -41.301,68.927 -79.235,140.042 -109.941,214.366 -14.073,34.063 -23.282,181.098 -22.569,218.417 1.554,81.282 0.28,162.574 -0.021,243.862 L 69.693,890.924 C 67.981,870.92 66.316,850.912 64.867,830.887 56.738,718.59 54.506,602.642 89.247,494.195 c 0.35,-1.092 -1.155,-1.563 -1.737,-0.733 -18.511,26.426 -37.462,52.541 -56.73,78.419 -55.582,74.65 -113.681,147.363 -170.91,220.746 l -60.805,-28.485 c 15.427,-14.899 31.298,-29.354 46.776,-44.188 C -128.313,695.184 38.209,513.969 41.929,510.65 43.682,509.086 31.957,316.414 22.651,236.885 13.432,158.092 7.053,79.006 0,0"
                   inkscape:connector-curvature="0" /></g></g></g></g><g
           id="g268"><g
             id="g270" /><g
             id="g276"><g
               style="opacity:0.19999701"
               id="g278"
               clip-path="url(#clipPath272)"><g
                 id="g280"
                 transform="translate(835.1885,773.4377)"><path
                   id="path282"
                   style="fill:#1d1d1b;fill-opacity:1;fill-rule:nonzero;stroke:none"
                   d="m 0,0 c 245.693,-201.141 522.714,1.056 558.094,183.196 l 17.349,-28.529 C 508.614,-115.654 202.83,-254.359 -11.637,-53.106 l 1.618,16.172 L 0,0 Z"
                   inkscape:connector-curvature="0" /></g></g></g></g><g
           transform="translate(835.1885,788.6432)"
           id="g284"><path
             id="path286"
             style="fill:#7731b5;fill-opacity:1;fill-rule:nonzero;stroke:none"
             d="m 0,0 c 245.693,-201.141 522.714,1.056 558.094,183.196 l 17.349,-28.529 C 508.614,-115.654 202.83,-254.359 -11.637,-53.105 l 1.618,16.171 L 0,0 Z"
             inkscape:connector-curvature="0" /></g><g
           transform="translate(825.1696,751.7093)"
           id="g288"><path
             id="path290"
             style="fill:none;stroke:#fcea10;stroke-width:11.40400028;stroke-linecap:round;stroke-linejoin:round;stroke-miterlimit:4;stroke-dasharray:none;stroke-opacity:1"
             d="M 0,0 C 2.12,-1.411 4.239,-2.801 6.357,-4.17"
             inkscape:connector-curvature="0" /></g><g
           transform="translate(868.818,725.4827)"
           id="g292"><path
             id="path294"
             style="fill:none;stroke:#fcea10;stroke-width:11.40400028;stroke-linecap:round;stroke-linejoin:round;stroke-miterlimit:4;stroke-dasharray:15.758, 43.334;stroke-dashoffset:0;stroke-opacity:1"
             d="M 0,0 C 191.077,-102.625 366.656,-38.795 457.847,84.181"
             inkscape:connector-curvature="0" /></g><g
           transform="translate(1339.0134,827.4724)"
           id="g296"><path
             id="path298"
             style="fill:none;stroke:#fcea10;stroke-width:11.40400028;stroke-linecap:round;stroke-linejoin:round;stroke-miterlimit:4;stroke-dasharray:none;stroke-opacity:1"
             d="M 0,0 C 1.377,2.128 2.73,4.27 4.059,6.427"
             inkscape:connector-curvature="0" /></g><g
           id="g300"><g
             id="g302" /><g
             id="g308"><g
               style="opacity:0.19999701"
               id="g310"
               clip-path="url(#clipPath304)"><g
                 id="g312"
                 transform="translate(811.8634,479.2444)"><path
                   id="path314"
                   style="fill:#1d1d1b;fill-opacity:1;fill-rule:nonzero;stroke:none"
                   d="m 0,0 c 16.389,19.275 31.228,39.915 43.698,61.944 14.756,26.067 25.722,54.23 34.184,82.924 17.863,60.571 21.532,124.509 8.313,186.394 -3.317,15.524 -7.609,30.836 -12.759,45.851 -4.6,13.41 -10.001,26.25 -17.962,38.043 -12.317,18.245 -29.692,33.837 -50.626,40.882 L -7.324,450.336 13.306,272.465 C 6.187,168.32 -61.984,86.895 -175.193,-18.499 c 34.852,-18.054 65.218,-38.498 92.415,-60.118 C -52.789,-55.064 -24.695,-29.044 0,0"
                   inkscape:connector-curvature="0" /></g></g></g></g><g
           transform="translate(1326.5916,1342.6561)"
           id="g316"><path
             id="path318"
             style="fill:#ffc2a4;fill-opacity:1;fill-rule:nonzero;stroke:none"
             d="m 0,0 -120.356,-62.07 18.526,-40.218 37.298,-80.965 5.876,-12.737 5.418,-11.717 0.036,-0.089 c -0.053,-0.123 -0.124,-0.263 -0.176,-0.386 -5.753,-12.896 -12.456,-25.353 -20.004,-37.299 -7.477,-11.875 -15.781,-23.276 -24.807,-34.148 -2.234,-2.692 -4.504,-5.331 -6.808,-7.953 -12.984,-14.708 -27.305,-28.43 -42.682,-41.08 -15.359,-12.615 -31.774,-24.174 -48.98,-34.553 -29.979,-18.139 -62.368,-32.777 -95.778,-43.491 -12.914,-4.153 -25.986,-7.706 -39.11,-10.644 -5.859,-1.32 -11.718,-2.516 -17.594,-3.572 -7.283,-1.337 -14.567,-2.48 -21.851,-3.395 -37.949,-4.927 -75.792,-4.557 -111.524,1.671 -13.512,2.322 -26.725,5.524 -39.533,9.571 -11.048,9.835 -32.618,49.156 -56.545,98.752 -8.585,17.786 -17.488,36.911 -26.319,56.474 -1.056,2.358 -2.129,4.733 -3.202,7.126 -1.267,2.797 -2.516,5.612 -3.765,8.427 -0.757,1.706 -1.496,3.395 -2.252,5.102 -3.026,6.809 -6,13.635 -8.938,20.426 -1.108,2.551 -2.199,5.102 -3.29,7.635 -0.862,1.988 -1.706,3.959 -2.551,5.929 -6.738,15.746 -13.195,31.264 -19.194,46.042 1.583,3.079 3.202,6.14 4.82,9.202 1.619,3.061 3.273,6.105 4.927,9.148 3.078,5.648 6.21,11.26 9.412,16.837 0.282,0.493 0.581,1.003 0.88,1.513 1.671,2.921 3.378,5.824 5.084,8.726 1.76,2.991 3.554,5.965 5.349,8.92 1.794,2.956 3.606,5.912 5.436,8.85 1.794,2.867 3.589,5.735 5.419,8.585 0.176,0.282 0.352,0.563 0.545,0.845 1.654,2.586 3.325,5.155 5.014,7.741 0.229,0.334 0.458,0.668 0.669,1.02 1.671,2.516 3.343,5.032 5.031,7.53 0.141,0.229 0.3,0.44 0.44,0.669 1.9,2.815 3.818,5.612 5.753,8.392 1.848,2.657 3.695,5.313 5.577,7.952 0.282,0.405 0.563,0.81 0.845,1.196 1.865,2.604 3.73,5.208 5.63,7.794 0.017,0.018 0.035,0.035 0.053,0.071 1.741,2.392 3.501,4.767 5.278,7.143 1.02,1.372 2.058,2.744 3.114,4.117 1.583,2.111 3.202,4.222 4.803,6.316 0.475,0.615 0.967,1.231 1.46,1.847 -0.018,0.018 -0.018,0.018 0,0.018 1.443,1.864 2.903,3.729 4.363,5.576 0.475,0.599 0.968,1.215 1.46,1.813 1.32,1.689 2.674,3.377 4.047,5.067 0.492,0.615 1.003,1.231 1.495,1.847 1.443,1.777 2.903,3.554 4.381,5.313 0.616,0.774 1.249,1.548 1.9,2.305 0.88,1.055 1.759,2.111 2.674,3.167 0.51,0.633 1.038,1.266 1.619,1.9 0.809,1.002 1.671,2.005 2.533,3.008 0.704,0.845 1.425,1.672 2.164,2.498 1.531,1.813 3.114,3.625 4.698,5.419 0.07,0.088 0.14,0.158 0.193,0.229 1.039,1.174 2.091,2.341 3.133,3.513 0.068,0.077 0.136,0.153 0.204,0.23 1.203,1.351 2.396,2.707 3.613,4.051 1.513,1.671 3.026,3.343 4.574,4.996 0.229,0.282 0.475,0.546 0.739,0.809 0.615,0.687 1.249,1.373 1.882,2.059 0.933,1.02 1.883,2.041 2.868,3.044 0.51,0.58 1.038,1.143 1.583,1.706 0.95,1.021 1.901,2.023 2.868,3.044 0.563,0.598 1.126,1.179 1.707,1.777 0.158,0.176 0.334,0.352 0.51,0.528 0.51,0.545 1.02,1.073 1.566,1.618 1.46,1.513 2.92,3.026 4.398,4.522 1.97,2.041 3.994,4.081 6.034,6.105 0.265,0.263 0.528,0.545 0.792,0.809 1.32,1.302 2.622,2.604 3.941,3.87 0.704,0.722 1.408,1.408 2.112,2.076 0.545,0.546 1.108,1.091 1.653,1.619 0.757,0.739 1.531,1.478 2.287,2.199 0.511,0.51 1.038,1.003 1.548,1.496 0.317,0.299 0.616,0.598 0.933,0.879 0.915,0.88 1.812,1.742 2.727,2.622 0.229,0.193 0.44,0.404 0.651,0.616 0.669,0.615 1.319,1.231 1.988,1.829 1.883,1.777 3.765,3.537 5.665,5.278 0.229,0.229 0.475,0.44 0.704,0.633 2.129,1.971 4.293,3.924 6.457,5.859 0.316,0.299 0.633,0.581 0.95,0.862 0.756,0.686 1.513,1.373 2.287,2.024 1.636,1.477 3.272,2.92 4.908,4.327 1.971,1.76 3.959,3.467 5.965,5.155 1.143,1.003 2.287,1.988 3.43,2.956 0.792,0.669 1.566,1.32 2.358,1.971 2.041,1.741 4.081,3.448 6.157,5.154 0.018,0.018 0.053,0.018 0.071,0.036 2.533,1.407 5.031,2.779 7.512,4.134 7.829,4.275 15.429,8.357 22.819,12.228 2.093,1.09 4.169,2.163 6.245,3.219 4.803,2.481 9.536,4.873 14.198,7.178 2.041,1.021 4.082,2.006 6.088,2.991 0.598,0.299 1.196,0.581 1.794,0.862 1.689,0.827 3.378,1.636 5.049,2.428 9.923,4.715 19.494,9.008 28.748,12.896 2.991,1.267 5.982,2.498 8.92,3.659 1.759,0.722 3.536,1.408 5.278,2.094 0.281,0.106 0.528,0.211 0.792,0.299 1.935,0.757 3.87,1.495 5.788,2.199 1.266,0.475 2.533,0.933 3.782,1.39 0.757,0.282 1.513,0.545 2.252,0.81 1.865,0.668 3.713,1.301 5.542,1.934 3.818,1.302 7.583,2.534 11.313,3.678 1.865,0.58 3.73,1.125 5.577,1.671 5.542,1.636 10.996,3.079 16.397,4.363 3.607,0.88 7.178,1.672 10.714,2.375 2.2,0.447 4.389,0.861 6.572,1.254 0.1,0.018 0.199,0.033 0.299,0.051 2.091,0.374 4.175,0.721 6.254,1.046 0.097,0.015 0.193,0.029 0.291,0.044 2.093,0.325 4.181,0.623 6.265,0.899 0.057,0.008 0.114,0.015 0.171,0.022 24.775,3.263 48.882,3.064 74.185,-0.219 16.467,-2.147 33.445,-5.577 51.443,-10.187 37.65,-9.658 79.786,-24.525 131.106,-43.561 C 25.915,115.853 37.65,103.977 43.913,91.24 60.433,57.724 39.04,18.385 0,0"
             inkscape:connector-curvature="0" /></g><g
           id="g320"><g
             id="g322" /><g
             id="g328"><g
               style="opacity:0.19999701"
               id="g330"
               clip-path="url(#clipPath324)"><g
                 id="g332"
                 transform="translate(774.1942,1200.3025)"><path
                   id="path334"
                   style="fill:#1d1d1b;fill-opacity:1;fill-rule:nonzero;stroke:none"
                   d="m 0,0 c 26.145,42.584 54.133,83.682 85.989,122.232 30.697,37.147 64.215,71.934 100.012,104.188 38.862,35.017 80.34,66.924 123.676,96.114 C 254.244,316.558 196.257,293.25 114.545,247.994 23.065,172.517 -44.808,83.641 -95.708,-14.814 c 11.99,-29.566 25.844,-61.987 39.996,-93.57 C -41.412,-70.38 -21.188,-34.512 0,0"
                   inkscape:connector-curvature="0" /></g></g></g></g><g
           transform="translate(889.808,1174.5941)"
           id="g336"><path
             id="path338"
             style="fill:#f4a382;fill-opacity:1;fill-rule:nonzero;stroke:none"
             d="M 0,0 C -80.985,-0.188 -64.355,-69.435 -42.257,-89.192 -51.112,-60.015 -57.925,-19.505 0,0"
             inkscape:connector-curvature="0" /></g><g
           transform="translate(1326.5916,1342.6561)"
           id="g340"><path
             id="path342"
             style="fill:#f4a382;fill-opacity:1;fill-rule:nonzero;stroke:none"
             d="m 0,0 -120.356,-62.07 c -75.846,-39.479 -169.46,-44.317 -204.506,-26.829 -4.908,2.445 -8.673,5.33 -11.066,8.621 12.315,7.054 24.947,14.039 37.896,20.953 C -198.911,-6.263 -81.774,43.315 43.913,91.24 60.433,57.724 39.04,18.385 0,0"
             inkscape:connector-curvature="0" /></g><g
           transform="translate(1251.7484,1149.8584)"
           id="g344"><path
             id="path346"
             style="fill:#724f44;fill-opacity:1;fill-rule:nonzero;stroke:none"
             d="m 0,0 c -96.08,-115.866 -284.473,-135.381 -358.504,-77.093 -62.4,66.524 -49.543,89.05 28.51,72.866 77.294,-16.028 239.416,39.799 289.138,83.609 L 0,0 Z"
             inkscape:connector-curvature="0" /></g><g
           transform="translate(1088.4626,1128.4269)"
           id="g348"><path
             id="path350"
             style="fill:#bf4949;fill-opacity:1;fill-rule:nonzero;stroke:none"
             d="m 0,0 c -70.807,-0.063 -140.984,-15.195 -205.394,-44.438 3.139,-3.593 6.523,-7.33 10.175,-11.224 65.409,-51.498 220.075,-42.246 321.487,40.514 C 84.946,-5.256 42.551,0.038 0,0"
             inkscape:connector-curvature="0" /></g><g
           transform="translate(932.7467,1130.7563)"
           id="g352"><path
             id="path354"
             style="fill:#f6f6f6;fill-opacity:1;fill-rule:nonzero;stroke:none"
             d="m 0,0 c 15.993,-7.399 33.61,-10.561 51.155,-10.794 32.995,-0.438 65.615,8.518 96.493,19.394 31.847,11.218 63.584,24.272 94.057,38.817 16.817,8.026 33.131,17.132 48.541,27.557 l -12.1,23.51 C 228.424,54.674 66.302,-1.153 -10.992,14.875 -16.58,16.033 -21.822,16.987 -26.738,17.746 -18.761,10.599 -9.84,4.553 0,0"
             inkscape:connector-curvature="0" /></g><g
           transform="translate(1085.6755,1075.7172)"
           id="g356"><path
             id="path358"
             style="fill:#f6f6f6;fill-opacity:1;fill-rule:nonzero;stroke:none"
             d="M 0,0 C -48.236,-13.58 -97.781,-22.596 -147.807,-25.216 -65.635,-50.302 65,-26.741 147.631,54.144 99.386,33.547 50.541,14.229 0,0"
             inkscape:connector-curvature="0" /></g><g
           transform="translate(931.1626,1397.7822)"
           id="g360"><path
             id="path362"
             style="fill:#49332b;fill-opacity:1;fill-rule:nonzero;stroke:none"
             d="m 0,0 c 0,-19.945 16.168,-36.113 36.113,-36.113 19.945,0 36.113,16.168 36.113,36.113 0,19.945 -16.168,36.113 -36.113,36.113 C 16.168,36.113 0,19.945 0,0"
             inkscape:connector-curvature="0" /></g><g
           transform="translate(785.5385,1321.7548)"
           id="g364"><path
             id="path366"
             style="fill:#49332b;fill-opacity:1;fill-rule:nonzero;stroke:none"
             d="m 0,0 c 0,-22.044 17.87,-39.914 39.914,-39.914 22.044,0 39.915,17.87 39.915,39.914 0,22.044 -17.871,39.914 -39.915,39.914 C 17.87,39.914 0,22.044 0,0"
             inkscape:connector-curvature="0" /></g><g
           transform="translate(813.7599,1336.2717)"
           id="g368"><path
             id="path370"
             style="fill:#f6f6f6;fill-opacity:1;fill-rule:nonzero;stroke:none"
             d="m 0,0 c 0,-10.009 8.114,-18.123 18.123,-18.123 10.01,0 18.124,8.114 18.124,18.123 0,10.009 -8.114,18.123 -18.124,18.123 C 8.114,18.123 0,10.009 0,0"
             inkscape:connector-curvature="0" /></g><g
           transform="translate(954.4105,1411.032)"
           id="g372"><path
             id="path374"
             style="fill:#f6f6f6;fill-opacity:1;fill-rule:nonzero;stroke:none"
             d="m 0,0 c 0,-10.009 8.114,-18.123 18.123,-18.123 10.01,0 18.124,8.114 18.124,18.123 0,10.009 -8.114,18.123 -18.124,18.123 C 8.114,18.123 0,10.009 0,0"
             inkscape:connector-curvature="0" /></g><g
           transform="translate(1139.8778,1307.637)"
           id="g376"><path
             id="path378"
             style="fill:#49332b;fill-opacity:1;fill-rule:nonzero;stroke:none"
             d="m 0,0 c -3.248,7.797 -22.269,7.292 -42.484,-1.129 -20.216,-8.42 -33.972,-21.567 -30.724,-29.364 3.248,-7.797 22.269,-7.292 42.485,1.128 C -10.508,-20.944 3.248,-7.797 0,0"
             inkscape:connector-curvature="0" /></g><g
           transform="translate(1255.6672,1360.4598)"
           id="g380"><path
             id="path382"
             style="fill:#49332b;fill-opacity:1;fill-rule:nonzero;stroke:none"
             d="m 0,0 c -3.248,7.797 -22.269,7.292 -42.484,-1.129 -20.216,-8.42 -33.972,-21.567 -30.724,-29.364 3.248,-7.797 22.269,-7.292 42.485,1.128 C -10.508,-20.944 3.248,-7.797 0,0"
             inkscape:connector-curvature="0" /></g><g
           transform="translate(932.2079,1015.7448)"
           id="g384"><path
             id="path386"
             style="fill:#f78639;fill-opacity:1;fill-rule:nonzero;stroke:none"
             d="M 0,0 C 153.33,-40.319 319.54,36.746 341.173,119.34 386.156,-100.793 506.858,-98.992 650.351,-7.603 502.731,-312.346 120.512,-246.456 0,0"
             inkscape:connector-curvature="0" /></g><g
           transform="translate(1523.1606,928.2917)"
           id="g388"><path
             id="path390"
             style="fill:#ff9d5a;fill-opacity:1;fill-rule:nonzero;stroke:none"
             d="m 0,0 c -42.538,-33.51 -94.209,-52.216 -147.567,-59.539 -46.159,-6.334 -94.012,-0.683 -137.163,17.059 -21.08,8.667 -40.989,20.238 -58.515,34.848 -19.407,16.179 -34.989,36.368 -48.986,57.275 -8.118,12.127 -15.607,24.709 -22.347,37.675 -54.484,-13.446 -116.414,-15.632 -176.375,0.135 112.446,-229.959 452.726,-302.7 617.694,-63.857 C 18.244,15.302 9.374,7.385 0,0"
             inkscape:connector-curvature="0" /></g><g
           transform="translate(490.1338,967.9603)"
           id="g392"><path
             id="path394"
             style="fill:#185768;fill-opacity:1;fill-rule:nonzero;stroke:none"
             d="m 0,0 c 66.056,69.325 0.165,136.8 -61.29,30.045 -112.774,-130.514 -54.929,-347.192 167.26,-537.26 -129.247,158.39 -189.435,299.682 -136.216,454.206 L 0,0 Z"
             inkscape:connector-curvature="0" /></g><g
           transform="translate(398.0638,1200.363)"
           id="g396"><path
             id="path398"
             style="fill:#f4a382;fill-opacity:1;fill-rule:nonzero;stroke:none"
             d="m 0,0 -62.671,259.508 c -5.38,22.659 -87.861,5.8 -72.226,-39.914 L -89.28,97.881 c 12.929,-29.178 -10.933,-54.078 -37.064,-24.64 l -87.431,119.743 c -25.203,32.899 -103.436,-13.192 -58.921,-63.23 L -171.96,23.823 c 21.688,-18.926 28.172,-45.122 -15.198,-44.666 l -78.886,0 c -56.137,0.435 -48.411,-58.296 -0.95,-61.772 l 70.325,-5.702 c 48.007,-56.939 131.99,-135.293 152.055,-118.793 L 0,0 Z"
             inkscape:connector-curvature="0" /></g><g
           transform="translate(228.4139,1081.8246)"
           id="g400"><path
             id="path402"
             style="fill:#ffc2a4;fill-opacity:1;fill-rule:nonzero;stroke:none"
             d="m 0,0 c 87.318,8.85 68.342,148.625 164.32,140.607 l -57.341,237.44 c -5.38,22.658 -87.861,5.799 -72.226,-39.915 L 80.37,216.42 C 93.299,187.242 69.437,162.342 43.306,191.78 l -87.431,119.743 c -25.203,32.899 -103.436,-13.192 -58.921,-63.231 L -2.31,142.362 C 19.378,123.436 25.862,97.239 -17.509,97.696 l -78.885,0 c -56.137,0.435 -48.411,-58.297 -0.95,-61.773 l 70.325,-5.702 C -10.441,10.559 -21.044,19.982 0,0"
             inkscape:connector-curvature="0" /></g><g
           transform="translate(459.888,1245.0939)"
           id="g404"><path
             id="path406"
             style="fill:#ffc2a4;fill-opacity:1;fill-rule:nonzero;stroke:none"
             d="m 0,0 c -121.01,-52.586 -114.787,-193.922 -106.438,-251.841 l 14.255,11.404 L 0,-330.142 c 32.701,20.134 49.525,51.076 52.269,91.606 l -85.531,80.779 c 12.916,45.552 39.565,86.684 83.63,114.041 C 108.656,-11.404 58.921,21.541 0,0"
             inkscape:connector-curvature="0" /></g><g
           transform="translate(503.1103,1051.5214)"
           id="g408"><path
             id="path410"
             style="fill:#24bece;fill-opacity:1;fill-rule:nonzero;stroke:none"
             d="m 0,0 c 18.547,0 22.298,-20.271 33.16,-29.338 96.93,-80.91 179.398,-105.758 268.269,-92.603 58.161,-25.343 72.866,-86.164 49.152,-154.589 -75.122,-66.524 -183.905,-111.208 -234.146,-215.411 8.87,-32.311 -7.313,-75.022 -23.442,-98.835 C -48.067,-445.433 -97.203,-294.267 -43.222,-136.57 -12.976,-83.561 27.103,-47.814 0,0"
             inkscape:connector-curvature="0" /></g><g
           transform="translate(539.7874,584.9171)"
           id="g412"><path
             id="path414"
             style="fill:#fcea10;fill-opacity:1;fill-rule:nonzero;stroke:none"
             d="m 0,0 c -57.438,66.483 -84.036,161.094 -63.565,247.263 5.324,22.409 13.839,43.976 24.68,64.277 5.677,10.63 11.982,20.92 18.765,30.879 5.228,7.675 10.267,15.253 14.266,23.667 9.209,19.376 14.541,43.083 10.832,64.211 -2.82,2.278 -5.65,4.595 -8.495,6.969 -10.862,9.067 -14.613,29.338 -33.16,29.338 C -9.574,418.79 -49.653,383.043 -79.899,330.034 -133.88,172.337 -84.744,21.171 56.316,-124.172 66.651,-108.914 76.996,-85.896 80.77,-62.827 49.925,-47.819 22.495,-26.038 0,0"
             inkscape:connector-curvature="0" /></g><g
           id="g416"><g
             id="g418" /><g
             id="g424"><g
               style="opacity:0.14999402"
               id="g426"
               clip-path="url(#clipPath420)"><g
                 id="g428"
                 transform="translate(776.0828,786.3144)"><path
                   id="path430"
                   style="fill:#1d1d1b;fill-opacity:1;fill-rule:nonzero;stroke:none"
                   d="m 0,0 c -69.842,-15.487 -132.043,-49.916 -191.432,-88.731 -30.24,-19.763 -60.019,-40.336 -86.212,-65.359 -5.528,-5.28 -11.045,-10.6 -16.533,-15.95 26.378,-52.583 64.592,-104.417 114.198,-155.529 16.128,23.813 32.312,66.524 23.442,98.835 50.24,104.203 159.024,148.887 234.146,215.411 2.159,6.231 3.962,12.389 5.475,18.472 C 55.376,9.299 27.26,6.044 0,0"
                   inkscape:connector-curvature="0" /></g></g></g></g><g
           id="g432"><g
             id="g434" /><g
             id="g440"><g
               style="opacity:0.39999402"
               id="g442"
               clip-path="url(#clipPath436)"><g
                 id="g444"
                 transform="translate(514.1011,794.6085)"><path
                   id="path446"
                   style="fill:#f6f6f6;fill-opacity:1;fill-rule:nonzero;stroke:none"
                   d="m 0,0 c 30.264,35.67 70.806,59.482 115.072,73.558 46.029,14.635 93.702,18.681 141.326,24.719 17.582,2.229 35.15,4.666 52.922,4.371 7.272,-0.121 16.106,-0.468 24.13,-2.586 -9.892,14.727 -24.153,26.693 -43.012,34.91 -88.87,-13.155 -171.339,11.693 -268.269,92.603 -10.862,9.067 -14.613,29.338 -33.16,29.338 27.103,-47.815 -12.976,-83.561 -43.222,-136.57 -28.91,-84.456 -28.23,-167.038 0.294,-247.856 C -48.227,-80.845 -30.644,-36.118 0,0"
                   inkscape:connector-curvature="0" /></g></g></g></g><g
           id="g448"><g
             id="g450" /><g
             id="g456"><g
               style="opacity:0.19999701"
               id="g458"
               clip-path="url(#clipPath452)"><g
                 id="g460"
                 transform="translate(1062.5676,555.6158)"><path
                   id="path462"
                   style="fill:#1d1d1b;fill-opacity:1;fill-rule:nonzero;stroke:none"
                   d="m 0,0 c -0.07,0.88 -0.141,1.742 -0.211,2.621 -1.355,13.846 -4.821,28.607 -10.028,43.386 -2.745,7.776 -5.965,15.57 -9.606,23.223 -2.516,5.278 -5.226,10.486 -8.129,15.588 -1.988,3.519 -4.064,6.984 -6.21,10.38 1.759,0.95 2.252,5.102 0.88,6.017 l 4.099,4.785 11.172,13.002 13.089,15.253 2.674,3.114 c -2.005,2.991 -5.295,5.63 -9.5,7.935 -0.317,0.176 -0.651,0.352 -0.985,0.528 -1.144,0.598 -2.34,1.161 -3.589,1.706 -0.053,0.035 -0.123,0.053 -0.176,0.088 -1.724,0.739 -3.554,1.443 -5.454,2.094 -15.482,5.313 -36.33,7.653 -52.745,6.809 -3.097,-0.141 -6.052,-0.405 -8.762,-0.792 -0.932,-0.141 -1.829,-0.282 -2.709,-0.44 -1.126,-0.211 -2.217,-0.422 -3.255,-0.686 -3.501,-0.845 -6.369,-1.953 -8.409,-3.325 l 2.551,-4.751 9.746,-18.209 6.527,-12.157 5.243,-9.782 c -1.565,0.81 -2.023,-3.536 -0.915,-5.278 -2.902,-2.551 -5.753,-5.225 -8.55,-7.987 -3.448,-3.413 -6.809,-6.95 -10.028,-10.609 -0.475,-0.528 -0.933,-1.056 -1.39,-1.601 -5.348,-6.14 -10.345,-12.562 -14.884,-19.194 -3.026,-4.381 -5.841,-8.832 -8.445,-13.336 -0.721,-1.267 -1.425,-2.516 -2.111,-3.783 -0.053,0.933 -0.141,1.883 -0.229,2.833 l 0,0.07 c -0.088,0.985 -0.193,1.988 -0.316,2.974 -0.335,3.114 -0.81,6.28 -1.408,9.465 l 0,0.017 c -1.548,8.357 -3.87,16.943 -6.897,25.546 -0.985,2.868 -2.076,5.735 -3.219,8.603 -2.586,6.439 -5.524,12.826 -8.797,19.071 -2.744,5.296 -5.735,10.468 -8.92,15.5 l 0.018,0 c 1.513,0.809 1.935,4.416 0.756,5.208 l 4.416,5.137 0,0.018 5.103,5.929 11.189,13.036 6.228,7.249 c -1.97,2.938 -5.384,5.506 -9.747,7.67 -0.405,0.212 -0.809,0.423 -1.231,0.599 -0.669,0.316 -1.373,0.633 -2.094,0.914 -0.651,0.299 -1.337,0.564 -2.041,0.827 -5.682,2.147 -12.35,3.783 -19.282,4.927 -6.615,1.073 -13.477,1.706 -19.951,1.829 -4.838,0.106 -9.448,-0.07 -13.565,-0.492 l -0.017,0 c -1.021,-0.106 -1.988,-0.229 -2.938,-0.37 -1.267,-0.193 -2.481,-0.405 -3.607,-0.651 -3.571,-0.756 -6.492,-1.812 -8.48,-3.167 l 0.897,-1.671 14.55,-27.129 5.436,-10.169 c -0.51,0.264 -0.879,-0.088 -1.073,-0.721 -0.387,-1.056 -0.334,-2.903 0.282,-3.853 -2.463,-2.164 -4.874,-4.416 -7.231,-6.756 -2.657,-2.604 -5.225,-5.296 -7.741,-8.076 -4.733,-5.26 -9.202,-10.802 -13.283,-16.52 -1.355,-1.882 -2.657,-3.782 -3.924,-5.7 -2.533,-3.835 -4.89,-7.723 -7.055,-11.647 -1.09,-1.97 -2.111,-3.941 -3.096,-5.911 -1.46,-2.974 -2.815,-5.947 -4.046,-8.92 -0.81,-1.971 -1.566,-3.941 -2.27,-5.929 -0.334,-0.985 -0.669,-1.97 -0.985,-2.938 -1.795,-5.524 -3.079,-10.996 -3.818,-16.309 l 0,-0.018 c -0.44,-3.202 -0.669,-6.333 -0.704,-9.43 -0.035,-3.835 0.299,-7.547 0.968,-11.136 0.264,-1.302 0.563,-2.586 0.897,-3.853 0.141,-0.475 0.282,-0.95 0.422,-1.425 1.426,-4.645 3.537,-8.991 6.44,-12.949 0.51,-0.704 1.038,-1.39 1.601,-2.059 2.234,-2.691 4.856,-5.19 7.899,-7.459 2.27,-1.707 4.786,-3.29 7.53,-4.733 1.847,-0.95 3.783,-1.847 5.841,-2.674 0.721,-0.299 1.46,-0.581 2.217,-0.862 0.317,-0.106 0.633,-0.229 0.95,-0.334 2.164,-0.775 4.451,-1.46 6.844,-2.094 3.606,-0.933 7.459,-1.707 11.594,-2.305 1.372,-0.211 2.727,-0.369 4.064,-0.527 0.44,-0.053 0.862,-0.071 1.302,-0.124 0.879,-0.088 1.777,-0.176 2.621,-0.228 0.51,-0.036 0.985,-0.053 1.478,-0.088 0.774,-0.053 1.566,-0.106 2.322,-0.123 0.51,-0.018 1.003,-0.018 1.513,-0.018 0.722,-0.018 1.425,-0.035 2.129,-0.035 0.51,0 1.003,0.035 1.513,0.035 0.669,0.018 1.337,0.035 1.988,0.07 0.493,0.018 0.968,0.071 1.46,0.106 0.634,0.035 1.285,0.088 1.9,0.14 0.476,0.053 0.951,0.106 1.425,0.177 0.599,0.07 1.214,0.14 1.813,0.228 0.457,0.071 0.897,0.141 1.354,0.211 0.581,0.106 1.162,0.212 1.742,0.335 0.44,0.07 0.862,0.176 1.267,0.264 0.58,0.14 1.144,0.264 1.706,0.404 0.405,0.106 0.792,0.211 1.197,0.335 0.545,0.158 1.09,0.316 1.636,0.492 0.369,0.106 0.756,0.246 1.126,0.37 0.528,0.176 1.056,0.369 1.583,0.58 0.352,0.123 0.686,0.264 1.038,0.405 0.528,0.211 1.038,0.44 1.549,0.668 0.316,0.159 0.633,0.299 0.95,0.458 0.51,0.246 1.002,0.492 1.495,0.756 0.299,0.159 0.581,0.317 0.88,0.475 0.492,0.282 0.985,0.581 1.46,0.88 0.264,0.158 0.528,0.317 0.774,0.475 0.493,0.334 0.968,0.669 1.443,1.003 0.228,0.158 0.457,0.316 0.686,0.475 0.475,0.369 0.967,0.756 1.425,1.126 0.088,0.088 0.194,0.141 0.281,0.229 -2.181,-29.663 11.894,-54.646 51.971,-63.442 2.903,-0.634 5.929,-1.179 9.096,-1.654 1.601,-0.229 3.167,-0.422 4.698,-0.598 0.51,-0.053 0.985,-0.088 1.477,-0.141 1.021,-0.105 2.059,-0.211 3.044,-0.281 0.581,-0.036 1.144,-0.053 1.707,-0.089 0.897,-0.052 1.794,-0.105 2.656,-0.14 0.598,-0.018 1.179,-0.018 1.76,-0.035 0.826,-0.018 1.636,-0.035 2.445,-0.018 0.581,0 1.161,0.018 1.742,0.035 0.774,0.018 1.548,0.035 2.287,0.071 0.581,0.035 1.126,0.087 1.689,0.123 0.739,0.053 1.478,0.105 2.199,0.176 0.545,0.053 1.091,0.123 1.619,0.176 0.703,0.088 1.425,0.176 2.111,0.281 0.528,0.07 1.038,0.159 1.548,0.246 0.669,0.124 1.355,0.247 2.023,0.37 0.493,0.105 0.986,0.211 1.461,0.317 0.668,0.158 1.319,0.299 1.952,0.475 0.475,0.105 0.933,0.246 1.373,0.369 0.65,0.176 1.284,0.37 1.9,0.563 0.44,0.141 0.862,0.282 1.284,0.44 0.616,0.211 1.232,0.422 1.83,0.651 0.404,0.158 0.809,0.316 1.196,0.493 0.598,0.246 1.197,0.492 1.777,0.756 0.37,0.176 0.739,0.352 1.108,0.528 0.581,0.281 1.162,0.58 1.725,0.879 0.334,0.176 0.668,0.352 1.002,0.546 0.581,0.317 1.144,0.668 1.707,1.003 0.282,0.193 0.581,0.369 0.88,0.563 0.563,0.369 1.126,0.756 1.671,1.143 0.264,0.176 0.51,0.37 0.774,0.546 0.563,0.422 1.109,0.862 1.654,1.319 0.211,0.176 0.422,0.334 0.633,0.51 0.581,0.493 1.126,0.986 1.689,1.514 0.159,0.14 0.317,0.281 0.475,0.439 0.598,0.563 1.162,1.161 1.724,1.76 0.088,0.105 0.194,0.211 0.3,0.316 0.633,0.686 1.231,1.39 1.829,2.111 0.018,0.036 0.035,0.053 0.053,0.071 C -2.041,-40.975 1.689,-21.693 0,0 m 131.211,18.473 c 0,0.018 0,0.053 -0.017,0.071 -0.563,4.521 -1.531,9.183 -2.833,13.916 -3.765,13.723 -10.415,28.114 -19.088,41.995 -2.886,4.627 -6,9.184 -9.307,13.635 -1.285,1.724 -2.587,3.431 -3.924,5.12 -1.214,1.566 -2.48,3.114 -3.747,4.627 -0.616,0.756 -1.249,1.495 -1.883,2.234 -2.428,2.815 -4.908,5.577 -7.459,8.251 l 0,0.018 c 0.95,0.774 1.09,2.815 0.598,4.135 -0.176,0.51 -0.457,0.915 -0.809,1.09 -0.018,0.018 -0.053,0.018 -0.071,0.035 l 0.018,0.018 4.891,8.691 6.034,10.697 0.775,1.408 8.585,15.218 c -1.196,1.179 -2.692,2.216 -4.434,3.114 -0.985,0.528 -2.04,0.985 -3.184,1.407 -0.141,0.053 -0.299,0.106 -0.44,0.159 -0.51,0.193 -1.038,0.352 -1.566,0.527 -1.424,0.44 -2.938,0.827 -4.539,1.162 l -0.017,0 c -7.935,1.653 -17.752,1.97 -27.534,1.266 l -0.053,0 c -8.884,-0.633 -17.734,-2.093 -25.14,-4.134 0,0 0,-0.018 -0.018,0 -0.968,-0.264 -1.9,-0.528 -2.797,-0.81 -0.106,-0.035 -0.212,-0.07 -0.317,-0.105 -1.021,-0.317 -2.006,-0.651 -2.956,-0.985 -4.803,-1.759 -8.568,-3.765 -10.732,-5.965 l 7.425,-9.025 12.28,-14.919 2.938,-3.554 5.454,-6.632 c -1.478,0.422 -1.109,-3.361 0.123,-4.645 -2.868,-3.765 -5.612,-7.688 -8.234,-11.735 -1.249,-1.953 -2.48,-3.941 -3.677,-5.947 -0.299,-0.492 -0.58,-0.985 -0.862,-1.495 C 31.615,82.038 28.783,76.584 26.267,71.06 24.191,66.573 22.326,62.034 20.672,57.478 19.898,55.331 19.177,53.202 18.508,51.056 16.467,44.652 14.884,38.248 13.828,31.985 13.353,29.258 12.984,26.531 12.72,23.839 12.685,23.469 12.65,23.083 12.615,22.713 12.526,21.71 12.456,20.69 12.386,19.687 12.263,17.681 12.21,15.693 12.227,13.74 c 0,-0.985 0.018,-1.952 0.053,-2.92 0.106,-2.885 0.37,-5.718 0.774,-8.445 0.704,-4.574 1.812,-8.92 3.396,-12.966 1.231,-3.149 2.762,-6.105 4.592,-8.85 1.442,-2.216 3.078,-4.275 4.943,-6.21 0.599,-0.616 1.197,-1.214 1.848,-1.795 5.084,-4.68 11.523,-8.304 19.476,-10.644 7.952,-2.322 17.417,-3.325 28.536,-2.744 1.39,0.07 2.745,0.158 4.082,0.281 0.44,0.036 0.862,0.088 1.302,0.123 0.352,0.036 0.721,0.071 1.073,0.123 0.528,0.036 1.038,0.088 1.548,0.159 0.51,0.07 1.003,0.141 1.495,0.211 0.757,0.106 1.531,0.211 2.27,0.334 0.51,0.071 0.985,0.176 1.496,0.264 0.703,0.123 1.407,0.247 2.076,0.387 0.51,0.106 0.985,0.229 1.478,0.334 0.65,0.159 1.301,0.3 1.934,0.458 0.493,0.123 0.968,0.264 1.443,0.387 0.599,0.176 1.214,0.334 1.812,0.51 0.476,0.141 0.915,0.299 1.355,0.44 0.598,0.194 1.179,0.387 1.742,0.581 0.44,0.158 0.862,0.316 1.284,0.492 0.563,0.211 1.109,0.423 1.654,0.651 0.404,0.159 0.809,0.352 1.196,0.528 0.528,0.229 1.056,0.475 1.584,0.721 0.369,0.176 0.739,0.37 1.108,0.546 0.51,0.264 1.02,0.528 1.513,0.809 0.352,0.194 0.686,0.387 1.021,0.581 0.492,0.281 0.967,0.58 1.442,0.879 0.317,0.194 0.634,0.405 0.95,0.599 0.458,0.316 0.915,0.633 1.373,0.967 0.281,0.211 0.58,0.405 0.844,0.616 0.457,0.352 0.897,0.704 1.337,1.056 0.246,0.21 0.51,0.422 0.756,0.633 0.423,0.369 0.863,0.756 1.267,1.143 0.229,0.211 0.44,0.405 0.669,0.616 0.422,0.422 0.827,0.845 1.231,1.267 0.176,0.193 0.37,0.405 0.546,0.598 0.422,0.457 0.809,0.915 1.196,1.39 0.159,0.193 0.317,0.369 0.458,0.563 0.404,0.51 0.791,1.02 1.178,1.548 0.106,0.159 0.229,0.317 0.335,0.475 0.404,0.581 0.791,1.179 1.161,1.777 0.07,0.106 0.141,0.211 0.211,0.334 0.405,0.687 0.809,1.39 1.179,2.112 0.017,0.017 0.035,0.035 0.053,0.07 5.014,9.553 6.333,21.147 4.714,33.744"
                   inkscape:connector-curvature="0" /></g></g></g></g><g
           transform="translate(857.423,751.9648)"
           id="g464"><path
             id="path466"
             style="fill:#6b5a4b;fill-opacity:1;fill-rule:nonzero;stroke:none"
             d="M 0,0 C 24.931,-35.824 51.928,-47.526 82.962,-12.085 71.725,4.646 13.68,9.265 0,0"
             inkscape:connector-curvature="0" /></g><g
           transform="translate(857.423,751.9648)"
           id="g468"><path
             id="path470"
             style="fill:#a48a7b;fill-opacity:1;fill-rule:nonzero;stroke:none"
             d="m 0,0 22.318,-41.626 c -55.421,-47.206 -91.285,-139.122 -3.177,-151.956 86.441,-12.656 77.139,82.167 34.524,147.39 l 29.297,34.107 C 49.31,-35.036 29.117,-32.867 0,0"
             inkscape:connector-curvature="0" /></g><g
           transform="translate(912.1705,725.9121)"
           id="g472"><path
             id="path474"
             style="fill:none;stroke:#6b5a4b;stroke-width:7.60300016;stroke-linecap:round;stroke-linejoin:round;stroke-miterlimit:10;stroke-dasharray:15.205;stroke-dashoffset:0;stroke-opacity:1"
             d="M 0,0 -16.604,-19.417 C 8.176,-61.575 10.032,-135.81 0,-163.164"
             inkscape:connector-curvature="0" /></g><g
           id="g476"><g
             id="g478" /><g
             id="g484"><g
               style="opacity:0.14999402"
               id="g486"
               clip-path="url(#clipPath480)"><g
                 id="g488"
                 transform="translate(907.3658,716.5037)"><path
                   id="path490"
                   style="fill:#ffffff;fill-opacity:1;fill-rule:nonzero;stroke:none"
                   d="m 0,0 c -5.915,-4.402 -14.248,-10.886 -11.414,-19.175 2.232,-6.529 7.29,-11.971 10.474,-18.041 7.628,-14.545 18.789,-26.777 28.5,-39.908 2.162,-2.922 4.262,-5.907 6.287,-8.942 -3.825,24.699 -14.828,51.924 -30.125,75.335 L 33.02,23.377 C 31.097,22.065 29.224,20.847 27.385,19.701 24.014,16.982 20.778,14.081 17.3,11.504 11.737,7.382 5.563,4.141 0,0"
                   inkscape:connector-curvature="0" /></g></g></g></g><g
           id="g492"><g
             id="g494" /><g
             id="g500"><g
               style="opacity:0.14999402"
               id="g502"
               clip-path="url(#clipPath496)"><g
                 id="g504"
                 transform="translate(933.3821,594.3094)"><path
                   id="path506"
                   style="fill:#1d1d1b;fill-opacity:1;fill-rule:nonzero;stroke:none"
                   d="m 0,0 c -9.841,-12.241 -24.597,-22.741 -41.031,-17.977 -15.526,4.501 -25.607,20.37 -29.43,35.25 -4.831,18.8 0.339,39.056 8.035,56.351 4.114,9.244 9.557,17.602 14.418,26.427 2.435,4.42 5.251,10.147 10.192,12.134 -7.652,7.544 -13.463,16.59 -18.907,25.814 -0.571,0.968 -1.181,1.944 -1.806,2.929 -5.554,4.252 -11.293,9.8 -17.43,16.727 L -53.641,116.03 C -109.062,68.823 -144.927,-23.092 -56.818,-35.926 -11.647,-42.54 7.367,-19.798 9.157,12.727 6.286,8.284 3.228,4.015 0,0"
                   inkscape:connector-curvature="0" /></g></g></g></g><g
           transform="translate(878.3167,712.995)"
           id="g508"><path
             id="path510"
             style="fill:#a339ff;fill-opacity:1;fill-rule:nonzero;stroke:none"
             d="m 0,0 c 15.622,-7.368 20.915,-8.4 35.125,-4.482 1.191,-0.8 0.766,-4.395 -0.76,-5.219 C 20.781,-15.497 9.853,-13.693 -0.794,-4.58 -1.757,-3.073 -1.367,0.712 0,0"
             inkscape:connector-curvature="0" /></g><g
           transform="translate(964.7072,725.9121)"
           id="g512"><path
             id="path514"
             style="fill:#6b5a4b;fill-opacity:1;fill-rule:nonzero;stroke:none"
             d="M 0,0 C 28.728,-41.281 59.837,-54.765 95.599,-13.925 82.65,5.354 15.763,10.676 0,0"
             inkscape:connector-curvature="0" /></g><g
           transform="translate(964.7072,725.9121)"
           id="g516"><path
             id="path518"
             style="fill:#a48a7b;fill-opacity:1;fill-rule:nonzero;stroke:none"
             d="m 0,0 25.717,-47.966 c -63.862,-54.396 -105.189,-160.311 -3.661,-175.1 99.607,-14.584 88.889,94.681 39.782,169.839 l 33.761,39.302 C 56.82,-40.372 33.552,-37.873 0,0"
             inkscape:connector-curvature="0" /></g><g
           id="g520"><g
             id="g522" /><g
             id="g528"><g
               style="opacity:0.14999402"
               id="g530"
               clip-path="url(#clipPath524)"><g
                 id="g532"
                 transform="translate(1046.6641,703.5641)"><path
                   id="path534"
                   style="fill:#ffffff;fill-opacity:1;fill-rule:nonzero;stroke:none"
                   d="m 0,0 c -1.352,-1.259 -2.675,-2.473 -3.987,-3.479 -6.967,-5.343 -14.199,-10.356 -20.814,-16.145 -4.556,-3.987 -11.309,-9.144 -12.25,-15.538 -0.995,-6.757 4.455,-13.904 8,-19.183 8.429,-12.552 18.88,-23.583 27.19,-36.228 5.27,-8.02 10.85,-16.216 16.05,-24.671 -4.738,27.805 -17.184,58.157 -34.307,84.364 L 13.642,8.423 C 8.875,5.172 4.346,2.364 0,0"
                   inkscape:connector-curvature="0" /></g></g></g></g><g
           id="g536"><g
             id="g538" /><g
             id="g544"><g
               style="opacity:0.14999402"
               id="g546"
               clip-path="url(#clipPath540)"><g
                 id="g548"
                 transform="translate(1052.2356,544.2441)"><path
                   id="path550"
                   style="fill:#1d1d1b;fill-opacity:1;fill-rule:nonzero;stroke:none"
                   d="m 0,0 c -11.34,-14.106 -28.343,-26.205 -47.28,-20.715 -17.892,5.187 -29.507,23.473 -33.913,40.619 -5.567,21.663 0.39,45.005 9.259,64.934 4.741,10.652 11.012,20.283 16.614,30.451 2.805,5.094 6.05,11.694 11.745,13.983 -8.818,8.693 -15.514,19.117 -21.787,29.745 -0.659,1.116 -1.361,2.241 -2.082,3.376 -6.4,4.9 -13.012,11.292 -20.084,19.275 l 25.716,-47.966 C -125.673,79.306 -167,-26.609 -65.472,-41.398 -13.421,-49.019 8.49,-22.813 10.552,14.665 7.243,9.545 3.719,4.627 0,0"
                   inkscape:connector-curvature="0" /></g></g></g></g><g
           transform="translate(1035.1732,698.2289)"
           id="g552"><path
             id="path554"
             style="fill:none;stroke:#6b5a4b;stroke-width:7.60300016;stroke-linecap:round;stroke-linejoin:round;stroke-miterlimit:10;stroke-dasharray:15.205;stroke-dashoffset:0;stroke-opacity:1"
             d="M 0,0 C -1.991,-10.007 -22.467,-31.447 -25.56,-29.827 5.12,-78.774 15.352,-159.952 -6.805,-192.845"
             inkscape:connector-curvature="0" /></g><g
           transform="translate(988.7831,681.0067)"
           id="g556"><path
             id="path558"
             style="fill:#ff009e;fill-opacity:1;fill-rule:nonzero;stroke:none"
             d="m 0,0 c 18.002,-8.49 24.101,-9.679 40.475,-5.164 1.372,-0.922 0.883,-5.065 -0.876,-6.015 C 23.946,-17.858 11.353,-15.778 -0.915,-5.277 -2.025,-3.541 -1.576,0.82 0,0"
             inkscape:connector-curvature="0" /></g><g
           transform="translate(1081.8156,719.8926)"
           id="g560"><path
             id="path562"
             style="fill:#6b5a4b;fill-opacity:1;fill-rule:nonzero;stroke:none"
             d="M 0,0 C 31.449,-30.263 60.212,-36.466 83.725,4.355 69.436,18.569 11.606,11.759 0,0"
             inkscape:connector-curvature="0" /></g><g
           transform="translate(1081.8156,719.8926)"
           id="g564"><path
             id="path566"
             style="fill:#a48a7b;fill-opacity:1;fill-rule:nonzero;stroke:none"
             d="m 0,0 30.019,-36.464 c -45.13,-57.123 -62.348,-154.274 26.57,-149.649 87.248,4.475 59.602,95.654 5.066,151.295 L 83.725,4.355 C 55.204,-24.728 34.977,-26.545 0,0"
             inkscape:connector-curvature="0" /></g><g
           transform="translate(1147.3804,708.8416)"
           id="g568"><path
             id="path570"
             style="fill:none;stroke:#6b5a4b;stroke-width:7.60300016;stroke-linecap:round;stroke-linejoin:round;stroke-miterlimit:4;stroke-dasharray:none;stroke-opacity:1"
             d="M 0,0 C 0.225,-1.856 0.014,-4.549 -0.602,-7.549"
             inkscape:connector-curvature="0" /></g><g
           transform="translate(1140.3264,686.0107)"
           id="g572"><path
             id="path574"
             style="fill:none;stroke:#6b5a4b;stroke-width:7.60300016;stroke-linecap:round;stroke-linejoin:round;stroke-miterlimit:4;stroke-dasharray:none;stroke-opacity:1"
             d="m 0,0 c -1.645,-2.188 -3.556,-3.937 -5.712,-4.902 1.789,-1.689 3.557,-3.51 5.299,-5.448"
             inkscape:connector-curvature="0" /></g><g
           transform="translate(1148.8267,664.4324)"
           id="g576"><path
             id="path578"
             style="fill:none;stroke:#6b5a4b;stroke-width:7.60300016;stroke-linecap:round;stroke-linejoin:round;stroke-miterlimit:4;stroke-dasharray:14.34, 14.34;stroke-dashoffset:0;stroke-opacity:1"
             d="M 0,0 C 20.939,-29.537 36,-73.871 34.116,-100.315"
             inkscape:connector-curvature="0" /></g><g
           transform="translate(1181.9218,557.0247)"
           id="g580"><path
             id="path582"
             style="fill:none;stroke:#6b5a4b;stroke-width:7.60300016;stroke-linecap:round;stroke-linejoin:round;stroke-miterlimit:4;stroke-dasharray:none;stroke-opacity:1"
             d="M 0,0 C -0.618,-2.679 -1.487,-5.066 -2.625,-7.106"
             inkscape:connector-curvature="0" /></g><g
           id="g584"><g
             id="g586" /><g
             id="g592"><g
               style="opacity:0.14999402"
               id="g594"
               clip-path="url(#clipPath588)"><g
                 id="g596"
                 transform="translate(1147.3804,708.8416)"><path
                   id="path598"
                   style="fill:#ffffff;fill-opacity:1;fill-rule:nonzero;stroke:none"
                   d="m 0,0 c -0.752,-0.777 -1.497,-1.56 -2.263,-2.324 -4.752,-4.735 -9.868,-9.275 -13.687,-14.837 -3.806,-5.546 -3.912,-10.115 -0.471,-15.849 2.942,-4.901 6.797,-9.234 10.601,-13.475 9.601,-10.705 19.699,-20.918 29.492,-31.444 6.437,-6.918 12.985,-13.991 19.17,-21.366 -7.651,25.673 -25.071,53.407 -46.752,75.528 L 18.16,15.406 C 11.777,8.897 5.811,3.765 0,0"
                   inkscape:connector-curvature="0" /></g></g></g></g><g
           id="g600"><g
             id="g602" /><g
             id="g608"><g
               style="opacity:0.14999402"
               id="g610"
               clip-path="url(#clipPath604)"><g
                 id="g612"
                 transform="translate(1187.1097,580.1138)"><path
                   id="path614"
                   style="fill:#1d1d1b;fill-opacity:1;fill-rule:nonzero;stroke:none"
                   d="m 0,0 c -7.26,-13.928 -19.68,-27.108 -36.728,-25.646 -16.107,1.381 -29.093,14.975 -35.75,28.822 -8.411,17.493 -7.298,38.369 -3.128,56.834 2.229,9.87 5.934,19.13 8.978,28.734 1.524,4.811 3.167,10.978 7.625,13.892 -8.979,5.904 -16.444,13.64 -23.585,21.623 -0.75,0.837 -1.539,1.676 -2.344,2.52 -6.278,3.085 -12.99,7.405 -20.362,13 l 30.019,-36.464 c -45.131,-57.124 -62.348,-154.274 26.57,-149.649 45.593,2.338 59.798,28.357 55.2,60.605 C 4.546,9.352 2.381,4.568 0,0"
                   inkscape:connector-curvature="0" /></g></g></g></g><g
           transform="translate(1109.9196,685.7552)"
           id="g616"><path
             id="path618"
             style="fill:#3ecdff;fill-opacity:1;fill-rule:nonzero;stroke:none"
             d="m 0,0 c 16.761,-4.174 22.153,-4.152 35.324,2.467 1.324,-0.553 1.61,-4.161 0.274,-5.268 C 23.408,-11.139 12.338,-11.504 0.116,-4.647 -1.123,-3.357 -1.48,0.431 0,0"
             inkscape:connector-curvature="0" /></g></g></g></g></svg>