<?xml version="1.0" encoding="UTF-8" standalone="no"?>
<svg
   xmlns:dc="http://purl.org/dc/elements/1.1/"
   xmlns:cc="http://creativecommons.org/ns#"
   xmlns:rdf="http://www.w3.org/1999/02/22-rdf-syntax-ns#"
   xmlns:svg="http://www.w3.org/2000/svg"
   xmlns="http://www.w3.org/2000/svg"
   xmlns:xlink="http://www.w3.org/1999/xlink"
   xmlns:sodipodi="http://sodipodi.sourceforge.net/DTD/sodipodi-0.dtd"
   xmlns:inkscape="http://www.inkscape.org/namespaces/inkscape"
   width="1057.6"
   height="1057.6"
   viewBox="0 0 1057.5636 446.09448"
   id="svg2"
   version="1.1"
   inkscape:version="0.91 r13725"
   sodipodi:docname="building_plantation.svg"
   inkscape:export-filename="/home/milos/AndroidStudioProjects/ChocolateFactory/app/src/main/res/drawable/building_plantation2.png"
   inkscape:export-xdpi="12.76"
   inkscape:export-ydpi="12.76">
  <metadata
     id="metadata244">
    <rdf:RDF>
      <cc:Work
         rdf:about="">
        <dc:format>image/svg+xml</dc:format>
        <dc:type
           rdf:resource="http://purl.org/dc/dcmitype/StillImage" />
        <dc:title />
      </cc:Work>
    </rdf:RDF>
  </metadata>
  <sodipodi:namedview
     pagecolor="#ffffff"
     bordercolor="#666666"
     borderopacity="1"
     objecttolerance="10"
     gridtolerance="10"
     guidetolerance="10"
     inkscape:pageopacity="0"
     inkscape:pageshadow="2"
     inkscape:window-width="960"
     inkscape:window-height="1147"
     id="namedview242"
     showgrid="false"
     inkscape:zoom="0.31557716"
     inkscape:cx="172.42739"
     inkscape:cy="936.104"
     inkscape:window-x="0"
     inkscape:window-y="0"
     inkscape:window-maximized="1"
     inkscape:current-layer="svg2" />
  <defs
     id="defs4">
    <linearGradient
       id="b">
      <stop
         stop-color="#eeeeec"
         offset="0"
         id="stop7" />
      <stop
         stop-color="#555753"
         offset="1"
         id="stop9" />
    </linearGradient>
    <linearGradient
       id="a">
      <stop
         stop-color="#6c981a"
         offset="0"
         id="stop12" />
      <stop
         stop-color="#b8cf22"
         offset="1"
         id="stop14" />
    </linearGradient>
    <linearGradient
       id="d"
       x1="489.99"
       x2="521.11"
       y1="159.04"
       y2="155.32"
       gradientUnits="userSpaceOnUse">
      <stop
         stop-color="#325804"
         offset="0"
         id="stop17" />
      <stop
         stop-color="#325804"
         stop-opacity="0"
         offset="1"
         id="stop19" />
    </linearGradient>
    <linearGradient
       id="c"
       x1="95.088"
       x2="131.09"
       y1="155.07"
       y2="21.688"
       gradientUnits="userSpaceOnUse">
      <stop
         stop-color="#c4a000"
         offset="0"
         id="stop22" />
      <stop
         stop-color="#c4a000"
         stop-opacity="0"
         offset="1"
         id="stop24" />
    </linearGradient>
    <linearGradient
       id="j"
       x1="941.09"
       x2="998.27"
       y1="174.09"
       y2="203.59"
       gradientUnits="userSpaceOnUse"
       gradientTransform="matrix(2.8092989,0,0,2.8092989,-1897.4853,-405.82035)">
      <stop
         stop-color="#8f5902"
         offset="0"
         id="stop27" />
      <stop
         stop-color="#c17d11"
         offset="1"
         id="stop29" />
    </linearGradient>
    <linearGradient
       id="i"
       x1="356.61"
       x2="860.07"
       y1="372.67"
       y2="201.84"
       gradientUnits="userSpaceOnUse"
       gradientTransform="matrix(2.8092989,0,0,2.8092989,-1897.4853,-405.82035)">
      <stop
         stop-color="#d2e748"
         offset="0"
         id="stop32" />
      <stop
         stop-color="#b4cb1b"
         offset="1"
         id="stop34" />
    </linearGradient>
    <linearGradient
       id="h"
       x1="1012.4"
       x2="911.92"
       y1="143.64"
       y2="264.41"
       gradientUnits="userSpaceOnUse"
       gradientTransform="matrix(2.8092989,0,0,2.8092989,-1897.4853,-405.82035)">
      <stop
         stop-color="#618817"
         offset="0"
         id="stop37" />
      <stop
         stop-color="#82b71f"
         offset="1"
         id="stop39" />
    </linearGradient>
    <linearGradient
       id="e"
       x2="0"
       y1="76.219"
       y2="118.44"
       gradientUnits="userSpaceOnUse"
       gradientTransform="matrix(2.8092989,0,0,2.8092989,-1897.4853,-405.82035)">
      <stop
         stop-color="#fff"
         offset="0"
         id="stop42" />
      <stop
         stop-color="#d3d7cf"
         stop-opacity="0"
         offset="1"
         id="stop44" />
    </linearGradient>
    <linearGradient
       id="l"
       x1="871.86"
       x2="919.24"
       y1="159.75"
       y2="163.15"
       gradientUnits="userSpaceOnUse"
       xlink:href="#b"
       gradientTransform="matrix(2.8092989,0,0,2.8092989,-1897.4853,-405.82035)" />
    <linearGradient
       id="k"
       x1="846.57"
       x2="891.32"
       y1="155.09"
       y2="158.31"
       gradientUnits="userSpaceOnUse"
       xlink:href="#b"
       gradientTransform="matrix(2.8092989,0,0,2.8092989,-1897.4853,-405.82035)" />
    <linearGradient
       id="g"
       x1="37"
       x2="256.68"
       y1="266.36"
       y2="322.82"
       gradientTransform="matrix(5.6466906,0,0,2.8092989,-1991.049,-706.21872)"
       gradientUnits="userSpaceOnUse"
       xlink:href="#a" />
    <linearGradient
       id="f"
       x1="644.63"
       x2="441.08"
       gradientUnits="userSpaceOnUse"
       xlink:href="#a"
       gradientTransform="matrix(2.8092989,0,0,2.8092989,-1897.4853,-405.82035)" />
    <linearGradient
       inkscape:collect="always"
       xlink:href="#c"
       id="linearGradient3676"
       gradientUnits="userSpaceOnUse"
       x1="95.088"
       y1="155.07"
       x2="131.09"
       y2="21.688" />
    <linearGradient
       inkscape:collect="always"
       xlink:href="#c"
       id="linearGradient3678"
       gradientUnits="userSpaceOnUse"
       x1="95.088"
       y1="155.07"
       x2="131.09"
       y2="21.688" />
    <linearGradient
       inkscape:collect="always"
       xlink:href="#c"
       id="linearGradient3680"
       gradientUnits="userSpaceOnUse"
       x1="95.088"
       y1="155.07"
       x2="131.09"
       y2="21.688" />
    <linearGradient
       inkscape:collect="always"
       xlink:href="#c"
       id="linearGradient3682"
       gradientUnits="userSpaceOnUse"
       x1="95.088"
       y1="155.07"
       x2="131.09"
       y2="21.688" />
    <linearGradient
       inkscape:collect="always"
       xlink:href="#c"
       id="linearGradient3684"
       gradientUnits="userSpaceOnUse"
       x1="95.088"
       y1="155.07"
       x2="131.09"
       y2="21.688" />
    <linearGradient
       inkscape:collect="always"
       xlink:href="#c"
       id="linearGradient3686"
       gradientUnits="userSpaceOnUse"
       x1="95.088"
       y1="155.07"
       x2="131.09"
       y2="21.688" />
    <linearGradient
       inkscape:collect="always"
       xlink:href="#c"
       id="linearGradient3688"
       gradientUnits="userSpaceOnUse"
       x1="95.088"
       y1="155.07"
       x2="131.09"
       y2="21.688" />
    <linearGradient
       inkscape:collect="always"
       xlink:href="#c"
       id="linearGradient3690"
       gradientUnits="userSpaceOnUse"
       x1="95.088"
       y1="155.07"
       x2="131.09"
       y2="21.688" />
    <linearGradient
       inkscape:collect="always"
       xlink:href="#c"
       id="linearGradient3692"
       gradientUnits="userSpaceOnUse"
       x1="95.088"
       y1="155.07"
       x2="131.09"
       y2="21.688" />
    <linearGradient
       inkscape:collect="always"
       xlink:href="#c"
       id="linearGradient3694"
       gradientUnits="userSpaceOnUse"
       x1="95.088"
       y1="155.07"
       x2="131.09"
       y2="21.688" />
    <linearGradient
       inkscape:collect="always"
       xlink:href="#c"
       id="linearGradient3696"
       gradientUnits="userSpaceOnUse"
       x1="95.088"
       y1="155.07"
       x2="131.09"
       y2="21.688" />
    <linearGradient
       inkscape:collect="always"
       xlink:href="#c"
       id="linearGradient3698"
       gradientUnits="userSpaceOnUse"
       x1="95.088"
       y1="155.07"
       x2="131.09"
       y2="21.688" />
    <linearGradient
       inkscape:collect="always"
       xlink:href="#c"
       id="linearGradient3700"
       gradientUnits="userSpaceOnUse"
       x1="95.088"
       y1="155.07"
       x2="131.09"
       y2="21.688" />
    <linearGradient
       inkscape:collect="always"
       xlink:href="#c"
       id="linearGradient3702"
       gradientUnits="userSpaceOnUse"
       x1="95.088"
       y1="155.07"
       x2="131.09"
       y2="21.688" />
    <linearGradient
       inkscape:collect="always"
       xlink:href="#c"
       id="linearGradient3704"
       gradientUnits="userSpaceOnUse"
       x1="95.088"
       y1="155.07"
       x2="131.09"
       y2="21.688" />
    <linearGradient
       inkscape:collect="always"
       xlink:href="#c"
       id="linearGradient3706"
       gradientUnits="userSpaceOnUse"
       x1="95.088"
       y1="155.07"
       x2="131.09"
       y2="21.688" />
    <linearGradient
       inkscape:collect="always"
       xlink:href="#c"
       id="linearGradient3708"
       gradientUnits="userSpaceOnUse"
       x1="95.088"
       y1="155.07"
       x2="131.09"
       y2="21.688" />
    <linearGradient
       inkscape:collect="always"
       xlink:href="#c"
       id="linearGradient3710"
       gradientUnits="userSpaceOnUse"
       x1="95.088"
       y1="155.07"
       x2="131.09"
       y2="21.688" />
    <linearGradient
       inkscape:collect="always"
       xlink:href="#c"
       id="linearGradient3712"
       gradientUnits="userSpaceOnUse"
       x1="95.088"
       y1="155.07"
       x2="131.09"
       y2="21.688" />
    <linearGradient
       inkscape:collect="always"
       xlink:href="#c"
       id="linearGradient3714"
       gradientUnits="userSpaceOnUse"
       x1="95.088"
       y1="155.07"
       x2="131.09"
       y2="21.688" />
    <linearGradient
       inkscape:collect="always"
       xlink:href="#c"
       id="linearGradient3716"
       gradientUnits="userSpaceOnUse"
       x1="95.088"
       y1="155.07"
       x2="131.09"
       y2="21.688" />
    <linearGradient
       inkscape:collect="always"
       xlink:href="#c"
       id="linearGradient3718"
       gradientUnits="userSpaceOnUse"
       x1="95.088"
       y1="155.07"
       x2="131.09"
       y2="21.688" />
    <linearGradient
       inkscape:collect="always"
       xlink:href="#c"
       id="linearGradient3720"
       gradientUnits="userSpaceOnUse"
       x1="95.088"
       y1="155.07"
       x2="131.09"
       y2="21.688" />
    <linearGradient
       inkscape:collect="always"
       xlink:href="#c"
       id="linearGradient3722"
       gradientUnits="userSpaceOnUse"
       x1="95.088"
       y1="155.07"
       x2="131.09"
       y2="21.688" />
    <linearGradient
       inkscape:collect="always"
       xlink:href="#c"
       id="linearGradient3724"
       gradientUnits="userSpaceOnUse"
       x1="95.088"
       y1="155.07"
       x2="131.09"
       y2="21.688" />
    <linearGradient
       inkscape:collect="always"
       xlink:href="#c"
       id="linearGradient3726"
       gradientUnits="userSpaceOnUse"
       x1="95.088"
       y1="155.07"
       x2="131.09"
       y2="21.688" />
    <linearGradient
       inkscape:collect="always"
       xlink:href="#c"
       id="linearGradient3728"
       gradientUnits="userSpaceOnUse"
       x1="95.088"
       y1="155.07"
       x2="131.09"
       y2="21.688" />
    <linearGradient
       inkscape:collect="always"
       xlink:href="#c"
       id="linearGradient3730"
       gradientUnits="userSpaceOnUse"
       x1="95.088"
       y1="155.07"
       x2="131.09"
       y2="21.688" />
    <linearGradient
       inkscape:collect="always"
       xlink:href="#c"
       id="linearGradient3732"
       gradientUnits="userSpaceOnUse"
       x1="95.088"
       y1="155.07"
       x2="131.09"
       y2="21.688" />
    <linearGradient
       inkscape:collect="always"
       xlink:href="#c"
       id="linearGradient3734"
       gradientUnits="userSpaceOnUse"
       x1="95.088"
       y1="155.07"
       x2="131.09"
       y2="21.688" />
    <linearGradient
       inkscape:collect="always"
       xlink:href="#c"
       id="linearGradient3736"
       gradientUnits="userSpaceOnUse"
       x1="95.088"
       y1="155.07"
       x2="131.09"
       y2="21.688" />
    <linearGradient
       inkscape:collect="always"
       xlink:href="#c"
       id="linearGradient3738"
       gradientUnits="userSpaceOnUse"
       x1="95.088"
       y1="155.07"
       x2="131.09"
       y2="21.688" />
    <linearGradient
       inkscape:collect="always"
       xlink:href="#c"
       id="linearGradient3740"
       gradientUnits="userSpaceOnUse"
       x1="95.088"
       y1="155.07"
       x2="131.09"
       y2="21.688" />
    <linearGradient
       inkscape:collect="always"
       xlink:href="#c"
       id="linearGradient3742"
       gradientUnits="userSpaceOnUse"
       x1="95.088"
       y1="155.07"
       x2="131.09"
       y2="21.688" />
    <linearGradient
       inkscape:collect="always"
       xlink:href="#c"
       id="linearGradient3744"
       gradientUnits="userSpaceOnUse"
       x1="95.088"
       y1="155.07"
       x2="131.09"
       y2="21.688" />
    <linearGradient
       inkscape:collect="always"
       xlink:href="#c"
       id="linearGradient3746"
       gradientUnits="userSpaceOnUse"
       x1="95.088"
       y1="155.07"
       x2="131.09"
       y2="21.688" />
    <linearGradient
       inkscape:collect="always"
       xlink:href="#c"
       id="linearGradient3748"
       gradientUnits="userSpaceOnUse"
       x1="95.088"
       y1="155.07"
       x2="131.09"
       y2="21.688" />
    <linearGradient
       inkscape:collect="always"
       xlink:href="#c"
       id="linearGradient3750"
       gradientUnits="userSpaceOnUse"
       x1="95.088"
       y1="155.07"
       x2="131.09"
       y2="21.688" />
    <linearGradient
       inkscape:collect="always"
       xlink:href="#c"
       id="linearGradient3752"
       gradientUnits="userSpaceOnUse"
       x1="95.088"
       y1="155.07"
       x2="131.09"
       y2="21.688" />
    <linearGradient
       inkscape:collect="always"
       xlink:href="#c"
       id="linearGradient3754"
       gradientUnits="userSpaceOnUse"
       x1="95.088"
       y1="155.07"
       x2="131.09"
       y2="21.688" />
    <linearGradient
       inkscape:collect="always"
       xlink:href="#c"
       id="linearGradient3756"
       gradientUnits="userSpaceOnUse"
       x1="95.088"
       y1="155.07"
       x2="131.09"
       y2="21.688" />
    <linearGradient
       inkscape:collect="always"
       xlink:href="#c"
       id="linearGradient3758"
       gradientUnits="userSpaceOnUse"
       x1="95.088"
       y1="155.07"
       x2="131.09"
       y2="21.688" />
    <linearGradient
       inkscape:collect="always"
       xlink:href="#c"
       id="linearGradient3760"
       gradientUnits="userSpaceOnUse"
       x1="95.088"
       y1="155.07"
       x2="131.09"
       y2="21.688" />
    <linearGradient
       inkscape:collect="always"
       xlink:href="#c"
       id="linearGradient3762"
       gradientUnits="userSpaceOnUse"
       x1="95.088"
       y1="155.07"
       x2="131.09"
       y2="21.688" />
    <linearGradient
       inkscape:collect="always"
       xlink:href="#c"
       id="linearGradient3764"
       gradientUnits="userSpaceOnUse"
       x1="95.088"
       y1="155.07"
       x2="131.09"
       y2="21.688" />
    <linearGradient
       inkscape:collect="always"
       xlink:href="#c"
       id="linearGradient3766"
       gradientUnits="userSpaceOnUse"
       x1="95.088"
       y1="155.07"
       x2="131.09"
       y2="21.688" />
    <linearGradient
       inkscape:collect="always"
       xlink:href="#c"
       id="linearGradient3768"
       gradientUnits="userSpaceOnUse"
       x1="95.088"
       y1="155.07"
       x2="131.09"
       y2="21.688" />
    <linearGradient
       inkscape:collect="always"
       xlink:href="#c"
       id="linearGradient3770"
       gradientUnits="userSpaceOnUse"
       x1="95.088"
       y1="155.07"
       x2="131.09"
       y2="21.688" />
    <linearGradient
       inkscape:collect="always"
       xlink:href="#c"
       id="linearGradient3772"
       gradientUnits="userSpaceOnUse"
       x1="95.088"
       y1="155.07"
       x2="131.09"
       y2="21.688" />
    <linearGradient
       inkscape:collect="always"
       xlink:href="#c"
       id="linearGradient3774"
       gradientUnits="userSpaceOnUse"
       x1="95.088"
       y1="155.07"
       x2="131.09"
       y2="21.688" />
    <linearGradient
       inkscape:collect="always"
       xlink:href="#c"
       id="linearGradient3776"
       gradientUnits="userSpaceOnUse"
       x1="95.088"
       y1="155.07"
       x2="131.09"
       y2="21.688" />
    <linearGradient
       inkscape:collect="always"
       xlink:href="#c"
       id="linearGradient3778"
       gradientUnits="userSpaceOnUse"
       x1="95.088"
       y1="155.07"
       x2="131.09"
       y2="21.688" />
  </defs>
  <path
     d="m -647.12348,-310.30419 c -30.24491,0 -55.55951,21.10373 -62.0546,49.37905 -22.07042,0.29983 -40.99608,13.65683 -49.44642,32.66371 l -0.34829,-0.1394 c -6.82684,-2.49966 -14.17573,-3.90015 -21.86836,-3.90015 -35.1668,0 -63.7263,28.55933 -63.7263,63.72611 0,35.16683 28.5595,63.65592 63.7263,63.65592 1.09892,0 2.18797,-0.0168 3.27334,-0.0694 6.12427,-0.31043 12.00272,-1.49148 17.55053,-3.41273 7.64354,20.617733 27.49436,35.310073 50.76966,35.310073 18.01966,0 33.97002,-8.812759 43.80537,-22.35584 14.93705,12.939067 34.40268,20.754263 55.71683,20.754263 29.46674,0 55.46961,-14.933393 70.75781,-37.678316 11.51755,11.48272 27.44207,18.595324 44.99092,18.595324 26.60686,0 49.32849,-16.313604 58.84919,-39.487524 10.01319,10.60681 24.23836,17.20219 39.97632,17.20219 16.86815,0 31.99229,-7.60225 42.06645,-19.57014 10.87395,8.6546 24.65018,13.8594 39.62797,13.8594 2.6034,0 5.13932,-0.18373 7.66094,-0.4875 10.06967,11.60408 24.93815,18.94338 41.5074,18.94338 26.83106,0 49.10655,-19.27573 53.90482,-44.71279 26.36752,-1.93478 47.14847,-23.97906 47.14847,-50.8399 0,-28.13231 -22.77695,-50.91012 -50.91012,-50.91012 -20.40562,0 -37.97329,11.99404 -46.10621,29.32065 -11.38468,-17.29291 -30.95566,-28.69417 -53.20813,-28.69417 -17.79577,0 -33.92507,7.31345 -45.47693,19.08272 -6.2855,-28.55651 -31.74788,-49.93528 -62.19224,-49.93528 -17.12998,0 -32.64125,6.75636 -44.08633,17.75954 -10.11685,-21.77909 -32.14118,-36.91138 -57.73671,-36.91138 -20.72111,0 -39.14196,9.9556 -50.77246,25.28118 -3.90239,-0.87974 -7.95003,-1.39293 -12.11818,-1.39293 -1.44624,0 -2.89977,0.0992 -4.3179,0.20875 -10.44863,-20.88265 -32.02882,-35.23985 -56.96978,-35.23985 z"
     id="path50"
     style="fill:url(#e)"
     inkscape:connector-curvature="0" />
  <path
     d="m -1891.7488,-310.30419 2959.3155,0 0,1087.59196 -2959.3155,0 0,-1087.59196 z"
     id="path52"
     inkscape:connector-curvature="0"
     style="fill:#cce6f3" />
  <path
     d="M -1100.3748,151.93784 C -642.2353,-8.6950589 -174.14993,-82.821226 169.45542,-40.892438 469.82564,-149.5814 677.5452,-74.412996 677.5452,-74.412996 l -5.64669,392.908546 -1819.04821,2.80931 46.7862,-169.3614 z"
     id="path54"
     style="fill:url(#f)"
     inkscape:connector-curvature="0" />
  <g
     transform="matrix(-1.4420412,0,0,1.4420412,1064.0776,-203.35137)"
     id="g56"
     style="fill:url(#linearGradient3778);stroke:#edd400">
    <path
       d="m 126.79,56.57 c -17.5,5 -11,96 -11,96 l 13,-2 c 0,0 3,-89 20.5,-93"
       id="path58"
       style="fill:url(#linearGradient3728);stroke-width:5"
       inkscape:connector-curvature="0" />
    <path
       d="m 125.36,55.945 c -16.758,7.101 0.81359,96.625 0.81359,96.625 l 12.658,-3.5736 c 0,0 -7.8982,-88.7 8.9818,-94.808"
       id="path60"
       style="fill:url(#linearGradient3730);stroke-width:5"
       inkscape:connector-curvature="0" />
    <path
       d="m 134.81,60.945 c -16.758,7.101 -4.1864,91.625 -4.1864,91.625 l 12.658,-3.5736 c 0,0 -0.39823,-95.7 16.482,-101.81"
       id="path62"
       style="fill:url(#linearGradient3732);stroke-width:5"
       inkscape:connector-curvature="0" />
    <path
       d="m 120.25,44.945 c -16.758,7.101 -11.186,107.62 -11.186,107.62 l 12.658,-3.5736 c 0,0 -4.8982,-75.2 14.482,-78.808"
       id="path64"
       style="fill:url(#linearGradient3734);stroke-width:5"
       inkscape:connector-curvature="0" />
    <path
       d="m 80.44,60.945 c -16.758,7.101 -4.1864,91.625 -4.1864,91.625 l 12.658,-3.5736 c 0,0 -1.8982,-72.2 21.482,-72.808"
       id="path66"
       style="fill:url(#linearGradient3736);stroke-width:5"
       inkscape:connector-curvature="0" />
    <path
       d="m 20.491,56.57 c -17.5,5 -11,96 -11,96 l 13,-2 c 0,0 3,-89 20.5,-93"
       id="path68"
       style="fill:url(#linearGradient3738);stroke-width:5"
       inkscape:connector-curvature="0" />
    <path
       d="m 52.081,55.945 c -16.758,7.101 0.81359,96.625 0.81359,96.625 l 12.658,-3.5736 c 0,0 -7.8982,-88.7 8.9818,-94.808"
       id="path70"
       style="fill:url(#linearGradient3740);stroke-width:5"
       inkscape:connector-curvature="0" />
    <path
       d="m 166.67,60.945 c -16.758,7.101 -4.1864,91.625 -4.1864,91.625 l 12.658,-3.5736 c 0,0 -0.39823,-95.7 16.482,-101.81"
       id="path72"
       style="fill:url(#linearGradient3742);stroke-width:5"
       inkscape:connector-curvature="0" />
    <path
       d="m 239.47,44.945 c -16.758,7.101 -11.186,107.62 -11.186,107.62 l 12.658,-3.5736 c 0,0 -4.8982,-75.2 14.482,-78.808"
       id="path74"
       style="fill:url(#linearGradient3744);stroke-width:5"
       inkscape:connector-curvature="0" />
    <path
       d="m 101.03,60.945 c -16.758,7.101 -4.1864,91.625 -4.1864,91.625 l 12.658,-3.5736 c 0,0 -1.8982,-72.2 21.482,-72.808"
       id="path76"
       style="fill:url(#linearGradient3746);stroke-width:5"
       inkscape:connector-curvature="0" />
    <path
       d="m 8.0333,56.57 c -17.5,5 -11,96 -11,96 l 13,-2 c 0,0 3,-89 20.5,-93"
       id="path78"
       style="fill:url(#linearGradient3748);stroke-width:5"
       inkscape:connector-curvature="0" />
    <path
       d="m 127.95,55.945 c -16.758,7.101 0.81359,96.625 0.81359,96.625 l 12.658,-3.5736 c 0,0 -7.8982,-88.7 8.9818,-94.808"
       id="path80"
       style="fill:url(#linearGradient3750);stroke-width:5"
       inkscape:connector-curvature="0" />
    <path
       d="m 176.12,57.945 c -16.758,7.101 -4.1864,91.625 -4.1864,91.625 l 12.658,-3.5736 c 0,0 -0.39823,-95.7 16.482,-101.81"
       id="path82"
       style="fill:url(#linearGradient3752);stroke-width:5"
       inkscape:connector-curvature="0" />
    <path
       d="m 186.45,44.945 c -16.758,7.101 -11.186,107.62 -11.186,107.62 l 12.658,-3.5736 c 0,0 -4.8982,-75.2 14.482,-78.808"
       id="path84"
       style="fill:url(#linearGradient3754);stroke-width:5"
       inkscape:connector-curvature="0" />
    <path
       d="m 236.37,60.945 c -16.758,7.101 -4.1864,91.625 -4.1864,91.625 l 12.658,-3.5736 c 0,0 -1.8982,-72.2 21.482,-72.808"
       id="path86"
       style="fill:url(#linearGradient3756);stroke-width:5"
       inkscape:connector-curvature="0" />
    <path
       d="m 156.78,56.57 c -17.5,5 -11,96 -11,96 l 13,-2 c 0,0 3,-89 20.5,-93"
       id="path88"
       style="fill:url(#linearGradient3758);stroke-width:5"
       inkscape:connector-curvature="0" />
    <path
       d="m 66.329,26.788 c -16.399,9.2204 0.79616,125.46 0.79616,125.46 l 12.387,-4.6402 c 0,0 -7.729,-115.17 8.7894,-123.11"
       id="path90"
       style="fill:url(#linearGradient3760);stroke-width:5.63619995"
       inkscape:connector-curvature="0" />
    <path
       d="m 192.35,60.945 c -16.758,7.101 -4.1864,91.625 -4.1864,91.625 l 12.658,-3.5736 c 0,0 -0.39823,-95.7 16.482,-101.81"
       id="path92"
       style="fill:url(#linearGradient3762);stroke-width:5"
       inkscape:connector-curvature="0" />
    <path
       d="M 42.748,44.945 C 25.99,52.046 31.562,152.565 31.562,152.565 l 12.658,-3.5736 c 0,0 -4.8982,-75.2 14.482,-78.808"
       id="path94"
       style="fill:url(#linearGradient3764);stroke-width:5"
       inkscape:connector-curvature="0" />
    <path
       d="m 15.928,78.708 c -16.964,5.7429 -4.2379,74.101 -4.2379,74.101 l 12.814,-2.8901 c 0,0 -1.9216,-58.391 21.746,-58.883"
       id="path96"
       style="fill:url(#linearGradient3766);stroke-width:4.52409983"
       inkscape:connector-curvature="0" />
    <path
       d="m 205.31,36.719 c -17.35,5.6616 -10.906,108.7 -10.906,108.7 l 12.888,-2.2646 c 0,0 2.9742,-100.78 20.324,-105.31"
       id="path98"
       style="fill:url(#linearGradient3768);stroke-width:5.29759979"
       inkscape:connector-curvature="0" />
    <path
       d="m 142.25,55.945 c -16.758,7.101 0.81359,96.625 0.81359,96.625 l 12.658,-3.5736 c 0,0 -7.8982,-88.7 8.9818,-94.808"
       id="path100"
       style="fill:url(#linearGradient3770);stroke-width:5"
       inkscape:connector-curvature="0" />
    <path
       d="m 149.25,42.846 c -16.543,8.487 -4.1328,109.51 -4.1328,109.51 l 12.496,-4.2711 c 0,0 -0.39313,-114.38 16.271,-121.68"
       id="path102"
       style="fill:url(#linearGradient3772);stroke-width:5.43109989"
       inkscape:connector-curvature="0" />
    <path
       d="m 217.32,44.945 c -16.758,7.101 -11.186,107.62 -11.186,107.62 l 12.658,-3.5736 c 0,0 -4.8982,-75.2 14.482,-78.808"
       id="path104"
       style="fill:url(#linearGradient3774);stroke-width:5"
       inkscape:connector-curvature="0" />
    <path
       d="m 100.38,60.945 c -16.758,7.101 -4.1864,91.625 -4.1864,91.625 l 12.658,-3.5736 c 0,0 -1.8982,-72.2 21.482,-72.808"
       id="path106"
       style="fill:url(#linearGradient3776);stroke-width:5"
       inkscape:connector-curvature="0" />
  </g>
  <path
     d="M -110.91262,241.8354 C -569.05308,81.202503 -1037.1377,7.076348 -1380.7429,49.005132 c -300.3702,-108.688969 -508.0898,-33.52056 -508.0898,-33.52056 l 5.6467,392.908538 1819.048189,2.8093 -46.786049,-169.36139 z"
     id="path108"
     style="fill:url(#g)"
     inkscape:connector-curvature="0" />
  <g
     transform="matrix(-1.3347821,0.54579058,0.54579058,1.3347821,563.3753,-197.99404)"
     id="g110"
     style="fill:url(#linearGradient3726);stroke:#edd400">
    <path
       d="m 126.79,56.57 c -17.5,5 -11,96 -11,96 l 13,-2 c 0,0 3,-89 20.5,-93"
       id="path112"
       style="fill:url(#linearGradient3676);stroke-width:5"
       inkscape:connector-curvature="0" />
    <path
       d="m 125.36,55.945 c -16.758,7.101 0.81359,96.625 0.81359,96.625 l 12.658,-3.5736 c 0,0 -7.8982,-88.7 8.9818,-94.808"
       id="path114"
       style="fill:url(#linearGradient3678);stroke-width:5"
       inkscape:connector-curvature="0" />
    <path
       d="m 134.81,60.945 c -16.758,7.101 -4.1864,91.625 -4.1864,91.625 l 12.658,-3.5736 c 0,0 -0.39823,-95.7 16.482,-101.81"
       id="path116"
       style="fill:url(#linearGradient3680);stroke-width:5"
       inkscape:connector-curvature="0" />
    <path
       d="m 120.25,44.945 c -16.758,7.101 -11.186,107.62 -11.186,107.62 l 12.658,-3.5736 c 0,0 -4.8982,-75.2 14.482,-78.808"
       id="path118"
       style="fill:url(#linearGradient3682);stroke-width:5"
       inkscape:connector-curvature="0" />
    <path
       d="m 80.44,60.945 c -16.758,7.101 -4.1864,91.625 -4.1864,91.625 l 12.658,-3.5736 c 0,0 -1.8982,-72.2 21.482,-72.808"
       id="path120"
       style="fill:url(#linearGradient3684);stroke-width:5"
       inkscape:connector-curvature="0" />
    <path
       d="m 20.491,56.57 c -17.5,5 -11,96 -11,96 l 13,-2 c 0,0 3,-89 20.5,-93"
       id="path122"
       style="fill:url(#linearGradient3686);stroke-width:5"
       inkscape:connector-curvature="0" />
    <path
       d="m 52.081,55.945 c -16.758,7.101 0.81359,96.625 0.81359,96.625 l 12.658,-3.5736 c 0,0 -7.8982,-88.7 8.9818,-94.808"
       id="path124"
       style="fill:url(#linearGradient3688);stroke-width:5"
       inkscape:connector-curvature="0" />
    <path
       d="m 166.67,60.945 c -16.758,7.101 -4.1864,91.625 -4.1864,91.625 l 12.658,-3.5736 c 0,0 -0.39823,-95.7 16.482,-101.81"
       id="path126"
       style="fill:url(#linearGradient3690);stroke-width:5"
       inkscape:connector-curvature="0" />
    <path
       d="m 239.47,44.945 c -16.758,7.101 -11.186,107.62 -11.186,107.62 l 12.658,-3.5736 c 0,0 -4.8982,-75.2 14.482,-78.808"
       id="path128"
       style="fill:url(#linearGradient3692);stroke-width:5"
       inkscape:connector-curvature="0" />
    <path
       d="m 101.03,60.945 c -16.758,7.101 -4.1864,91.625 -4.1864,91.625 l 12.658,-3.5736 c 0,0 -1.8982,-72.2 21.482,-72.808"
       id="path130"
       style="fill:url(#linearGradient3694);stroke-width:5"
       inkscape:connector-curvature="0" />
    <path
       d="m 8.0333,56.57 c -17.5,5 -11,96 -11,96 l 13,-2 c 0,0 3,-89 20.5,-93"
       id="path132"
       style="fill:url(#linearGradient3696);stroke-width:5"
       inkscape:connector-curvature="0" />
    <path
       d="m 127.95,55.945 c -16.758,7.101 0.81359,96.625 0.81359,96.625 l 12.658,-3.5736 c 0,0 -7.8982,-88.7 8.9818,-94.808"
       id="path134"
       style="fill:url(#linearGradient3698);stroke-width:5"
       inkscape:connector-curvature="0" />
    <path
       d="m 176.12,57.945 c -16.758,7.101 -4.1864,91.625 -4.1864,91.625 l 12.658,-3.5736 c 0,0 -0.39823,-95.7 16.482,-101.81"
       id="path136"
       style="fill:url(#linearGradient3700);stroke-width:5"
       inkscape:connector-curvature="0" />
    <path
       d="m 186.45,44.945 c -16.758,7.101 -11.186,107.62 -11.186,107.62 l 12.658,-3.5736 c 0,0 -4.8982,-75.2 14.482,-78.808"
       id="path138"
       style="fill:url(#linearGradient3702);stroke-width:5"
       inkscape:connector-curvature="0" />
    <path
       d="m 236.37,60.945 c -16.758,7.101 -4.1864,91.625 -4.1864,91.625 l 12.658,-3.5736 c 0,0 -1.8982,-72.2 21.482,-72.808"
       id="path140"
       style="fill:url(#linearGradient3704);stroke-width:5"
       inkscape:connector-curvature="0" />
    <path
       d="m 156.78,56.57 c -17.5,5 -11,96 -11,96 l 13,-2 c 0,0 3,-89 20.5,-93"
       id="path142"
       style="fill:url(#linearGradient3706);stroke-width:5"
       inkscape:connector-curvature="0" />
    <path
       d="m 66.329,26.788 c -16.399,9.2204 0.79616,125.46 0.79616,125.46 l 12.387,-4.6402 c 0,0 -7.729,-115.17 8.7894,-123.11"
       id="path144"
       style="fill:url(#linearGradient3708);stroke-width:5.63619995"
       inkscape:connector-curvature="0" />
    <path
       d="m 192.35,60.945 c -16.758,7.101 -4.1864,91.625 -4.1864,91.625 l 12.658,-3.5736 c 0,0 -0.39823,-95.7 16.482,-101.81"
       id="path146"
       style="fill:url(#linearGradient3710);stroke-width:5"
       inkscape:connector-curvature="0" />
    <path
       d="M 42.748,44.945 C 25.99,52.046 31.562,152.565 31.562,152.565 l 12.658,-3.5736 c 0,0 -4.8982,-75.2 14.482,-78.808"
       id="path148"
       style="fill:url(#linearGradient3712);stroke-width:5"
       inkscape:connector-curvature="0" />
    <path
       d="m 15.928,78.708 c -16.964,5.7429 -4.2379,74.101 -4.2379,74.101 l 12.814,-2.8901 c 0,0 -1.9216,-58.391 21.746,-58.883"
       id="path150"
       style="fill:url(#linearGradient3714);stroke-width:4.52409983"
       inkscape:connector-curvature="0" />
    <path
       d="m 205.31,36.719 c -17.35,5.6616 -10.906,108.7 -10.906,108.7 l 12.888,-2.2646 c 0,0 2.9742,-100.78 20.324,-105.31"
       id="path152"
       style="fill:url(#linearGradient3716);stroke-width:5.29759979"
       inkscape:connector-curvature="0" />
    <path
       d="m 142.25,55.945 c -16.758,7.101 0.81359,96.625 0.81359,96.625 l 12.658,-3.5736 c 0,0 -7.8982,-88.7 8.9818,-94.808"
       id="path154"
       style="fill:url(#linearGradient3718);stroke-width:5"
       inkscape:connector-curvature="0" />
    <path
       d="m 149.25,42.846 c -16.543,8.487 -4.1328,109.51 -4.1328,109.51 l 12.496,-4.2711 c 0,0 -0.39313,-114.38 16.271,-121.68"
       id="path156"
       style="fill:url(#linearGradient3720);stroke-width:5.43109989"
       inkscape:connector-curvature="0" />
    <path
       d="m 217.32,44.945 c -16.758,7.101 -11.186,107.62 -11.186,107.62 l 12.658,-3.5736 c 0,0 -4.8982,-75.2 14.482,-78.808"
       id="path158"
       style="fill:url(#linearGradient3722);stroke-width:5"
       inkscape:connector-curvature="0" />
    <path
       d="m 100.38,60.945 c -16.758,7.101 -4.1864,91.625 -4.1864,91.625 l 12.658,-3.5736 c 0,0 -1.8982,-72.2 21.482,-72.808"
       id="path160"
       style="fill:url(#linearGradient3724);stroke-width:5"
       inkscape:connector-curvature="0" />
  </g>
  <path
     d="M 198.58785,201.4096 C 606.55423,-86.122149 1067.5891,24.839547 1067.5891,24.839547 l 0,750.082793 -880.65985,-17.87838 11.65635,-555.62313 z"
     id="path162"
     style="fill:url(#h)"
     inkscape:connector-curvature="0" />
  <path
     d="M -978.64887,207.42149 C 261.45996,58.930378 1067.5891,317.76794 1067.5891,317.76794 l 0,461.5397 -2042.22069,-1.98647 -4.01338,-569.89438 z"
     id="path164"
     style="fill:url(#i)"
     inkscape:connector-curvature="0" />
  <path
     d="M -978.64887,207.42149 C 261.45996,58.930378 1056.0993,315.77897 1056.0993,315.77897 831.10991,268.83557 -300.39982,60.936216 -963.39439,428.95437 l -15.25058,-221.53288 z"
     id="path166"
     inkscape:connector-curvature="0"
     style="fill:#fce94f" />
  <path
     d="M -944.93735,552.96525 C 50.762511,84.205639 1030.8153,315.77897 1030.8153,315.77897 794.58901,246.36118 -269.49753,254.77784 -954.9665,766.08149 l 10.03308,-213.105 z"
     id="path168"
     inkscape:connector-curvature="0"
     style="fill:#fce94f" />
  <path
     d="M -728.62122,786.13706 C 390.6877,134.77303 1067.5891,318.58544 1067.5891,318.58544 716.17305,198.60029 -157.12557,541.32351 -460.52986,794.17166 l -268.08858,-8.02674 z"
     id="path170"
     inkscape:connector-curvature="0"
     style="fill:#fce94f" />
  <path
     d="m -998.87577,180.33986 c 0,0 -889.92873,-24.22797 -889.92873,97.96025 l 0,500.58896 1708.22128,9.5915 c 0,0 -462.94436,-246.32212 -818.29255,-608.15701 z"
     id="path172"
     inkscape:connector-curvature="0"
     style="fill:#c17d11" />
  <path
     d="m -1253.9031,206.85964 c 112.3721,-73.04178 193.8418,-14.0465 193.8418,-14.0465 l 733.22597,598.38065 -235.98109,-5.6186 c 0,0 -581.52398,-556.24116 -691.08668,-578.71555 z"
     id="path174"
     inkscape:connector-curvature="0"
     style="fill:#e9b96e" />
  <path
     d="m -1543.2608,229.33403 c 70.2325,-92.70687 205.0788,-25.2837 205.0788,-25.2837 l 657.37503,581.52486 -202.26954,-5.61859 c 0,0 -587.14249,-516.91099 -660.18429,-550.62257 z"
     id="path176"
     inkscape:connector-curvature="0"
     style="fill:#e9b96e" />
  <path
     d="m -1827,263.04561 c 120.7999,-84.27897 193.8416,-42.13948 193.8416,-42.13948 l 626.4729,564.66906 -235.9803,-5.61859 c 0,0 -511.2925,-483.1994 -584.3342,-516.91099 z"
     id="path178"
     inkscape:connector-curvature="0"
     style="fill:#e9b96e" />
  <path
     d="m -1888.8034,504.64531 0,-148.89284 522.5295,441.05992 -235.9811,-5.6186 c 0,0 -286.5484,-247.21829 -286.5484,-286.54848 z"
     id="path180"
     inkscape:connector-curvature="0"
     style="fill:#e9b96e" />
  <path
     d="M -138.66849,786.13706 C 806.46394,241.52638 1067.5891,318.58544 1067.5891,318.58544 744.26605,367.15824 539.58054,518.84913 236.17627,771.69726 l -374.84476,14.44766 z"
     id="path182"
     inkscape:connector-curvature="0"
     style="fill:#fce94f" />
  <path
     d="M 513.14504,778.13055 C 890.79908,463.88238 1067.5891,318.58544 1067.5891,318.58544 c 0,37.33559 -143.96057,161.89708 -172.05635,465.30418 l -382.37366,-5.75766 z"
     id="path184"
     inkscape:connector-curvature="0"
     style="fill:#fce94f" />
  <path
     d="m 856.07615,102.57845 86.8888,22.81518 124.62695,14.04649 0,109.56265 -158.70375,-63.99022 -142.90902,-45.57243 -19.6651,-14.04649 5.61861,-42.139498 104.14351,19.324318 z"
     id="path186"
     style="fill:url(#j)"
     inkscape:connector-curvature="0" />
  <path
     d="m 625.51699,-114.04658 250.02761,-4.95392 5.61859,230.36251 -255.6462,-52.016976 0,-173.389924 z"
     id="path188"
     inkscape:connector-curvature="0"
     style="fill:#5e0000" />
  <path
     d="m 451.34047,-113.40044 250.0276,-5.6186 5.61858,261.26481 -255.64618,-58.99529 0,-196.65092 z"
     id="path190"
     inkscape:connector-curvature="0"
     style="fill:#cc0000" />
  <path
     d="m 699.62628,-119.35616 4.03839,259.24493 43.28004,-7.37442 -2.45812,-159.514791 109.47557,-6.145358 2.89693,146.872959 24.93253,-4.21395 -4.56511,-227.5532 -88.79912,-107.41074 -88.79913,106.09598 z"
     id="path192"
     inkscape:connector-curvature="0"
     style="fill:#a40000" />
  <path
     d="m 440.10326,-92.330701 8.42791,-1.404649 238.79039,0 99.73011,-129.22774 -265.47875,19.66509 -81.46966,110.967299 z"
     id="path194"
     inkscape:connector-curvature="0"
     style="fill:#2e3436;stroke:#000000;stroke-width:2.80929899" />
  <path
     d="m 788.45632,-220.14256 92.70687,108.15801 -92.70687,-108.15801 -265.47874,19.66509 265.47874,-19.66509 z"
     id="path196"
     inkscape:connector-curvature="0"
     style="fill:#2e3436;stroke:#000000;stroke-width:2.80929899" />
  <path
     d="m 522.05051,-124.01959 c -29.25042,0 -52.93842,14.09173 -52.93842,31.517535 0,1.573083 0.2413,3.141629 0.61454,4.652755 l 0,192.34988 c -1.2646,2.74743 -2.01919,5.61692 -2.01919,8.60347 0,17.97391 24.52321,32.57102 54.69424,32.57102 30.17103,0 54.60714,-14.59655 54.60714,-32.57102 0,-2.98655 -0.75457,-5.85597 -2.01903,-8.60347 l 0,-195.948599 -0.087,0 c 0.0281,-0.35048 0.087,-0.700218 0.087,-1.053486 0,-17.425235 -23.68829,-31.517525 -52.93844,-31.517525 z"
     id="path198"
     style="fill:url(#k)"
     inkscape:connector-curvature="0" />
  <path
     d="m 572.78645,-105.25346 c 0,10.959353 -22.37746,19.843758 -49.98024,19.843758 -27.60277,0 -49.98023,-8.884405 -49.98023,-19.843758 0,-10.95936 22.37718,-19.84378 49.98023,-19.84378 27.60304,0 49.98024,8.88442 49.98024,19.84378 z"
     id="path200"
     inkscape:connector-curvature="0"
     style="opacity:0.57959002;fill:#eeeeec" />
  <path
     d="m 595.51368,-119.97421 c -30.96689,0 -56.04552,14.9188 -56.04552,33.366046 0,1.665452 0.25537,3.325943 0.6506,4.926123 l 0,203.637631 c -1.33878,2.90876 -2.13769,5.94644 -2.13769,9.10832 0,19.02851 25.96269,34.48132 57.90245,34.48132 31.93977,0 57.80976,-15.45309 57.80976,-34.48132 0,-3.16188 -0.79889,-6.19985 -2.13754,-9.10832 l 0,-207.44986 -0.0922,0 c 0.0297,-0.371038 0.0922,-0.741309 0.0922,-1.115327 0,-18.447823 -25.07861,-33.366043 -56.04552,-33.366043 z"
     id="path202"
     style="fill:url(#l)"
     inkscape:connector-curvature="0" />
  <path
     d="m 647.26095,-98.117849 c 0,11.602404 -23.69082,21.008213 -52.91594,21.008213 -29.22513,0 -52.91595,-9.405531 -52.91595,-21.008213 0,-11.602691 23.69082,-21.008211 52.91595,-21.008211 29.22512,0 52.91594,9.40552 52.91594,21.008211 z"
     id="path204"
     inkscape:connector-curvature="0"
     style="opacity:0.57959002;fill:#eeeeec" />
  <path
     d="m -1888.8034,751.86361 2956.5061,0 0,95.51616 -2956.5061,0 z"
     id="path206"
     inkscape:connector-curvature="0"
     style="fill:#2e3436" />
  <path
     d="m -1888.8034,-405.82035 2956.5061,0 0,95.51616 -2956.5061,0 z"
     id="path208"
     inkscape:connector-curvature="0"
     style="fill:#2e3436" />
  <path
     d="m -726.5704,-356.21937 c -38.12499,0 -70.03583,26.60237 -78.22218,62.24282 -27.82104,0.37797 -51.67986,17.2151 -62.33274,41.17308 l -0.43895,-0.17558 c -8.60544,-3.15091 -17.86914,-4.91626 -27.56617,-4.91626 -44.33074,0 -80.3292,35.99835 -80.3292,80.32908 0,44.33074 35.99846,80.239202 80.3292,80.239202 1.38525,0 2.75805,-0.0197 4.12628,-0.0877 7.71959,-0.39131 15.12998,-1.880081 22.12312,-4.301602 9.63511,25.989372 34.6584,44.510521 63.99875,44.510521 22.71457,0 42.81934,-11.108808 55.21959,-28.180068 18.82869,16.310219 43.36709,26.16159 70.23242,26.16159 37.14455,0 69.92064,-18.823973 89.19524,-47.494013 14.51846,14.47436 34.59089,23.440248 56.71413,23.440248 33.5402,0 62.18102,-20.564088 74.18234,-49.777988 12.62217,13.37032 30.55393,21.68443 50.39321,21.68443 21.26301,0 40.32748,-9.58309 53.02552,-24.66902 13.70712,10.90936 31.07364,17.47046 49.95213,17.47046 3.28181,0 6.47852,-0.23174 9.65697,-0.61453 12.69325,14.62746 31.43606,23.879043 52.32318,23.879043 33.82115,0 61.9001,-24.297623 67.95133,-56.360153 33.23681,-2.43887 59.43353,-30.22806 59.43353,-64.08573 0,-35.46459 -28.71103,-64.17561 -64.17563,-64.17561 -25.72221,0 -47.86764,15.11909 -58.11876,36.95913 -14.35104,-21.79846 -39.02118,-36.16973 -67.07202,-36.16973 -22.43253,0 -42.76316,9.21872 -57.32655,24.05462 -7.92336,-35.99834 -40.01846,-62.94514 -78.39631,-62.94514 -21.59311,0 -41.14497,8.51667 -55.57074,22.38674 -12.75253,-27.45359 -40.5157,-46.52762 -72.77769,-46.52762 -26.12002,0 -49.34252,12.54943 -63.99863,31.8687 -4.91909,-1.10895 -10.02162,-1.75583 -15.27556,-1.75583 -1.82304,0 -3.65546,0.1251 -5.44302,0.26326 -13.17112,-26.3237 -40.37524,-44.42064 -71.8113,-44.42064 z"
     id="path210"
     inkscape:connector-curvature="0"
     style="fill:#ffffff" />
  <g
     transform="matrix(-4.0625272,0,0,4.0625272,368.91565,-742.87999)"
     id="g212">
    <path
       d="m 404.12,165.85 c -7.8847,-1.8044 -13.22,-8.8291 -13.227,-16.587 -5.7357,-1.3949 -9.902,-5.9959 -10.971,-11.455 l -0.0983,0.01 c -1.9288,0.24435 -3.9211,0.16055 -5.9265,-0.29841 -9.1677,-2.0981 -14.901,-11.234 -12.803,-20.401 2.098,-9.167 11.234,-14.901 20.401,-12.803 0.28649,0.0656 0.56631,0.14663 0.84599,0.22561 1.578,0.44628 3.066,1.1043 4.3977,1.9361 3.2227,-4.9188 9.2581,-7.5627 15.326,-6.174 4.6976,1.0751 8.3353,4.3151 10.092,8.4326 4.6659,-2.4819 10.208,-3.338 15.765,-2.0664 7.6818,1.758 13.556,7.1851 16.185,14.027 3.6876,-2.3063 8.2617,-3.2065 12.837,-2.1595 6.9362,1.5874 11.897,7.2004 12.997,13.81 3.2432,-2.1677 7.3402,-3.0327 11.443,-2.0937 4.3974,1.0064 7.89,3.876 9.8022,7.597 2.0857,-1.0004 4.3789,-1.5752 6.7592,-1.6589 l -7.341,32.077 c -2.7438,-1.4445 -4.9997,-3.5916 -6.5743,-6.153 -3.3424,7.0697 -11.253,11.146 -19.19,9.3291 -4.4656,-1.022 -8.128,-3.7143 -10.455,-7.2655 -3.9367,5.074 -10.579,7.7092 -17.251,6.1822 -5.4018,-1.2362 -9.5909,-4.947 -11.708,-9.636 -1.0698,-0.003 -2.1652,-0.11081 -3.2518,-0.35948 -0.37703,-0.0863 -0.75003,-0.20571 -1.1132,-0.31887 -3.9698,4.8206 -10.439,7.2925 -16.941,5.8046 z"
       id="path214"
       inkscape:connector-curvature="0"
       style="fill:#3e6d05" />
    <path
       d="m 475.08,146.36 c -8.0333,-0.94363 -15.276,2.6955 -17.696,8.4122 -5.8694,-0.62582 -11.249,1.5641 -13.961,5.2796 l -0.0902,-0.0354 c -1.7518,-0.73631 -3.6658,-1.249 -5.709,-1.489 -9.3405,-1.0972 -17.616,3.9834 -18.481,11.346 -0.865,7.3626 6.0083,14.222 15.349,15.32 0.29189,0.0343 0.5823,0.0551 0.8719,0.0777 1.6342,0.12611 3.2491,0.0702 4.7699,-0.15894 1.5231,4.5549 6.4197,8.244 12.602,8.9702 4.7861,0.56219 9.2416,-0.77698 12.188,-3.3054 3.6492,3.1748 8.635,5.4041 14.296,6.0691 7.8266,0.91934 15.082,-1.387 19.702,-5.6716 2.7767,2.7633 6.8312,4.7458 11.492,5.2933 7.0669,0.83012 13.515,-1.8765 16.614,-6.4313 2.3987,2.533 6.0121,4.352 10.192,4.843 4.4803,0.52627 8.683,-0.58175 11.653,-2.773 1.6651,1.3388 3.6594,2.4238 5.8889,3.1719 l 3.0259,-25.76 c -3.0496,0.27353 -5.8555,1.2056 -8.1448,2.6394 -0.9672,-6.1748 -7.1949,-11.46 -15.282,-12.41 -4.5498,-0.53444 -8.8582,0.39389 -12.169,2.3404 -2.1515,-4.8752 -7.6258,-8.7329 -14.424,-9.5315 -5.5036,-0.64648 -10.628,0.88067 -14.093,3.7264 -1.0148,-0.30591 -2.0863,-0.54268 -3.1933,-0.67272 -0.38413,-0.0451 -0.77476,-0.0646 -1.1541,-0.0859 -2.2617,-4.6979 -7.6228,-8.3854 -14.247,-9.1634 z"
       id="path216"
       inkscape:connector-curvature="0"
       style="fill:#325804" />
    <path
       d="m 470.19,170.23 c -8.0886,0 -14.857,-5.6573 -16.594,-13.219 -5.9024,-0.0802 -10.99,-3.6358 -13.25,-8.7188 l -0.0937,0.0312 c -1.8257,0.66849 -3.7865,1.0312 -5.8438,1.0312 -9.4047,0 -17.031,-7.6265 -17.031,-17.031 0,-9.4045 7.6265,-17.031 17.031,-17.031 0.2939,0 0.58475,0.0166 0.875,0.0312 1.6378,0.083 3.2351,0.39248 4.7188,0.90625 2.0441,-5.5138 7.3376,-9.4375 13.562,-9.4375 4.819,0 9.0879,2.3468 11.719,5.9688 3.9946,-3.4603 9.2065,-5.5312 14.906,-5.5312 7.8804,0 14.817,3.9799 18.906,10.062 3.0801,-3.0708 7.3382,-4.9688 12.031,-4.9688 7.1155,0 13.204,4.3648 15.75,10.562 2.6778,-2.8366 6.4787,-4.5938 10.688,-4.5938 4.511,0 8.5558,2.0182 11.25,5.2188 1.8099,-1.4405 3.9171,-2.5124 6.2187,-3.125 l 0,32.906 c -2.9969,-0.79603 -5.6749,-2.3857 -7.7812,-4.5312 -1.681,7.6372 -8.4828,13.375 -16.625,13.375 -4.5811,0 -8.7518,-1.8074 -11.812,-4.75 -2.7056,5.8244 -8.5926,9.875 -15.438,9.875 -5.5415,0 -10.453,-2.6827 -13.562,-6.7812 -1.0436,0.23526 -2.1353,0.375 -3.25,0.375 -0.38677,0 -0.77701,-0.0332 -1.1562,-0.0625 -2.7943,5.5847 -8.5491,9.4375 -15.219,9.4375 z"
       id="path218"
       inkscape:connector-curvature="0"
       style="fill:#417305" />
    <path
       d="m 355.01,114.47 c -8.0886,0 -14.858,5.6438 -16.595,13.205 -5.9024,0.0802 -10.964,3.6523 -13.224,8.7352 -0.0312,-0.0116 -0.0619,-0.0258 -0.0931,-0.0373 -1.8257,-0.66849 -3.791,-1.043 -5.8483,-1.043 -9.4047,0 -17.042,7.6374 -17.042,17.042 0,9.4046 7.6374,17.023 17.042,17.023 0.2939,0 0.58514,-0.004 0.87539,-0.0186 1.6378,-0.083 3.2099,-0.39887 4.6936,-0.91264 2.0441,5.5138 7.3529,9.443 13.578,9.443 4.819,0 9.0844,-2.3568 11.715,-5.9787 3.9946,3.4603 9.2004,5.5503 14.9,5.5503 7.8804,0 14.834,-3.9936 18.923,-10.076 3.0801,3.0708 7.3389,4.9729 12.032,4.9729 7.1155,0 13.192,-4.3628 15.738,-10.561 2.6778,2.8366 6.4821,4.6004 10.691,4.6004 4.5111,0 8.5554,-2.0331 11.25,-5.2337 2.9081,2.3145 6.5922,3.7064 10.598,3.7064 0.69624,0 1.3744,-0.0492 2.0488,-0.13038 2.6929,3.1033 6.6693,5.0661 11.101,5.0661 7.1755,0 13.133,-5.1549 14.416,-11.957 7.0516,-0.51742 12.609,-6.4128 12.609,-13.596 0,-7.5238 -6.0913,-13.615 -13.615,-13.615 -5.4571,0 -10.155,3.2076 -12.33,7.8412 -3.0446,-4.6246 -8.2788,-7.6736 -14.23,-7.6736 -4.7592,0 -9.0723,1.9558 -12.162,5.1033 -1.681,-7.6372 -8.4901,-13.354 -16.632,-13.354 -4.5811,0 -8.729,1.8068 -11.79,4.7494 -2.7056,-5.8244 -8.5954,-9.8714 -15.44,-9.8714 -5.5415,0 -10.468,2.6624 -13.578,6.761 -1.0436,-0.23526 -2.1261,-0.3725 -3.2408,-0.3725 -0.38677,0 -0.77553,0.0265 -1.1548,0.0558 -2.7943,-5.5847 -8.5657,-9.4244 -15.235,-9.4244 z"
       id="path220"
       inkscape:connector-curvature="0"
       style="fill:#4e8a06" />
    <path
       d="m 385.43,168.44 c -1.6219,-0.46341 -14.644,15.926 -0.60224,32.822 -7.817,-2.1796 -7.8291,-7.2268 -15.959,-3.3123 3.781,-7.2595 4.9196,-12.298 4.8096,-16.058 -0.21839,-7.4687 -5.3636,-9.8915 -4.5085,-14.656 0.77614,-4.3252 0.69707,4.5838 5.7521,5.562 4.2766,0.82758 5.7156,-5.2609 10.508,-4.3575 z"
       id="path222"
       inkscape:connector-curvature="0"
       style="fill:#a56a0f" />
    <path
       d="m 422.36,166.73 c -1.6417,-0.46905 -14.823,16.12 -0.60958,33.222 -7.9122,-2.2062 -7.9244,-7.3149 -16.154,-3.3527 3.8271,-7.348 4.9795,-12.448 4.8682,-16.253 -0.22104,-7.5596 -12.95,-10.992 -8.0685,-10.568 3.9859,0.34633 4.363,3.4205 9.4796,4.4106 4.3287,0.83765 5.6328,-8.3728 10.484,-7.4585 z"
       id="path224"
       inkscape:connector-curvature="0"
       style="fill:#905d0d" />
    <path
       d="m 418.01,122.47 c -8.0886,0 -14.858,5.6438 -16.595,13.205 -5.9024,0.0802 -10.964,3.6523 -13.224,8.7352 -0.0312,-0.0116 -0.0619,-0.0258 -0.0931,-0.0373 -1.8257,-0.66849 -3.791,-1.043 -5.8483,-1.043 -9.4047,0 -17.042,7.6374 -17.042,17.042 0,9.4046 7.6374,17.023 17.042,17.023 0.2939,0 0.58514,-0.004 0.87539,-0.0186 1.6378,-0.083 3.2099,-0.39887 4.6936,-0.91264 2.0441,5.5138 7.3529,9.443 13.578,9.443 4.819,0 9.0844,-2.3568 11.715,-5.9787 3.9946,3.4603 9.2004,5.5503 14.9,5.5503 7.8804,0 14.834,-3.9936 18.923,-10.076 3.0801,3.0708 7.3389,4.9729 12.032,4.9729 7.1155,0 13.192,-4.3628 15.738,-10.561 2.6778,2.8366 6.4821,4.6004 10.691,4.6004 4.5111,0 8.5554,-2.0331 11.25,-5.2337 2.9081,2.3145 6.5922,3.7064 10.598,3.7064 0.69624,0 1.3744,-0.0492 2.0488,-0.13038 2.6929,3.1033 6.6693,5.0661 11.101,5.0661 7.1754,0 13.133,-5.1549 14.416,-11.957 7.0515,-0.51742 12.609,-6.4128 12.609,-13.596 0,-7.5238 -6.0913,-13.615 -13.615,-13.615 -5.4571,0 -10.155,3.2076 -12.33,7.8412 -3.0446,-4.6246 -8.2787,-7.6736 -14.23,-7.6736 -4.7592,0 -9.0723,1.9558 -12.162,5.1033 -1.681,-7.6372 -8.4901,-13.354 -16.632,-13.354 -4.5811,0 -8.729,1.8068 -11.79,4.7494 -2.7056,-5.8244 -8.5954,-9.8714 -15.44,-9.8714 -5.5415,0 -10.468,2.6624 -13.578,6.761 -1.0436,-0.23526 -2.1261,-0.3725 -3.2408,-0.3725 -0.38677,0 -0.77553,0.0265 -1.1548,0.0558 -2.7943,-5.5847 -8.5657,-9.4244 -15.235,-9.4244 z"
       id="path226"
       inkscape:connector-curvature="0"
       style="fill:#4e9a06" />
    <path
       d="m 488.87,172.47 c 0,0 9.4056,33.591 1.0077,36.615 -8.3979,3.024 11.421,-2.6873 20.491,1.6796 0,0 -18.811,-33.591 -13.437,-38.294 5.374,-4.703 -7.3901,0 -8.0619,0 z"
       id="path228"
       inkscape:connector-curvature="0"
       style="fill:#a56a0f" />
    <path
       d="m 446.36,163.75 c -2.3816,-0.68046 -21.504,23.386 -0.88432,48.195 -11.478,-3.2005 -11.496,-10.612 -23.434,-4.8638 5.552,-10.66 7.2238,-18.058 7.0624,-23.579 -0.32067,-10.967 -18.787,-15.946 -11.705,-15.331 5.7823,0.50242 6.3295,4.9621 13.752,6.3985 6.2797,1.2152 8.1716,-12.147 15.209,-10.82 z"
       id="path230"
       inkscape:connector-curvature="0"
       style="fill:#a56a0f" />
    <path
       d="m 473.02,124.47 c -8.0886,0 -14.857,5.6573 -16.594,13.219 -5.9024,0.0802 -10.99,3.6358 -13.25,8.7188 l -0.0937,-0.0312 c -1.8257,-0.66849 -3.7865,-1.0312 -5.8438,-1.0312 -9.4047,0 -17.031,7.6265 -17.031,17.031 0,9.4045 7.6265,17.031 17.031,17.031 0.2939,0 0.58475,-0.0166 0.875,-0.0312 1.6378,-0.083 3.2351,-0.39248 4.7188,-0.90625 2.0441,5.5138 7.3376,9.4375 13.562,9.4375 4.819,0 9.0879,-2.3468 11.719,-5.9688 3.9946,3.4603 9.2065,5.5312 14.906,5.5312 7.8804,0 14.817,-3.9799 18.906,-10.062 3.0801,3.0708 7.3382,4.9688 12.031,4.9688 7.1155,0 13.204,-4.3648 15.75,-10.562 2.6778,2.8366 6.4787,4.5938 10.688,4.5938 4.5111,0 8.5558,-2.0182 11.25,-5.2188 1.81,1.4405 3.9172,2.5124 6.2188,3.125 l -10e-5,-32.906 c -2.9969,0.79603 -5.6749,2.3857 -7.7812,4.5312 -1.681,-7.6372 -8.4828,-13.375 -16.625,-13.375 -4.5811,0 -8.7518,1.8074 -11.812,4.75 -2.7056,-5.8244 -8.5926,-9.875 -15.438,-9.875 -5.5415,0 -10.453,2.6827 -13.562,6.7812 -1.0436,-0.23526 -2.1353,-0.375 -3.25,-0.375 -0.38677,0 -0.77701,0.0332 -1.1562,0.0625 -2.7943,-5.5847 -8.5491,-9.4375 -15.219,-9.4375 z"
       id="path232"
       inkscape:connector-curvature="0"
       style="fill:#4e8a06" />
    <path
       d="m 339.86,158.77 c 0,0 14,50 1.5,54.5 -12.5,4.5 17,-4 30.5,2.5 0,0 -28,-50 -20,-57 8,-7 -11,0 -12,0 z"
       id="path234"
       inkscape:connector-curvature="0"
       style="fill:#c17d11" />
    <path
       d="m 479.86,170.27 c -2.6931,-0.76947 -24.317,26.445 -1,54.5 -12.98,-3.6192 -13,-12 -26.5,-5.5 6.2783,-12.054 8.1688,-20.42 7.9863,-26.663 -0.36262,-12.402 -8.9061,-16.425 -7.4863,-24.337 1.2888,-7.1819 1.1575,7.6112 9.5512,9.2355 7.1012,1.3742 9.4905,-8.7355 17.449,-7.2355 z"
       id="path236"
       inkscape:connector-curvature="0"
       style="fill:#c17d11" />
    <path
       d="m 548.86,162.77 c -2.6931,-0.76947 -24.317,26.445 -1,54.5 -12.98,-3.6192 -13,-12 -26.5,-5.5 6.2783,-12.054 8.1688,-20.42 7.9863,-26.663 -0.3626,-12.402 -21.245,-18.032 -13.236,-17.337 6.5388,0.56814 7.1575,5.6112 15.551,7.2355 7.1012,1.3742 9.2405,-13.736 17.199,-12.236 z"
       id="path238"
       inkscape:connector-curvature="0"
       style="fill:#c17d11" />
    <path
       d="m 505.55,129.34 c -7.6152,0 -13.781,6.166 -13.781,13.781 0,1.2019 0.17981,2.3573 0.46875,3.4688 -4.2778,2.341 -7.1875,6.8734 -7.1875,12.094 0,6.5835 4.6106,12.066 10.781,13.438 1.5957,5.3157 6.5397,9.1875 12.375,9.1875 7.127,0 12.906,-5.7792 12.906,-12.906 0,-1.3809 -0.2235,-2.7235 -0.625,-3.9688 2.5499,-2.3575 4.1563,-5.7222 4.1563,-9.4688 0,-4.3164 -2.1203,-8.126 -5.375,-10.469 0.045,-0.45097 0.062,-0.91217 0.062,-1.375 0,-7.6152 -6.1661,-13.781 -13.781,-13.781 z"
       id="path240"
       style="fill:url(#d)"
       inkscape:connector-curvature="0" />
  </g>
</svg>
