<?xml version="1.0" encoding="UTF-8" standalone="no"?>
<svg
   xmlns:dc="http://purl.org/dc/elements/1.1/"
   xmlns:cc="http://creativecommons.org/ns#"
   xmlns:rdf="http://www.w3.org/1999/02/22-rdf-syntax-ns#"
   xmlns:svg="http://www.w3.org/2000/svg"
   xmlns="http://www.w3.org/2000/svg"
   xmlns:xlink="http://www.w3.org/1999/xlink"
   xmlns:sodipodi="http://sodipodi.sourceforge.net/DTD/sodipodi-0.dtd"
   xmlns:inkscape="http://www.inkscape.org/namespaces/inkscape"
   viewBox="0 0 128 128"
   id="svg2"
   version="1.1"
   inkscape:version="0.91 r13725"
   sodipodi:docname="building_temple.svg">
  <metadata
     id="metadata247">
    <rdf:RDF>
      <cc:Work
         rdf:about="">
        <dc:format>image/svg+xml</dc:format>
        <dc:type
           rdf:resource="http://purl.org/dc/dcmitype/StillImage" />
      </cc:Work>
    </rdf:RDF>
  </metadata>
  <sodipodi:namedview
     pagecolor="#ffffff"
     bordercolor="#666666"
     borderopacity="1"
     objecttolerance="10"
     gridtolerance="10"
     guidetolerance="10"
     inkscape:pageopacity="0"
     inkscape:pageshadow="2"
     inkscape:window-width="960"
     inkscape:window-height="1147"
     id="namedview245"
     showgrid="false"
     inkscape:zoom="1.84375"
     inkscape:cx="46.095777"
     inkscape:cy="64"
     inkscape:window-x="0"
     inkscape:window-y="0"
     inkscape:window-maximized="1"
     inkscape:current-layer="svg2" />
  <defs
     id="defs4">
    <filter
       id="ba">
      <feGaussianBlur
         stdDeviation="1.88179"
         id="feGaussianBlur7" />
    </filter>
    <linearGradient
       id="f">
      <stop
         stop-color="#010051"
         offset="0"
         id="stop10" />
      <stop
         stop-color="#020090"
         offset="1"
         id="stop12" />
    </linearGradient>
    <linearGradient
       id="a">
      <stop
         stop-color="#4a585b"
         offset="0"
         id="stop15" />
      <stop
         stop-color="#5e7074"
         offset="1"
         id="stop17" />
    </linearGradient>
    <linearGradient
       id="c">
      <stop
         stop-color="#b1b1b1"
         offset="0"
         id="stop20" />
      <stop
         stop-color="#e4e4e4"
         offset="1"
         id="stop22" />
    </linearGradient>
    <linearGradient
       id="e">
      <stop
         stop-color="#6a3c1d"
         offset="0"
         id="stop25" />
      <stop
         stop-color="#8f5127"
         offset="1"
         id="stop27" />
    </linearGradient>
    <linearGradient
       id="d">
      <stop
         stop-color="#004300"
         offset="0"
         id="stop30" />
      <stop
         stop-color="#006200"
         offset="1"
         id="stop32" />
    </linearGradient>
    <linearGradient
       id="b">
      <stop
         stop-color="#4f0000"
         offset="0"
         id="stop35" />
      <stop
         stop-color="#610000"
         offset="1"
         id="stop37" />
    </linearGradient>
    <linearGradient
       id="az"
       x1="14.703"
       x2="29.751"
       y1="63.914"
       y2="103.09"
       gradientUnits="userSpaceOnUse"
       xlink:href="#c"
       gradientTransform="translate(-2,0)" />
    <linearGradient
       id="ay"
       x1="89.632"
       x2="92.132"
       y1="76.86"
       y2="75.892"
       gradientUnits="userSpaceOnUse"
       xlink:href="#b"
       gradientTransform="translate(-2,0)" />
    <linearGradient
       id="ax"
       x1="93.445"
       x2="95.257"
       y1="75.86"
       y2="74.298"
       gradientUnits="userSpaceOnUse"
       xlink:href="#d"
       gradientTransform="translate(-2,0)" />
    <linearGradient
       id="aw"
       x1="94.195"
       x2="95.882"
       y1="72.548"
       y2="71.36"
       gradientUnits="userSpaceOnUse"
       xlink:href="#b"
       gradientTransform="translate(-2,0)" />
    <linearGradient
       id="av"
       x1="93.507"
       x2="94.351"
       y1="69.048"
       y2="68.11"
       gradientUnits="userSpaceOnUse"
       xlink:href="#d"
       gradientTransform="translate(-2,0)" />
    <linearGradient
       id="au"
       x1="89.695"
       x2="91.132"
       y1="68.735"
       y2="67.36"
       gradientUnits="userSpaceOnUse"
       xlink:href="#b"
       gradientTransform="translate(-2,0)" />
    <linearGradient
       id="at"
       x1="91.195"
       x2="93.945"
       y1="72.298"
       y2="69.86"
       gradientUnits="userSpaceOnUse"
       xlink:href="#f"
       gradientTransform="translate(-2,0)" />
    <linearGradient
       id="as"
       x1="88.257"
       x2="90.445"
       y1="72.11"
       y2="70.173"
       gradientUnits="userSpaceOnUse"
       xlink:href="#d"
       gradientTransform="translate(-2,0)" />
    <linearGradient
       id="ar"
       x1="120.05"
       x2="126.21"
       y1="71.677"
       y2="59.008"
       gradientUnits="userSpaceOnUse"
       xlink:href="#b"
       gradientTransform="translate(-2,0)" />
    <linearGradient
       id="aq"
       x1="94.368"
       x2="99.504"
       y1="56.269"
       y2="47.423"
       gradientUnits="userSpaceOnUse"
       xlink:href="#b"
       gradientTransform="translate(-2,0)" />
    <linearGradient
       id="ap"
       x1="64.237"
       x2="68.07"
       y1="91.194"
       y2="83.661"
       gradientUnits="userSpaceOnUse"
       xlink:href="#b"
       gradientTransform="translate(-2,0)" />
    <linearGradient
       id="ao"
       x1="48.007"
       x2="54.32"
       y1="82.75"
       y2="91.482"
       gradientUnits="userSpaceOnUse"
       xlink:href="#b"
       gradientTransform="translate(-2,0)" />
    <linearGradient
       id="an"
       x1="21.382"
       x2="22.382"
       y1="68.423"
       y2="71.235"
       gradientUnits="userSpaceOnUse"
       xlink:href="#f"
       gradientTransform="translate(-2,0)" />
    <linearGradient
       id="am"
       x1="18.632"
       x2="19.695"
       y1="69.048"
       y2="70.923"
       gradientUnits="userSpaceOnUse"
       xlink:href="#d"
       gradientTransform="translate(-2,0)" />
    <linearGradient
       id="al"
       x1="20.445"
       x2="21.57"
       y1="72.048"
       y2="74.235"
       gradientUnits="userSpaceOnUse"
       xlink:href="#b"
       gradientTransform="translate(-2,0)" />
    <linearGradient
       id="ak"
       x1="23.007"
       x2="24.195"
       y1="73.173"
       y2="74.673"
       gradientUnits="userSpaceOnUse"
       xlink:href="#d"
       gradientTransform="translate(-2,0)" />
    <linearGradient
       id="aj"
       x1="23.445"
       x2="25.07"
       y1="69.36"
       y2="71.673"
       gradientUnits="userSpaceOnUse"
       xlink:href="#b"
       gradientTransform="translate(-2,0)" />
    <linearGradient
       id="ai"
       x1="21.32"
       x2="24.945"
       y1="65.61"
       y2="67.298"
       gradientUnits="userSpaceOnUse"
       xlink:href="#d"
       gradientTransform="translate(-2,0)" />
    <linearGradient
       id="ah"
       x1="18.132"
       x2="20.007"
       y1="65.485"
       y2="66.235"
       gradientUnits="userSpaceOnUse"
       xlink:href="#b"
       gradientTransform="translate(-2,0)" />
    <linearGradient
       id="ag"
       x1="39.632"
       x2="44.882"
       y1="88.514"
       y2="79.098"
       gradientUnits="userSpaceOnUse"
       xlink:href="#b"
       gradientTransform="translate(-2,0)" />
    <linearGradient
       id="af"
       x1="89.07"
       x2="98.132"
       y1="107.49"
       y2="91.86"
       gradientUnits="userSpaceOnUse"
       xlink:href="#e"
       gradientTransform="translate(-2,0)" />
    <linearGradient
       id="ae"
       x1="97.632"
       x2="86.382"
       y1="89.298"
       y2="109.92"
       gradientUnits="userSpaceOnUse"
       xlink:href="#e"
       gradientTransform="translate(-2,0)" />
    <linearGradient
       id="ad"
       x1="16.632"
       x2="24.07"
       y1="84.173"
       y2="99.298"
       gradientUnits="userSpaceOnUse"
       xlink:href="#e"
       gradientTransform="translate(-2,0)" />
    <linearGradient
       id="ac"
       x1="23.632"
       x2="17.695"
       y1="96.985"
       y2="81.735"
       gradientUnits="userSpaceOnUse"
       xlink:href="#e"
       gradientTransform="translate(-2,0)" />
    <linearGradient
       id="ab"
       x1="115.51"
       x2="122.38"
       y1="47.985"
       y2="39.61"
       gradientUnits="userSpaceOnUse"
       xlink:href="#a"
       gradientTransform="translate(-2,0)" />
    <linearGradient
       id="aa"
       x1="107.57"
       x2="112.07"
       y1="31.36"
       y2="44.548"
       gradientUnits="userSpaceOnUse"
       xlink:href="#a"
       gradientTransform="translate(-2,0)" />
    <linearGradient
       id="z"
       x1="74.445"
       x2="84.132"
       y1="44.798"
       y2="28.11"
       gradientUnits="userSpaceOnUse"
       xlink:href="#a"
       gradientTransform="translate(-2,0)" />
    <linearGradient
       id="y"
       x1="67.945"
       x2="76.32"
       y1="27.61"
       y2="21.048"
       gradientUnits="userSpaceOnUse"
       xlink:href="#a"
       gradientTransform="translate(-2,0)" />
    <linearGradient
       id="x"
       x1="57.007"
       x2="63.632"
       y1="34.048"
       y2="23.985"
       gradientUnits="userSpaceOnUse"
       xlink:href="#a"
       gradientTransform="translate(-2,0)" />
    <linearGradient
       id="w"
       x1="71.007"
       x2="75.07"
       y1="57.298"
       y2="70.548"
       gradientUnits="userSpaceOnUse"
       xlink:href="#a"
       gradientTransform="translate(-2,0)" />
    <linearGradient
       id="v"
       x1="59.695"
       x2="67.445"
       y1="65.673"
       y2="59.11"
       gradientUnits="userSpaceOnUse"
       xlink:href="#a"
       gradientTransform="translate(-2,0)" />
    <linearGradient
       id="u"
       x1="53.257"
       x2="59.945"
       y1="50.36"
       y2="59.423"
       gradientUnits="userSpaceOnUse"
       xlink:href="#a"
       gradientTransform="translate(-2,0)" />
    <linearGradient
       id="t"
       x1="38.695"
       x2="46.757"
       y1="62.735"
       y2="50.173"
       gradientUnits="userSpaceOnUse"
       xlink:href="#a"
       gradientTransform="translate(-2,0)" />
    <linearGradient
       id="s"
       x1="46.32"
       x2="52.195"
       y1="24.642"
       y2="34.704"
       gradientUnits="userSpaceOnUse"
       xlink:href="#a"
       gradientTransform="translate(-2,0)" />
    <linearGradient
       id="r"
       x1="24.632"
       x2="33.82"
       y1="53.329"
       y2="41.892"
       gradientUnits="userSpaceOnUse"
       xlink:href="#a"
       gradientTransform="translate(-2,0)" />
    <linearGradient
       id="q"
       x1="35.257"
       x2="42.132"
       y1="33.079"
       y2="42.079"
       gradientUnits="userSpaceOnUse"
       xlink:href="#a"
       gradientTransform="translate(-2,0)" />
    <linearGradient
       id="p"
       x1="57.168"
       x2="70.141"
       y1="49.643"
       y2="39.611"
       gradientUnits="userSpaceOnUse"
       xlink:href="#c"
       gradientTransform="translate(-2,0)" />
    <linearGradient
       id="o"
       x1="43.589"
       x2="51.114"
       y1="40.476"
       y2="53.449"
       gradientUnits="userSpaceOnUse"
       xlink:href="#c"
       gradientTransform="translate(-2,0)" />
    <linearGradient
       id="n"
       x1="80.692"
       x2="100.58"
       y1="72.995"
       y2="51.805"
       gradientUnits="userSpaceOnUse"
       xlink:href="#c"
       gradientTransform="translate(-2,0)" />
    <linearGradient
       id="m"
       x1="103.7"
       x2="111.05"
       y1="51.546"
       y2="67.719"
       gradientUnits="userSpaceOnUse"
       xlink:href="#c"
       gradientTransform="translate(-2,0)" />
    <linearGradient
       id="l"
       x1="109.75"
       x2="133.19"
       y1="91.849"
       y2="77.232"
       gradientUnits="userSpaceOnUse"
       xlink:href="#c"
       gradientTransform="translate(-2,0)" />
    <linearGradient
       id="k"
       x1="77.838"
       x2="118.57"
       y1="113.9"
       y2="72.822"
       gradientUnits="userSpaceOnUse"
       xlink:href="#c"
       gradientTransform="translate(-2,0)" />
    <linearGradient
       id="j"
       x1="59.07"
       x2="76.714"
       y1="119.83"
       y2="89.124"
       gradientUnits="userSpaceOnUse"
       xlink:href="#c"
       gradientTransform="translate(-2,0)" />
    <linearGradient
       id="i"
       x1="48.519"
       x2="62.962"
       y1="89.038"
       y2="113.25"
       gradientUnits="userSpaceOnUse"
       xlink:href="#c"
       gradientTransform="translate(-2,0)" />
    <linearGradient
       id="h"
       x1="35.2"
       x2="45.838"
       y1="107.46"
       y2="90.595"
       gradientUnits="userSpaceOnUse"
       xlink:href="#c"
       gradientTransform="translate(-2,0)" />
    <linearGradient
       id="g"
       x1="12.8"
       x2="17.341"
       y1="50.768"
       y2="58.119"
       gradientUnits="userSpaceOnUse"
       xlink:href="#c"
       gradientTransform="translate(-2,0)" />
  </defs>
  <path
     d="m 37.976,53.548 c -0.52682,1.208 -1.753,2.8905 -2.5448,4.3058 -1.7028,2.9351 -3.2288,5.908 -4.8614,8.8581 l -14.103,-4.1246 -14.673,12.137 c 7.4828,2.6966 4.3277,0.58806 -0.02603,0.32869 0.71703,1.6809 0.62109,3.452 1.8519,5.076 -1.9258,0.54312 -2.7732,0.57001 -2.0569,1.8236 l 5.0965,16.729 c 7.4925,2.3853 11.988,6.2141 22.561,9.0775 1.1617,0.31462 8.9654,-7.8581 13.404,-7.57 3.4409,0.22338 3.7548,8.9135 4.3922,9.1176 1.0005,0.20438 -8.8233,9.3851 -7.4065,9.0641 1.931,-0.65758 11.473,7.6794 13.404,7.0219 0.81511,2.5759 5.9545,-8.1671 6.7696,-5.5912 4.4595,1.4012 -4.5729,-5.3273 -0.11346,-3.9261 -4.0621,-12.253 -4.004,-12.079 0.08782,0.079 4.223,-0.98417 8.7723,-1.784 12.793,-2.8827 0.39452,-0.86258 3.1453,-0.82979 4.5717,-1.3127 l 8.304,-1.7149 c 1.3956,0.0549 3.6514,-0.73157 5.3786,-1.001 7.0593,-1.4956 13.856,-3.0104 21.03,-4.4511 0.63916,0.72412 1.1005,-6.177 2.5395,-6.26 2.7591,-0.6328 -0.0169,-6.1088 2.7423,-6.7416 -2.8631,-9.1289 2.0575,-7.8794 -0.80562,-17.008 -1.4053,-0.74972 -2.5551,-2.1296 -3.8624,-3.1211 -4.9784,-4.2747 -11.687,-6.6468 -16.665,-10.921 0.32274,1.3345 1.2697,6.3954 0.70723,4.4336 -0.39524,-0.30724 -1.7014,-2.2153 -2.1834,-1.5806 -1.9564,3.9468 -2.5498,5.9541 -4.2781,9.9238 l 3.5399,11.238 c -7.5439,-2.7966 -0.67568,1.1466 -2.033,-2.3688 l -3.1065,-10.353 c -11.697,3.422 -11.364,3.3462 -0.08782,-0.07902 l -16.464,-10.809 c -2.2036,0.36936 -28.375,8.078 -14.537,3.9824 l 14.359,-3.9508 c -0.85259,-0.41758 -3.5203,0.65192 -5.0746,0.80923 -5.1988,0.97748 -9.9772,2.3124 -14.83,3.584 -4.6292,-3.932 -9.0313,-7.9388 -13.82,-11.821 z m 2.8604,10.193 c 2.7524,9.6171 2.6721,9.5838 0,0 z m -10.579,3.5557 c -0.22581,0.49833 -0.52358,0.50329 0,0 z"
     id="path85"
     inkscape:connector-curvature="0"
     style="fill-opacity:0.66667002;fill-rule:evenodd;filter:url(#ba)" />
  <path
     d="m 8.205,92.8 0.25946,-35.114 10.724,-4.1514 13.405,22.227 -0.17297,33.989 -24.216,-16.951 z"
     id="path87"
     style="fill:url(#az);fill-rule:evenodd"
     inkscape:connector-curvature="0" />
  <path
     d="m 10.8,55.438 0.08649,-10.032 8.9946,6.054 -8.7351,4.6703 -0.34595,-0.69189 z"
     id="path89"
     style="fill:url(#g);fill-rule:evenodd"
     inkscape:connector-curvature="0" />
  <path
     d="m 32.335,110.1 0.60541,-34.162 10.897,-4.8432 -0.08649,32.086 -11.416,6.9189 z"
     id="path91"
     style="fill:url(#h);fill-rule:evenodd"
     inkscape:connector-curvature="0" />
  <path
     d="m 43.665,118.49 0.08649,-54.919 11.676,11.07 0.25946,52.151 -12.022,-8.3027 z"
     id="path93"
     style="fill:url(#i);fill-rule:evenodd"
     inkscape:connector-curvature="0" />
  <path
     d="m 55.773,126.96 -0.43243,-53.016 14.184,-6.4 0.17297,53.449 -0.43243,0.51892 -13.492,5.4486 z"
     id="path95"
     style="fill:url(#j);fill-rule:evenodd"
     inkscape:connector-curvature="0" />
  <path
     d="m 69.524,120.56 0.17297,-39.524 19.027,-23.784 22.486,15.654 0.25946,31.568 -41.946,16.086 z"
     id="path97"
     style="fill:url(#k);fill-rule:evenodd"
     inkscape:connector-curvature="0" />
  <path
     d="m 111.47,105.17 -0.51892,-52.67 14.616,-7.3514 -0.17298,54.141 -13.924,5.8811 z"
     id="path99"
     style="fill:url(#l);fill-rule:evenodd"
     inkscape:connector-curvature="0" />
  <path
     d="m 110.78,72.389 -11.157,-7.5243 0.08649,-22.573 11.33,10.205 -0.25946,19.892 z"
     id="path101"
     style="fill:url(#m);fill-rule:evenodd"
     inkscape:connector-curvature="0" />
  <path
     d="m 98.32,63.914 0.25946,-24.216 -20.584,10.897 18.768,12.195 1.5568,1.1243 z"
     id="path103"
     style="fill:url(#n);fill-rule:evenodd"
     inkscape:connector-curvature="0" />
  <path
     d="m 45.222,40.649 -3.4595,0.69189 -0.17297,-8.8216 11.849,9.427 -2.7676,6.4865 -5.4486,-7.7838 z"
     id="path105"
     style="fill:url(#o);fill-rule:evenodd"
     inkscape:connector-curvature="0" />
  <path
     d="m 58.022,39.524 9.5135,-4.8432 0.60541,9.8595 -5.5351,-3.4595 -2.6811,3.027 -1.9027,-4.5838 z"
     id="path107"
     style="fill:url(#p);fill-rule:evenodd"
     inkscape:connector-curvature="0" />
  <path
     d="m 11.007,45.423 18.562,-24 12.938,8.25 -1.0625,1.6875 0.5625,10.062 -8.3125,2.625 -13.812,7.4375 -8.875,-6.0625 z"
     id="path109"
     style="fill:url(#q);fill-rule:evenodd"
     inkscape:connector-curvature="0" />
  <path
     d="m 8.632,57.423 11.375,-6.0625 13.875,-7.25 c 0,0 8.1875,-2.875 8.4375,-2.875 0.25,0 3,-0.625 3,-0.625 l -26.188,12.938 -9.75,4 -0.75,-0.125 z"
     id="path111"
     style="fill:url(#r);fill-rule:evenodd"
     inkscape:connector-curvature="0" />
  <path
     d="M 41.445,31.673 49.3825,13.485 53.82,4.0475 53.945,4.36 53.195,42.11 41.445,31.672 Z"
     id="path113"
     style="fill:url(#s);fill-rule:evenodd"
     inkscape:connector-curvature="0" />
  <path
     d="m 18.945,53.548 26.312,-12.812 5.4375,7.625 -6.75,15.562 -0.125,7.375 -11.188,4.75 -13.688,-22.5 z"
     id="path115"
     style="fill:url(#t);fill-rule:evenodd"
     inkscape:connector-curvature="0" />
  <path
     d="m 43.945,63.735 12.062,-27.875 0.125,0.75 -0.875,38 -11.312,-10.875 z"
     id="path117"
     style="fill:url(#u);fill-rule:evenodd"
     inkscape:connector-curvature="0" />
  <path
     d="m 55.382,74.173 14.25,-6.6875 -13.312,-31.438 -0.1875,0.5 -0.75,37.625 z"
     id="path119"
     style="fill:url(#v);fill-rule:evenodd"
     inkscape:connector-curvature="0" />
  <path
     d="m 59.882,44.298 2.625,-3.375 26.062,16.438 -18.812,23.812 -0.125,-13.875 -9.75,-23 z"
     id="path121"
     style="fill:url(#w);fill-rule:evenodd"
     inkscape:connector-curvature="0" />
  <path
     d="m 53.257,41.923 0.625,-38 c 0,0 0,-0.875 0.375,0 0.375,0.875 13.188,31.188 13.188,31.188 l -9.5625,4.4375 -1.6875,-3.75 c 0,0 -0.0625,-0.75 -0.25,-0.0625 -0.1875,0.6875 -2.625,6.1875 -2.6875,6.1875 z"
     id="path123"
     style="fill:url(#x);fill-rule:evenodd"
     inkscape:connector-curvature="0" />
  <path
     d="m 63.88243,26.98547 9.9375,-4.75 11.5625,-4.5 -0.0625,0.5 -20.5,10.25 -0.875,-1 -0.0625,-0.5 z"
     id="path125"
     style="fill:url(#y);fill-rule:evenodd"
     inkscape:connector-curvature="0" />
  <path
     d="m 64.632,28.61 20.875,-10.438 13,21.375 -20.438,11.188 -9.9375,-6.3125 -0.75,-10 -2.75,-5.8125 z"
     id="path127"
     style="fill:url(#z);fill-rule:evenodd"
     inkscape:connector-curvature="0" />
  <path
     d="m 99.69,42.298 12.062,-28.375 -0.125,16.188 -0.5,22.562 -11.438,-10.375 z"
     id="path129"
     style="fill:url(#aa);fill-rule:evenodd"
     inkscape:connector-curvature="0" />
  <path
     d="m 111.32,52.298 0.3125,-32.5 0.25,-6.1875 13.625,31.875 -14.188,6.8125 z"
     id="path131"
     style="fill:url(#ab);fill-rule:evenodd"
     inkscape:connector-curvature="0" />
  <path
     d="m 12.07,95.298 0.5625,-13.312 6.25,-5.3125 5.25,12.688 -0.3125,14.375 -11.75,-8.4375 z"
     id="path133"
     style="fill:url(#ac);fill-rule:evenodd"
     inkscape:connector-curvature="0" />
  <path
     d="M 13.445,96.485 13.8825,82.61 18.445,78.2975 22.82,89.8595 22.6325,102.7975 13.445,96.485 Z"
     id="path135"
     style="fill:url(#ad);fill-rule:evenodd"
     inkscape:connector-curvature="0" />
  <path
     d="m 83.32,115.55 0,-21.938 6.6875,-12.688 8.5,8.375 -0.3125,20.375 -14.875,5.875 z"
     id="path137"
     style="fill:url(#ae);fill-rule:evenodd"
     inkscape:connector-curvature="0" />
  <path
     d="m 84.507,114.86 0.0625,-20.5 5.875,-11.5 6.9375,6.6875 -0.3125,20.625 -12.562,4.6875 z"
     id="path139"
     style="fill:url(#af);fill-rule:evenodd"
     inkscape:connector-curvature="0" />
  <path
     d="m 37.632,90.235 0.1875,-8.25 2.375,-4.4375 2.6875,2.4375 0,8.25 -5.25,2 z"
     id="path141"
     style="fill:url(#ag);fill-rule:evenodd"
     inkscape:connector-curvature="0" />
  <path
     d="m 18.38243,68.23547 -2.625,-1.1875 0.1875,-1.1875 1.3125,-2.5 2.125,-0.4375 0.0625,3.3125 -0.4375,0.6875 -0.625,1.3125 z"
     id="path143"
     style="fill:url(#ah);fill-rule:evenodd"
     inkscape:connector-curvature="0" />
  <path
     d="m 19.63243,66.42297 -0.3125,-3.5625 1.5,0.5625 2.125,3.125 0.5625,1.75 -2.75,0.0625 -0.375,-1.25 -0.75,-0.6875 z"
     id="path145"
     style="fill:url(#ai);fill-rule:evenodd"
     inkscape:connector-curvature="0" />
  <path
     d="m 20.63243,68.36047 2.8125,-0.25 0.4375,2.125 0.125,2.1875 -0.625,1.8125 -2.5625,-2.8125 0.0625,-1.125 -0.25,-1.9375 z"
     id="path147"
     style="fill:url(#aj);fill-rule:evenodd"
     inkscape:connector-curvature="0" />
  <path
     d="m 20.75743,71.54797 0.5,0.1875 2.1875,2.625 -0.9375,1.1875 -1.125,0.4375 -1.5,0 0,-1.5625 0.1875,-2.0625 0.375,-0.125 0.3125,-0.6875 z"
     id="path149"
     style="fill:url(#ak);fill-rule:evenodd"
     inkscape:connector-curvature="0" />
  <path
     d="m 20.19493,72.29797 -1.5,-1.75 -1.75,1.9375 0.6875,1.4375 0.9375,1.0625 1.0625,0.6875 0.125,-1.9375 0.4375,-1.4375 z"
     id="path151"
     style="fill:url(#al);fill-rule:evenodd"
     inkscape:connector-curvature="0" />
  <path
     d="m 15.695,67.11 0.25,3 0.9375,2.375 2.0625,-2.0625 -0.5,-1.125 -0.0625,-0.875 L 15.695,67.11 Z"
     id="path153"
     style="fill:url(#am);fill-rule:evenodd"
     inkscape:connector-curvature="0" />
  <path
     d="m 18.69493,70.48547 -0.1875,-1.5 -0.0625,-0.9375 0.625,-0.9375 0.5625,-0.5 0.6875,0.5625 0.625,2.125 -0.0625,1.9375 -0.5,1.125 -0.9375,-0.375 -0.75,-1.5 z"
     id="path155"
     style="fill:url(#an);fill-rule:evenodd"
     inkscape:connector-curvature="0" />
  <path
     d="m 46.007,92.548 0.3125,-11.188 3.125,-3.6875 2.875,6.6875 0,11 -6.3125,-2.8125 z"
     id="path157"
     style="fill:url(#ao);fill-rule:evenodd"
     inkscape:connector-curvature="0" />
  <path
     d="m 59.82,95.61 0.125,-11.75 2.75,-6.3125 3.375,3.4375 -0.0625,11.812 -6.1875,2.8125 z"
     id="path159"
     style="fill:url(#ap);fill-rule:evenodd"
     inkscape:connector-curvature="0" />
  <path
     d="m 88.945,57.485 0.3125,-5.875 2.1875,-4.1875 2.875,2.75 -0.125,8.125 -2.75,1 -2.5,-1.8125 z"
     id="path161"
     style="fill:url(#aq);fill-rule:evenodd"
     inkscape:connector-curvature="0" />
  <path
     d="m 115.88,63.485 c 0,0 2.625,-7.375 2.8125,-6.75 0.1875,0.625 3.3125,3.6875 3.3125,3.6875 l 0.0625,11.75 -6.125,2.625 -0.0625,-11.312 z"
     id="path163"
     style="fill:url(#ar);fill-rule:evenodd"
     inkscape:connector-curvature="0" />
  <path
     d="m 86.007,68.298 2.4375,1.9375 -0.4375,1.375 -0.0625,1.8125 c 0,0 -2.0625,2.3125 -2.4375,1.875 -0.375,-0.4375 -0.5,-2.1875 -0.5,-2.1875 l 0.0625,-2.3125 1.25,-2.4375 -0.3125,-0.0625 z"
     id="path165"
     style="fill:url(#as);fill-rule:evenodd"
     inkscape:connector-curvature="0" />
  <path
     d="m 87.75743,72.36047 0.625,-2.25 1.125,-0.6875 1.0625,0 0.8125,0.8125 c 0,0 0.25,1.3125 0.1875,1.5625 -0.0625,0.25 -0.625,2 -0.625,2 l -1.25,0.875 -1,-0.0625 -0.8125,-0.875 -0.125,-1.375 z"
     id="path167"
     style="fill:url(#at);fill-rule:evenodd"
     inkscape:connector-curvature="0" />
  <path
     d="m 88.50743,70.23547 -2.25,-1.8125 0.75,-1.25 1.4375,-1.1875 1.375,-0.6875 0.875,0.375 -0.375,2.25 0.0625,1.4375 -1.25,0.25 -0.625,0.625 z"
     id="path169"
     style="fill:url(#au);fill-rule:evenodd"
     inkscape:connector-curvature="0" />
  <path
     d="m 90.31993,69.36047 0.3125,-3.8125 1.5,0.5625 1.5625,1.375 0.6875,1.8125 -2.8125,1.375 -0.1875,-0.5625 -1.0625,-0.75 z"
     id="path171"
     style="fill:url(#av);fill-rule:evenodd"
     inkscape:connector-curvature="0" />
  <path
     d="m 93.81993,74.29797 -2.5,-1.1875 0.1875,-1.3125 0.125,-0.875 2.5,-1.5625 0.25,1.375 -0.0625,1.75 -0.5,1.8125 z"
     id="path173"
     style="fill:url(#aw);fill-rule:evenodd"
     inkscape:connector-curvature="0" />
  <path
     d="m 90.257,78.235 -0.8125,-3.3125 1.125,-0.5625 0.875,-1.375 2.4375,1.375 -1.1875,2.1875 -2.4375,1.6875 z"
     id="path175"
     style="fill:url(#ax);fill-rule:evenodd"
     inkscape:connector-curvature="0" />
  <path
     d="m 88.56993,74.54797 -0.75,-1 -2.4375,1.625 0.8125,1.5625 1.5625,1.4375 2.375,0.0625 -0.75,-3.4375 -0.8125,-0.25 z"
     id="path177"
     style="fill:url(#ay);fill-rule:evenodd"
     inkscape:connector-curvature="0" />
  <path
     d="m 8.205,92.8 0.25946,-35.114 10.724,-4.1514 13.405,22.227 -0.17297,33.989 -24.216,-16.951 z"
     id="path179"
     inkscape:connector-curvature="0"
     style="fill-opacity:0.15685999;fill-rule:evenodd" />
  <path
     d="m 10.8,55.438 0.08649,-10.032 8.9946,6.054 -8.7351,4.6703 -0.34595,-0.69189 z"
     id="path181"
     inkscape:connector-curvature="0"
     style="fill-opacity:0.15685999;fill-rule:evenodd" />
  <path
     d="m 43.665,118.49 0.08649,-54.919 11.676,11.07 0.25946,52.151 -12.022,-8.3027 z"
     id="path183"
     inkscape:connector-curvature="0"
     style="fill-opacity:0.15685999;fill-rule:evenodd" />
  <path
     d="m 110.78,72.389 -11.157,-7.5243 0.08649,-22.573 11.33,10.205 -0.25946,19.892 z"
     id="path185"
     inkscape:connector-curvature="0"
     style="fill-opacity:0.15685999;fill-rule:evenodd" />
  <path
     d="m 45.222,40.649 -3.4595,0.69189 -0.17297,-8.8216 11.849,9.427 -2.7676,6.4865 -5.4486,-7.7838 z"
     id="path187"
     inkscape:connector-curvature="0"
     style="fill-opacity:0.15685999;fill-rule:evenodd" />
  <path
     d="m 11.007,45.423 18.562,-24 12.938,8.25 -1.0625,1.6875 0.5625,10.062 -8.3125,2.625 -13.812,7.4375 -8.875,-6.0625 z"
     id="path189"
     inkscape:connector-curvature="0"
     style="fill-opacity:0.15685999;fill-rule:evenodd" />
  <path
     d="M 41.445,31.673 49.3825,13.485 53.82,4.0475 53.945,4.36 53.195,42.11 41.445,31.672 Z"
     id="path191"
     inkscape:connector-curvature="0"
     style="fill-opacity:0.15685999;fill-rule:evenodd" />
  <path
     d="m 43.945,63.735 12.062,-27.875 0.125,0.75 -0.875,38 -11.312,-10.875 z"
     id="path193"
     inkscape:connector-curvature="0"
     style="fill-opacity:0.15685999;fill-rule:evenodd" />
  <path
     d="m 59.882,44.298 2.625,-3.375 26.062,16.438 -18.812,23.812 -0.125,-13.875 -9.75,-23 z"
     id="path195"
     inkscape:connector-curvature="0"
     style="fill-opacity:0.15685999;fill-rule:evenodd" />
  <path
     d="m 99.69,42.298 12.062,-28.375 -0.125,16.188 -0.5,22.562 -11.438,-10.375 z"
     id="path197"
     inkscape:connector-curvature="0"
     style="fill-opacity:0.15685999;fill-rule:evenodd" />
  <path
     d="m 54.00743,0.86047 -0.3125,0.0625 -0.3125,3.1875 -11.09375,25 -12.84375,-7.90625 -18.84375,24.1875 -0.0625,10.59375 -2.3125,1.46875 -0.21875,35.40625 24.15625,17.53125 11.375,-6.90625 0.03125,15.25 12.34375,8.8125 13.65625,-5.90625 0.21875,-0.75 41.4375,-16.03125 0.21875,0.65625 14.21875,-6.09375 0,-54.375 -13.34375,-31 -0.375,-3.25 -0.3125,0.0625 -0.3125,3.1875 c -4.01292,9.04445 -8.25038,18.54863 -11.84375,28 l 0.03125,22.1875 -0.84375,-0.53125 0.15625,-24.625 -13.375,-21.46875 -11.34375,4.25 -9.6875,4.78125 -10.0625,-22.71875 -0.34375,-3.0625 z m 0,3.25 0.0625,0 12.6875,30.46875 -8.8125,4.625 -1.3125,-2.96875 -0.375,-3.25 -0.3125,0.0625 -0.3125,3.1875 -2.125,4.9375 0.5,-37.0625 z m -0.25,0.03125 -0.8125,37.25 -11.125,-9.4375 11.9375,-27.8125 z m -2.21875,6.46875 -2.625,6.875 0.375,0.1875 2.5625,-6.9375 -0.3125,-0.125 z m 3.75,0.3125 -0.375,0.03125 5.21875,13.875 -2.0625,0.59375 -0.78125,-2.90625 -0.28125,0.0625 0.78125,2.90625 -2.5,0.71875 -0.125,-9.21875 -0.3125,0.0625 0.21875,9.21875 -0.375,0.125 0.03125,0.40625 0.375,-0.09375 0.0625,3 0.1875,0 -0.03125,-3.0625 2.59375,-0.78125 2.46875,9.0625 -2.46875,0.90625 0.125,0.34375 2.40625,-0.96875 0.28125,1 0.28125,-0.125 -0.28125,-0.96875 1.71875,-0.6875 0,-0.25 -1.78125,0.65625 -2.46875,-9.03125 2.0625,-0.625 3.3125,8.78125 0.25,0.03125 -3.28125,-8.875 1.21875,-0.375 -0.34375,-0.28125 -1,0.28125 -5.125,-13.8125 z m 56.6875,3.625 13,30.65625 -13.40625,6.59375 0.40625,-37.25 z m -0.375,0.21875 -0.6875,37.0625 -10.8125,-9.875 11.5,-27.1875 z m -59.84375,2.1875 -0.5,4.28125 -3.375,-1.3125 -0.25,0.0625 3.59375,1.59375 -0.40625,3.375 0.4375,0 0.3125,-3.21875 0.8125,0.375 -0.125,-0.5 -0.65625,-0.25 0.40625,-4.40625 -0.25,0 z m 33.4375,1 -20.125,10.0625 -0.78125,-0.65625 9.75,-4.96875 11.15625,-4.4375 z m 0.125,0.5625 12.625,21.03125 -19.875,10.875 -9.46875,-5.90625 -0.9375,-10.3125 -2.375,-5.4375 20.03125,-10.25 z m 28.15625,0.125 -0.125,0.125 5.3125,16.375 0.1875,0 -5.375,-16.5 z m -2.96875,0.5 -0.84375,22.71875 -2.03125,-1.71875 c 0.26101,-0.9245 0.51141,-1.85928 0.78125,-2.78125 l -0.125,0 c -0.27421,0.90867 -0.55802,1.76872 -0.84375,2.625 l -2.9375,-2.53125 4.03125,-9.90625 -0.25,-0.0625 -4,9.78125 -0.84375,-0.71875 -0.125,0.375 0.84375,0.6875 -1,2.4375 0.25,0.125 0.96875,-2.375 2.96875,2.4375 c -0.40056,1.20154 -0.78653,2.39747 -1.125,3.6875 l 0.3125,0.1875 c 0.32016,-1.24584 0.65201,-2.48064 1,-3.71875 l 2.09375,1.75 -0.125,3.5625 0.375,0.0625 0.125,-3.34375 0.4375,0.375 0.0625,-0.1875 -0.5,-0.4375 0.75,-23.03125 -0.25,0 z m -81,2.5 12.375,8.40625 -0.9375,1.5 0.5,9.78125 -7.625,2.625 -0.03125,0.03125 -0.03125,0 -13.875,6.9375 -8.34375,-5.5 17.96875,-23.78125 z m 53.25,0.09375 -0.3125,0.0625 5.28125,8.03125 -5.1875,2.65625 0.25,0.25 5.125,-2.59375 3.5625,5.40625 -10.6875,5.03125 -5.375,-9.75 c 2.26317,-0.92348 4.52324,-1.87745 6.78125,-2.8125 l 0,-0.125 c -2.33513,0.8556 -4.70246,1.64449 -7.03125,2.5 l -0.15625,-0.3125 -0.4375,0.125 0.1875,0.3125 c -2.04275,0.7611 -4.04489,1.59921 -5.96875,2.625 l 0.125,0.25 c 2.04346,-0.77771 4.06834,-1.58202 6.09375,-2.40625 l 5.46875,9.75 -7.40625,3.46875 0.375,0.125 7.15625,-3.375 1.40625,2.5 0.25,-0.1875 -1.34375,-2.4375 10.71875,-5.03125 0.875,1.3125 0.1875,-0.1875 -0.8125,-1.25 0.875,-0.40625 -0.125,-0.25 -0.90625,0.4375 -3.5625,-5.4375 1.9375,-0.96875 -0.1875,-0.3125 -1.9375,0.96875 -5.21875,-7.96875 z m -35.28125,2.125 -2.4375,6.0625 -1.1875,-0.9375 -0.1875,0.0625 1.3125,1.09375 -0.625,1.53125 0.125,0.1875 0.65625,-1.59375 4.90625,4.09375 -0.78125,3.125 0.1875,0.1875 0.78125,-3.15625 1.375,1.15625 0.25,-0.375 -1.53125,-1.1875 0.8125,-3.25 -0.25,0.0625 -0.75,3.03125 -4.9375,-3.90625 2.53125,-6.1875 -0.25,0 z m 65.28125,0.3125 c 0.11744,4.8335 -0.0666,9.72928 0.0625,14.5625 l 0.5,0.125 c -0.13106,-4.83317 -0.0676,-9.85404 -0.1875,-14.6875 l -0.375,0 z m -82.78125,1.21875 c -0.81447,1.16436 -1.64561,2.32705 -2.46875,3.5 l -0.78125,-0.5 -0.25,0.0625 0.9375,0.59375 c -3.74895,5.3403 -7.59306,10.71558 -11.59375,15.65625 l 0.3125,0.25 c 4.38967,-4.99786 7.83306,-10.30285 11.5,-15.71875 l 8.59375,5.59375 -3.875,5.03125 0.375,0.0625 3.78125,-4.90625 2.28125,1.5 0.25,-0.25 -2.34375,-1.5 2.21875,-2.84375 -0.1875,-0.3125 -2.3125,2.96875 -8.65625,-5.53125 c 0.76933,-1.13517 1.54199,-2.2621 2.34375,-3.40625 l -0.125,-0.25 z m 12.03125,7.53125 10.8125,9.6875 -2.34375,5.25 -5.15625,-7.46875 -2.90625,0.625 -0.40625,-8.09375 z m 25.25,2.5625 0.4375,8.46875 -5.21875,-3.25 -2.59375,2.84375 -1.6875,-3.8125 9.0625,-4.25 z m -37.75,0.59375 c -0.86594,1.05599 -1.75097,2.09711 -2.65625,3.125 l -1.40625,-1.0625 -0.375,0.0625 1.59375,1.1875 c -2.11093,2.39314 -4.25524,4.76838 -6.125,7.34375 l 0.1875,0.0625 c 1.86345,-2.37597 3.99289,-4.83043 6.125,-7.25 l 4.21875,3.15625 0.125,-0.1875 -4.15625,-3.15625 c 0.89343,-1.0133 1.80005,-2.05286 2.65625,-3.03125 l -0.1875,-0.25 z m 26.46875,0.15625 -0.84375,37.6875 -10.8125,-9.84375 11.65625,-27.84375 z m 0.375,0.21875 12.84375,30.875 -13.0625,6.125 0.21875,-37 z m 62.46875,2.625 -0.25,0.25 2.3125,4.40625 -7.6875,3.78125 0.125,-4.84375 -0.3125,0 -0.0937,4.96875 -0.3125,0.15625 -0.125,0.3125 0.4375,-0.21875 -0.0312,1.28125 0.25,0.0625 0.0312,-1.46875 7.875,-3.71875 0.78125,1.46875 0.25,-0.3125 -0.6875,-1.3125 0.84375,-0.40625 -0.1875,-0.3125 -0.84375,0.40625 -2.375,-4.5 z m -20.53125,1.375 -0.15625,22.90625 -6.125,-4.09375 c 0.7398,-0.30646 1.49997,-0.56477 2.25,-0.84375 l 0,-0.03125 0.0625,0 0.03125,-8.59375 -3.03125,-2.6875 -2.40625,4.6875 -0.375,5.40625 -9.9375,-6.34375 19.6875,-10.40625 z m -53.84375,0.40625 -25.6875,12.46875 -9.21875,3.90625 24.53125,-13 1.53125,-0.5 c -1.13109,0.55569 -2.21479,1.1176 -3.28125,1.6875 l -0.625,0.125 -0.125,0.1875 0.25,-0.03125 c -3.6637,1.97521 -7.09333,3.98978 -11.03125,5.875 l 0.375,0.3125 c 4.23498,-2.00276 7.76441,-4.18545 11.65625,-6.34375 l 2.625,-0.375 0.4375,-0.375 -2.46875,0.4375 c 0.84141,-0.46148 1.67047,-0.91726 2.5625,-1.375 l -0.21875,-0.15625 8.6875,-2.84375 z m 0.6875,0.21875 5.03125,7.5 -6.59375,14.8125 -0.125,7.25 -10.21875,5 -13.75,-21.96875 25.65625,-12.59375 z m 17.28125,0.25 25.875,16.15625 -18.40625,22.6875 0,-13 -9.59375,-22.59375 2.125,-3.25 z m 37.625,1.65625 10.53125,9.4375 0.125,19.34375 -10.375,-6.96875 -0.28125,-21.8125 z m -46.625,1.125 -1.8125,4.40625 -0.25,-0.09375 -0.1875,0.1875 0.34375,0.15625 -3.8125,9.1875 -0.28125,-0.21875 -0.1875,0.1875 0.375,0.28125 -1.5625,3.78125 0.375,0.3125 1.53125,-3.84375 1.65625,1.21875 -0.6875,1.8125 0.4375,0.375 0.6875,-1.875 2.65625,1.96875 -0.75,5.90625 0.4375,0.125 0.6875,-5.78125 1.21875,0.90625 -0.0625,-0.3125 -1.125,-0.84375 1.03125,-8.84375 -0.3125,0.125 -1.09375,8.4375 -2.59375,-1.9375 1.09375,-3 -0.4375,-0.25 -1.09375,2.9375 -1.625,-1.21875 3.75,-9.28125 1.21875,0.5625 0.1875,-0.3125 -1.3125,-0.53125 1.75,-4.34375 -0.25,-0.1875 z m -10.1875,0.09375 -0.25,0.125 1.9375,3 -9.9375,4.625 -1.15625,-2.25 -0.375,0.3125 1.125,2.125 -3.65625,1.6875 0.3125,0.1875 3.5,-1.625 2.9375,5.46875 c -1.45292,0.66555 -2.9435,1.26501 -4.53125,1.6875 l -0.625,0.375 c 1.80236,-0.51064 3.53316,-1.16257 5.25,-1.875 l 2.9375,5.46875 0.25,-0.0625 -2.875,-5.53125 c 2.85672,-1.2028 5.64266,-2.5939 8.40625,-3.9375 l -0.1875,-0.3125 c -2.89555,1.20084 -5.53621,2.7658 -8.3125,4.0625 l -2.875,-5.53125 9.96875,-4.65625 2.03125,3.15625 0.3125,-0.3125 -2.03125,-3 1.59375,-0.75 -0.1875,-0.1875 -1.5625,0.71875 -2,-2.96875 z m 15.40625,0.46875 -0.1875,0.25 c 1.29232,6.92629 4.48109,13.22242 7.125,19.71875 l -6.03125,2.40625 -1.46875,-8.21875 -0.3125,-0.0625 1.5,8.40625 -1.1875,0.46875 0,0.25 1.21875,-0.5 0.34375,1.875 0.3125,0 -0.34375,-1.96875 6.0625,-2.40625 c 0.20741,0.51288 0.42606,1.0152 0.625,1.53125 l 0.1875,-0.0625 -0.59375,-1.53125 1.0625,-0.4375 0,-0.3125 -1.1875,0.46875 c -2.54122,-6.56618 -5.09237,-13.12995 -7.125,-19.875 z m 4,0.5625 -0.1875,0.3125 c 0.9301,0.55806 7.42496,4.66606 11.75,7.40625 l -2.53125,3.4375 C 71.0673,56.04766 70.08893,55.47519 69.88243,55.36047 l -0.25,0.1875 c 0.19478,0.10821 1.2482,0.70309 1.875,1.0625 l -1.65625,2.28125 0.25,0.1875 1.625,-2.3125 c 1.96811,1.12955 3.58388,2.03134 5.53125,3.15625 l -5.375,6.1875 0.375,0.0625 5.21875,-6.09375 c 0.81632,0.47159 2.46875,1.40625 2.46875,1.40625 l 0.0625,-0.25 -2.375,-1.375 2.625,-3.0625 -0.125,-0.1875 -2.71875,3.125 -5.53125,-3.21875 2.4375,-3.5 c 1.60626,1.0177 4.0625,2.59375 4.0625,2.59375 l 0.1875,-0.1875 -4.09375,-2.625 0.8125,-1.15625 -0.0625,-0.125 -0.875,1.21875 c -4.3436,-2.78757 -10.84881,-6.97804 -11.71875,-7.5 z m -51.28125,0.46875 7.5625,5.71875 -7.4375,4.03125 -0.125,-9.75 z m 113.75,0.0625 -0.125,53.15625 -13.15625,5.5625 -0.5,-51.75 13.78125,-6.96875 z m -33.5,1.9375 2.25,2.53125 0.125,7.6875 c -0.36132,0.13142 -1.64786,0.57627 -2.5625,0.9375 l -2.25,-1.46875 0.375,-5.34375 2.0625,-4.34375 z m -72.65625,6.21875 13.15625,21.8125 0,33.40625 -7.96875,-5.8125 0.09375,-14.3125 -5.25,-12.71875 -6.5625,5.5625 -0.46875,13.0625 -3.46875,-2.15625 0.25,-34.71875 10.21875,-4.125 z m 5.25,0.0625 -0.25,0.0625 8.1875,13.46875 -0.8125,0.25 -0.0625,0.28125 c 0.34639,-0.09456 0.68713,-0.21026 1.03125,-0.3125 l 2.15625,3.5625 0.25,-0.0625 -2.1875,-3.5625 c 2.58533,-0.78015 5.11663,-1.73968 7.65625,-2.65625 l -0.125,-0.25 c -2.4983,0.85156 -5.09872,1.86399 -7.65625,2.65625 l -8.1875,-13.4375 z m 94.40625,2.40625 -2.9375,6.59375 -0.0312,12.28125 6.625,-2.96875 0,-12.1875 -3.65625,-3.71875 z m 0.1875,1 2.9375,3.1875 0,11.3125 c -1.56271,0.6798 -3.85431,1.63919 -5.40625,2.34375 l -0.1875,-10.84375 2.65625,-6 z m -30.125,0.34375 22.03125,15.21875 0.28125,30.875 -12.5,5.21875 0,-20.03125 -8.46875,-8.34375 -6.96875,12.8125 -0.0625,21.5625 -13.09375,5.1875 0,-38.9375 18.78125,-23.5625 z m -70.3125,4.65625 c -1.9659,0.22931 -2.68954,2.86378 -2.875,4.9375 0,3.6645 1.91641,7.61198 4.34375,8.75 2.42734,1.13802 4.375,-1.023 4.375,-4.6875 0,-3.6645 -1.94766,-7.61198 -4.375,-8.75 -0.38724,-0.14643 -0.73724,-0.23421 -1.0625,-0.25 -0.1423,-0.0069 -0.27519,-0.01529 -0.40625,0 z m 0.625,0.75 0.125,0 0.125,3.3125 c -0.58723,0.43517 -0.89829,0.97659 -0.96875,1.625 l -2.21875,-1.21875 c 0.17913,-1.8715 1.21986,-3.61869 2.9375,-3.71875 z m 0.53125,0.0625 c 0.09874,0.01393 0.20988,0.0071 0.3125,0.03125 1.29647,0.60783 2.59873,2.64276 3.3125,4.84375 l -2.09375,0.0625 c -0.02966,-0.6537 -0.27407,-1.24016 -1.21875,-1.78125 l -0.3125,-3.15625 z m 24.65625,1.34375 10.65625,10.5625 0.5,51.21875 -11.25,-8 0.09375,-53.78125 z m 45.5625,0.59375 c -2.78576,0.54356 -4.96875,4.01095 -4.96875,7.65625 0,3.6453 2.18299,6.23106 4.96875,5.6875 2.78576,-0.54356 4.96875,-4.01095 4.96875,-7.65625 -0.08053,-3.46089 -1.65864,-5.43391 -4.96875,-5.6875 z m -0.0625,0.5 c 0.21577,-0.0096 0.39536,-0.02209 0.59375,0 -0.01812,1.06931 -0.23283,2.43145 -0.21875,3.46875 -0.07593,-0.01855 -0.13719,-0.04511 -0.21875,-0.0625 -0.77989,0.18499 -1.1662,0.4302 -1.4375,0.78125 l -1.8125,-1.625 c 0.83241,-1.34308 1.95154,-2.33963 3.09375,-2.5625 z m 1.15625,0.125 c 1.54339,0.4198 2.46695,1.82872 2.96875,3.40625 l -2,1.125 c -0.1635,-0.51713 -0.59295,-0.82564 -1.28125,-1.0625 0.01,-1.02446 0.28357,-2.42006 0.3125,-3.46875 z m -71.25,1 c 0.90049,0.98551 0.95313,2.26733 1.0625,3.53125 0.11589,0.72947 -0.26473,1.33551 -0.5,1.9375 -0.61764,-0.68599 -0.99289,-1.7629 -1.34375,-2.65625 -0.2545,-1.02542 0.02009,-1.90179 0.78125,-2.8125 z m -3.5625,0.5625 2.25,1.28125 c 0.01092,0.3662 0.04663,0.76995 0.125,1.1875 0.04174,0.22236 0.08007,0.4141 0.125,0.625 l -1.5,1.5 c -0.59249,-1.42057 -1,-3.00963 -1,-4.40625 -4.4e-4,-0.06183 -0.0014,-0.12566 0,-0.1875 z m 52.96875,0.78125 0.46875,53.0625 -13.375,5.5 -0.40625,-52.1875 13.3125,-6.375 z m -45.71875,0.34375 c 0.26508,0.9208 0.4375,1.87366 0.4375,2.75 0,0.94517 -0.19571,1.77998 -0.5,2.5 l -2.15625,-2.375 c 0.01197,-0.31119 0.0016,-0.66507 0.03125,-1.09375 -0.10056,-0.62304 -0.01978,-1.17281 0,-1.6875 l 2.1875,-0.09375 z m 63,0.3125 1.8125,1.53125 c -0.14418,0.32097 -0.26652,0.74211 -0.46875,1.21875 -0.13811,0.67497 -0.19212,1.30624 -0.0625,1.875 l -1.96875,1.1875 c -0.19659,-0.62088 -0.34375,-1.27371 -0.34375,-1.96875 0,-1.31862 0.41619,-2.67164 1.03125,-3.84375 z m 3.5625,0.78125 c 1.48004,0.19298 1.48717,1.19048 1.46875,2.46875 -0.24902,1.39844 -0.91736,2.06473 -2.09375,2.625 -1.03456,-0.7058 -1.29152,-1.88076 -1.0625,-3 0.18954,-1.15586 0.8198,-1.57856 1.6875,-2.09375 z m 4.09375,0.09375 c 0.11956,0.45938 0.22885,0.92098 0.28125,1.375 0,0.97025 -0.22975,1.9497 -0.59375,2.875 l -2.0625,-1.09375 c 0.07344,-0.20189 0.13463,-0.4007 0.21875,-0.625 0.08258,-0.51847 0.14507,-0.94897 0.125,-1.3125 l 2.03125,-1.21875 z m -75.25,1.34375 c 0.19468,0.67693 0.45933,1.21797 1.0625,1.5 l -0.375,2.84375 c -0.76624,-0.57054 -1.47753,-1.58389 -2.0625,-2.8125 l 1.375,-1.53125 z m 24.78125,0.71875 0.09375,30.625 -10.8125,7.125 0.375,-33.21875 10.34375,-4.53125 z m -22.46875,0.0625 2,2.46875 c -0.69212,1.23145 -1.79844,1.86866 -2.90625,1.5 l 0.25,-3.15625 c 0.39445,-0.23844 0.57698,-0.51958 0.65625,-0.8125 z m 70.375,1.46875 2.0625,1.1875 c -0.69204,1.48421 -1.7755,2.7188 -2.90625,3.28125 l -0.84375,-2.6875 c 0.98609,-0.26022 1.33468,-0.87456 1.6875,-1.78125 z m -3.625,0.625 c 0.22318,0.4663 0.58543,0.91036 1.21875,1.28125 0.13562,-0.01135 0.2555,-0.04269 0.375,-0.0625 l 0.53125,2.875 -0.125,0.03125 c -1.5343,0.29938 -3.06,-0.90797 -3.875,-2.6875 l 1.875,-1.4375 z m -25.125,3.15625 -2.9375,6.625 -0.03125,12.28125 c 2.21227,-0.98986 4.41264,-2.01084 6.625,-3 l 0,-12.1875 -3.65625,-3.71875 z m -22.625,0.0625 -2.40625,4.6875 -0.0625,8.6875 c 1.80519,-0.67633 3.59618,-1.39825 5.40625,-2.0625 l 0,-0.03125 0.0625,0 0.03125,-8.59375 -3.03125,-2.6875 z m -21.21875,0.09375 4.90625,11.96875 -0.09375,13.78125 -0.5625,-0.40625 0,-13.03125 -4.4375,-11.59375 -4.96875,4.59375 -0.34375,13.25 -0.84375,-0.53125 0.5,-12.78125 5.84375,-5.25 z m 30.71875,0.21875 -3.4375,3.9375 -0.125,11.4375 6.59375,2.9375 0.03125,-11.53125 -3.0625,-6.78125 z m -9.21875,0.28125 2.3125,2.59375 0.125,7.8125 c -0.5461,0.19862 -3.19055,1.21663 -4.875,1.875 l 0.3125,-7.875 2.125,-4.40625 z m 9.25,0.25 2.5,6.375 0.03125,10.625 -5.8125,-2.5 0.25,-10.96875 3.03125,-3.53125 z m 13.28125,0.15625 2.90625,2.9375 0,11.46875 c -1.56271,0.67979 -3.97931,1.98294 -5.53125,2.6875 l -0.03125,-11.3125 2.65625,-5.78125 z m -44.75,0.8125 -0.375,20.03125 -3.84375,-2.71875 0.34375,-13.5 3.875,-3.8125 z m 0.375,0.1875 3.9375,10.625 -0.0625,12.5 -3.96875,-2.8125 0.09375,-20.3125 z m 71.65625,2.375 7.9375,7.75 -0.09375,20.0625 -0.46875,0.21875 0,-20.46875 -7.15625,-6.53125 -6.03125,11.71875 -0.0625,20.375 -0.75,0.28125 0.09375,-21.21875 6.53125,-12.1875 z m 0.375,1.75 6.40625,6.21875 -0.0625,20.3125 -6.1875,2.375 -0.15625,-28.90625 z m -0.28125,0.5625 0.0625,28.5 -5.53125,2.125 0.21875,-19.875 5.25,-10.75 z"
     id="path199"
     inkscape:connector-curvature="0"
     style="fill-rule:evenodd" />
  <path
     d="m 14.945,83.829 -0.28125,-0.0625 2.5938,3.375 0.09375,-0.34375 -2.4062,-2.9688 z"
     id="path201"
     inkscape:connector-curvature="0"
     style="fill-rule:evenodd" />
  <path
     d="m 14.695,86.767 -0.15625,0.1875 2.2188,3.9375 0.46875,-0.0625 -2.5312,-4.0625 z"
     id="path203"
     inkscape:connector-curvature="0"
     style="fill-rule:evenodd" />
  <path
     d="m 14.414,90.11 -0.21875,0.09375 2.9688,4.4062 0.21875,-0.1875 -2.9688,-4.3125 z"
     id="path205"
     inkscape:connector-curvature="0"
     style="fill-rule:evenodd" />
  <path
     d="m 14.507,94.392 -0.15625,0.21875 2.4688,2.875 0.15625,-0.09375 -2.4688,-3 z"
     id="path207"
     inkscape:connector-curvature="0"
     style="fill-rule:evenodd" />
  <path
     d="m 15.945,81.454 -0.09375,0.03125 1.375,2.25 0.1875,-0.15625 -1.4688,-2.125 z"
     id="path209"
     inkscape:connector-curvature="0"
     style="fill-rule:evenodd" />
  <path
     d="m 18.63243,84.04797 0.0625,0.1875 1.40625,-0.8125 -0.4375,-0.125 -1.03125,0.75 z"
     id="path211"
     inkscape:connector-curvature="0"
     style="fill-rule:evenodd" />
  <path
     d="m 20.601,86.36 -1.8438,0.78125 0,0.28125 2,-0.84375 L 20.60095,86.36 Z"
     id="path213"
     inkscape:connector-curvature="0"
     style="fill-rule:evenodd" />
  <path
     d="m 21.75743,90.14172 -2.9375,0.6875 0.15625,0.34375 2.84375,-0.6875 -0.0625,-0.34375 z"
     id="path215"
     inkscape:connector-curvature="0"
     style="fill-rule:evenodd" />
  <path
     d="m 21.56993,93.48547 -2.875,0.90625 0.15625,0.25 2.9375,-0.90625 -0.21875,-0.25 z"
     id="path217"
     inkscape:connector-curvature="0"
     style="fill-rule:evenodd" />
  <path
     d="m 21.851,97.392 -3.125,1.2188 0,0.25 3.1875,-1.1875 -0.0625,-0.28125 z"
     id="path219"
     inkscape:connector-curvature="0"
     style="fill-rule:evenodd" />
  <path
     d="m 96.38243,89.98547 -4.875,4.8125 0.28125,0.15625 4.6875,-4.6875 -0.09375,-0.28125 z"
     id="path221"
     inkscape:connector-curvature="0"
     style="fill-rule:evenodd" />
  <path
     d="m 96.132,93.923 -4.7812,4.7812 0.34375,0.25 4.5938,-4.8438 -0.15625,-0.1875 z"
     id="path223"
     inkscape:connector-curvature="0"
     style="fill-rule:evenodd" />
  <path
     d="m 96.414,101.02 -5.0312,5.8438 0.28125,0.28125 4.8125,-5.8438 -0.0625,-0.28125 z"
     id="path225"
     inkscape:connector-curvature="0"
     style="fill-rule:evenodd" />
  <path
     d="m 95.945,106.92 c -1.5666,0.91442 -2.49,2.4798 -3.625,3.875 l 0.3125,0.1875 c 0.93108,-1.3374 2.2879,-2.9999 3.5312,-4.0312 l -0.21875,-0.0312 z"
     id="path227"
     inkscape:connector-curvature="0"
     style="fill-rule:evenodd" />
  <path
     d="m 93.476,86.735 -2.4062,2.6562 0.28125,0.1875 2.2812,-2.7188 -0.15625,-0.125 z"
     id="path229"
     inkscape:connector-curvature="0"
     style="fill-rule:evenodd" />
  <path
     d="m 88.03868,89.11047 -0.28125,0.03125 2.0625,0.875 0.09375,-0.125 -1.875,-0.78125 z"
     id="path231"
     inkscape:connector-curvature="0"
     style="fill-rule:evenodd" />
  <path
     d="m 86.101,93.298 -0.0625,0.3125 3.6562,1.2188 0.1875,-0.3125 -3.7812,-1.2188 z"
     id="path233"
     inkscape:connector-curvature="0"
     style="fill-rule:evenodd" />
  <path
     d="m 85.601,97.579 -0.0625,0.3125 4.1875,1.0938 0.125,-0.34375 -4.25,-1.0625 z"
     id="path235"
     inkscape:connector-curvature="0"
     style="fill-rule:evenodd" />
  <path
     d="m 85.57,106.74 -0.25,0.15625 3.7812,1 0.25,-0.34375 L 85.57,106.74 Z"
     id="path237"
     inkscape:connector-curvature="0"
     style="fill-rule:evenodd" />
  <path
     d="m 85.289,110.8 0.125,0.0937 3.7188,1.3125 -0.03125,-0.3125 -3.8125,-1.0938 z"
     id="path239"
     inkscape:connector-curvature="0"
     style="fill-rule:evenodd" />
  <path
     d="m 85.695,102.74 -0.1875,0.15625 3.7812,1 0.125,-0.28125 -3.7188,-0.875 z"
     id="path241"
     inkscape:connector-curvature="0"
     style="fill-rule:evenodd" />
  <path
     d="m 96.289,97.142 -5.1562,6.0312 0.15625,0.0937 5.0625,-5.9062 -0.0625,-0.21875 z"
     id="path243"
     inkscape:connector-curvature="0"
     style="fill-rule:evenodd" />
</svg>
