<?xml version="1.0" encoding="UTF-8"?>
<svg width="173.88mm" height="297mm" clip-rule="evenodd" fill-rule="evenodd" image-rendering="optimizeQuality" shape-rendering="geometricPrecision" text-rendering="geometricPrecision" version="1.1" viewBox="0 0 17388 29700" xmlns="http://www.w3.org/2000/svg">
 <defs>
  <style type="text/css">.fil7 {fill:#B2B3B3} .fil13 {fill:#C5C6C6} .fil11 {fill:#D9DADA} .fil9 {fill:#EBECEC} .fil8 {fill:#FFF7B2} .fil5 {fill:#0D1C42} .fil6 {fill:#152859} .fil1 {fill:#162C61} .fil0 {fill:#182E66} .fil3 {fill:#1A1919} .fil2 {fill:#1E3775} .fil4 {fill:#213F8A} .fil10 {fill:#2B2A29;fill-rule:nonzero} .fil12 {fill:#EBECEC;fill-rule:nonzero}</style>
 </defs>
 <rect class="fil0" x="1539" y="3261" width="14310" height="1197"/>
 <rect class="fil1" x="2166" y="2112" width="13056" height="1197"/>
 <rect class="fil2" x="1083" y="4308" width="15222" height="23688"/>
 <rect class="fil3" x="2751" y="8113" width="11887" height="19598"/>
 <polygon class="fil2" points="2957 8319 14432 8319 14432 27505 2957 27505"/>
 <rect class="fil4" y="4861" width="17388" height="2295"/>
 <rect class="fil5" x="1961" y="5120" width="13553" height="1856"/>
 <rect class="fil6" x="1961" y="5120" width="13465" height="1777"/>
 <polygon class="fil3" points="2107 5254 15294 5254 15294 6764 2095 6764"/>
 <polygon class="fil4" points="1083 27711 16305 27711 17388 28474 17388 29700 0 29700 0 28474"/>
 <rect class="fil3" x="3506" y="8723" width="4048" height="4048"/>
 <polygon class="fil7" points="7527 8723 7554 8723 7554 12771 3506 12771 3506 12745"/>
 <rect class="fil2" x="3602" y="8819" width="3857" height="3857"/>
 <rect class="fil3" x="3506" y="18277" width="4048" height="4048"/>
 <polygon class="fil7" points="7527 18277 7554 18277 7554 22324 3506 22324 3506 22298"/>
 <rect class="fil2" x="3602" y="18372" width="3857" height="3857"/>
 <rect class="fil3" x="3506" y="13500" width="4048" height="4048"/>
 <polygon class="fil7" points="7527 13500 7554 13500 7554 17548 3506 17548 3506 17521"/>
 <rect class="fil2" x="3602" y="13595" width="3857" height="3857"/>
 <rect class="fil3" x="3506" y="23053" width="4048" height="4048"/>
 <polygon class="fil7" points="7527 23053 7554 23053 7554 27101 3506 27101 3506 27074"/>
 <rect class="fil2" x="3602" y="23149" width="3857" height="3857"/>
 <rect class="fil3" x="9834" y="8723" width="4048" height="4048"/>
 <polygon class="fil7" points="13856 8723 13882 8723 13882 12771 9834 12771 9834 12745"/>
 <rect class="fil2" x="9930" y="8819" width="3857" height="3857"/>
 <rect class="fil3" x="9834" y="18277" width="4048" height="4048"/>
 <polygon class="fil7" points="13856 18277 13882 18277 13882 22324 9834 22324 9834 22298"/>
 <rect class="fil2" x="9930" y="18372" width="3857" height="3857"/>
 <rect class="fil3" x="9834" y="13500" width="4048" height="4048"/>
 <polygon class="fil7" points="13856 13500 13882 13500 13882 17548 9834 17548 9834 17521"/>
 <rect class="fil2" x="9930" y="13595" width="3857" height="3857"/>
 <rect class="fil3" x="9834" y="23053" width="4048" height="4048"/>
 <polygon class="fil7" points="13856 23053 13882 23053 13882 27101 9834 27101 9834 27074"/>
 <rect class="fil2" x="9930" y="23149" width="3857" height="3857"/>
 <rect class="fil8" x="3699" y="8878" width="1120" height="1817"/>
 <rect class="fil8" x="3699" y="10799" width="1120" height="1817"/>
 <rect class="fil8" x="4951" y="8878" width="1120" height="1817"/>
 <rect class="fil8" x="4951" y="10799" width="1120" height="1817"/>
 <rect class="fil8" x="6241" y="8878" width="1120" height="1817"/>
 <rect class="fil8" x="6241" y="10799" width="1120" height="1817"/>
 <rect class="fil8" x="10027" y="8878" width="1120" height="1817"/>
 <rect class="fil8" x="10027" y="10799" width="1120" height="1817"/>
 <rect class="fil8" x="11279" y="8878" width="1120" height="1817"/>
 <rect class="fil8" x="11279" y="10799" width="1120" height="1817"/>
 <rect class="fil8" x="12570" y="8878" width="1120" height="1817"/>
 <rect class="fil8" x="12570" y="10799" width="1120" height="1817"/>
 <polygon class="fil9" points="4269 13907 6792 13907 6792 17128 4269 17128"/>
 <path class="fil10" d="m4507 14172v91c0 21 0 33 1 35 2 3 6 4 13 4h7v6h-62v-6h9c4 0 7-1 8-2 2-1 2-3 3-6 0-4 0-14 1-31v-77c-1-9-1-14-3-16s-6-3-13-3h-5v-7c8 0 19 1 33 1 8 0 16-1 26-1 6 0 11-1 14-1 17 0 29 4 37 10s11 14 11 25c0 7-2 15-6 22-5 7-11 12-19 16-8 5-16 7-26 7-4 0-9-1-15-2l-2-8c6 2 11 2 15 2 10 0 17-3 23-8 6-6 8-14 8-24s-3-18-9-23-15-8-27-8c-6 0-14 1-22 4zm88 62c0-23 7-41 22-55s34-21 59-21c24 0 43 6 57 19 13 13 20 31 20 52 0 23-8 43-24 58-16 16-36 24-60 24-15 0-28-3-39-10-11-6-19-15-26-26-6-12-9-26-9-41zm21-8c0 15 3 29 8 41 5 11 13 20 22 26s19 9 31 9c11 0 20-3 28-8s14-12 19-22 7-22 7-36-3-27-8-37c-5-11-12-19-21-24s-19-8-31-8c-11 0-21 2-29 7s-15 11-19 20c-5 9-7 20-7 32zm188 72c7 1 14 1 20 1 13 0 24-1 31-1 5-1 11-2 16-3l6-25h7c-2 13-3 26-4 37-6 1-15 2-26 2l-49-1c-7 0-18 0-32 1v-6c6-2 9-5 10-7 1-3 2-14 2-33v-58c0-21-1-32-2-35-1-2-4-3-8-3h-12v-7c17 1 28 1 33 1 8 0 17 0 30-1v7h-13c-4 0-6 1-7 3s-2 11-2 26v67l1 29-1 6zm91 4h6c7 0 11-2 12-5s2-18 2-45v-35c0-28-1-43-2-46s-4-4-10-4h-8v-7c11 1 23 1 34 1 10 0 18 0 26-1v7h-8c-5 0-8 0-10 2-1 1-2 4-2 8v76c0 27 0 42 1 45 2 2 5 4 12 4h7v6h-60v-6zm200-104l-1-19c-6-4-13-7-20-9-6-2-13-3-21-3-19 0-34 6-45 17-11 12-17 27-17 46 0 13 3 25 9 36 5 10 14 19 24 25 11 6 22 9 34 9 9 0 18-1 27-3 7-2 14-5 21-10l2 2c-2 3-3 6-4 9-8 4-16 7-25 10-8 2-16 3-25 3-17 0-32-4-45-10-13-7-23-16-30-28-6-11-10-24-10-39s4-28 11-40c7-11 17-20 29-26 13-7 29-10 48-10 9 0 21 2 34 5 7 1 12 2 16 3-3 8-5 18-5 32h-7zm64 40v25l1 15v20c10 1 21 1 33 1 7 0 14 0 19-1 4 0 7-1 11-2 2-7 4-14 5-23h7c-2 15-2 25-2 30v5c-8 0-16 1-24 1l-16-1h-73v-6h4c6 0 9-1 11-2s3-4 3-8c1-5 1-14 1-29v-57c0-10 0-17-1-23 0-6-1-10-1-11-1-1-1-2-2-3-1 0-4-1-9-1l-8-1v-7h22c6 1 11 1 14 1l40-1h19c7 0 13 0 20 1-3 8-4 19-5 32h-7c0-8 0-14-1-19-8-3-18-5-30-5-10 0-20 1-30 2v19l-1 16v21c7 1 14 1 19 1 17 0 26 0 28-2 3-1 4-4 4-10v-7h6v48h-6v-6c0-6-2-10-4-12-3-1-12-2-28-2-6 0-12 0-19 1zm214-68c-1 10-2 21-2 32v60c0 22 1 34 2 36 1 3 5 4 12 4h8v6h-63v-6h9c5 0 8-1 9-2 2-1 2-4 3-7 0-8 1-19 1-32v-59c0-12-1-23-1-32h-11c-17 0-26 0-28 1s-3 4-3 9l-2 14h-6v-12c0-5-1-12-1-22 37 1 59 1 66 1l58-1c-2 12-3 23-3 34h-6l-1-14c-1-4-1-7-2-8s-3-1-5-2h-34zm101 68v25l1 15v20c10 1 21 1 33 1 7 0 14 0 19-1 4 0 7-1 11-2 2-7 4-14 5-23h7c-2 15-3 25-3 30l1 5c-8 0-16 1-24 1l-16-1h-73v-6h4c6 0 9-1 11-2s3-4 3-8c1-5 1-14 1-29v-57c0-10 0-17-1-23 0-6-1-10-1-11l-3-3s-3-1-8-1l-8-1v-7h22c6 1 11 1 14 1l40-1h19c7 0 13 0 20 1-3 8-5 19-5 32h-7c0-8 0-14-1-19-8-3-18-5-30-5-10 0-20 1-30 2v19l-1 16v21c7 1 14 1 19 1 17 0 26 0 28-2 3-1 4-4 4-10v-7h6v48h-6v-6c0-6-2-10-4-12-3-1-12-2-28-2-6 0-12 0-19 1zm130 60c7 1 13 1 20 1 13 0 23-1 31-1 5-1 10-2 16-3l6-25h7c-2 13-4 26-4 37-7 1-15 2-26 2l-50-1c-7 0-17 0-31 1v-6c5-2 9-5 10-7 1-3 1-14 1-33v-58c0-21 0-32-1-35-1-2-4-3-9-3h-11v-7c16 1 27 1 33 1 7 0 17 0 29-1v7h-13c-3 0-6 1-7 3s-1 11-1 26v102zm131-60v25l1 15v20c10 1 21 1 33 1 7 0 14 0 19-1 4 0 7-1 11-2 2-7 4-14 6-23h6c-2 15-2 25-2 30v5c-8 0-16 1-24 1l-16-1h-73v-6h4c6 0 9-1 11-2s3-4 3-8c1-5 1-14 1-29v-57c0-10 0-17-1-23 0-6-1-10-1-11-1-1-1-2-2-3-1 0-4-1-9-1l-8-1v-7h22c6 1 11 1 14 1l40-1h19c7 0 13 0 20 1-3 8-4 19-5 32h-7c0-8 0-14-1-19-8-3-18-5-30-5-10 0-20 1-30 2v19l-1 16v21c7 1 14 1 19 1 17 0 26 0 28-2 3-1 4-4 4-10v-7h7c-1 10-1 19-1 25 0 7 0 14 1 23h-7v-6c0-6-2-10-4-12-3-1-12-2-28-2-6 0-12 0-19 1zm130-66c0 10-1 20-1 32v59c0 21 1 33 2 35 1 3 6 4 12 4h8v6h-63v-6h10c4 0 7-1 8-2s2-3 3-6c0-4 0-14 1-31v-55l-1-22c0-9-1-14-3-16-1-2-6-3-13-3h-5v-7c9 0 20 1 33 1 8 0 17-1 27-1 6 0 11-1 14-1 17 0 29 4 37 10 7 6 11 14 11 25 0 7-2 15-6 22-5 7-11 12-19 16-8 5-17 7-26 7-4 0-9-1-15-2l-3-8c7 2 12 2 16 2 9 0 17-3 23-8 5-6 8-14 8-24s-3-18-9-23-15-8-27-8c-7 0-14 1-22 4zm128 63v29c0 5 1 11 1 17 0 10 1 15 1 16s1 2 3 3 5 2 8 2h7v6h-61v-6h7c7 0 11-1 13-4 1-2 2-14 2-34v-63c0-18-1-28-2-31-2-2-6-3-12-3h-8v-7c12 1 23 1 32 1 10 0 20 0 29-1v7h-4c-6 0-10 0-12 1s-2 3-3 5c0 4-1 14-1 28v24c13 1 29 1 48 1 16 0 29 0 39-1v-20c0-12 0-22-1-30 0-3-1-5-3-6-1-2-5-2-10-2h-7v-7c10 1 21 1 30 1 10 0 21 0 32-1v7h-8c-5 0-9 0-10 2-2 1-2 3-3 6v87c0 22 0 34 2 36 1 3 5 4 11 4h8v6h-62v-6h7c5 0 9-1 10-2 2-1 3-3 3-7 1-7 1-17 1-31v-27c-10-1-22-1-37-1-22 0-38 0-50 1zm137-1c0-23 8-41 23-55 14-14 34-21 58-21 25 0 43 6 57 19s21 31 21 52c0 23-8 43-24 58-16 16-36 24-60 24-15 0-28-3-39-10-11-6-20-15-26-26-6-12-10-26-10-41zm22-8c0 15 2 29 8 41 5 11 12 20 21 26s20 9 31 9 20-3 29-8c8-5 14-12 19-22 4-10 7-22 7-36s-3-27-8-37c-5-11-12-19-21-24s-20-8-32-8c-11 0-20 2-29 7-8 5-14 11-19 20-4 9-6 20-6 32zm187 9v29c0 5 0 11 1 17 0 10 1 15 1 16s1 2 3 3 4 2 8 2h7v6h-61v-6h7c7 0 11-1 13-4 1-2 2-14 2-34v-63c0-18-1-28-2-31-2-2-6-3-12-3h-8v-7c12 1 22 1 32 1s20 0 29-1v7h-4c-7 0-11 0-12 1-2 1-3 3-3 5 0 4-1 14-1 28v24c13 1 28 1 47 1 17 0 30 0 40-1v-20c0-12 0-22-1-30-1-3-1-5-3-6-2-2-5-2-10-2h-7v-7c10 1 20 1 30 1s21 0 32-1v7h-8c-5 0-9 0-10 2-2 1-3 3-3 6v87c0 22 0 34 1 36 2 3 5 4 12 4h8v6h-62v-6h7c5 0 9-1 10-2 2-1 3-3 3-7 1-7 1-17 1-31v-27c-10-1-22-1-38-1-21 0-38 0-49 1zm180 3v60c10 1 21 1 33 1 8 0 14 0 20-1 3 0 7-1 10-2 2-7 4-14 6-23h7c-2 15-3 25-3 30v5c-8 0-16 1-24 1l-16-1h-72v-6h3c6 0 10-1 11-2 2-1 3-4 3-8 1-5 1-14 1-29v-80c-1-6-1-10-2-11 0-1-1-2-2-3-1 0-4-1-9-1l-8-1v-7h22c6 1 11 1 14 1l40-1h19c7 0 13 0 20 1-3 8-4 19-4 32h-7c0-8-1-14-1-19-9-3-19-5-31-5-9 0-19 1-30 2v56c7 1 13 1 18 1 17 0 26 0 29-2 2-1 3-4 3-10v-7h7c-1 10-1 19-1 25 0 7 0 14 1 23h-7v-6c0-6-1-10-4-12-3-1-12-2-28-2-6 0-12 0-18 1z"/>
 <path class="fil10" d="m5186 14682v57c0 23 1 36 3 40 3 4 9 5 19 5h12v11c-21-1-38-1-51-1-12 0-29 0-49 1v-11h13c10 0 16-1 18-5s3-17 3-40v-126c0-22-1-35-3-39-3-4-9-6-19-6h-12v-10c18 0 35 1 50 1l96-2c10 0 19 1 28 1-3 12-5 29-6 51h-11c0-11-2-22-4-31-15-4-30-6-46-6-13 0-26 1-39 2-2 15-2 28-2 40v53h19c17 0 31 0 44-1 4 0 7-1 8-3 2-2 3-6 4-13l2-13h10c-1 21-1 34-1 40v39h-11v-13c0-10-2-16-6-18-3-3-18-4-44-4-7 0-16 0-25 1zm250-7c10 15 24 34 40 54l32 42c6 7 10 11 12 12 1 1 3 1 5 1h5v11c-10-1-18-1-24-1-7 0-14 0-21 1l-59-80c-11-14-23-29-35-43l2-5c6 0 11 1 14 1 19 0 33-5 44-15 10-9 15-22 15-38 0-15-4-26-13-34s-22-12-39-12c-11 0-23 2-35 7-1 17-2 36-2 56v81c0 39 1 61 3 65s8 6 18 6h13v11c-18-1-33-1-45-1-10 0-27 0-52 1v-11h12c10 0 15-2 17-6s3-26 3-66v-80c0-34-1-53-3-57-2-5-9-7-20-7h-9v-10c20 0 36 1 47 1 7 0 18 0 32-1 16-1 27-1 34-1 20 0 34 2 44 6s18 10 23 18c5 7 8 17 8 27 0 16-6 30-17 42-12 12-28 20-49 25zm172 7v64c0 15 0 26 1 33 16 1 33 1 52 1 13 0 23 0 32-1 5-1 11-2 17-5 3-9 6-22 8-36h11c-3 24-4 40-4 49v7c-13 1-25 1-37 1h-27c-29-1-50-1-64-1-13 0-30 0-52 1v-11h6c9 0 15 0 18-2 2-2 4-7 5-14s1-22 1-46v-92c0-15 0-27-1-36-1-10-1-16-2-17-1-2-2-4-4-5-1-1-6-2-14-2l-13-2v-10h36c10 1 17 1 22 1l64-1h31c10 0 21 0 31 1-4 13-6 30-7 51h-11c0-12 0-22-2-30-13-5-29-8-48-8-16 0-32 1-48 2 0 11 0 21-1 32v59c11 1 21 2 30 2 26 0 41-1 45-3s5-8 5-18v-11h11c0 17-1 31-1 41s1 23 1 37h-11v-9c0-11-2-17-6-20-4-2-19-3-45-3-9 0-19 0-29 1zm209 0v64c0 15 0 26 1 33 16 1 33 1 52 1 12 0 23 0 31-1 6-1 12-2 18-5 3-9 5-22 8-36h11c-3 24-4 40-4 49v7c-13 1-25 1-38 1h-26c-29-1-50-1-64-1-13 0-30 0-52 1v-11h5c10 0 16 0 19-2 2-2 4-7 5-14s1-22 1-46v-92c0-15 0-27-1-36-1-10-2-16-2-17-1-2-2-4-4-5s-6-2-14-2l-13-2v-10h36c10 1 17 1 22 1l64-1h31c10 0 21 0 31 1-4 13-7 30-7 51h-11c0-12-1-22-2-30-13-5-29-8-48-8-16 0-32 1-48 2 0 11 0 21-1 32v59c11 1 21 2 29 2 27 0 42-1 46-3 3-2 5-8 5-18v-11h11c-1 17-1 31-1 41s0 23 1 37h-11v-9c0-11-2-17-6-20-4-2-19-3-45-3-9 0-19 0-29 1zm-856 343v36c0 15 0 23 2 25 1 3 5 4 12 4h7v6h-62v-6h8c6 0 10-1 11-4 1-2 2-10 2-25v-78c0-14-1-23-2-25-2-2-6-3-12-3h-7v-7c11 1 21 1 31 1l60-1c6 0 12 0 17 1-2 7-3 18-3 31h-7c-1-7-1-13-3-19-9-3-19-4-28-4s-17 1-25 1c-1 10-1 18-1 25v33c4 0 8 1 12 1 10 0 19-1 27-1 3 0 4-1 5-2s2-4 3-8l1-8h6v49h-7v-8c0-6-1-10-4-12-2-1-11-2-28-2h-15zm78-3c0-23 8-41 22-55 15-14 35-21 59-21s43 6 57 19 20 31 20 52c0 23-8 43-23 58-16 16-36 24-60 24-15 0-28-3-39-10-11-6-20-15-26-26-7-12-10-26-10-41zm21-8c0 15 3 29 9 41 5 11 12 20 21 26s20 9 31 9 20-3 28-8 15-12 19-22c5-10 7-22 7-36s-2-27-7-37c-5-11-12-19-21-24s-20-8-32-8c-11 0-21 2-29 7s-14 11-19 20c-4 9-7 20-7 32zm225 7c7 10 15 21 25 34l20 26c4 5 6 7 7 8s3 1 4 1h3v6h-28l-37-49c-7-10-14-18-22-27l1-4c4 1 7 1 9 1 12 0 21-3 27-9 7-6 10-14 10-24 0-9-3-16-8-21-6-5-14-8-24-8-8 0-15 2-22 4-1 11-2 23-2 36v50c0 25 1 38 2 41 1 2 5 4 12 4h8v6h-61v-6h7c6 0 10-1 11-4s2-16 2-41v-50c0-22-1-34-2-36-2-3-6-4-13-4h-5v-7c13 1 22 1 29 1 5 0 11 0 20-1h22c12 0 21 1 27 4 6 2 11 6 14 11 4 4 5 10 5 17 0 10-3 18-10 26-8 7-18 12-31 15zm118-66v-7c14 1 24 1 31 1s17 0 30-1v7h-8c-6 0-10 1-12 3-1 3-2 14-2 34v41c0 15 1 26 3 32 1 5 6 10 13 14 6 4 15 6 27 6s22-2 30-6c5-3 9-8 12-14 2-6 4-18 4-36v-39c0-18-1-29-3-31-1-3-6-4-13-4h-6v-7c15 1 24 1 28 1 6 0 14 0 23-1v7h-7c-5 0-9 1-10 4-2 3-3 13-3 31v39c0 18-1 30-2 36-2 7-5 12-10 17s-11 9-19 12-17 5-28 5c-10 0-20-2-28-4-8-3-15-6-19-10s-7-8-9-14-2-15-2-28v-52c0-19-1-30-2-33-1-2-5-3-11-3h-7zm262 0c-2 7-3 17-3 29h-7v-9c0-5-1-9-3-11-1-1-5-4-11-6s-13-3-19-3c-12 0-20 3-27 8-6 6-9 13-9 22 0 6 1 10 4 14 2 4 6 7 10 9 5 2 14 3 28 5 15 1 24 3 29 5 5 3 9 6 12 11 4 5 5 11 5 18 0 14-6 26-18 36-11 11-27 16-46 16-7 0-14-1-20-2l-21-6c1-9 2-20 2-33h7v6c0 6 0 11 1 12 1 2 2 3 5 5 4 3 8 5 13 6 6 2 11 3 18 3 13 0 23-3 30-10 7-6 11-14 11-23 0-6-1-11-4-14-2-4-6-7-10-9s-13-3-24-4c-16-2-27-3-32-6-6-2-10-6-14-12-3-5-4-12-4-20 0-13 5-24 14-33 10-9 24-13 41-13 7 0 14 1 21 2 7 2 14 4 21 7zm59 70v26l1 15v20c10 1 21 1 33 1 7 0 14 0 19-1 4 0 7-1 11-2 2-7 4-14 5-23h7c-2 15-2 25-2 30v5c-8 0-16 1-24 1l-16-1h-73v-6h4c6 0 9-1 11-2s3-4 3-8c1-5 1-14 1-29v-57c0-10 0-17-1-23 0-6-1-10-1-11-1-1-2-2-2-3-1 0-4-1-9-1l-8-1v-7h22c6 1 11 1 14 1l40-1h19c7 0 13 0 20 1-3 8-4 19-5 32h-7c0-8 0-14-1-19-8-3-18-5-30-5-10 0-20 1-30 2v19l-1 16v21c7 1 14 1 19 1 17 0 26 0 28-2 3-1 4-4 4-10v-7h6v48h-6v-6c0-6-2-10-4-12-3-1-12-2-28-2h-19zm142-3c0-23 7-41 22-55s34-21 59-21c24 0 43 6 57 19 13 13 20 31 20 52 0 23-8 43-24 58-16 16-36 24-60 24-15 0-28-3-39-10-11-6-19-15-26-26-6-12-9-26-9-41zm21-8c0 15 3 29 8 41 5 11 13 20 22 26s19 9 31 9c11 0 20-3 28-8s14-12 19-22 7-22 7-36-3-27-8-37c-5-11-12-19-21-24s-19-8-31-8c-11 0-21 2-29 7s-14 11-19 20-7 20-7 32zm187 11v36c0 15 1 23 2 25 2 3 6 4 12 4h7v6h-62v-6h8c6 0 10-1 11-4 2-2 2-10 2-25v-78c0-14 0-23-2-25-1-2-5-3-11-3h-8v-7c12 1 22 1 31 1l60-1c6 0 12 0 18 1-2 7-4 18-4 31h-7c0-7-1-13-2-19-10-3-19-4-29-4-8 0-17 1-25 1-1 10-1 18-1 25v33c4 0 8 1 12 1 11 0 20-1 27-1 3 0 5-1 6-2s2-4 2-8l1-8h7c-1 13-1 21-1 24v25h-7v-8c0-6-1-10-3-12-3-1-12-2-28-2h-16zm-1092 242c-1 16-1 33-1 51v95c0 33 1 52 3 56s8 6 20 6h11v11c-20-1-35-1-46-1-10 0-28 0-54 1v-11h15c7 0 12-1 14-3 2-1 3-5 4-10 0-5 1-22 1-49v-123c0-14-2-23-5-26-2-4-9-5-20-5h-9v-11c14 1 32 1 53 1 13 0 27 0 42-1 10-1 18-1 23-1 27 0 47 5 59 15s18 23 18 40c0 12-3 24-10 35s-17 20-30 27-27 10-41 10c-7 0-15-1-25-3l-4-13c10 3 18 4 25 4 15 0 27-4 36-14 9-9 14-22 14-38 0-15-5-28-14-36-10-9-24-13-44-13-10 0-22 2-35 6zm139-8v-11c23 1 39 1 50 1 10 0 26 0 48-1v11h-13c-10 0-16 2-18 6-3 4-4 22-4 54v66c0 23 2 40 4 49 3 10 10 18 21 24 10 7 25 10 43 10 19 0 35-4 48-11 9-4 15-12 19-22 5-10 7-29 7-57v-63c0-29-2-46-4-50-3-4-10-6-22-6h-9v-11c23 1 38 1 44 1 10 0 23 0 38-1v11h-11c-9 0-15 2-17 7-3 5-4 21-4 50v62c0 29-1 48-4 58s-8 19-16 27c-7 8-17 14-30 19-12 5-27 7-44 7-18 0-33-2-46-6s-23-10-30-16c-6-6-11-13-14-22s-4-24-4-45v-83c0-31-1-49-3-52-2-4-8-6-17-6h-12zm388 92c24 2 41 7 52 17 10 9 16 23 16 39 0 22-9 40-27 55-18 16-41 24-68 24l-13-1h-49l-14 1v-8c7-3 11-6 13-8 1-1 2-4 2-8 1-14 1-29 1-46v-104c0-28-1-43-3-47s-8-6-18-6h-11v-11h14l15 1h19c7 0 21 0 41-1h25c19 0 33 3 43 10 12 8 18 20 18 36 0 13-5 24-13 33-8 10-23 18-43 24zm-56-4h16c22 0 38-4 47-12 10-8 15-19 15-34 0-12-4-22-12-29s-21-10-39-10c-7 0-16 0-25 2-1 13-2 34-2 61v22zm0 122c11 1 19 2 26 2 20 0 35-5 46-16 11-10 16-24 16-42 0-12-2-22-7-30s-11-14-20-17c-9-4-22-6-41-6-6 0-12 1-20 1v59l1 21v17c0 3 0 7-1 11zm210 0c11 1 22 1 32 1 21 0 38 0 50-1 8-1 16-3 25-5l10-40h11c-3 21-5 41-7 60-10 1-23 2-41 2l-79-1c-11 0-28 0-50 1v-9c9-4 14-8 15-12 2-5 3-22 3-53v-92c0-33-1-52-3-55-1-4-6-6-13-6h-18v-11c26 1 44 1 52 1 12 0 28 0 48-1v11h-21c-6 0-10 2-11 5-2 3-3 17-3 42v106l1 48-1 9zm145 6h11c10 0 16-3 18-8s3-28 3-71v-57c0-44-1-69-2-73-2-5-7-7-16-7h-14v-11c19 1 37 1 55 1 15 0 29 0 41-1v11h-13c-8 0-13 1-15 3s-3 6-3 14c-1 12-1 33-1 64v57c0 43 1 67 3 71 2 5 8 7 18 7h11v11c-14-1-29-1-45-1-19 0-36 0-51 1v-11zm320-167l-1-29c-10-7-21-12-32-15-10-3-22-5-34-5-30 0-54 9-72 28-18 18-27 42-27 73 0 21 5 40 14 57s22 30 39 40 35 15 54 15c14 0 29-2 44-5 11-3 22-8 33-16l3 3c-2 5-4 10-6 16-13 6-26 11-40 14-13 3-26 5-39 5-28 0-52-5-73-16-20-10-36-25-47-44-12-18-17-39-17-63 0-23 5-44 17-63 11-18 27-33 47-43 21-10 46-15 76-15 16 0 34 2 55 8 11 2 19 4 26 5-5 12-8 29-9 50h-11z"/>
 <path class="fil10" d="m4779 15829l35-92h13l37 92h-13l-11-28h-39l-10 28h-12zm26-38h31l-9-25c-3-8-5-14-7-19-1 5-3 11-5 17l-10 27zm74 38v-92h31c7 0 13 0 17 1 5 2 9 4 13 7 5 4 9 9 11 16 2 6 4 13 4 21 0 7-1 14-3 19s-4 10-6 13c-3 4-6 7-9 9s-6 3-10 4c-5 1-10 2-15 2h-33zm12-11h19c6 0 11-1 15-2 3-1 6-2 8-4 3-3 5-7 7-12 1-5 2-11 2-18 0-9-2-17-5-22s-7-9-11-10c-3-2-9-2-16-2h-19v70zm111 11l-36-92h14l23 67c2 5 4 10 5 15 2-5 3-10 5-15l25-67h12l-35 92h-13zm66 0v-92h12v92h-12zm103-32l12 3c-2 10-7 17-13 22-7 6-15 8-24 8-10 0-18-2-25-6-6-4-10-10-14-17-3-8-5-16-5-25s2-18 6-25 9-12 15-16c7-4 15-6 23-6 9 0 17 3 23 7 6 5 10 12 13 20l-12 3c-2-7-5-12-9-15s-9-4-16-4-12 2-17 5-8 8-10 14c-2 5-3 11-3 17 0 8 1 15 3 21 3 5 6 10 11 13s10 4 16 4 12-2 17-6c4-4 8-10 9-17zm32 32v-92h67v11h-55v28h51v11h-51v31h57v11h-69zm175-11c-4 4-8 7-13 9-4 2-9 3-14 3-9 0-17-3-22-9-5-5-7-11-7-18 0-5 2-10 6-15 3-4 9-8 16-12-4-5-7-9-8-11-2-3-3-6-3-9 0-6 3-10 7-14s10-7 16-7c7 0 12 2 16 6s6 9 6 14c0 9-6 16-18 23l17 20c2-3 3-8 4-12l12 2c-2 8-5 15-8 20 4 5 9 10 14 14l-7 9c-5-3-10-7-14-13zm-24-48c5-3 9-5 10-7 1-3 2-5 2-8s-1-5-3-7-4-3-7-3-6 1-8 3-3 4-3 7c0 1 0 3 1 4 1 2 2 4 3 5l5 6zm16 39l-20-26c-6 4-10 7-13 11-2 3-3 6-3 9s2 7 5 11 7 6 12 6c4 0 7-1 11-3 3-2 6-5 8-8zm63 20l35-92h13l38 92h-14l-11-28h-38l-10 28h-13zm26-38h31l-9-25c-3-8-5-14-7-19-1 5-3 11-5 17l-10 27zm70 8l11-1c1 5 2 9 4 12s5 5 9 7 9 3 14 3 9-1 13-2c3-2 6-4 7-6 2-3 3-5 3-8s-1-5-2-8c-2-2-5-4-9-5-2-1-8-2-16-4s-14-4-18-6-7-5-10-9c-2-3-3-7-3-11 0-5 2-9 4-13 3-4 7-7 12-9s10-4 17-4c6 0 12 2 18 4 5 2 9 5 12 9 2 5 4 10 4 15l-12 1c0-6-2-10-6-13s-9-5-16-5-13 2-16 4c-3 3-5 6-5 10 0 3 1 6 3 8 3 2 9 4 19 7 10 2 16 4 20 6 5 2 9 5 12 9 2 4 4 8 4 13s-2 9-4 14c-3 4-7 7-12 10-6 2-12 3-18 3-8 0-15-1-21-3-6-3-10-6-13-11s-5-11-5-17zm90 0l11-1c1 5 2 9 4 12s5 5 9 7 9 3 14 3 9-1 13-2c3-2 6-4 8-6 1-3 2-5 2-8s-1-5-2-8c-2-2-5-4-9-5-2-1-8-2-16-4s-14-4-18-6-7-5-9-9c-3-3-4-7-4-11 0-5 2-9 4-13 3-4 7-7 12-9s10-4 17-4c6 0 12 2 18 4 5 2 9 5 12 9 2 5 4 10 4 15l-12 1c0-6-2-10-6-13s-9-5-16-5-13 2-16 4c-3 3-5 6-5 10 0 3 1 6 4 8 2 2 8 4 18 7 10 2 16 4 20 6 5 2 9 5 12 9s4 8 4 13-2 9-4 14c-3 4-7 7-12 10-6 2-12 3-18 3-8 0-15-1-21-3-6-3-10-6-13-11s-5-11-5-17zm96 30v-92h12v92h-12zm34-30l11-1c1 5 2 9 4 12s5 5 9 7c5 2 9 3 15 3 4 0 8-1 12-2 3-2 6-4 8-6 1-3 2-5 2-8s-1-5-2-8c-2-2-5-4-8-5s-8-2-17-4c-8-2-14-4-18-6s-7-5-9-9c-2-3-4-7-4-11 0-5 2-9 4-13 3-4 7-7 12-9s11-4 17-4c7 0 13 2 18 4s9 5 12 9c3 5 4 10 4 15l-11 1c-1-6-3-10-7-13-3-3-9-5-16-5s-12 2-16 4c-3 3-5 6-5 10 0 3 1 6 4 8 2 2 8 4 18 7 10 2 17 4 20 6 6 2 10 5 12 9 3 4 4 8 4 13s-1 9-4 14c-3 4-7 7-12 10-5 2-11 3-18 3-8 0-15-1-21-3-5-3-10-6-13-11s-5-11-5-17zm117 30v-81h-30v-11h73v11h-30v81h-13zm40 0l35-92h14l37 92h-14l-10-28h-39l-10 28h-13zm27-38h31l-10-25c-2-8-5-14-6-19-1 5-3 11-5 17l-10 27zm73 38v-92h13l48 72v-72h12v92h-13l-48-72v72h-12zm163-32l12 3c-2 10-7 17-14 22-6 6-14 8-24 8s-18-2-24-6-11-10-14-17c-3-8-5-16-5-25s2-18 5-25c4-7 9-12 16-16s14-6 22-6c9 0 17 3 23 7 7 5 11 12 14 20l-12 3c-3-7-6-12-10-15s-9-4-15-4c-7 0-13 2-18 5-4 3-8 8-10 14-1 5-2 11-2 17 0 8 1 15 3 21 2 5 6 10 11 13 4 3 10 4 15 4 7 0 13-2 17-6 5-4 8-10 10-17zm32 32v-92h66v11h-54v28h51v11h-51v31h56v11h-68zm-1553 98c0-15 4-27 12-35 8-9 19-13 32-13 8 0 16 2 23 6 6 4 12 9 15 17 4 7 6 15 6 24 0 10-2 18-6 25-4 8-9 13-16 17s-14 6-22 6c-9 0-17-2-24-7-6-4-11-10-15-17-3-7-5-15-5-23zm12 1c0 11 3 19 9 26 6 6 14 9 23 9s16-3 22-9c6-7 9-16 9-28 0-7-1-14-4-19-2-6-6-10-11-13s-10-5-16-5c-9 0-16 3-22 9-7 6-10 16-10 30zm95 44v-92h35c7 0 12 1 17 3 4 2 7 5 9 9 3 3 4 8 4 12s-1 7-3 11c-2 3-5 6-10 8 6 2 10 5 13 9 3 3 5 8 5 13s-1 9-3 12c-2 4-4 7-7 9s-6 4-10 5-9 1-15 1h-35zm12-53h20c6 0 9-1 12-1 3-1 5-3 7-5 1-2 2-5 2-8s-1-6-2-8-4-4-6-5c-3-1-8-1-14-1h-19v28zm0 42h32c2-1 5-1 7-3 1-1 3-3 4-5s2-5 2-8-1-6-3-8c-1-3-4-5-7-6s-8-1-13-1h-22v31zm102 11v-81h-30v-11h73v11h-31v81h-12zm40 0l35-92h14l37 92h-14l-10-28h-39l-10 28h-13zm26-38h32l-10-25c-3-8-5-14-6-19-2 6-3 12-5 17l-11 27zm76 38v-92h12v92h-12zm38 0v-92h13l48 72v-72h11v92h-12l-48-72v72h-12zm87 0l36-92h13l37 92h-14l-10-28h-39l-10 28h-13zm27-38h31l-10-25c-2-8-5-14-6-19-1 6-3 12-5 17l-10 27zm73 38v-92h34c7 0 13 1 17 3s8 5 10 9c3 3 4 8 4 12s-1 7-3 11c-3 3-6 6-10 8 6 2 10 5 13 9 3 3 4 8 4 13s-1 9-2 12c-2 4-5 7-7 9-3 2-6 4-10 5s-9 1-15 1h-35zm12-53h20c5 0 9-1 12-1 3-1 5-3 6-5 2-2 3-5 3-8s-1-6-2-8c-2-2-4-4-7-5-2-1-7-1-14-1h-18v28zm0 42h31c3-1 5-1 7-3 2-1 4-3 5-5s2-5 2-8-1-6-3-8c-2-3-4-5-7-6s-8-1-14-1h-21v31zm78 11v-92h12v81h45v11h-57zm77 0v-92h66v11h-54v28h50v11h-50v31h56v11h-68zm127 0v-92h12v92h-12zm38 0v-92h18l22 65c2 6 3 11 4 14 1-3 3-8 5-15l22-64h16v92h-11v-77l-27 77h-11l-27-78v78h-11zm111 0v-92h18l22 65c2 6 4 11 4 14 1-3 3-8 5-15l22-64h17v92h-12v-77l-27 77h-11l-26-78v78h-12zm112 0v-92h66v11h-54v28h51v11h-51v31h56v11h-68zm90 0v-92h31c8 0 13 1 17 2 5 1 9 3 13 6 5 4 9 9 11 16 2 6 4 13 4 22 0 7-1 13-3 18-1 6-4 10-6 14-3 3-5 6-8 8s-7 3-11 5c-5 1-10 1-15 1h-33zm12-11h19c7 0 11 0 15-1 3-2 6-3 8-5 3-3 5-7 7-12 1-5 2-11 2-18 0-9-2-17-5-22s-7-8-11-10c-3-1-9-2-16-2h-19v70zm87 11v-92h12v92h-12zm28 0l35-92h13l38 92h-14l-11-28h-38l-10 28h-13zm26-38h32l-10-25c-3-8-5-14-7-19-1 6-2 12-5 17l-10 27zm88 38v-81h-30v-11h72v11h-30v81h-12zm60 0v-92h66v11h-54v28h50v11h-50v31h56v11h-68zm89 0v-92h12v81h45v11h-57zm93 0v-39l-36-53h15l18 28c3 5 6 10 9 15 3-4 7-10 10-16l18-27h14l-36 53v39h-12z"/>
 <path class="fil10" d="m4872 16183c0-15 5-27 13-36 8-8 18-12 31-12 9 0 17 2 23 6 7 4 12 9 16 17 3 7 5 15 5 24s-2 18-5 25c-4 7-9 13-16 17s-15 5-23 5-16-2-23-6-12-10-15-17c-4-7-6-15-6-23zm13 0c0 11 3 20 9 27 6 6 13 9 22 9s17-3 23-10c6-6 9-15 9-27 0-7-2-14-4-19-3-6-6-10-11-13s-11-5-17-5c-8 0-16 3-22 9s-9 16-9 29zm96 45v-92h62v11h-50v28h43v11h-43v42h-12zm83 0v-92h62v11h-50v28h43v11h-43v42h-12zm84 0v-92h12v92h-12zm104-32l12 3c-3 10-7 17-14 23-7 5-15 7-24 7-10 0-18-2-24-6s-11-9-14-17c-4-8-5-16-5-25s2-18 5-25c4-7 9-12 16-16s14-5 22-5c9 0 17 2 23 7 6 4 11 11 13 19l-12 3c-2-7-5-11-9-14-4-4-9-5-15-5-7 0-13 2-18 5s-8 8-10 14c-2 5-3 11-3 17 0 8 1 15 4 21 2 6 5 10 10 13s10 4 16 4c7 0 12-2 17-6s8-10 10-17zm32 32v-92h66v11h-54v28h50v11h-50v31h56v11h-68zm90 0v-92h40c8 0 15 1 19 3 4 1 8 4 10 8 3 4 4 9 4 14 0 7-2 12-6 17-5 4-11 7-20 8 3 2 6 3 7 5 4 3 7 7 10 12l16 25h-15l-12-19c-3-6-6-10-9-13-2-3-4-5-6-6s-4-2-5-2c-2-1-4-1-7-1h-14v41h-12zm12-51h26c5 0 10-1 13-2s5-3 7-6c2-2 2-5 2-8 0-4-1-8-4-11-3-2-8-4-15-4h-29v31zm80 21l12-1c0 5 2 9 4 12s5 5 9 7 9 3 14 3 9-1 12-2c4-2 6-4 8-6s3-5 3-8-1-5-3-7c-1-3-4-4-8-6-2-1-8-2-16-4-9-2-15-4-18-6-4-2-8-5-10-9-2-3-3-7-3-11 0-5 1-9 4-13s6-7 11-9 11-3 17-3c7 0 13 1 18 3s9 5 12 10c3 4 5 9 5 14l-12 1c-1-6-3-10-6-13-4-3-9-5-16-5-8 0-13 2-16 4-4 3-5 6-5 10 0 3 1 6 3 8 3 2 9 5 18 7 10 2 17 4 21 6 5 2 9 5 12 9 2 4 3 8 3 13s-1 9-4 14c-3 4-7 7-12 10-5 2-11 3-17 3-9 0-16-1-21-3-6-3-10-6-13-11-4-5-5-10-6-17zm179 19c-4 4-8 7-12 9-5 2-9 3-14 3-10 0-17-3-23-9-4-5-6-11-6-17s1-11 5-16c4-4 9-8 16-12-4-5-7-8-8-11s-2-6-2-9c0-5 2-10 6-14 5-4 10-6 17-6 6 0 11 1 15 5s6 9 6 14c0 9-6 16-17 23l16 20c2-3 4-7 5-12l11 2c-2 8-4 15-8 20 4 5 9 10 15 14l-8 9c-5-3-9-7-14-13zm-23-48c5-3 8-5 9-7 2-2 3-5 3-8s-1-5-3-7-5-3-8-3-5 1-7 3c-3 2-4 4-4 7 0 1 1 3 2 4 0 2 1 4 3 5l5 6zm16 39l-21-25c-6 3-10 7-12 10s-3 6-3 9c0 4 1 7 4 11s7 6 13 6c3 0 7-1 10-3 4-2 7-5 9-8zm145-12l12 3c-3 10-7 17-14 23-6 5-15 7-24 7-10 0-18-2-24-6s-11-9-14-17c-4-8-5-16-5-25s2-18 5-25c4-7 9-12 16-16s14-5 22-5c9 0 17 2 23 7 6 4 11 11 13 19l-12 3c-2-7-5-11-9-14-4-4-9-5-15-5-7 0-13 2-18 5s-8 8-10 14c-2 5-3 11-3 17 0 8 1 15 4 21 2 6 6 10 10 13 5 3 10 4 16 4 7 0 12-2 17-6s8-10 10-17zm21 32l36-92h13l37 92h-14l-10-28h-39l-10 28h-13zm27-38h31l-10-25c-2-8-5-14-6-19-1 6-3 11-5 17l-10 27zm74 38v-92h40c9 0 15 1 19 3 4 1 8 4 10 8 3 4 4 9 4 14 0 7-2 12-6 17-5 4-11 7-20 8 3 2 6 3 7 5 4 3 7 7 11 12l15 25h-15l-12-19c-3-6-6-10-9-13-2-3-4-5-6-6s-3-2-5-2c-2-1-4-1-7-1h-14v41h-12zm12-51h26c5 0 10-1 13-2s5-3 7-6c2-2 2-5 2-8 0-4-1-8-4-11-3-2-8-4-15-4h-29v31zm81 21l11-1c0 5 2 9 4 12s5 5 9 7 9 3 14 3 9-1 12-2c4-2 6-4 8-6s3-5 3-8-1-5-3-7c-1-3-4-4-8-6-2-1-8-2-16-4-9-2-15-4-18-6-4-2-8-5-10-9-2-3-3-7-3-11 0-5 1-9 4-13s6-7 11-9c6-2 11-3 17-3 7 0 13 1 18 3s9 5 12 10c3 4 5 9 5 14l-12 1c0-6-3-10-6-13-4-3-9-5-16-5-8 0-13 2-16 4-4 3-5 6-5 10 0 3 1 6 3 8 3 2 9 5 19 7 9 2 16 4 20 6 5 2 9 5 12 9 2 4 4 8 4 13s-2 9-5 14c-2 4-6 7-12 10-5 2-11 3-17 3-9 0-16-1-21-3-6-3-10-6-13-11-4-5-5-10-5-17zm-1321 173v-92h41c8 0 14 1 19 3 4 1 7 4 10 9 2 4 4 8 4 13 0 7-3 12-7 17-4 4-10 7-19 8 3 2 5 3 7 5 4 3 7 7 10 12l16 25h-15l-12-19c-4-5-7-10-9-13s-4-5-6-6-4-2-6-2c-1 0-3-1-7-1h-14v41h-12zm12-51h26c6 0 10-1 13-2 4-1 6-3 8-5 1-3 2-6 2-9 0-4-2-8-5-10-3-3-8-5-15-5h-29v31zm85 51v-92h67v11h-54v28h50v11h-50v31h56v11h-69zm86-29l12-1c0 4 1 8 3 11s5 5 10 7c4 2 8 3 14 3 4 0 8-1 12-2 3-2 6-3 8-6 2-2 2-5 2-8s0-5-2-7-4-4-8-6c-3-1-8-2-17-4-8-2-14-4-17-6-5-2-8-5-10-8-2-4-3-8-3-12s1-9 4-13c2-4 6-7 11-9s11-3 17-3c7 0 13 1 18 3s9 6 12 10 4 9 4 14l-11 1c-1-6-3-10-7-13-3-3-9-4-16-4s-12 1-16 4c-3 2-5 6-5 9 0 4 1 6 4 9 2 2 8 4 18 6s17 4 20 6c6 2 10 5 12 9 3 4 4 8 4 13s-1 10-4 14-7 8-12 10c-5 3-11 4-18 4-8 0-15-2-21-4-5-2-10-6-13-11s-5-10-5-16zm94 29v-92h35c6 0 11 1 14 1 4 1 8 2 11 5 3 2 6 5 8 8 1 4 2 8 2 13 0 8-2 14-7 20-5 5-14 8-27 8h-24v37h-12zm12-48h24c8 0 13-1 17-4 3-3 5-7 5-13 0-4-1-7-3-10-2-2-5-4-8-5-2-1-6-1-11-1h-24v33zm74 3c0-15 5-27 13-35 8-9 19-13 31-13 9 0 17 2 23 6 7 4 12 10 16 17s5 15 5 24c0 10-2 18-5 25-4 8-9 13-16 17s-15 6-23 6-16-2-23-7c-7-4-12-9-15-17-4-7-6-14-6-23zm13 1c0 11 3 19 9 26 6 6 13 9 22 9s17-3 23-9c6-7 9-16 9-28 0-7-2-14-4-19-3-6-6-10-11-13s-10-5-16-5c-9 0-16 3-23 9-6 6-9 16-9 30zm95 44v-92h13l48 72v-72h12v92h-13l-48-72v72h-12zm98 0v-92h31c7 0 13 1 17 2 5 1 9 3 13 6 5 4 8 10 11 16 2 6 3 14 3 22 0 7 0 13-2 18-2 6-4 10-6 14-3 3-6 6-9 8s-6 4-11 5c-4 1-9 1-14 1h-33zm12-11h19c6 0 11 0 15-1 3-1 6-3 8-5 3-3 5-7 6-12 2-5 3-10 3-17 0-10-2-17-5-23-3-5-7-8-11-10-4-1-9-2-16-2h-19v70zm141 11v-81h-30v-11h73v11h-30v81h-13zm54-45c0-15 4-27 12-35 8-9 19-13 32-13 8 0 16 2 23 6s12 10 15 17c4 7 6 15 6 24 0 10-2 18-6 25-4 8-9 13-16 17s-14 6-22 6c-9 0-17-2-23-7-7-4-12-9-16-17-3-7-5-14-5-23zm12 1c0 11 3 19 9 26 6 6 14 9 23 9s16-3 22-9c6-7 9-16 9-28 0-7-1-14-4-19-2-6-6-10-11-13s-10-5-16-5c-9 0-16 3-22 9-7 6-10 16-10 30zm114 44l35-92h14l37 92h-14l-10-28h-39l-10 28h-13zm27-38h31l-10-25c-3-8-5-14-6-19-1 6-3 12-5 18l-10 26zm73 38v-92h12v81h45v11h-57zm76 0v-92h12v81h45v11h-57zm172-32l12 3c-2 10-7 18-13 23-7 5-15 8-25 8-9 0-17-2-24-6-6-4-11-10-14-18-3-7-5-16-5-24 0-10 2-18 6-25 4-8 9-13 15-17 7-3 15-5 23-5 9 0 17 2 23 7s10 11 13 20l-12 2c-2-6-5-11-9-14s-9-5-16-5-12 2-17 5c-5 4-8 8-10 14s-3 11-3 18 1 14 3 20c3 6 6 10 11 13s10 4 15 4c7 0 13-2 18-6 4-3 8-9 9-17zm22 32l35-92h13l38 92h-14l-11-28h-38l-10 28h-13zm26-38h32l-10-25c-3-8-5-14-7-19-1 6-2 12-5 18l-10 26zm74 38v-92h12v81h45v11h-57zm75 0v-92h13v81h45v11h-58zm73-29l11-1c1 4 2 8 4 11s5 5 9 7 9 3 14 3 9-1 12-2c4-2 7-3 8-6 2-2 3-5 3-8s-1-5-3-7c-1-2-4-4-8-6-2-1-8-2-16-4-9-2-14-4-18-6s-7-5-10-8c-2-4-3-8-3-12s1-9 4-13 7-7 12-9 10-3 16-3c7 0 13 1 18 3 6 2 10 6 12 10 3 4 5 9 5 14l-12 1c0-6-2-10-6-13s-9-4-16-4-13 1-16 4c-3 2-5 6-5 9 0 4 1 6 3 9 3 2 9 4 19 6s16 4 20 6c5 2 9 5 12 9 2 4 4 8 4 13s-2 10-5 14c-2 4-6 8-12 10-5 3-11 4-17 4-9 0-15-2-21-4s-10-6-13-11-5-10-5-16z"/>
 <path class="fil10" d="m4466 16887v-263h81c19 0 33 1 43 5 12 4 22 13 29 25 8 12 12 27 12 45 0 24-6 43-19 58-12 15-33 23-62 23h-56v107h-28zm28-138h56c18 0 31-4 39-12s12-20 12-36c0-11-2-20-6-27s-9-13-14-15c-6-3-16-4-31-4h-56v94zm314-125h29v152c0 25-3 46-8 63-5 16-14 29-27 39-13 9-30 14-50 14-28 0-50-9-64-26s-21-47-21-90v-152h29v152c0 24 2 41 5 52 4 10 10 19 19 24 8 6 18 8 30 8 21 0 35-5 44-17 10-11 14-34 14-67v-152zm76 263v-263h28v232h107v31h-135zm168 0v-263h28v232h107v31h-135zm292 0v-232h-71v-31h172v31h-72v232h-29zm116-128c0-45 10-79 30-104 20-24 45-36 74-36 19 0 37 6 52 16 16 11 28 27 38 47 9 21 13 45 13 74 0 39-8 71-26 95-20 27-45 41-77 41s-58-14-77-42c-18-25-27-55-27-91zm30 0c0 33 7 58 21 76 15 18 32 27 53 27s38-9 53-27c14-18 21-45 21-80 0-23-4-43-11-61-6-13-14-24-26-33-11-8-23-12-37-12-21 0-39 9-53 27s-21 46-21 83zm289 0c0-45 10-79 30-104 20-24 45-36 74-36 19 0 37 6 52 16 16 11 29 27 38 47 9 21 13 45 13 74 0 39-8 71-26 95-20 27-45 41-77 41s-58-14-77-42c-18-25-27-55-27-91zm30 0c0 33 7 58 21 76 15 18 32 27 53 27s38-9 53-27c14-18 21-45 21-80 0-23-4-43-11-61-6-13-14-24-25-33-12-8-24-12-38-12-21 0-39 9-53 27s-21 46-21 83zm213 128v-263h82c19 0 33 1 42 5 13 4 23 13 30 25 8 12 11 27 11 45 0 24-6 43-18 58s-33 23-63 23h-55v107h-29zm29-138h56c18 0 30-4 39-12 8-8 12-20 12-36 0-11-2-20-6-27s-9-13-15-15c-5-3-16-4-31-4h-55v94zm173 138v-263h157v31h-128v81h120v31h-120v89h133v31h-162zm200 0v-263h30l113 207v-207h28v263h-30l-113-207v207h-28z"/>
 <rect class="fil11" x="7029" y="14683" width="285" height="599" rx="363" ry="363"/>
 <rect class="fil11" x="7029" y="15766" width="285" height="599" rx="363" ry="363"/>
 <circle class="fil7" cx="7171" cy="14792" r="43"/>
 <circle class="fil7" cx="7171" cy="15173" r="43"/>
 <circle class="fil7" cx="7171" cy="15875" r="43"/>
 <circle class="fil7" cx="7171" cy="16256" r="43"/>
 <rect class="fil7" x="7144" y="15253" width="53.445" height="541.62" rx="242" ry="252"/>
 <rect class="fil11" x="9466" y="14319" width="285" height="599" rx="363" ry="363"/>
 <circle class="fil7" cx="9608" cy="14428" r="43"/>
 <circle class="fil7" cx="9608" cy="14809" r="43"/>
 <rect class="fil11" x="9466" y="16130" width="285" height="599" rx="363" ry="363"/>
 <circle class="fil7" cx="9608" cy="16238" r="43"/>
 <circle class="fil7" cx="9608" cy="16620" r="43"/>
 <rect class="fil7" x="9582" y="14894" width="53.445" height="1259.4" rx="242" ry="587"/>
 <rect class="fil3" x="8096" y="8116" width="121" height="19592"/>
 <rect class="fil3" x="9172" y="8116" width="121" height="19592"/>
 <circle class="fil11" cx="9664" cy="17919" r="281"/>
 <path class="fil3" d="m9664 17740c47 0 85 38 85 85 0 33-18 61-44 75l27 199h-137l27-199c-26-14-44-42-44-75 0-47 38-85 86-85z"/>
 <path class="fil12" d="m2841 6376v-734h195c73 0 121 3 143 10 36 11 65 36 89 73 23 37 35 85 35 143 0 53-11 98-31 134s-45 61-75 75c-30 15-82 22-155 22h-80v277h-121zm121-610v209h67c46 0 77-3 93-10 16-6 29-17 40-34 10-17 15-37 15-61 0-25-5-45-16-62-10-17-24-28-40-34-15-5-49-8-100-8h-59zm485 247c0-87 13-159 39-216 26-56 60-98 102-126 41-28 92-42 151-42 86 0 157 33 211 99s81 159 81 281c0 123-29 219-86 288-50 61-119 91-205 91-87 0-156-30-206-90-58-69-87-164-87-285zm126-5c0 85 16 148 48 190s72 63 119 63c48 0 87-21 119-63 31-41 47-106 47-192 0-85-15-148-46-188-30-41-70-62-120-62-49 0-90 21-121 62s-46 104-46 190zm626 368v-728h121v604h303v124h-424zm578 0v-734h121v734h-121zm693-271l118 45c-19 83-49 143-92 181s-95 57-158 57c-78 0-142-30-190-90-56-70-84-164-84-283 0-125 28-223 84-294 49-61 115-92 198-92 68 0 124 23 170 70 32 32 56 81 71 146l-120 35c-8-40-23-71-46-92s-50-32-81-32c-45 0-81 20-109 58-28 39-42 103-42 192 0 92 13 158 41 197 27 39 62 58 106 58 32 0 60-12 83-37 24-25 40-65 51-119zm292 271v-734h447v124h-326v162h303v124h-303v200h337v124h-458z"/>
 <path class="fil12" d="m12647 5642h241c66 0 113 6 139 18 27 12 50 33 68 63 19 31 28 65 28 104 0 35-8 67-24 95-15 29-36 50-61 64 36 13 63 34 83 65s31 68 31 112c0 54-13 99-39 136s-56 59-91 68c-25 6-81 9-170 9h-205v-734zm121 122v170h81c48 0 78-1 89-3 21-3 37-12 49-26s18-33 18-58c0-22-5-39-14-53-10-14-22-22-35-25-14-4-53-5-117-5h-71zm0 292v196h113c50 0 81-3 96-8 14-5 25-15 35-30s14-35 14-58c0-24-5-44-15-59-10-16-24-26-41-32s-51-9-103-9h-99zm532-43c0-87 13-159 38-216 26-56 60-98 102-126 41-28 92-42 151-42 87 0 157 33 211 99s81 159 81 281c0 123-28 219-86 288-50 61-119 91-205 91-87 0-156-30-206-90-58-69-86-164-86-285zm125-5c0 85 16 148 48 190s72 63 119 63c48 0 88-21 119-63 31-41 47-106 47-192 0-85-15-148-46-188-30-41-70-62-120-62-49 0-90 21-121 62s-46 104-46 190zm562 368l209-383-189-351h142l119 219 119-219h141l-189 351 209 383h-146l-134-250-135 250h-146z"/>
 <path class="fil12" d="m7737 5927v-292h106c40 0 66 1 79 4 18 4 34 14 47 29 12 14 19 33 19 57 0 18-4 33-11 45-8 12-17 22-28 29s-23 11-34 14c-16 2-39 4-69 4h-42v110h-67zm67-243v83h36c26 0 43-1 52-4 8-3 15-8 20-15 5-6 8-14 8-23 0-10-4-19-11-26s-16-11-26-13c-8-1-24-2-48-2h-31zm292-49h66v158c0 25 1 42 3 49 3 12 9 22 20 29 10 7 25 11 43 11s32-4 42-11c9-6 15-15 17-25s3-26 3-50v-161h66v153c0 36-2 60-5 75-4 14-11 27-20 37-10 10-22 18-38 23-16 6-37 9-63 9-31 0-55-3-71-9-16-7-29-15-38-25-9-11-15-22-18-33-5-17-7-41-7-74v-156zm384 0h131c26 0 45 1 58 2 12 2 24 6 34 12 10 7 18 15 25 25s10 21 10 34c0 14-4 26-12 38-9 11-20 20-34 25 20 6 35 14 46 27 11 12 16 27 16 44 0 13-3 26-10 39s-17 23-29 30c-12 8-26 12-44 14-11 1-38 2-80 2h-111v-292zm66 48v68h43c26 0 42-1 48-1 12-2 20-5 27-11 6-6 10-13 10-23 0-9-3-16-9-22-5-5-14-9-25-10-6 0-25-1-56-1h-38zm0 116v79h61c24 0 39-1 46-2 10-2 18-6 24-12s9-14 9-25c0-9-2-16-7-22s-12-11-21-14c-9-2-28-4-58-4h-54zm320 128v-290h66v241h164v49h-230zm329 0v-292h66v292h-66zm392-108l64 18c-10 32-26 56-49 72-23 15-52 23-87 23-43 0-79-13-107-40-28-26-42-63-42-109 0-48 14-86 42-113s65-41 111-41c40 0 73 11 98 32 15 13 26 31 33 54l-65 14c-4-15-12-27-24-36-13-9-28-13-45-13-24 0-44 8-59 23-15 16-23 41-23 76 0 37 8 63 22 79 15 15 35 23 59 23 17 0 32-5 45-15s22-25 27-47zm-1345 457l64 17c-10 32-26 56-49 72s-52 23-87 23c-44 0-79-13-107-39-28-27-42-63-42-109 0-49 14-87 42-114s65-40 111-40c40 0 72 10 97 31 15 13 26 31 34 54l-65 14c-4-15-12-27-25-36-12-8-27-13-44-13-25 0-44 8-60 24-15 15-22 40-22 75 0 37 7 63 22 79s34 24 58 24c18 0 33-5 46-15 12-10 21-26 27-47zm469 107h-71l-28-66h-132l-27 66h-70l127-292h70l131 292zm-121-116l-45-108-45 108h90zm212 116v-290h67v241h163v49h-230zm333 0v-290h67v241h164v49h-231z"/>
 <rect class="fil1" x="8e3" y="481" width="1389" height="1392"/>
 <rect class="fil13" x="8078" y="481" width="1232" height="1392"/>
 <polygon class="fil1" points="7997 1760 9392 1760 9491 1963 9608 1963 9608 2153 7781 2153 7781 1963 7898 1963"/>
 <path class="fil1" d="m8694 0c384 0 695 222 695 495v3h-1389v-3c0-273 311-495 694-495z"/>
 <rect class="fil1" x="8654" y="379" width="79.651" height="1398.6"/>
</svg>
