<?xml version="1.0" encoding="UTF-8"?>
<svg width="1057.6" height="1057.6" viewBox="0 0 1057.5636 446.09448" xmlns="http://www.w3.org/2000/svg" xmlns:xlink="http://www.w3.org/1999/xlink">
 <defs>
  <linearGradient id="b">
   <stop stop-color="#eeeeec" offset="0"/>
   <stop stop-color="#555753" offset="1"/>
  </linearGradient>
  <linearGradient id="a">
   <stop stop-color="#6c981a" offset="0"/>
   <stop stop-color="#b8cf22" offset="1"/>
  </linearGradient>
  <linearGradient id="d" x1="489.99" x2="521.11" y1="159.04" y2="155.32" gradientUnits="userSpaceOnUse">
   <stop stop-color="#325804" offset="0"/>
   <stop stop-color="#325804" stop-opacity="0" offset="1"/>
  </linearGradient>
  <linearGradient id="c" x1="95.088" x2="131.09" y1="155.07" y2="21.688" gradientUnits="userSpaceOnUse">
   <stop stop-color="#c4a000" offset="0"/>
   <stop stop-color="#c4a000" stop-opacity="0" offset="1"/>
  </linearGradient>
  <linearGradient id="j" x1="941.09" x2="998.27" y1="174.09" y2="203.59" gradientUnits="userSpaceOnUse">
   <stop stop-color="#8f5902" offset="0"/>
   <stop stop-color="#c17d11" offset="1"/>
  </linearGradient>
  <linearGradient id="i" x1="356.61" x2="860.07" y1="372.67" y2="201.84" gradientUnits="userSpaceOnUse">
   <stop stop-color="#d2e748" offset="0"/>
   <stop stop-color="#b4cb1b" offset="1"/>
  </linearGradient>
  <linearGradient id="h" x1="1012.4" x2="911.92" y1="143.64" y2="264.41" gradientUnits="userSpaceOnUse">
   <stop stop-color="#618817" offset="0"/>
   <stop stop-color="#82b71f" offset="1"/>
  </linearGradient>
  <linearGradient id="e" x2="0" y1="76.219" y2="118.44" gradientUnits="userSpaceOnUse">
   <stop stop-color="#fff" offset="0"/>
   <stop stop-color="#d3d7cf" stop-opacity="0" offset="1"/>
  </linearGradient>
  <linearGradient id="l" x1="871.86" x2="919.24" y1="159.75" y2="163.15" gradientUnits="userSpaceOnUse" xlink:href="#b"/>
  <linearGradient id="k" x1="846.57" x2="891.32" y1="155.09" y2="158.31" gradientUnits="userSpaceOnUse" xlink:href="#b"/>
  <linearGradient id="g" x1="37" x2="256.68" y1="266.36" y2="322.82" gradientTransform="matrix(2.01 0 0 1 -33.305 -106.93)" gradientUnits="userSpaceOnUse" xlink:href="#a"/>
  <linearGradient id="f" x1="644.63" x2="441.08" gradientUnits="userSpaceOnUse" xlink:href="#a"/>
 </defs>
 <path d="m445.08 34c-10.766 0-19.777 7.5121-22.089 17.577-7.8562 0.10673-14.593 4.8613-17.601 11.627l-0.12396-0.0496c-2.4301-0.88978-5.046-1.3883-7.7843-1.3883-12.518 0-22.684 10.166-22.684 22.684s10.166 22.659 22.684 22.659c0.39118 0 0.77884-6e-3 1.1652-0.0247 2.18-0.1105 4.2725-0.53091 6.2473-1.2148 2.7208 7.3391 9.7869 12.569 18.072 12.569 6.4143 0 12.092-3.137 15.593-7.9578 5.317 4.6058 12.246 7.3877 19.833 7.3877 10.489 0 19.745-5.3157 25.187-13.412 4.0998 4.0874 9.7683 6.6192 16.015 6.6192 9.471 0 17.559-5.807 20.948-14.056 3.5643 3.7756 8.6279 6.1233 14.23 6.1233 6.0044 0 11.388-2.7061 14.974-6.9662 3.8707 3.0807 8.7745 4.9334 14.106 4.9334 0.92671 0 1.8294-0.0654 2.727-0.17353 3.5844 4.1306 8.877 6.7431 14.775 6.7431 9.5508 0 17.48-6.8614 19.188-15.916 9.3858-0.6887 16.783-8.5356 16.783-18.097 0-10.014-8.1077-18.122-18.122-18.122-7.2636 0-13.517 4.2694-16.412 10.437-4.0525-6.1556-11.019-10.214-18.94-10.214-6.3346 0-12.076 2.6033-16.188 6.7927-2.2374-10.165-11.301-17.775-22.138-17.775-6.0976 0-11.619 2.405-15.693 6.3217-3.6012-7.7525-11.441-13.139-20.552-13.139-7.3759 0-13.933 3.5438-18.073 8.9991-1.3891-0.31315-2.8299-0.49582-4.3136-0.49582-0.5148 0-1.0322 0.0353-1.537 0.0743-3.7193-7.4334-11.401-12.544-20.279-12.544z" fill="url(#e)"/>
 <path d="m2.042 34h1053.4v387.14h-1053.4v-387.14z" fill="#cce6f3"/>
 <path d="m283.74 198.54c163.08-57.179 329.7-83.565 452.01-68.64 106.92-38.689 180.86-11.932 180.86-11.932l-2.01 139.86-647.51 1 16.654-60.286z" fill="url(#f)"/>
 <g transform="matrix(-.51331 0 0 .51331 1054.2 72.071)" fill="url(#c)" stroke="#edd400">
  <path d="m126.79 56.57c-17.5 5-11 96-11 96l13-2s3-89 20.5-93" stroke-width="5"/>
  <path d="m125.36 55.945c-16.758 7.101 0.81359 96.625 0.81359 96.625l12.658-3.5736s-7.8982-88.7 8.9818-94.808" stroke-width="5"/>
  <path d="m134.81 60.945c-16.758 7.101-4.1864 91.625-4.1864 91.625l12.658-3.5736s-0.39823-95.7 16.482-101.81" stroke-width="5"/>
  <path d="m120.25 44.945c-16.758 7.101-11.186 107.62-11.186 107.62l12.658-3.5736s-4.8982-75.2 14.482-78.808" stroke-width="5"/>
  <path d="m80.44 60.945c-16.758 7.101-4.1864 91.625-4.1864 91.625l12.658-3.5736s-1.8982-72.2 21.482-72.808" stroke-width="5"/>
  <path d="m20.491 56.57c-17.5 5-11 96-11 96l13-2s3-89 20.5-93" stroke-width="5"/>
  <path d="m52.081 55.945c-16.758 7.101 0.81359 96.625 0.81359 96.625l12.658-3.5736s-7.8982-88.7 8.9818-94.808" stroke-width="5"/>
  <path d="m166.67 60.945c-16.758 7.101-4.1864 91.625-4.1864 91.625l12.658-3.5736s-0.39823-95.7 16.482-101.81" stroke-width="5"/>
  <path d="m239.47 44.945c-16.758 7.101-11.186 107.62-11.186 107.62l12.658-3.5736s-4.8982-75.2 14.482-78.808" stroke-width="5"/>
  <path d="m101.03 60.945c-16.758 7.101-4.1864 91.625-4.1864 91.625l12.658-3.5736s-1.8982-72.2 21.482-72.808" stroke-width="5"/>
  <path d="m8.0333 56.57c-17.5 5-11 96-11 96l13-2s3-89 20.5-93" stroke-width="5"/>
  <path d="m127.95 55.945c-16.758 7.101 0.81359 96.625 0.81359 96.625l12.658-3.5736s-7.8982-88.7 8.9818-94.808" stroke-width="5"/>
  <path d="m176.12 57.945c-16.758 7.101-4.1864 91.625-4.1864 91.625l12.658-3.5736s-0.39823-95.7 16.482-101.81" stroke-width="5"/>
  <path d="m186.45 44.945c-16.758 7.101-11.186 107.62-11.186 107.62l12.658-3.5736s-4.8982-75.2 14.482-78.808" stroke-width="5"/>
  <path d="m236.37 60.945c-16.758 7.101-4.1864 91.625-4.1864 91.625l12.658-3.5736s-1.8982-72.2 21.482-72.808" stroke-width="5"/>
  <path d="m156.78 56.57c-17.5 5-11 96-11 96l13-2s3-89 20.5-93" stroke-width="5"/>
  <path d="m66.329 26.788c-16.399 9.2204 0.79616 125.46 0.79616 125.46l12.387-4.6402s-7.729-115.17 8.7894-123.11" stroke-width="5.6362"/>
  <path d="m192.35 60.945c-16.758 7.101-4.1864 91.625-4.1864 91.625l12.658-3.5736s-0.39823-95.7 16.482-101.81" stroke-width="5"/>
  <path d="m42.748 44.945c-16.758 7.101-11.186 107.62-11.186 107.62l12.658-3.5736s-4.8982-75.2 14.482-78.808" stroke-width="5"/>
  <path d="m15.928 78.708c-16.964 5.7429-4.2379 74.101-4.2379 74.101l12.814-2.8901s-1.9216-58.391 21.746-58.883" stroke-width="4.5241"/>
  <path d="m205.31 36.719c-17.35 5.6616-10.906 108.7-10.906 108.7l12.888-2.2646s2.9742-100.78 20.324-105.31" stroke-width="5.2976"/>
  <path d="m142.25 55.945c-16.758 7.101 0.81359 96.625 0.81359 96.625l12.658-3.5736s-7.8982-88.7 8.9818-94.808" stroke-width="5"/>
  <path d="m149.25 42.846c-16.543 8.487-4.1328 109.51-4.1328 109.51l12.496-4.2711s-0.39313-114.38 16.271-121.68" stroke-width="5.4311"/>
  <path d="m217.32 44.945c-16.758 7.101-11.186 107.62-11.186 107.62l12.658-3.5736s-4.8982-75.2 14.482-78.808" stroke-width="5"/>
  <path d="m100.38 60.945c-16.758 7.101-4.1864 91.625-4.1864 91.625l12.658-3.5736s-1.8982-72.2 21.482-72.808" stroke-width="5"/>
 </g>
 <path d="m635.95 230.54c-163.08-57.179-329.7-83.565-452.01-68.64-106.92-38.689-180.86-11.932-180.86-11.932l2.01 139.86 647.51 1-16.654-60.286z" fill="url(#g)"/>
 <g transform="matrix(-.47513 .19428 .19428 .47513 875.97 73.978)" fill="url(#c)" stroke="#edd400">
  <path d="m126.79 56.57c-17.5 5-11 96-11 96l13-2s3-89 20.5-93" stroke-width="5"/>
  <path d="m125.36 55.945c-16.758 7.101 0.81359 96.625 0.81359 96.625l12.658-3.5736s-7.8982-88.7 8.9818-94.808" stroke-width="5"/>
  <path d="m134.81 60.945c-16.758 7.101-4.1864 91.625-4.1864 91.625l12.658-3.5736s-0.39823-95.7 16.482-101.81" stroke-width="5"/>
  <path d="m120.25 44.945c-16.758 7.101-11.186 107.62-11.186 107.62l12.658-3.5736s-4.8982-75.2 14.482-78.808" stroke-width="5"/>
  <path d="m80.44 60.945c-16.758 7.101-4.1864 91.625-4.1864 91.625l12.658-3.5736s-1.8982-72.2 21.482-72.808" stroke-width="5"/>
  <path d="m20.491 56.57c-17.5 5-11 96-11 96l13-2s3-89 20.5-93" stroke-width="5"/>
  <path d="m52.081 55.945c-16.758 7.101 0.81359 96.625 0.81359 96.625l12.658-3.5736s-7.8982-88.7 8.9818-94.808" stroke-width="5"/>
  <path d="m166.67 60.945c-16.758 7.101-4.1864 91.625-4.1864 91.625l12.658-3.5736s-0.39823-95.7 16.482-101.81" stroke-width="5"/>
  <path d="m239.47 44.945c-16.758 7.101-11.186 107.62-11.186 107.62l12.658-3.5736s-4.8982-75.2 14.482-78.808" stroke-width="5"/>
  <path d="m101.03 60.945c-16.758 7.101-4.1864 91.625-4.1864 91.625l12.658-3.5736s-1.8982-72.2 21.482-72.808" stroke-width="5"/>
  <path d="m8.0333 56.57c-17.5 5-11 96-11 96l13-2s3-89 20.5-93" stroke-width="5"/>
  <path d="m127.95 55.945c-16.758 7.101 0.81359 96.625 0.81359 96.625l12.658-3.5736s-7.8982-88.7 8.9818-94.808" stroke-width="5"/>
  <path d="m176.12 57.945c-16.758 7.101-4.1864 91.625-4.1864 91.625l12.658-3.5736s-0.39823-95.7 16.482-101.81" stroke-width="5"/>
  <path d="m186.45 44.945c-16.758 7.101-11.186 107.62-11.186 107.62l12.658-3.5736s-4.8982-75.2 14.482-78.808" stroke-width="5"/>
  <path d="m236.37 60.945c-16.758 7.101-4.1864 91.625-4.1864 91.625l12.658-3.5736s-1.8982-72.2 21.482-72.808" stroke-width="5"/>
  <path d="m156.78 56.57c-17.5 5-11 96-11 96l13-2s3-89 20.5-93" stroke-width="5"/>
  <path d="m66.329 26.788c-16.399 9.2204 0.79616 125.46 0.79616 125.46l12.387-4.6402s-7.729-115.17 8.7894-123.11" stroke-width="5.6362"/>
  <path d="m192.35 60.945c-16.758 7.101-4.1864 91.625-4.1864 91.625l12.658-3.5736s-0.39823-95.7 16.482-101.81" stroke-width="5"/>
  <path d="m42.748 44.945c-16.758 7.101-11.186 107.62-11.186 107.62l12.658-3.5736s-4.8982-75.2 14.482-78.808" stroke-width="5"/>
  <path d="m15.928 78.708c-16.964 5.7429-4.2379 74.101-4.2379 74.101l12.814-2.8901s-1.9216-58.391 21.746-58.883" stroke-width="4.5241"/>
  <path d="m205.31 36.719c-17.35 5.6616-10.906 108.7-10.906 108.7l12.888-2.2646s2.9742-100.78 20.324-105.31" stroke-width="5.2976"/>
  <path d="m142.25 55.945c-16.758 7.101 0.81359 96.625 0.81359 96.625l12.658-3.5736s-7.8982-88.7 8.9818-94.808" stroke-width="5"/>
  <path d="m149.25 42.846c-16.543 8.487-4.1328 109.51-4.1328 109.51l12.496-4.2711s-0.39313-114.38 16.271-121.68" stroke-width="5.4311"/>
  <path d="m217.32 44.945c-16.758 7.101-11.186 107.62-11.186 107.62l12.658-3.5736s-4.8982-75.2 14.482-78.808" stroke-width="5"/>
  <path d="m100.38 60.945c-16.758 7.101-4.1864 91.625-4.1864 91.625l12.658-3.5736s-1.8982-72.2 21.482-72.808" stroke-width="5"/>
 </g>
 <path d="m746.12 216.15c145.22-102.35 309.33-62.852 309.33-62.852v267l-313.48-6.364 4.1492-197.78z" fill="url(#h)"/>
 <path d="m327.07 218.29c441.43-52.857 728.38 39.279 728.38 39.279v164.29l-726.95-0.70711-1.4286-202.86z" fill="url(#i)"/>
 <path d="m327.07 218.29c441.43-52.857 724.29 38.571 724.29 38.571-80.087-16.71-482.86-90.714-718.86 40.286l-5.4286-78.857z" fill="#fce94f"/>
 <path d="m339.07 341.29c354.43-166.86 703.29-84.429 703.29-84.429-84.087-24.71-462.86-21.714-706.86 160.29l3.5714-75.857z" fill="#fce94f"/>
 <path d="m416.07 424.29c398.43-231.86 639.38-166.43 639.38-166.43-125.09-42.71-435.95 79.286-543.95 169.29l-95.429-2.8572z" fill="#fce94f"/>
 <path d="m319.87 208.65s-316.78-8.6242-316.78 34.87v178.19l608.06 3.4142s-164.79-87.681-291.28-216.48z" fill="#c17d11"/>
 <path d="m229.09 218.09c40-26 69-5 69-5l261 213-84-2s-207-198-246-206z" fill="#e9b96e"/>
 <path d="m126.09 226.09c25-33 73-9 73-9l234 207-72-2s-209-184-235-196z" fill="#e9b96e"/>
 <path d="m25.09 238.09c43-30 69-15 69-15l223 201-84-2s-182-172-208-184z" fill="#e9b96e"/>
 <path d="m3.0904 324.09v-53l186 157-84-2s-102-88-102-102z" fill="#e9b96e"/>
 <path d="m626.07 424.29c336.43-193.86 429.38-166.43 429.38-166.43-115.09 17.29-187.95 71.286-295.95 161.29l-133.43 5.1428z" fill="#fce94f"/>
 <path d="m858.09 421.44c134.43-111.86 197.36-163.58 197.36-163.58 0 13.29-51.244 57.629-61.245 165.63l-136.11-2.0495z" fill="#fce94f"/>
 <path d="m980.16 180.97 30.929 8.1213 44.362 5v39l-56.492-22.778-50.87-16.222-7-5 2-15 37.071 6.8787z" fill="url(#j)"/>
 <path d="m898.09 103.86 89-1.7634 2 82-91-18.516v-61.72z" fill="#5e0000"/>
 <path d="m836.09 104.09 89-2 2 93-91-21v-70z" fill="#c00"/>
 <path d="m924.47 101.97 1.4375 92.281 15.406-2.625-0.875-56.781 38.969-2.1875 1.0312 52.281 8.875-1.5-1.625-81-31.609-38.234-31.609 37.766z" fill="#a40000"/>
 <path d="m832.09 111.59 3-0.5h85l35.5-46-94.5 7-29 39.5z" fill="#2e3436" stroke="#000"/>
 <path d="m956.09 66.094 33 38.5-33-38.5-94.5 7 94.5-7z" fill="#2e3436" stroke="#000"/>
 <path d="m861.26 100.31c-10.412 0-18.844 5.0161-18.844 11.219 0 0.55996 0.0859 1.1183 0.21875 1.6562v68.469c-0.45014 0.97798-0.71875 1.9994-0.71875 3.0625 0 6.398 8.7293 11.594 19.469 11.594s19.438-5.1958 19.438-11.594c0-1.0631-0.2686-2.0845-0.7187-3.0625v-69.75h-0.031c0.01-0.12476 0.031-0.24925 0.031-0.375 0-6.2027-8.4321-11.219-18.844-11.219z" fill="url(#k)"/>
 <path d="m879.32 106.99c0 3.9011-7.9655 7.0636-17.791 7.0636s-17.791-3.1625-17.791-7.0636 7.9654-7.0636 17.791-7.0636 17.791 3.1625 17.791 7.0636z" fill="#eeeeec" opacity=".57959"/>
 <path d="m887.41 101.75c-11.023 0-19.95 5.3105-19.95 11.877 0 0.59283 0.0909 1.1839 0.23159 1.7535v72.487c-0.47656 1.0354-0.76094 2.1167-0.76094 3.2422 0 6.7734 9.2417 12.274 20.611 12.274s20.578-5.5007 20.578-12.274c0-1.1255-0.28437-2.2069-0.76088-3.2422v-73.844h-0.0328c0.0106-0.13208 0.0328-0.26388 0.0328-0.39701 0-6.5667-8.927-11.877-19.95-11.877z" fill="url(#l)"/>
 <path d="m905.83 109.53c0 4.13-8.433 7.4781-18.836 7.4781s-18.836-3.348-18.836-7.4781 8.433-7.4781 18.836-7.4781 18.836 3.348 18.836 7.4781z" fill="#eeeeec" opacity=".57959"/>
 <path d="m3.0904 412.09h1052.4v34h-1052.4z" fill="#2e3436"/>
 <path d="m3.0904 0h1052.4v34h-1052.4z" fill="#2e3436"/>
 <path d="m416.8 17.656c-13.571 0-24.93 9.4694-27.844 22.156-9.9032 0.13454-18.396 6.1279-22.188 14.656l-0.15625-0.0625c-3.0632-1.1216-6.3607-1.75-9.8125-1.75-15.78 0-28.594 12.814-28.594 28.594s12.814 28.562 28.594 28.562c0.49311 0 0.98177-7e-3 1.4688-0.0312 2.7479-0.13929 5.3857-0.66923 7.875-1.5312 3.4297 9.2512 12.337 15.844 22.781 15.844 8.0855 0 15.242-3.9543 19.656-10.031 6.7023 5.8058 15.437 9.3125 25 9.3125 13.222 0 24.889-6.7006 31.75-16.906 5.168 5.1523 12.313 8.3438 20.188 8.3438 11.939 0 22.134-7.32 26.406-17.719 4.493 4.7593 10.876 7.7188 17.938 7.7188 7.5688 0 14.355-3.4112 18.875-8.7812 4.8792 3.8833 11.061 6.2188 17.781 6.2188 1.1682 0 2.3061-0.0825 3.4375-0.21875 4.5183 5.2068 11.19 8.5 18.625 8.5 12.039 0 22.034-8.649 24.188-20.062 11.831-0.86814 21.156-10.76 21.156-22.812 0-12.624-10.22-22.844-22.844-22.844-9.1561 0-17.039 5.3818-20.688 13.156-5.1084-7.7594-13.89-12.875-23.875-12.875-7.9851 0-15.222 3.2815-20.406 8.5625-2.8204-12.814-14.245-22.406-27.906-22.406-7.6863 0-14.646 3.0316-19.781 7.9688-4.5394-9.7724-14.422-16.562-25.906-16.562-9.2977 0-17.564 4.4671-22.781 11.344-1.751-0.39474-3.5673-0.625-5.4375-0.625-0.64893 0-1.3012 0.0445-1.9375 0.0937-4.6884-9.3702-14.372-15.812-25.562-15.812z" fill="#fff"/>
 <g transform="matrix(-1.4461 0 0 1.4461 806.75 -119.98)">
  <path d="m404.12 165.85c-7.8847-1.8044-13.22-8.8291-13.227-16.587-5.7357-1.3949-9.902-5.9959-10.971-11.455l-0.0983 0.01c-1.9288 0.24435-3.9211 0.16055-5.9265-0.29841-9.1677-2.0981-14.901-11.234-12.803-20.401s11.234-14.901 20.401-12.803c0.28649 0.0656 0.56631 0.14663 0.84599 0.22561 1.578 0.44628 3.066 1.1043 4.3977 1.9361 3.2227-4.9188 9.2581-7.5627 15.326-6.174 4.6976 1.0751 8.3353 4.3151 10.092 8.4326 4.6659-2.4819 10.208-3.338 15.765-2.0664 7.6818 1.758 13.556 7.1851 16.185 14.027 3.6876-2.3063 8.2617-3.2065 12.837-2.1595 6.9362 1.5874 11.897 7.2004 12.997 13.81 3.2432-2.1677 7.3402-3.0327 11.443-2.0937 4.3974 1.0064 7.89 3.876 9.8022 7.597 2.0857-1.0004 4.3789-1.5752 6.7592-1.6589l-7.341 32.077c-2.7438-1.4445-4.9997-3.5916-6.5743-6.153-3.3424 7.0697-11.253 11.146-19.19 9.3291-4.4656-1.022-8.128-3.7143-10.455-7.2655-3.9367 5.074-10.579 7.7092-17.251 6.1822-5.4018-1.2362-9.5909-4.947-11.708-9.636-1.0698-3e-3 -2.1652-0.11081-3.2518-0.35948-0.37703-0.0863-0.75003-0.20571-1.1132-0.31887-3.9698 4.8206-10.439 7.2925-16.941 5.8046z" fill="#3e6d05"/>
  <path d="m475.08 146.36c-8.0333-0.94363-15.276 2.6955-17.696 8.4122-5.8694-0.62582-11.249 1.5641-13.961 5.2796l-0.0902-0.0354c-1.7518-0.73631-3.6658-1.249-5.709-1.489-9.3405-1.0972-17.616 3.9834-18.481 11.346s6.0083 14.222 15.349 15.32c0.29189 0.0343 0.5823 0.0551 0.8719 0.0777 1.6342 0.12611 3.2491 0.0702 4.7699-0.15894 1.5231 4.5549 6.4197 8.244 12.602 8.9702 4.7861 0.56219 9.2416-0.77698 12.188-3.3054 3.6492 3.1748 8.635 5.4041 14.296 6.0691 7.8266 0.91934 15.082-1.387 19.702-5.6716 2.7767 2.7633 6.8312 4.7458 11.492 5.2933 7.0669 0.83012 13.515-1.8765 16.614-6.4313 2.3987 2.533 6.0121 4.352 10.192 4.843 4.4803 0.52627 8.683-0.58175 11.653-2.773 1.6651 1.3388 3.6594 2.4238 5.8889 3.1719l3.0259-25.76c-3.0496 0.27353-5.8555 1.2056-8.1448 2.6394-0.9672-6.1748-7.1949-11.46-15.282-12.41-4.5498-0.53444-8.8582 0.39389-12.169 2.3404-2.1515-4.8752-7.6258-8.7329-14.424-9.5315-5.5036-0.64648-10.628 0.88067-14.093 3.7264-1.0148-0.30591-2.0863-0.54268-3.1933-0.67272-0.38413-0.0451-0.77476-0.0646-1.1541-0.0859-2.2617-4.6979-7.6228-8.3854-14.247-9.1634z" fill="#325804"/>
  <path d="m470.19 170.23c-8.0886 0-14.857-5.6573-16.594-13.219-5.9024-0.0802-10.99-3.6358-13.25-8.7188l-0.0937 0.0312c-1.8257 0.66849-3.7865 1.0312-5.8438 1.0312-9.4047 0-17.031-7.6265-17.031-17.031s7.6265-17.031 17.031-17.031c0.2939 0 0.58475 0.0166 0.875 0.0312 1.6378 0.083 3.2351 0.39248 4.7188 0.90625 2.0441-5.5138 7.3376-9.4375 13.562-9.4375 4.819 0 9.0879 2.3468 11.719 5.9688 3.9946-3.4603 9.2065-5.5312 14.906-5.5312 7.8804 0 14.817 3.9799 18.906 10.062 3.0801-3.0708 7.3382-4.9688 12.031-4.9688 7.1155 0 13.204 4.3648 15.75 10.562 2.6778-2.8366 6.4787-4.5938 10.688-4.5938 4.511 0 8.5558 2.0182 11.25 5.2188 1.8099-1.4405 3.9171-2.5124 6.2187-3.125v32.906c-2.9969-0.79603-5.6749-2.3857-7.7812-4.5312-1.681 7.6372-8.4828 13.375-16.625 13.375-4.5811 0-8.7518-1.8074-11.812-4.75-2.7056 5.8244-8.5926 9.875-15.438 9.875-5.5415 0-10.453-2.6827-13.562-6.7812-1.0436 0.23526-2.1353 0.375-3.25 0.375-0.38677 0-0.77701-0.0332-1.1562-0.0625-2.7943 5.5847-8.5491 9.4375-15.219 9.4375z" fill="#417305"/>
  <path d="m355.01 114.47c-8.0886 0-14.858 5.6438-16.595 13.205-5.9024 0.0802-10.964 3.6523-13.224 8.7352-0.0312-0.0116-0.0619-0.0258-0.0931-0.0373-1.8257-0.66849-3.791-1.043-5.8483-1.043-9.4047 0-17.042 7.6374-17.042 17.042s7.6374 17.023 17.042 17.023c0.2939 0 0.58514-4e-3 0.87539-0.0186 1.6378-0.083 3.2099-0.39887 4.6936-0.91264 2.0441 5.5138 7.3529 9.443 13.578 9.443 4.819 0 9.0844-2.3568 11.715-5.9787 3.9946 3.4603 9.2004 5.5503 14.9 5.5503 7.8804 0 14.834-3.9936 18.923-10.076 3.0801 3.0708 7.3389 4.9729 12.032 4.9729 7.1155 0 13.192-4.3628 15.738-10.561 2.6778 2.8366 6.4821 4.6004 10.691 4.6004 4.5111 0 8.5554-2.0331 11.25-5.2337 2.9081 2.3145 6.5922 3.7064 10.598 3.7064 0.69624 0 1.3744-0.0492 2.0488-0.13038 2.6929 3.1033 6.6693 5.0661 11.101 5.0661 7.1755 0 13.133-5.1549 14.416-11.957 7.0516-0.51742 12.609-6.4128 12.609-13.596 0-7.5238-6.0913-13.615-13.615-13.615-5.4571 0-10.155 3.2076-12.33 7.8412-3.0446-4.6246-8.2788-7.6736-14.23-7.6736-4.7592 0-9.0723 1.9558-12.162 5.1033-1.681-7.6372-8.4901-13.354-16.632-13.354-4.5811 0-8.729 1.8068-11.79 4.7494-2.7056-5.8244-8.5954-9.8714-15.44-9.8714-5.5415 0-10.468 2.6624-13.578 6.761-1.0436-0.23526-2.1261-0.3725-3.2408-0.3725-0.38677 0-0.77553 0.0265-1.1548 0.0558-2.7943-5.5847-8.5657-9.4244-15.235-9.4244z" fill="#4e8a06"/>
  <path d="m385.43 168.44c-1.6219-0.46341-14.644 15.926-0.60224 32.822-7.817-2.1796-7.8291-7.2268-15.959-3.3123 3.781-7.2595 4.9196-12.298 4.8096-16.058-0.21839-7.4687-5.3636-9.8915-4.5085-14.656 0.77614-4.3252 0.69707 4.5838 5.7521 5.562 4.2766 0.82758 5.7156-5.2609 10.508-4.3575z" fill="#a56a0f"/>
  <path d="m422.36 166.73c-1.6417-0.46905-14.823 16.12-0.60958 33.222-7.9122-2.2062-7.9244-7.3149-16.154-3.3527 3.8271-7.348 4.9795-12.448 4.8682-16.253-0.22104-7.5596-12.95-10.992-8.0685-10.568 3.9859 0.34633 4.363 3.4205 9.4796 4.4106 4.3287 0.83765 5.6328-8.3728 10.484-7.4585z" fill="#905d0d"/>
  <path d="m418.01 122.47c-8.0886 0-14.858 5.6438-16.595 13.205-5.9024 0.0802-10.964 3.6523-13.224 8.7352-0.0312-0.0116-0.0619-0.0258-0.0931-0.0373-1.8257-0.66849-3.791-1.043-5.8483-1.043-9.4047 0-17.042 7.6374-17.042 17.042s7.6374 17.023 17.042 17.023c0.2939 0 0.58514-4e-3 0.87539-0.0186 1.6378-0.083 3.2099-0.39887 4.6936-0.91264 2.0441 5.5138 7.3529 9.443 13.578 9.443 4.819 0 9.0844-2.3568 11.715-5.9787 3.9946 3.4603 9.2004 5.5503 14.9 5.5503 7.8804 0 14.834-3.9936 18.923-10.076 3.0801 3.0708 7.3389 4.9729 12.032 4.9729 7.1155 0 13.192-4.3628 15.738-10.561 2.6778 2.8366 6.4821 4.6004 10.691 4.6004 4.5111 0 8.5554-2.0331 11.25-5.2337 2.9081 2.3145 6.5922 3.7064 10.598 3.7064 0.69624 0 1.3744-0.0492 2.0488-0.13038 2.6929 3.1033 6.6693 5.0661 11.101 5.0661 7.1754 0 13.133-5.1549 14.416-11.957 7.0515-0.51742 12.609-6.4128 12.609-13.596 0-7.5238-6.0913-13.615-13.615-13.615-5.4571 0-10.155 3.2076-12.33 7.8412-3.0446-4.6246-8.2787-7.6736-14.23-7.6736-4.7592 0-9.0723 1.9558-12.162 5.1033-1.681-7.6372-8.4901-13.354-16.632-13.354-4.5811 0-8.729 1.8068-11.79 4.7494-2.7056-5.8244-8.5954-9.8714-15.44-9.8714-5.5415 0-10.468 2.6624-13.578 6.761-1.0436-0.23526-2.1261-0.3725-3.2408-0.3725-0.38677 0-0.77553 0.0265-1.1548 0.0558-2.7943-5.5847-8.5657-9.4244-15.235-9.4244z" fill="#4e9a06"/>
  <path d="m488.87 172.47s9.4056 33.591 1.0077 36.615 11.421-2.6873 20.491 1.6796c0 0-18.811-33.591-13.437-38.294s-7.3901 0-8.0619 0z" fill="#a56a0f"/>
  <path d="m446.36 163.75c-2.3816-0.68046-21.504 23.386-0.88432 48.195-11.478-3.2005-11.496-10.612-23.434-4.8638 5.552-10.66 7.2238-18.058 7.0624-23.579-0.32067-10.967-18.787-15.946-11.705-15.331 5.7823 0.50242 6.3295 4.9621 13.752 6.3985 6.2797 1.2152 8.1716-12.147 15.209-10.82z" fill="#a56a0f"/>
  <path d="m473.02 124.47c-8.0886 0-14.857 5.6573-16.594 13.219-5.9024 0.0802-10.99 3.6358-13.25 8.7188l-0.0937-0.0312c-1.8257-0.66849-3.7865-1.0312-5.8438-1.0312-9.4047 0-17.031 7.6265-17.031 17.031s7.6265 17.031 17.031 17.031c0.2939 0 0.58475-0.0166 0.875-0.0312 1.6378-0.083 3.2351-0.39248 4.7188-0.90625 2.0441 5.5138 7.3376 9.4375 13.562 9.4375 4.819 0 9.0879-2.3468 11.719-5.9688 3.9946 3.4603 9.2065 5.5312 14.906 5.5312 7.8804 0 14.817-3.9799 18.906-10.062 3.0801 3.0708 7.3382 4.9688 12.031 4.9688 7.1155 0 13.204-4.3648 15.75-10.562 2.6778 2.8366 6.4787 4.5938 10.688 4.5938 4.5111 0 8.5558-2.0182 11.25-5.2188 1.81 1.4405 3.9172 2.5124 6.2188 3.125l-1e-4 -32.906c-2.9969 0.79603-5.6749 2.3857-7.7812 4.5312-1.681-7.6372-8.4828-13.375-16.625-13.375-4.5811 0-8.7518 1.8074-11.812 4.75-2.7056-5.8244-8.5926-9.875-15.438-9.875-5.5415 0-10.453 2.6827-13.562 6.7812-1.0436-0.23526-2.1353-0.375-3.25-0.375-0.38677 0-0.77701 0.0332-1.1562 0.0625-2.7943-5.5847-8.5491-9.4375-15.219-9.4375z" fill="#4e8a06"/>
  <path d="m339.86 158.77s14 50 1.5 54.5 17-4 30.5 2.5c0 0-28-50-20-57s-11 0-12 0z" fill="#c17d11"/>
  <path d="m479.86 170.27c-2.6931-0.76947-24.317 26.445-1 54.5-12.98-3.6192-13-12-26.5-5.5 6.2783-12.054 8.1688-20.42 7.9863-26.663-0.36262-12.402-8.9061-16.425-7.4863-24.337 1.2888-7.1819 1.1575 7.6112 9.5512 9.2355 7.1012 1.3742 9.4905-8.7355 17.449-7.2355z" fill="#c17d11"/>
  <path d="m548.86 162.77c-2.6931-0.76947-24.317 26.445-1 54.5-12.98-3.6192-13-12-26.5-5.5 6.2783-12.054 8.1688-20.42 7.9863-26.663-0.3626-12.402-21.245-18.032-13.236-17.337 6.5388 0.56814 7.1575 5.6112 15.551 7.2355 7.1012 1.3742 9.2405-13.736 17.199-12.236z" fill="#c17d11"/>
  <path d="m505.55 129.34c-7.6152 0-13.781 6.166-13.781 13.781 0 1.2019 0.17981 2.3573 0.46875 3.4688-4.2778 2.341-7.1875 6.8734-7.1875 12.094 0 6.5835 4.6106 12.066 10.781 13.438 1.5957 5.3157 6.5397 9.1875 12.375 9.1875 7.127 0 12.906-5.7792 12.906-12.906 0-1.3809-0.2235-2.7235-0.625-3.9688 2.5499-2.3575 4.1563-5.7222 4.1563-9.4688 0-4.3164-2.1203-8.126-5.375-10.469 0.045-0.45097 0.062-0.91217 0.062-1.375 0-7.6152-6.1661-13.781-13.781-13.781z" fill="url(#d)"/>
 </g>
</svg>
