<?xml version="1.0" encoding="UTF-8"?>
<svg viewBox="0 0 750 875" xmlns="http://www.w3.org/2000/svg">
 <g transform="translate(-28.75 41.124)" fill-rule="evenodd" stroke-linejoin="round" stroke-width="37.5">
  <path d="m314.69 774.41c2.5506-73.663-43.23-144.98-62.127-176.17-35.678-58.903-94.85-119.21-137.5-175-9.596-12.552-14.786-49.151 3.75-68.75 18.609-19.676 47.526-18.971 65-8.75 48.776 28.529 65.847 50.928 100 97.5 11.681 15.928 34.944 62.726 35 98.75v-408.75c0-36.529 34.401-62.204 70-60s64.769 33.138 65 61.25l2.5 303.75c-1.0996-71.732 6.286-115.57 39.268-115.67 32.967-0.10109 46.789 48.063 48.232 118.17-1.4432-73.023 9.456-93.69 43.964-94.268s44.016 46.857 44.786 139.27c0.06335-72.828 17.524-104.23 33.75-105s56.873 32.177 57.134 106.61l0.3661 104.64c0.112 32.014-46.568 56.55-46.844 88.598l-0.80806 93.977" fill="#808080" stroke="#808080"/>
  <path d="m279.63 714.79c2.5506-73.663-43.23-144.98-62.127-176.17-35.678-58.903-94.85-119.21-137.5-175-9.596-12.552-14.786-49.151 3.75-68.75 18.609-19.676 47.526-18.971 65-8.75 48.776 28.529 65.847 50.928 100 97.5 11.681 15.928 34.944 62.726 35 98.75v-408.75c0-36.529 34.401-62.204 70-60s64.769 33.138 65 61.25l2.5 303.75c-1.0996-71.732 6.286-115.57 39.268-115.67 32.967-0.10109 46.789 48.063 48.232 118.17-1.4432-73.023 9.456-93.69 43.964-94.268s44.016 46.857 44.786 139.27c0.06335-72.828 17.524-104.23 33.75-105s56.873 32.177 57.134 106.61l0.36612 104.64c0.11201 32.014-46.568 56.55-46.844 88.598l-0.80806 93.977" fill="#fff" stroke="#000"/>
 </g>
</svg>
