<?xml version="1.0" encoding="UTF-8" standalone="no"?>
<svg
   xmlns:dc="http://purl.org/dc/elements/1.1/"
   xmlns:cc="http://creativecommons.org/ns#"
   xmlns:rdf="http://www.w3.org/1999/02/22-rdf-syntax-ns#"
   xmlns:svg="http://www.w3.org/2000/svg"
   xmlns="http://www.w3.org/2000/svg"
   xmlns:sodipodi="http://sodipodi.sourceforge.net/DTD/sodipodi-0.dtd"
   xmlns:inkscape="http://www.inkscape.org/namespaces/inkscape"
   viewBox="0 0 2000 2000"
   id="svg2"
   version="1.1"
   inkscape:version="0.91 r13725"
   sodipodi:docname="upgrade_final2_.svg">
  <metadata
     id="metadata69">
    <rdf:RDF>
      <cc:Work
         rdf:about="">
        <dc:format>image/svg+xml</dc:format>
        <dc:type
           rdf:resource="http://purl.org/dc/dcmitype/StillImage" />
        <dc:title></dc:title>
      </cc:Work>
    </rdf:RDF>
  </metadata>
  <sodipodi:namedview
     pagecolor="#ffffff"
     bordercolor="#666666"
     borderopacity="1"
     objecttolerance="10"
     gridtolerance="10"
     guidetolerance="10"
     inkscape:pageopacity="0"
     inkscape:pageshadow="2"
     inkscape:window-width="640"
     inkscape:window-height="480"
     id="namedview67"
     showgrid="false"
     inkscape:zoom="0.118"
     inkscape:cx="851.69492"
     inkscape:cy="1000"
     inkscape:window-x="0"
     inkscape:window-y="0"
     inkscape:window-maximized="0"
     inkscape:current-layer="svg2" />
  <defs
     id="defs4">
    <linearGradient
       id="l"
       x1=".39165"
       x2=".39529"
       y1=".37168"
       y2="1.0241">
      <stop
         stop-color="#fc0"
         offset="0"
         id="stop7" />
      <stop
         stop-color="#f60"
         offset="1"
         id="stop9" />
    </linearGradient>
    <linearGradient
       id="i"
       x1=".53113"
       x2=".53889"
       y1=".89465"
       y2=".20435">
      <stop
         stop-color="#5c4141"
         offset="0"
         id="stop12" />
      <stop
         stop-color="#c83737"
         offset="1"
         id="stop14" />
    </linearGradient>
    <linearGradient
       id="k"
       x1=".44478"
       x2=".44478"
       y1=".294"
       y2="1.1577">
      <stop
         stop-color="#d77c28"
         offset="0"
         id="stop17" />
      <stop
         stop-color="#6a2f2f"
         stop-opacity="0"
         offset="1"
         id="stop19" />
    </linearGradient>
    <linearGradient
       id="j"
       x1=".51404"
       x2=".51628"
       y1=".92118"
       y2=".029183">
      <stop
         stop-color="#3b3b3b"
         offset="0"
         id="stop22" />
      <stop
         stop-color="#c83737"
         offset="1"
         id="stop24" />
    </linearGradient>
    <linearGradient
       id="h"
       x1=".54274"
       x2=".50918"
       y1="-.005214"
       y2=".83286">
      <stop
         stop-color="#f60"
         offset="0"
         id="stop27" />
      <stop
         stop-color="#a02c2c"
         offset=".36155"
         id="stop29" />
      <stop
         stop-color="#4f3131"
         offset="1"
         id="stop31" />
    </linearGradient>
    <radialGradient
       id="n"
       cx="407.59"
       cy="118.78"
       r="184.12"
       gradientTransform="matrix(-1.3195 .12421 -.070393 -.74774 928.1 215.23)"
       gradientUnits="userSpaceOnUse">
      <stop
         stop-color="#ffe680"
         offset="0"
         id="stop34" />
      <stop
         stop-color="#fc0"
         stop-opacity=".766"
         offset=".58698"
         id="stop36" />
      <stop
         stop-color="#ff7f2a"
         stop-opacity="0"
         offset="1"
         id="stop38" />
    </radialGradient>
    <radialGradient
       id="m"
       cx="352.12"
       cy="385.37"
       r="209.45"
       gradientTransform="matrix(-1.3508 .27624 -.19096 -.93387 949.9 496.65)"
       gradientUnits="userSpaceOnUse">
      <stop
         stop-color="#ff7f2a"
         offset="0"
         id="stop41" />
      <stop
         stop-color="#c83737"
         stop-opacity="0"
         offset="1"
         id="stop43" />
    </radialGradient>
  </defs>
  <g
     stroke-width="1.2"
     id="g45">
    <path
       d="m1063.6 9.3847c-50.024 5.1677-96.959 21.955-148.16 21.044-23.512-0.23681-49.463 10.193-68.937-4.2542-44.639-18.169-93.468-0.14761-133.63 16.902-58.124-0.064484-118.86-2.3216-172.6 19.607-35.754 10.107-72.704 15.065-108.42 24.114-33.193 11.494-55.472 37.317-90.75 44.96-66.923 29.898-126.83 71.369-174.76 120.34-37.398 39.191-92.377 69.827-111.18 119.99-20.31 41.449-27.721 89.702-7.0809 132.19-11.385 30.13-44.063 65.219-16.046 96.344 11.745 14.762 38.722 26.301 27.374 47.215-19.84 39.31-30.141 83.778-12.81 125.19 6.7875 35.193 48.132 57.978 89.534 54.682 26.049-4.493 24.119 25.255 33.175 38.168 7.6807 26.856 34.251 46.76 66.706 51.275 21.25 5.2175 43.666 8.2644 64.902 12.162 28.529 36.92 86.66 47.312 135.11 35.835 17.896-3.8221 34.418 8.6612 53.128 7.0999 16.324-2.5422 25.291 6.5949 37.217 13.745 40.234 20.838 96.066 16.453 130.94-9.1263 32.816 15.253 70.987-0.19849 96.143-19.158 17.454 10.828 39.729 3.7356 57.04 0.5661 9.8167 9.5157 2.3386 30.873 5.6744 44.727 1.9935 58.162 6.9299 116.5-3.9221 174.21-5.4977 11.787 3.7368 38.524-9.1699 42.819-21.109-2.0376-40.872 9.2884-60.004 11.946-49.338-13.947-99.514-47.196-153.86-28.735-22.157 0.96643-48.22-0.68127-63.918 15.888-6.1746 11.318-17.126 11.376-30.339 11.268-22.365-0.78626-33.252 19.547-55.287 17.016-43.908 3.8978-80.544 53.092-44.903 82.71 16.177 11.247 38.449 10.006 55.826 19.832 22.103 7.6658 46.759-0.46179 65.533-7.6625 24.112 14.308 58.564 8.5206 81.986 1.8031 28.686 24.336 75.621 24.894 107.61 4.7306 18.097 10.363 42.844 7.0674 61.351 6.1985 8.3711 8.0013 30.848 6.22 21.713 21.296-21.269 107.23-42.745 214.58-63.646 321.93-11.18 2.3147-21.217 8.5923-26.835-3.4906-30.369-29.215-78.736-57.203-126.22-43.27-17.437-15.141-46.546-12.307-66.076-4.9579-29.877-58.324-133.96-84.776-189.86-36.397-18.204 13.803-29.105 34.118-35.06 52.847-33.952-2.571-68.821 20.398-76.862 47.665-52.12 5.6248-101.64 43.277-94.122 89.806 1.8675 19.966 16.88 38.434 38.835 46.652 3.7908 11.434 2.5039 19.821-6.3373 29.409-20.527 34.421 17.144 76.396 62.028 72.455 16.308 1.2799 34.039-9.8263 44.499 5.0698 34.869 21.736 81.375 15.559 120.42 6.6489 23.346 14.499 55.216 13.663 81.446 10.028 25.012 9.9662 54.596 4.63 77.94-3.6058 26.404 6.8903 55.565 2.2787 79.155-7.4393 29.618 12.588 62.797 3.5632 92.773-0.11133 58.404 18.74 120.56 6.6056 180.83 5.297 69.01 11.618 143.72 26.409 212.52 5.632 11.4-4.889 21.714-12.562 31.69-1.8025 28.436 14.932 60.782-3.4871 91.155 4.9576 44.915 4.1937 99.716 1.7958 128.51-31.662 12.514 11.676 33.023 12.786 48.95 14.986 33.006 26.427 89.136 25.804 127.56 8.2284 17.001 2.2212 36.734 6.4437 53.398 13.634 44.915 9.512 101.53 15.757 139.03-12.281 13.075-7.6482 7.9401-26.871 26.969-26.708 51.78-18.242 89.382-64.242 80.773-112.12-3.7364-26.063-16.405-56.651-46.792-67.386 4.4702-55.598-49.606-114.09-117.99-115.61-15.292-30.065-61.834-42.747-97.356-32.117-40.734-36.178-111.32-21.365-152.51 6.5374-13.083 5.7658-19.241 23.514-32.635 24.339-22.36-3.0974-44.522 7.5436-56.634 22.309-15.858-2.9929-29.882 9.7643-41.26 12.17-21.821-12.804-50.559-11.103-75.513-7.2116-9.9847-101.33-22.058-201.85-22.386-303.45 19.331-2.1205 34.973-13.374 48.41-23.55 23.836 0.8291 41.476 19.082 65.938 20.394 26.943 6.3534 52.786-5.308 77.131-12.282 47.53 5.7476 106.82 15.498 144.69-15.664 27.107-23.023 15.133-68.522-25.351-73.808-2.8608-19.244-25.7-29.738-43.422-35.719-10.123-21.181-38.551-28.912-63.375-29.636-32.733-18.66-79.922-23.229-110.03 1.6912-12.19 8.809-21.618 20.088-39.241 15.213-15.435 0.14429-29.592 5.1886-41.127-5.7476-15.879-2.3691-20.133-9.4874-16.569-22.76 7.0336-74.363-0.59546-156.13 4.1638-225.7 29.735 18.181 72.726 25.475 105.58 8.5642 18.593 10.035 43.116 6.4543 61.222-2.8162 57.592 13.14 125.11 33.04 181.64 6.9842 16.518-8.4086 28.414-21.866 36.138-36.509 36.329 23.481 96.355 34.5 129.72 1.3522 10.456-10.021 16.786-22.695 19.284-35.719 60.238-3.6312 132.67-25.508 147.66-80.569 6.0502-22.129 2.6628-45.112-3.3742-66.931 45.39-15.375 93.541-49.454 84.821-94.88-1.3547-20.643-19.448-38.622-27.78-55.44 9.5493-10.432-2.8737-27.967 17.799-30.087 47.224-18.656 65.912-68.568 46.658-108.06-20.44-50.41-67.647-90.268-115.29-122.82-30.511-66.191-91.699-120.85-160.74-160.8-15.525-6.5112-29.938-12.678-36.95-26.931-35.31-43.574-98.232-69.878-161.4-64.799-24.483-0.014244-50.369 6.764-71.336-7.5428-39.552-17.278-82.387-33.3-128.24-27.833-51.236-0.25085-103.46-6.9697-151.83-20.846-28.876-10.147-57.675-26.537-90.348-24.677z"
       id="path47" />
    <path
       d="m845.53 839.03s14.274 278.25 9.5145 294.14c-4.7551 15.902-20.919 206.38-28.54 242.47-14.27 67.573-85.623 433.27-85.623 433.27l437.62-3.9738s-33.295-321.97-33.295-345.82c0-23.849-9.5145-266.32-4.7593-286.2 4.7593-19.875 0-329.92 0-329.92l-294.92-3.9738z"
       fill="url(#h)"
       id="path49" />
    <path
       d="m832.95 1297.6c-0.34936 1.6516-2.9686 70.862-7.97 85.516 17.217-2.4884 26.4-17.265 53.218-7.7743 17.95 6.3498 31.176-1.8607 60.453 2.8162 37.316 5.9602 20.276 7.4568 67.918-2.3187 41.696-8.5565 60.678 3.9342 83.268-9.7682 32.013-10.038 50.943-3.2236 53.377 22.565-1.5228-49.151-5.9631-67.966-6.5068-114.3l-303.76 23.261z"
       fill="#501616"
       id="path51" />
    <path
       d="m827.69 1257.4c-21.769-8.5853-32.108-10.929-70.162 4.9691-13.157 5.4984-39.245-5.9608-51.137-8.943-11.892-2.9821-65.403-32.791-98.702-22.857-33.299 9.9377-34.831-0.198-49.946 5.9644-12.85 5.2393-17.838 25.836-30.917 24.844-13.083-0.99475-36.868-2.9817-40.432 4.969-3.5686 7.9506-16.751 9.5845-36.867 10.929-29.73 1.9904-44 31.8-21.405 32.795 25.051 1.1 36.865 24.844 71.351 2.9821 11.564-7.334 24.971-19.875 27.353-12.92 2.3778 6.9553 4.1297 18.458 20.216 19.875 45.187 3.9739 33.295-18.88 46.378-18.88 13.079 0 26.037 27.624 57.079 31.796 20.065 2.6974 44-17.885 57.084-17.885 13.079 0 10.097 10.183 34.486 10.929 22.632 0.69604 13.079-14.907 23.784-13.911 10.701 0.99512 18.015 31.904 66.594 25.836 28.47-3.5552 27.353-26.831 49.946-25.836 22.593 0.99512 28.54-0.99536 54.702 7.9507 26.162 8.9426 83.246 5.9606 91.569 1.9869 8.3238-3.9735 40.432-6.9557 40.432-6.9557s3.5687 11.924 21.407 10.929c17.834-0.99146 32.108-17.885 40.432-15.898 8.3236 1.9869 21.403 29.813 42.81 26.831 21.407-2.9822 29.731-23.849 44-23.849 14.27 0 29.731 0 41.623 5.9607 11.892 5.964 36.863 17.888 57.079 15.901 20.216-1.9905 36.863-14.906 54.701-13.915 17.838 0.99524 61.839 11.924 103.46 1.9905 20.868-4.9833 26.594-28.959 5.9463-30.808-33.299-2.9821-40.432 8.9459-40.432 8.9459s36.863-43.728-8.3234-42.732c-21.697 0.47583-21.407 2.9817-21.407 2.9817s21.407-34.782-29.731-32.795c-13.066 0.50891-45.187-26.83-72.54-12.916-27.352 13.911-49.752 41.705-51.137 35.774-2.4857-10.659-52.216-8.2213-61.835 2.9817-2.861 3.3286-10.507-27.523-36.868-19.875-39.444 11.445-35.672 30.804-42.809 30.804-7.1368 0-4.9318-17.124-28.539-10.929-28.194 7.3921-35.677 24.844-49.946 24.844-14.27 0-40.432-15.902-51.138-22.857-10.701-6.9556-64.216-19.875-104.65 0.9917-40.432 20.87-41.278 4.8282-53.511 0z"
       fill="#924848"
       id="path53" />
    <path
       d="m684.07 1733c3.1586-8.9674-87.03-92.547-116.04-33.729-6.343 12.862-8.4099-26.701-28.591-28.108-20.182-1.4059-42.041 22.486-42.041 22.486l-15.137-7.0277s-3.3658-50.593-65.59-67.458c-62.225-16.864-95.513 27.112-99.224 51.999-2.6092 17.499-5.0456 42.16-5.0456 42.16s-29.527-27.152-47.09-18.267c-63.907 32.322 13.454 43.565 13.454 43.565s-81.88-8.8523-117.72 22.486c-18.737 16.381-18.499 43.566-5.0452 53.402 13.454 9.8366 42.044 14.055 42.044 14.055-21.125 18.22-12.278 28.089 6.7267 35.131 0 0-43.726 22.486-26.908 44.972s77.361-1.4062 77.361-1.4062 4.0303 33.451 58.862 30.919c32.853-1.5176 95.86-19.676 95.86-19.676s-34.062 15.148-10.09 21.083c45.407 11.239 55.499-12.649 55.499-12.649s-5.0013 15.516 21.864 18.271c28.898 2.9602 38.68-12.649 38.68-12.649s29.825 8.1348 47.09 7.0272c21.86-1.4065 43.724-16.864 43.724-16.864s18.499 15.458 45.407 12.646c19.461-2.03 48.773-8.4307 48.773-8.4307s40.363 14.052 84.087 12.649c43.728-1.4065 90.819-9.8404 119.4-2.8127 28.592 7.0282 124.45 22.486 174.91 5.622 12.194-4.0747 35.318-18.271 45.407-14.052 10.093 4.2154 16.82 19.674 37.002 15.458 20.177-4.2154 36.997-2.8126 36.997-2.8126 60.493 6.9845 111.18 5.7802 122.77-28.107l40.363-2.8091c17.942 25.461 35.88 9.5555 53.817 14.052 0 0-3.3613 22.486 48.773 22.486s52.134-25.295 52.134-25.295 20.182 18.271 38.68 18.271 16.82 9.8367 52.134 14.052c35.319 4.2148 80.726 4.2148 85.77-16.865 5.0486-21.079 8.4104-25.294 8.4104-25.294s22.568 14.661 67.271-26.701c18.309-16.944 26.593-55.663 3.3652-88.541-10.899-15.422-53.817-7.0239-53.817-7.0239s25.225-16.865 20.181-43.566c-9.4023-49.764-58.866-74.486-87.452-68.864-28.592 5.6215-28.592 11.243-28.592 11.243s20.531-40.919-28.592-47.78c-45.247-6.3213-36.997 35.131-36.997 35.131s-10.222-57.581-62.227-53.402c-85.718 6.8867-99.224 68.86-99.224 68.86s-8.4056-18.267-30.27-16.864c-21.864 1.4062-25.226 35.135-25.226 35.135s-10.093-11.243-23.547-12.649c-13.454-1.4027-42.042 37.947-42.042 37.947s-5.1046-33.134-30.274-35.135c-70.633-5.6215-65.588 33.729-73.998 37.944-8.4056 4.215-13.455-23.892-60.544-5.622-17.39 6.7468-42.042 42.159-53.817 43.566-11.771 1.4064-5.5449-16.799-28.587-21.08-75.681-14.052-89.135 12.649-104.27 7.0277-15.133-5.622-16.747-48.78-47.086-50.593-63.768-3.8113-67.272 35.135-67.272 35.135s-3.3657-16.864-15.137-15.462c-11.771 1.4059-20.182 15.462-26.908 15.462-6.7272 0 0-12.649-20.182-16.864-20.181-4.2191-35.318 8.4305-43.724 12.646-8.4102 4.2188-18.503-8.4307-18.503-8.4307z"
       fill="url(#j)"
       id="path55" />
    <path
       d="m387.06 150.56c-67.271 11.243-185 106.81-191.72 120.86-6.7269 14.053-81.35 60.436-100.91 101.19-18.405 38.352-33.636 78.701-10.091 123.67 8.2002 15.664-26.908 59.024-26.908 75.888 0 16.865 37.624 30.181 40.363 56.215 5.0234 47.745-43.726 64.645-13.454 143.35 15.677 40.757 66.865 14.604 90.815 33.729 23.563 18.815 26.908 61.836 43.726 73.079s104.27 22.486 104.27 22.486 16.818 30.916 53.817 36.538c36.999 5.6215 73.998-11.243 84.089-2.8091 10.089 8.4306 67.272 8.4306 67.272 8.4306s6.7269 22.486 53.817 25.298c47.09 2.8091 70.633-36.542 70.633-36.542 18.127 19.356 35.698 39.653 97.541-14.052 16.406 6.7501 29.144 31.89 53.817-2.8125 13.1 36.062 118.41 3.2921 94.18-44.972 47.224 71.925 177.05 25.436 184.99 8.434 7.8879 37.655 43.984 34.057 87.453 19.673-3.2665 25.818 88.277 86.071 121.09 16.865 13.437 9.0109-2.8218 47.802 50.451 16.864 154.88 42.83 177.72 16.695 191.72-14.052l13.454-33.729c118.45 95.356 145.04 7.5001 124.45-11.243 212.43-3.2274 147.55-101.36 144.63-137.72 90.02-28.006 125.95-62.172 47.09-132.11 25.912-10.691 30.006-23.986-6.7269-42.159 188.14-20.225 45.304-163.91-23.547-196.75-13.455-59.025-117.72-148.97-171.54-165.83-17.817-5.583-23.543-44.972-90.814-70.268-37.062-13.936-107.63-2.8107-121.09-5.6215-13.454-2.8102-77.36-33.728-104.27-36.539-26.909-2.8107-43.728 2.8106-94.18-2.8107-50.456-5.6213-90.814-14.054-100.91-16.864-10.089-2.8106-47.09-19.675-70.633-25.296-23.547-5.6213-77.364 14.054-117.73 16.864-40.358 2.8108-114.36 8.4322-114.36 8.4322s-10.093-16.864-43.729-16.864-57.178 16.864-77.36 22.486c-20.182 5.6214-43.729 0-94.18 2.8107-50.451 2.8106-63.906 14.053-90.814 19.675-26.909 5.6215-53.817 14.054-80.726 16.864-26.909 2.8107-73.998 39.35-73.998 39.35z"
       fill="url(#i)"
       id="path57" />
    <path
       d="m148.25 330.45s-70.635 53.404-53.817 87.132c16.817 33.729 63.907 50.593 63.907 50.593s-53.817 25.295-53.817 61.836c0 36.538 50.453 39.35 50.453 39.35l36.999 19.673s-63.907 39.35-26.909 73.079c36.999 33.729 77.362 64.645 127.82 30.916-0.008728 95.45 48.693 86.23 111 47.784 77.418 65.983 139.78 42.242 151.36-16.864 16.104 90.967 110.12 69.978 97.542 16.864 37.364 25.529 72.462 32.128 100.91-16.864-3.3525 88.368 88.191 53.377 161.45 42.159 96.605 52.847 130.72 21.721 144.63-36.538 16.255 34.904 33.092 62.489 67.272 44.972 10.089 22.486 57.178 22.486 50.452-22.486 51.314 98.306 169.3 47.698 174.9-2.8125l23.543-25.295c73.584 41.762 117.11-4.558 137.9-47.785 8.7856 88.498 108.07 75.437 127.82 28.108 50.24 11.063 81.684 6.4219 60.544-42.159 0 0 70.633 42.159 111 25.295 40.363-16.864-13.455-112.43-13.455-112.43s3.366-14.056 16.821-22.486c13.454-8.434 73.998-8.434 80.726-19.677 6.7269-11.243-3.366-101.19-20.181-115.24-16.82-14.056-57.183-42.159-57.183-42.159l-13.454-25.298s-33.635-67.457-60.544-81.511-97.541-53.404-97.541-53.404-70.633-53.403-94.18-64.646c-23.543-11.243-70.633-14.054-70.633-14.054s-52.048-3.459-77.36-8.4322c-33.48-6.5768-53.817-33.728-97.546-28.107-43.724 5.6214-50.888-7.1097-77.36-11.243-46.887-7.3206-127.82-25.296-134.54-33.728-6.7272-8.4322-43.724-5.6215-94.18 5.6216-50.451 11.242-151.36 16.864-151.36 16.864s6.7274-16.864-43.724-14.053c-50.456 2.8106-73.998 25.296-73.998 25.296s-114.36-5.6214-144.63 0c-30.274 5.6216-144.63 53.404-144.63 53.404s-97.543 39.35-121.09 47.782c-23.545 8.4322-53.817 39.35-73.998 53.404-20.181 14.053-30.272 50.593-47.09 64.646-16.817 14.054-53.816 22.486-53.816 22.486z"
       fill="url(#m)"
       id="path59" />
    <path
       d="m1320.9 1216.2c-18.382 0.84387-36.06 23.12-43.418 25.58-8.4103 2.8091-14.702 22.872-30.205 9.9161-11.776-9.8404-42.137 0.69934-54.75 11.942 0 0-4.0903-24.624-24.272-26.03-20.181-1.4028-37.083 14.088-37.083 14.088s-5.8124 18.93-12.539 18.93c-6.7273 0-8.3972-15.487-25.217-11.268-16.816 4.2148-30.296 3.5552-42.072 19.717 0 0-22.024 4.3594-33.709 2.1421-12.902-2.4487-21.804-12.011-33.575-16.226-11.776-4.2154-24.924-15.436-42.072-15.436-29.433 0-41.174 5.6468-61.355 11.268-20.181 5.6213-37.787 11.207-51.241 9.8041-13.454-1.4062-1.4025-13.064-26.969-15.44-30.274-2.8092-30.654 9.8112-49.623 9.8042-17.195-0.007324-32.208-1.3959-52.993-8.452-26.908-9.1339-49.593-25.291-64.726-23.888-15.137 1.4058-69.852 5.6359-69.852 5.6359-23.543 12.649-27.642 27.383-27.642 27.383s-32.781-6.2346-39.508 3.6057c-6.7271 9.8369 16.721 11.153 16.721 11.153l43.823-12.844c-18.382 38.888 31.841 24.411 48.678 14.084 16.246 21.628 63.155 14.571 63.918-8.452 6.0844 22.244 19.159 25.15 38.697 9.916 15.28 16.493 34.076 12.346 53.804 2.8197-3.9868 24.191 62.132 34.418 84.143 11.153 40.398 5.113 70.939 2.8558 84.01-11.153-0.10803 6.097 14.011 19.753 37.484 12.393 6.6968 10.028 62.322 6.9992 73.494 1.5795 33.778 8.834 78.525-6.9595 69.04-12.62 75.733 35.481 64.476 10.356 92.502 12.62l25.217-6.9883c24.441 20.063 71.496 24.304 75.647-12.62 10.753 25.215 26.421 27.93 47.06 8.3401 12.949 18.606 49.446 17.69 58.93 5.6324l26.831-9.8042s20.264-16.623 5.1261-18.029c-15.137-1.4028-40.454 1.3524-40.454 1.3524s11.837-25.306-1.618-29.521c-13.454-4.2156-28.604-6.3173-35.331-9.1263-6.7275-2.8127-27.448-8.7694-36.945-11.946-2.6282-0.87622-5.3294-1.1361-7.9572-1.0132zm-848.31 63.892c-0.45294 0.039429-0.95776 0.16174-1.4798 0.33533-8.4102 2.8127-18.477 5.6359-18.477 5.6359-20.179 8.4304-13.437 23.87 6.7443 15.437 18.921-7.9039 20.069-21.996 13.213-21.408z"
       fill="url(#l)"
       id="path61" />
    <path
       d="m402.1 1623.8c-49.553 0-60.591 12.321-71.603 49.129s-5.5284 52.173-5.5284 52.173l-31.149 21.408s-112-0.036011-110.17 18.368c1.8352 18.404-1.7147 24.628 18.474 30.761 20.188 6.1366 64.186-7.6624 64.186-7.6624s-27.515 21.447-18.339 30.649c9.1763 9.202 82.525-22.76 82.525-22.76-33.318 58.032 122.89 52.137 128.51 35.269 49.299 16.893 52.225-4.5544 38.568-21.408 22.637 24.783 69.727 32.936 76.993 16.789 19.547 33.455 61.994 24.664 102.89 18.48-1.8382 40.818 33.428 29.46 69.714 16.789 41.627 31.526 115 16.269 124.74-9.1265-6.2354 32.766 107.46 18.603 108.28 10.706 52.156 21.527 82.974 6.9015 113.81-7.6622-5.6567 21.35 40.022 25.198 73.494 7.6622 33.221 11.513 41.813 1.1682 38.43-19.947 26.779 34.901 65.312 13.825 71.604 1.5792 35.064 10.461 26.205-8.0122 29.394-18.48 10.412 37.522 62.775 16.572 64.186 6.1984 1.1174 6.0402 25.951 28.32 38.568-4.6226 3.9009 16.486 9.7261 30.545 38.563 15.325 67.254 17.849 80.825-0.90894 82.659-27.606 43.025 23.333 77.214 27.339 86.167-24.563 71.984 10.046 50.49-0.31055 25.756-20.171 22.421-2.6758-4.0519-18.642-5.5277-19.944 44.604 17.387 80.955-6.1912 77.131-29.863-2.4292-15.033-20.268-25.302-40.453-31.436-20.19-6.1373-51.379 4.5073-51.379 4.5073s11.004-34.519-23.866-43.721-34.926 33.015-34.926 33.015-34.719-47.024-71.466-47.554c-53.226-0.76477-89.101 37.598-92.773 59.835-13.17 2.333-18.248-16.068-29.26-14.535-11.012 1.5326-31.284 34.479-31.284 34.479s-2.7356-16.093-22.926-11.492c-20.186 4.6011-36.678 42.141-36.678 42.141s-23.171-40.728-45.847-42.141c-52.346-3.2633-42.223 42.188-56.903 43.721-14.684 1.5326-3.6978-24.57-38.568-16.904-34.87 7.6693-78.883 55.216-78.883 55.216s-13.178-24.487-36.811-27.606c-52.306-6.9019-102.75 7.6624-102.75 7.6624s-21.027-46.76-45.847-49.807c-47.409-5.82-66.072 37.522-66.072 37.522s-8.8285-13.208-16.587-13.746c-10.49-0.72473-25.623 15.325-25.623 15.325s-10.192-17.596-20.225-19.944c-16.764-3.9307-49.489 13.746-49.489 13.746s-42.693-43.75-75.241-58.256c-41.295-18.404-56.907 16.901-56.907 16.901s-12.514-24.062-25.756-26.142c-17.226-2.7045-45.847 21.523-45.847 21.523s-40.386-79.779-89.939-79.779zm-132.69 77.637c-5.2481 0.2522-10.003 2.3761-13.215 7.5505-7.7331 12.462 9.2148 12.213 20.227 13.749 11.011 1.5325 29.396-6.0864 29.396-6.0864s-20.665-15.966-36.408-15.213z"
       fill="url(#k)"
       id="path63" />
    <path
       d="m314.02 220.51c-51.26 11.682-74.741 32.291-62.4 64.413-87.905 27.293-35.591 43.969-33.036 64.413-8.5186 23.148-38.443 58.222 22.024 42.941-79.428 30.988 3.4764 13.915 7.5371 37.558-48.771 47.099-28.161 107.84 80.753 82.818-0.52374 44.691 18.13 25.284 36.706 6.1332-31.243 43.259 41.41 45.664 88.093 58.281 30.425 73.692 161.48 35.719 187.2 9.202 59.077 16.197 40.786-14.957 47.716-30.675 50.227 55.797 139.13 24.469 135.81-33.74 37.428-5.6898 83.668-3.5264 47.72-33.74 77.947 29.817 104.64 22.118 91.017-13.457 21.648 35.604 49.321 41.02 80.752 27.606 7.1113 18.228 3.8838 40.659 95.436 24.538-30.593 34.822 6.3433 16.818 47.716 21.473 39.884 93.366 54.404 16.165 78.007 8.1492 17.7 2.4304 43.06 12.332 33.036-12.271 53.006 36.43 105.77 89.23 131.88 18.779 87.255 17.153 92.204-2.2535 69.74-46.01 114.79 9.4799 140.43-41.344 114.94-77.583 34.991 24.505 66.546 27.516 91.768-9.202 67.306 10.381 69.55-23.081 44.048-52.144 25.29-24.104 26.693-34.249-1.2598-62.398-11.392-47.892-50.089-63.194-95.435-70.548-39.06-65.671-48.1-43.548-69.744-58.279-33.657-12.231-45.636-53.308-110.12-24.538-7.9183-10.491-7.2627-22.04-55.06-27.606-86.171-20.448-111.92-13.709-135.81-6.1346-2.3213-18.137-15.664-27.341-51.388-18.404-51.288-37.363-198.61-40.483-176.19-33.74-67.56-25.377-84.553 0.88829-110.12 18.404-18.145-24.963-97.951-27.936-77.084 3.067-79.517-50.292-126.76 6.1698-106.45 27.606-27.426-47.231-98.965-38.692-106.45-9.2016-21.092-29.702-56.449-28.987-62.4 9.2016-10.705-17.997-85.52-15.575-58.732 30.673-24.164-37.569-58.063-18.199-91.764 0-47.691-0.3335-51.04 11.685-40.376 27.606-66.468-6.3337-95.854 19.114-88.094 36.808z"
       fill="url(#n)"
       id="path65" />
  </g>
</svg>
